<svg xmlns="http://www.w3.org/2000/svg" xmlns:xlink="http://www.w3.org/1999/xlink" width="1080" zoomAndPan="magnify" viewBox="0 0 810 809.999993" height="1080" preserveAspectRatio="xMidYMid meet" version="1.0"><defs><g/><clipPath id="c3e8e98316"><path d="M 0.238281 82 L 502.078125 82 L 502.078125 121.199219 L 0.238281 121.199219 Z M 0.238281 82 " clip-rule="nonzero"/></clipPath><clipPath id="3b54e27a58"><rect x="0" width="503" y="0" height="40"/></clipPath><clipPath id="6a35f80713"><path d="M 96 0.480469 L 406 0.480469 L 406 40 L 96 40 Z M 96 0.480469 " clip-rule="nonzero"/></clipPath><clipPath id="fc90320ce2"><rect x="0" width="310" y="0" height="40"/></clipPath><clipPath id="08d43c48af"><rect x="0" width="503" y="0" height="122"/></clipPath></defs><g transform="matrix(1, 0, 0, 1, 156, 342)"><g clip-path="url(#08d43c48af)"><g clip-path="url(#c3e8e98316)"><g transform="matrix(1, 0, 0, 1, 0, 82)"><g clip-path="url(#3b54e27a58)"><g fill="#826e52" fill-opacity="1"><g transform="translate(1.640343, 32.689026)"><g><path d="M 35.578125 -2.421875 C 34.890625 1.203125 33.800781 2.988281 32.3125 2.9375 C 30.425781 2.863281 28.96875 1.179688 27.9375 -2.109375 C 26.914062 -0.679688 25.773438 0.664062 24.515625 1.9375 C 23.890625 2.476562 23.257812 2.5 22.625 2 C 22.144531 1.632812 21.910156 1.289062 21.921875 0.96875 C 21.941406 0.644531 22.175781 0.285156 22.625 -0.109375 C 24.175781 -1.597656 25.660156 -3.519531 27.078125 -5.875 C 26.429688 -9.382812 25.984375 -14.570312 25.734375 -21.4375 L 18.984375 -21.4375 C 18.390625 -21.4375 18.09375 -21.132812 18.09375 -20.53125 L 18.09375 -16.859375 L 23.546875 -16.859375 C 23.890625 -16.859375 24.160156 -16.757812 24.359375 -16.5625 C 24.554688 -16.363281 24.65625 -16.09375 24.65625 -15.75 L 24.65625 -15.640625 C 24.582031 -11.523438 24.484375 -8.726562 24.359375 -7.25 C 24.234375 -5.488281 24.015625 -4.382812 23.703125 -3.9375 C 23.253906 -3.320312 22.617188 -2.953125 21.796875 -2.828125 C 21.523438 -2.796875 21.082031 -2.757812 20.46875 -2.71875 C 19.300781 -2.71875 18.609375 -3.148438 18.390625 -4.015625 C 18.210938 -4.679688 18.285156 -5.160156 18.609375 -5.453125 C 18.898438 -5.703125 19.429688 -5.800781 20.203125 -5.75 C 20.253906 -5.75 20.289062 -5.75 20.3125 -5.75 C 20.707031 -5.75 20.992188 -5.875 21.171875 -6.125 C 21.421875 -6.5 21.59375 -8.554688 21.6875 -12.296875 C 21.71875 -12.960938 21.65625 -13.421875 21.5 -13.671875 C 21.375 -13.890625 21.148438 -14 20.828125 -14 L 18.09375 -14 C 18.039062 -7.5625 17.234375 -2.472656 15.671875 1.265625 C 15.421875 1.804688 14.9375 2.015625 14.21875 1.890625 C 13.601562 1.796875 13 1.5 12.40625 1 C 12.351562 0.945312 12.34375 0.910156 12.375 0.890625 L 12.40625 0.8125 L 5.5 0.8125 C 4.78125 0.8125 4.195312 0.585938 3.75 0.140625 C 3.300781 -0.296875 3.078125 -0.875 3.078125 -1.59375 L 3.078125 -7.609375 C 3.078125 -8.328125 3.300781 -8.910156 3.75 -9.359375 C 4.195312 -9.804688 4.78125 -10.03125 5.5 -10.03125 L 10.171875 -10.03125 C 10.890625 -10.03125 11.472656 -9.804688 11.921875 -9.359375 C 12.367188 -8.910156 12.59375 -8.328125 12.59375 -7.609375 L 12.59375 0.40625 C 14.175781 -2.957031 14.96875 -8.046875 14.96875 -14.859375 L 14.96875 -22.140625 C 14.96875 -22.859375 15.191406 -23.4375 15.640625 -23.875 C 16.085938 -24.320312 16.664062 -24.546875 17.375 -24.546875 L 25.625 -24.546875 C 25.570312 -26.722656 25.546875 -28.394531 25.546875 -29.5625 C 25.503906 -30.601562 26 -31.125 27.03125 -31.125 C 28.03125 -31.125 28.53125 -30.613281 28.53125 -29.59375 C 28.53125 -27.320312 28.550781 -25.640625 28.59375 -24.546875 L 33.65625 -24.546875 C 34.6875 -24.546875 35.203125 -24.023438 35.203125 -22.984375 C 35.203125 -21.953125 34.6875 -21.4375 33.65625 -21.4375 L 28.671875 -21.4375 C 28.816406 -17.019531 29.050781 -13.378906 29.375 -10.515625 C 30.238281 -12.617188 30.96875 -14.796875 31.5625 -17.046875 C 31.8125 -18.234375 32.46875 -18.59375 33.53125 -18.125 C 34.375 -17.800781 34.671875 -17.15625 34.421875 -16.1875 C 33.390625 -12.375 31.96875 -8.820312 30.15625 -5.53125 C 30.78125 -2.582031 31.523438 -1.070312 32.390625 -1 C 32.734375 -0.976562 33.03125 -1.648438 33.28125 -3.015625 C 33.375 -3.898438 33.554688 -4.578125 33.828125 -5.046875 C 34.179688 -5.597656 34.628906 -5.675781 35.171875 -5.28125 C 35.441406 -5.082031 35.601562 -4.644531 35.65625 -3.96875 C 35.675781 -3.445312 35.648438 -2.929688 35.578125 -2.421875 Z M 6.6875 -1.890625 L 9.8125 -1.890625 L 9.8125 -6.34375 C 9.8125 -6.945312 9.507812 -7.25 8.90625 -7.25 L 6.6875 -7.25 C 6.09375 -7.25 5.796875 -6.945312 5.796875 -6.34375 L 5.796875 -2.78125 C 5.796875 -2.1875 6.09375 -1.890625 6.6875 -1.890625 Z M 4.5 -12.328125 C 3.601562 -12.328125 3.15625 -12.785156 3.15625 -13.703125 C 3.15625 -14.597656 3.601562 -15.046875 4.5 -15.046875 L 11.296875 -15.046875 C 12.179688 -15.046875 12.625 -14.597656 12.625 -13.703125 C 12.625 -12.785156 12.179688 -12.328125 11.296875 -12.328125 Z M 4.5 -17.3125 C 3.601562 -17.3125 3.15625 -17.753906 3.15625 -18.640625 C 3.15625 -19.535156 3.601562 -19.984375 4.5 -19.984375 L 11.296875 -19.984375 C 12.179688 -19.984375 12.625 -19.535156 12.625 -18.640625 C 12.625 -17.753906 12.179688 -17.3125 11.296875 -17.3125 Z M 3.046875 -22.28125 C 2.128906 -22.28125 1.671875 -22.738281 1.671875 -23.65625 C 1.671875 -24.570312 2.128906 -25.03125 3.046875 -25.03125 L 12.1875 -25.03125 C 13.101562 -25.03125 13.5625 -24.570312 13.5625 -23.65625 C 13.5625 -22.738281 13.101562 -22.28125 12.1875 -22.28125 Z M 34.203125 -25.921875 C 33.410156 -25.398438 32.769531 -25.523438 32.28125 -26.296875 C 32.050781 -26.671875 31.789062 -27.039062 31.5 -27.40625 C 31.125 -27.875 30.800781 -28.257812 30.53125 -28.5625 C 29.8125 -29.300781 29.910156 -29.921875 30.828125 -30.421875 C 31.472656 -30.765625 32.03125 -30.691406 32.5 -30.203125 C 33.269531 -29.398438 34.007812 -28.53125 34.71875 -27.59375 C 34.945312 -27.21875 35.015625 -26.90625 34.921875 -26.65625 C 34.835938 -26.414062 34.597656 -26.171875 34.203125 -25.921875 Z M 4.71875 -27.21875 C 3.820312 -27.21875 3.375 -27.675781 3.375 -28.59375 C 3.375 -29.488281 3.820312 -29.9375 4.71875 -29.9375 L 11.21875 -29.9375 C 12.101562 -29.9375 12.546875 -29.488281 12.546875 -28.59375 C 12.546875 -27.675781 12.101562 -27.21875 11.21875 -27.21875 Z M 4.71875 -27.21875 "/></g></g></g><g fill="#826e52" fill-opacity="1"><g transform="translate(43.233206, 32.689026)"><g><path d="M 18.609375 2.484375 C 17.742188 2.804688 16.234375 2.941406 14.078125 2.890625 C 13.035156 2.890625 12.378906 2.570312 12.109375 1.9375 C 11.890625 1.382812 11.953125 0.972656 12.296875 0.703125 C 12.617188 0.453125 13.113281 0.34375 13.78125 0.375 C 15.113281 0.375 15.894531 0.359375 16.125 0.328125 C 16.414062 0.328125 16.609375 0.285156 16.703125 0.203125 C 16.804688 0.117188 16.859375 -0.0546875 16.859375 -0.328125 L 16.859375 -2.34375 L 3.375 -2.34375 C 2.582031 -2.34375 2.1875 -2.75 2.1875 -3.5625 C 2.1875 -4.351562 2.582031 -4.75 3.375 -4.75 L 16.859375 -4.75 L 16.859375 -6.46875 L 5.9375 -6.46875 C 5.175781 -6.46875 4.796875 -6.863281 4.796875 -7.65625 C 4.796875 -8.414062 5.175781 -8.796875 5.9375 -8.796875 L 16.859375 -8.796875 L 16.859375 -10.65625 C 13.640625 -10.488281 10.222656 -10.40625 6.609375 -10.40625 C 5.960938 -10.40625 5.554688 -10.703125 5.390625 -11.296875 C 5.140625 -12.109375 5.5 -12.515625 6.46875 -12.515625 C 15.75 -12.640625 23.078125 -13.0625 28.453125 -13.78125 C 28.867188 -13.832031 29.273438 -13.644531 29.671875 -13.21875 C 30.566406 -12.257812 30.429688 -11.703125 29.265625 -11.546875 C 27.335938 -11.328125 24.34375 -11.082031 20.28125 -10.8125 L 20.28125 -8.796875 L 31.53125 -8.796875 C 32.300781 -8.796875 32.6875 -8.414062 32.6875 -7.65625 C 32.6875 -6.863281 32.300781 -6.46875 31.53125 -6.46875 L 20.28125 -6.46875 L 20.28125 -4.75 L 33.796875 -4.75 C 34.585938 -4.75 34.984375 -4.351562 34.984375 -3.5625 C 34.984375 -2.75 34.585938 -2.34375 33.796875 -2.34375 L 20.28125 -2.34375 L 20.28125 -0.265625 C 20.28125 0.578125 20.15625 1.203125 19.90625 1.609375 C 19.65625 2.023438 19.222656 2.316406 18.609375 2.484375 Z M 33.0625 -13.078125 C 31.46875 -13.078125 30.398438 -13.851562 29.859375 -15.40625 C 29.390625 -16.769531 29.128906 -19.382812 29.078125 -23.25 C 29.078125 -23.96875 29.003906 -24.453125 28.859375 -24.703125 C 28.734375 -24.921875 28.507812 -25.03125 28.1875 -25.03125 L 26.296875 -25.03125 C 26.078125 -23.226562 25.816406 -21.78125 25.515625 -20.6875 C 26.085938 -20.3125 26.769531 -19.828125 27.5625 -19.234375 C 28.101562 -18.765625 28.125 -18.1875 27.625 -17.5 C 27.007812 -16.675781 26.359375 -16.578125 25.671875 -17.203125 C 25.441406 -17.398438 25.054688 -17.695312 24.515625 -18.09375 C 23.816406 -16.726562 22.863281 -15.578125 21.65625 -14.640625 C 20.957031 -14.210938 20.273438 -14.046875 19.609375 -14.140625 C 18.941406 -14.242188 18.382812 -14.59375 17.9375 -15.1875 C 17.914062 -15.21875 17.878906 -15.253906 17.828125 -15.296875 L 17.75 -15.375 L 12.40625 -15.375 L 12.40625 -14.703125 C 12.40625 -13.660156 11.882812 -13.140625 10.84375 -13.140625 C 9.800781 -13.140625 9.28125 -13.660156 9.28125 -14.703125 L 9.28125 -15.375 L 4.75 -15.375 C 4.03125 -15.375 3.671875 -15.734375 3.671875 -16.453125 C 3.671875 -17.171875 4.03125 -17.53125 4.75 -17.53125 L 9.28125 -17.53125 L 9.28125 -19.046875 L 3.828125 -19.046875 C 3.109375 -19.046875 2.75 -19.40625 2.75 -20.125 C 2.75 -20.84375 3.109375 -21.203125 3.828125 -21.203125 L 6.3125 -21.203125 C 6.1875 -21.597656 5.988281 -22.082031 5.71875 -22.65625 C 5.46875 -23.101562 5.59375 -23.390625 6.09375 -23.515625 L 6.203125 -23.546875 L 3.3125 -23.546875 C 2.59375 -23.546875 2.234375 -23.90625 2.234375 -24.625 C 2.234375 -25.34375 2.59375 -25.703125 3.3125 -25.703125 L 9.28125 -25.703125 L 9.28125 -27.15625 L 4.859375 -27.15625 C 4.140625 -27.15625 3.78125 -27.507812 3.78125 -28.21875 C 3.78125 -28.9375 4.140625 -29.296875 4.859375 -29.296875 L 9.28125 -29.296875 L 9.28125 -29.5625 C 9.28125 -30.601562 9.800781 -31.125 10.84375 -31.125 C 11.882812 -31.125 12.40625 -30.601562 12.40625 -29.5625 L 12.40625 -29.296875 L 16.671875 -29.296875 C 17.390625 -29.296875 17.75 -28.9375 17.75 -28.21875 C 17.75 -27.507812 17.390625 -27.15625 16.671875 -27.15625 L 12.40625 -27.15625 L 12.40625 -25.703125 L 18.234375 -25.703125 C 18.953125 -25.703125 19.3125 -25.34375 19.3125 -24.625 C 19.3125 -23.90625 18.953125 -23.546875 18.234375 -23.546875 L 15.859375 -23.546875 L 16.3125 -23.4375 C 16.425781 -23.382812 16.445312 -23.3125 16.375 -23.21875 C 15.976562 -22.445312 15.609375 -21.773438 15.265625 -21.203125 L 17.75 -21.203125 C 18.46875 -21.203125 18.828125 -20.84375 18.828125 -20.125 C 18.828125 -19.40625 18.46875 -19.046875 17.75 -19.046875 L 12.40625 -19.046875 L 12.40625 -17.53125 L 16.15625 -17.53125 C 16.726562 -17.53125 17.171875 -17.367188 17.484375 -17.046875 C 17.804688 -16.722656 17.96875 -16.273438 17.96875 -15.703125 L 17.96875 -15.59375 C 19.875 -16.5625 21.265625 -17.9375 22.140625 -19.71875 C 21.984375 -19.789062 21.769531 -19.914062 21.5 -20.09375 C 21.03125 -20.363281 20.671875 -20.5625 20.421875 -20.6875 C 19.609375 -21.132812 19.5 -21.726562 20.09375 -22.46875 C 20.539062 -23.039062 21.070312 -23.175781 21.6875 -22.875 C 21.832031 -22.800781 22.046875 -22.691406 22.328125 -22.546875 C 22.617188 -22.398438 22.835938 -22.285156 22.984375 -22.203125 C 23.179688 -23.078125 23.332031 -24.019531 23.4375 -25.03125 L 20.953125 -25.03125 C 20.054688 -25.03125 19.609375 -25.472656 19.609375 -26.359375 C 19.609375 -27.253906 20.054688 -27.703125 20.953125 -27.703125 L 23.625 -27.703125 C 23.675781 -28.546875 23.703125 -29.21875 23.703125 -29.71875 C 23.742188 -30.675781 24.222656 -31.15625 25.140625 -31.15625 C 26.128906 -31.15625 26.601562 -30.660156 26.5625 -29.671875 C 26.5625 -29.453125 26.550781 -29.125 26.53125 -28.6875 C 26.519531 -28.257812 26.503906 -27.929688 26.484375 -27.703125 L 29.640625 -27.703125 C 30.429688 -27.703125 31.015625 -27.394531 31.390625 -26.78125 C 31.828125 -26.0625 32.035156 -24.847656 32.015625 -23.140625 C 32.015625 -20.316406 32.085938 -18.421875 32.234375 -17.453125 C 32.410156 -16.316406 32.757812 -15.75 33.28125 -15.75 C 33.53125 -15.75 33.691406 -16.035156 33.765625 -16.609375 C 33.835938 -17.316406 33.984375 -17.832031 34.203125 -18.15625 C 34.472656 -18.53125 34.816406 -18.519531 35.234375 -18.125 C 35.660156 -17.726562 35.8125 -16.984375 35.6875 -15.890625 C 35.488281 -14.859375 35.195312 -14.128906 34.8125 -13.703125 C 34.4375 -13.285156 33.851562 -13.078125 33.0625 -13.078125 Z M 8.546875 -21.203125 L 13 -21.203125 L 12.671875 -21.28125 C 12.585938 -21.332031 12.5625 -21.367188 12.59375 -21.390625 C 12.738281 -21.660156 12.9375 -22.109375 13.1875 -22.734375 C 13.332031 -23.097656 13.441406 -23.367188 13.515625 -23.546875 L 8.0625 -23.546875 C 8.425781 -22.972656 8.722656 -22.367188 8.953125 -21.734375 C 9.023438 -21.484375 8.925781 -21.320312 8.65625 -21.25 Z M 8.546875 -21.203125 "/></g></g></g><g fill="#826e52" fill-opacity="1"><g transform="translate(84.826069, 32.689026)"><g><path d="M 4.71875 1.078125 C 3.65625 2.085938 2.800781 1.976562 2.15625 0.75 C 1.6875 -0.164062 1.847656 -0.9375 2.640625 -1.5625 C 3.953125 -2.601562 5.015625 -3.53125 5.828125 -4.34375 L 5.828125 -10.21875 C 5.828125 -10.8125 5.53125 -11.109375 4.9375 -11.109375 L 3.421875 -11.109375 C 2.378906 -11.109375 1.859375 -11.625 1.859375 -12.65625 C 1.859375 -13.695312 2.378906 -14.21875 3.421875 -14.21875 L 7.390625 -14.21875 C 7.890625 -14.21875 8.289062 -14.0625 8.59375 -13.75 C 8.90625 -13.445312 9.0625 -13.046875 9.0625 -12.546875 L 9.0625 -4.6875 C 10.644531 -2.257812 13.628906 -0.96875 18.015625 -0.8125 C 22.960938 -0.613281 28.210938 -0.664062 33.765625 -0.96875 C 34.503906 -1.019531 34.972656 -0.914062 35.171875 -0.65625 C 35.367188 -0.394531 35.359375 0.109375 35.140625 0.859375 C 34.984375 1.347656 34.796875 1.691406 34.578125 1.890625 C 34.359375 2.085938 33.988281 2.203125 33.46875 2.234375 C 27.59375 2.429688 22.441406 2.441406 18.015625 2.265625 C 13.335938 2.066406 9.894531 0.679688 7.6875 -1.890625 C 7.269531 -1.472656 6.625 -0.832031 5.75 0.03125 C 5.28125 0.507812 4.9375 0.859375 4.71875 1.078125 Z M 25.359375 -3.078125 C 24.523438 -2.390625 23.769531 -2.40625 23.09375 -3.125 C 22.40625 -3.882812 22.519531 -4.625 23.4375 -5.34375 C 25.164062 -6.851562 26.578125 -8.722656 27.671875 -10.953125 C 26.804688 -13.210938 26.078125 -15.628906 25.484375 -18.203125 C 24.929688 -17.109375 24.472656 -16.273438 24.109375 -15.703125 L 24.109375 -14.40625 C 24.109375 -13.6875 23.75 -13.328125 23.03125 -13.328125 L 16.828125 -13.328125 C 16.796875 -12.929688 16.757812 -12.363281 16.71875 -11.625 L 20.203125 -11.625 C 21.023438 -11.625 21.617188 -11.328125 21.984375 -10.734375 C 22.410156 -10.085938 22.570312 -9.007812 22.46875 -7.5 C 22.269531 -5.195312 21.953125 -3.796875 21.515625 -3.296875 C 21.085938 -2.804688 20.503906 -2.535156 19.765625 -2.484375 C 19.390625 -2.410156 18.890625 -2.390625 18.265625 -2.421875 C 17.429688 -2.460938 16.9375 -2.78125 16.78125 -3.375 C 16.5625 -4.320312 17.035156 -4.757812 18.203125 -4.6875 C 18.273438 -4.6875 18.335938 -4.6875 18.390625 -4.6875 C 18.785156 -4.6875 19.054688 -4.769531 19.203125 -4.9375 C 19.398438 -5.1875 19.546875 -6.09375 19.640625 -7.65625 C 19.671875 -8.25 19.628906 -8.648438 19.515625 -8.859375 C 19.398438 -9.066406 19.1875 -9.171875 18.875 -9.171875 L 16.265625 -9.171875 C 15.671875 -6.617188 14.617188 -4.640625 13.109375 -3.234375 C 12.296875 -2.609375 11.613281 -2.617188 11.0625 -3.265625 C 10.71875 -3.691406 10.570312 -4.078125 10.625 -4.421875 C 10.695312 -4.742188 10.957031 -5.101562 11.40625 -5.5 C 12.914062 -7.132812 13.769531 -9.742188 13.96875 -13.328125 L 11.359375 -13.328125 C 10.566406 -13.328125 10.171875 -13.738281 10.171875 -14.5625 C 10.171875 -15.351562 10.566406 -15.75 11.359375 -15.75 L 15.59375 -15.75 L 15.59375 -17.859375 L 13.4375 -17.859375 C 12.875 -17.859375 12.414062 -18.03125 12.0625 -18.375 C 11.71875 -18.726562 11.546875 -19.191406 11.546875 -19.765625 L 11.546875 -25.8125 C 11.546875 -26.53125 11.769531 -27.113281 12.21875 -27.5625 C 12.664062 -28.007812 13.25 -28.234375 13.96875 -28.234375 L 15.40625 -28.234375 C 15.457031 -28.378906 15.519531 -28.601562 15.59375 -28.90625 C 15.664062 -29.21875 15.71875 -29.445312 15.75 -29.59375 C 15.96875 -30.632812 16.585938 -31.109375 17.609375 -31.015625 C 18.847656 -30.910156 19.21875 -30.226562 18.71875 -28.96875 C 18.570312 -28.625 18.460938 -28.378906 18.390625 -28.234375 L 20.609375 -28.234375 C 21.203125 -28.234375 21.675781 -28.050781 22.03125 -27.6875 C 22.394531 -27.332031 22.578125 -26.859375 22.578125 -26.265625 L 22.578125 -19.203125 C 23.890625 -21.773438 24.921875 -25.164062 25.671875 -29.375 C 25.816406 -30.4375 26.410156 -30.894531 27.453125 -30.75 C 28.460938 -30.601562 28.867188 -30.019531 28.671875 -29 C 28.671875 -28.957031 28.660156 -28.875 28.640625 -28.75 C 28.335938 -27.3125 28.101562 -26.242188 27.9375 -25.546875 L 33.6875 -25.546875 C 34.65625 -25.546875 35.140625 -25.039062 35.140625 -24.03125 C 35.140625 -23.09375 34.679688 -22.625 33.765625 -22.625 L 33.6875 -22.625 C 33.09375 -17.988281 32.101562 -14.035156 30.71875 -10.765625 C 31.78125 -8.535156 32.976562 -6.78125 34.3125 -5.5 C 34.757812 -5.070312 35 -4.691406 35.03125 -4.359375 C 35.070312 -4.023438 34.894531 -3.632812 34.5 -3.1875 C 34.101562 -2.75 33.734375 -2.53125 33.390625 -2.53125 C 33.066406 -2.53125 32.679688 -2.738281 32.234375 -3.15625 C 31.078125 -4.445312 30.050781 -5.957031 29.15625 -7.6875 C 27.988281 -5.851562 26.722656 -4.316406 25.359375 -3.078125 Z M 29.125 -14.59375 C 29.414062 -15.507812 29.75 -16.785156 30.125 -18.421875 C 30.375 -19.734375 30.597656 -21.132812 30.796875 -22.625 L 27.15625 -22.625 L 27.109375 -22.46875 C 27.703125 -19.394531 28.375 -16.769531 29.125 -14.59375 Z M 18.5 -15.75 L 23.734375 -15.75 C 23.015625 -16.320312 22.382812 -16.78125 21.84375 -17.125 C 21.59375 -17.25 21.566406 -17.472656 21.765625 -17.796875 L 21.765625 -17.828125 L 21.796875 -17.859375 L 18.5 -17.859375 Z M 7.65625 -17.328125 C 7.300781 -17.316406 6.925781 -17.507812 6.53125 -17.90625 C 6.039062 -18.34375 5.570312 -18.722656 5.125 -19.046875 C 4.382812 -19.597656 3.816406 -20.007812 3.421875 -20.28125 C 2.429688 -20.875 2.367188 -21.578125 3.234375 -22.390625 C 3.828125 -22.941406 4.457031 -23.03125 5.125 -22.65625 C 6.6875 -21.757812 7.972656 -20.878906 8.984375 -20.015625 C 9.335938 -19.671875 9.5 -19.335938 9.46875 -19.015625 C 9.445312 -18.710938 9.238281 -18.363281 8.84375 -17.96875 C 8.414062 -17.550781 8.019531 -17.335938 7.65625 -17.328125 Z M 15.078125 -20.09375 L 19.71875 -20.09375 L 19.71875 -21.984375 L 14.265625 -21.984375 L 14.265625 -20.90625 C 14.265625 -20.363281 14.535156 -20.09375 15.078125 -20.09375 Z M 14.265625 -24.109375 L 19.71875 -24.109375 L 19.71875 -25.1875 C 19.71875 -25.726562 19.445312 -26 18.90625 -26 L 15.15625 -26 C 14.5625 -26 14.265625 -25.703125 14.265625 -25.109375 Z M 9.8125 -25.40625 C 8.988281 -24.613281 8.21875 -24.625 7.5 -25.4375 C 6.957031 -25.9375 6.535156 -26.320312 6.234375 -26.59375 C 6.085938 -26.738281 5.847656 -26.941406 5.515625 -27.203125 C 5.179688 -27.460938 4.925781 -27.65625 4.75 -27.78125 C 3.757812 -28.425781 3.722656 -29.15625 4.640625 -29.96875 C 5.234375 -30.488281 5.851562 -30.550781 6.5 -30.15625 C 7.832031 -29.269531 9.007812 -28.351562 10.03125 -27.40625 C 10.375 -27.0625 10.519531 -26.726562 10.46875 -26.40625 C 10.425781 -26.113281 10.207031 -25.78125 9.8125 -25.40625 Z M 9.8125 -25.40625 "/></g></g></g><g fill="#826e52" fill-opacity="1"><g transform="translate(126.418933, 32.689026)"><g><path d="M 18.640625 2.890625 C 17.578125 2.890625 17.046875 2.375 17.046875 1.34375 L 17.046875 -12.375 C 17.046875 -13.082031 17.269531 -13.660156 17.71875 -14.109375 C 18.164062 -14.554688 18.75 -14.78125 19.46875 -14.78125 L 31.421875 -14.78125 C 32.140625 -14.78125 32.71875 -14.554688 33.15625 -14.109375 C 33.601562 -13.660156 33.828125 -13.082031 33.828125 -12.375 L 33.828125 -0.453125 C 33.828125 0.347656 33.726562 0.957031 33.53125 1.375 C 33.3125 1.820312 32.929688 2.171875 32.390625 2.421875 C 31.691406 2.710938 30.523438 2.859375 28.890625 2.859375 C 27.773438 2.859375 27.097656 2.488281 26.859375 1.75 C 26.660156 1.175781 26.742188 0.753906 27.109375 0.484375 C 27.410156 0.234375 27.90625 0.125 28.59375 0.15625 C 28.863281 0.15625 29.195312 0.140625 29.59375 0.109375 C 29.789062 0.109375 29.914062 0.109375 29.96875 0.109375 C 30.363281 0.109375 30.5625 -0.0859375 30.5625 -0.484375 L 30.5625 -5.015625 L 20.203125 -5.015625 L 20.203125 1.34375 C 20.203125 2.375 19.679688 2.890625 18.640625 2.890625 Z M 5.71875 0.890625 C 5 0.890625 4.414062 0.664062 3.96875 0.21875 C 3.53125 -0.226562 3.3125 -0.804688 3.3125 -1.515625 L 3.3125 -7.609375 C 3.3125 -8.328125 3.53125 -8.910156 3.96875 -9.359375 C 4.414062 -9.804688 5 -10.03125 5.71875 -10.03125 L 11.734375 -10.03125 C 12.453125 -10.03125 13.035156 -9.804688 13.484375 -9.359375 C 13.929688 -8.910156 14.15625 -8.328125 14.15625 -7.609375 L 14.15625 -1.515625 C 14.15625 -0.804688 13.929688 -0.226562 13.484375 0.21875 C 13.035156 0.664062 12.453125 0.890625 11.734375 0.890625 Z M 7.125 -1.890625 L 10.328125 -1.890625 C 10.921875 -1.890625 11.21875 -2.1875 11.21875 -2.78125 L 11.21875 -6.34375 C 11.21875 -6.945312 10.921875 -7.25 10.328125 -7.25 L 7.125 -7.25 C 6.53125 -7.25 6.234375 -6.945312 6.234375 -6.34375 L 6.234375 -2.78125 C 6.234375 -2.1875 6.53125 -1.890625 7.125 -1.890625 Z M 20.203125 -7.796875 L 23.84375 -7.796875 L 23.84375 -12.109375 L 21.09375 -12.109375 C 20.5 -12.109375 20.203125 -11.8125 20.203125 -11.21875 Z M 26.734375 -7.796875 L 30.5625 -7.796875 L 30.5625 -11.21875 C 30.5625 -11.8125 30.265625 -12.109375 29.671875 -12.109375 L 26.734375 -12.109375 Z M 4.6875 -12.328125 C 3.789062 -12.328125 3.34375 -12.785156 3.34375 -13.703125 C 3.34375 -14.597656 3.789062 -15.046875 4.6875 -15.046875 L 12.78125 -15.046875 C 13.664062 -15.046875 14.109375 -14.597656 14.109375 -13.703125 C 14.109375 -12.785156 13.664062 -12.328125 12.78125 -12.328125 Z M 16.640625 -16.828125 C 15.722656 -16.828125 15.265625 -17.285156 15.265625 -18.203125 C 15.265625 -19.117188 15.722656 -19.578125 16.640625 -19.578125 L 23.625 -19.578125 L 23.625 -21.6875 L 18.265625 -21.6875 C 17.429688 -21.6875 17.015625 -22.109375 17.015625 -22.953125 C 17.015625 -23.796875 17.429688 -24.21875 18.265625 -24.21875 L 23.625 -24.21875 L 23.625 -26.078125 L 17.609375 -26.078125 C 16.742188 -26.078125 16.3125 -26.507812 16.3125 -27.375 C 16.3125 -28.238281 16.742188 -28.671875 17.609375 -28.671875 L 23.625 -28.671875 L 23.625 -29.53125 C 23.625 -30.644531 24.191406 -31.203125 25.328125 -31.203125 C 26.441406 -31.203125 27 -30.644531 27 -29.53125 L 27 -28.671875 L 33.3125 -28.671875 C 34.175781 -28.671875 34.609375 -28.238281 34.609375 -27.375 C 34.609375 -26.507812 34.175781 -26.078125 33.3125 -26.078125 L 27 -26.078125 L 27 -24.21875 L 32.6875 -24.21875 C 33.53125 -24.21875 33.953125 -23.796875 33.953125 -22.953125 C 33.953125 -22.109375 33.53125 -21.6875 32.6875 -21.6875 L 27 -21.6875 L 27 -19.578125 L 33.90625 -19.578125 C 34.820312 -19.578125 35.28125 -19.117188 35.28125 -18.203125 C 35.28125 -17.285156 34.820312 -16.828125 33.90625 -16.828125 Z M 4.6875 -17.3125 C 3.789062 -17.3125 3.34375 -17.753906 3.34375 -18.640625 C 3.34375 -19.535156 3.789062 -19.984375 4.6875 -19.984375 L 12.78125 -19.984375 C 13.664062 -19.984375 14.109375 -19.535156 14.109375 -18.640625 C 14.109375 -17.753906 13.664062 -17.3125 12.78125 -17.3125 Z M 3.046875 -22.28125 C 2.128906 -22.28125 1.671875 -22.738281 1.671875 -23.65625 C 1.671875 -24.570312 2.128906 -25.03125 3.046875 -25.03125 L 14 -25.03125 C 14.914062 -25.03125 15.375 -24.570312 15.375 -23.65625 C 15.375 -22.738281 14.914062 -22.28125 14 -22.28125 Z M 4.828125 -27.21875 C 3.929688 -27.21875 3.484375 -27.675781 3.484375 -28.59375 C 3.484375 -29.488281 3.929688 -29.9375 4.828125 -29.9375 L 12.703125 -29.9375 C 13.597656 -29.9375 14.046875 -29.488281 14.046875 -28.59375 C 14.046875 -27.675781 13.597656 -27.21875 12.703125 -27.21875 Z M 4.828125 -27.21875 "/></g></g></g><g fill="#826e52" fill-opacity="1"><g transform="translate(168.011796, 32.689026)"><g><path d="M 16.3125 2.265625 C 14.25 2.265625 12.863281 1.96875 12.15625 1.375 C 11.457031 0.78125 11.109375 -0.34375 11.109375 -2 L 11.109375 -6.609375 C 11.109375 -7.722656 11.675781 -8.28125 12.8125 -8.28125 C 13.925781 -8.28125 14.484375 -7.722656 14.484375 -6.609375 L 14.484375 -2 C 14.484375 -1.507812 14.609375 -1.195312 14.859375 -1.0625 C 15.109375 -0.925781 15.703125 -0.859375 16.640625 -0.859375 L 22.578125 -0.859375 C 23.273438 -0.859375 23.75 -1.03125 24 -1.375 C 24.113281 -2.289062 24.359375 -2.992188 24.734375 -3.484375 C 25.148438 -4.078125 25.695312 -4.238281 26.375 -3.96875 C 26.789062 -3.800781 27.0625 -3.394531 27.1875 -2.75 C 27.3125 -2.226562 27.320312 -1.660156 27.21875 -1.046875 C 26.945312 0.222656 26.488281 1.09375 25.84375 1.5625 C 25.207031 2.03125 24.21875 2.265625 22.875 2.265625 Z M 5.53125 0.890625 C 4.84375 1.460938 4.140625 1.5 3.421875 1 C 2.253906 0.1875 2.21875 -0.675781 3.3125 -1.59375 C 4.5 -2.832031 5.4375 -4.394531 6.125 -6.28125 C 6.46875 -7.394531 7.175781 -7.765625 8.25 -7.390625 C 9.207031 -7.066406 9.539062 -6.421875 9.25 -5.453125 C 8.851562 -4.222656 8.367188 -3.097656 7.796875 -2.078125 C 7.128906 -0.890625 6.375 0.0976562 5.53125 0.890625 Z M 34.015625 0.453125 C 33.453125 0.765625 32.984375 0.882812 32.609375 0.8125 C 32.234375 0.738281 31.910156 0.414062 31.640625 -0.15625 C 31.191406 -0.945312 30.597656 -1.835938 29.859375 -2.828125 C 28.972656 -3.960938 28.171875 -4.914062 27.453125 -5.6875 C 26.535156 -6.570312 26.644531 -7.335938 27.78125 -7.984375 C 28.519531 -8.378906 29.203125 -8.289062 29.828125 -7.71875 C 32.003906 -5.644531 33.660156 -3.601562 34.796875 -1.59375 C 35.023438 -1.125 35.078125 -0.726562 34.953125 -0.40625 C 34.828125 -0.132812 34.515625 0.148438 34.015625 0.453125 Z M 20.53125 -5.046875 C 20.164062 -5.023438 19.796875 -5.210938 19.421875 -5.609375 C 18.484375 -6.523438 17.296875 -7.425781 15.859375 -8.3125 C 14.742188 -8.988281 14.671875 -9.742188 15.640625 -10.578125 C 16.203125 -11.078125 16.804688 -11.15625 17.453125 -10.8125 C 18.316406 -10.3125 19.171875 -9.773438 20.015625 -9.203125 C 20.585938 -8.785156 21.179688 -8.316406 21.796875 -7.796875 C 22.492188 -7.109375 22.445312 -6.40625 21.65625 -5.6875 C 21.226562 -5.289062 20.851562 -5.078125 20.53125 -5.046875 Z M 20.90625 -9.921875 C 19.75 -9.867188 19.007812 -10.265625 18.6875 -11.109375 C 18.238281 -12.316406 18.867188 -12.894531 20.578125 -12.84375 C 20.742188 -12.84375 20.96875 -12.859375 21.25 -12.890625 C 21.394531 -12.890625 21.492188 -12.890625 21.546875 -12.890625 C 21.785156 -12.910156 21.941406 -12.953125 22.015625 -13.015625 C 22.097656 -13.078125 22.140625 -13.21875 22.140625 -13.4375 L 22.140625 -24.8125 L 17.640625 -24.8125 C 16.867188 -23.570312 16.050781 -22.429688 15.1875 -21.390625 C 14.445312 -20.617188 13.679688 -20.582031 12.890625 -21.28125 C 12.421875 -21.675781 12.1875 -22.066406 12.1875 -22.453125 C 12.1875 -22.835938 12.40625 -23.253906 12.84375 -23.703125 C 14.382812 -25.359375 15.640625 -27.335938 16.609375 -29.640625 C 16.972656 -30.628906 17.648438 -31 18.640625 -30.75 C 19.753906 -30.5 20.101562 -29.832031 19.6875 -28.75 C 19.539062 -28.425781 19.390625 -28.09375 19.234375 -27.75 L 32.28125 -27.75 C 33.144531 -27.75 33.742188 -27.492188 34.078125 -26.984375 C 34.410156 -26.472656 34.425781 -25.773438 34.125 -24.890625 C 33.757812 -23.847656 33.304688 -22.742188 32.765625 -21.578125 C 32.609375 -21.285156 32.332031 -21.050781 31.9375 -20.875 C 31.539062 -20.695312 31.132812 -20.660156 30.71875 -20.765625 L 30.609375 -20.796875 C 31.722656 -19.035156 32.6875 -17.265625 33.5 -15.484375 C 33.675781 -15.015625 33.6875 -14.632812 33.53125 -14.34375 C 33.414062 -14.0625 33.109375 -13.8125 32.609375 -13.59375 C 32.035156 -13.320312 31.601562 -13.234375 31.3125 -13.328125 C 30.96875 -13.398438 30.695312 -13.710938 30.5 -14.265625 C 29.925781 -15.597656 29.191406 -17.03125 28.296875 -18.5625 C 27.878906 -19.257812 27.769531 -19.90625 27.96875 -20.5 C 28.164062 -21.09375 28.625 -21.550781 29.34375 -21.875 L 29.75 -22.0625 C 30.09375 -22.832031 30.453125 -23.75 30.828125 -24.8125 L 25.40625 -24.8125 L 25.40625 -13.375 C 25.40625 -12.53125 25.316406 -11.894531 25.140625 -11.46875 C 24.941406 -11 24.570312 -10.644531 24.03125 -10.40625 C 23.363281 -10.125 22.320312 -9.960938 20.90625 -9.921875 Z M 8.4375 -9.921875 C 7.34375 -9.921875 6.796875 -10.460938 6.796875 -11.546875 L 6.796875 -21.28125 C 6.273438 -20.664062 5.617188 -19.984375 4.828125 -19.234375 C 4.328125 -18.816406 3.890625 -18.625 3.515625 -18.65625 C 3.148438 -18.695312 2.769531 -18.96875 2.375 -19.46875 C 1.6875 -20.351562 1.800781 -21.15625 2.71875 -21.875 C 5.332031 -24.125 7.546875 -26.796875 9.359375 -29.890625 C 9.804688 -30.734375 10.488281 -31.007812 11.40625 -30.71875 C 12.519531 -30.34375 12.800781 -29.660156 12.25 -28.671875 C 11.613281 -27.484375 10.882812 -26.359375 10.0625 -25.296875 L 10.0625 -11.546875 C 10.0625 -10.460938 9.519531 -9.921875 8.4375 -9.921875 Z M 16.3125 -14.40625 C 15.664062 -13.664062 14.929688 -13.554688 14.109375 -14.078125 C 13.566406 -14.421875 13.28125 -14.773438 13.25 -15.140625 C 13.226562 -15.515625 13.441406 -15.953125 13.890625 -16.453125 C 14.859375 -17.640625 15.6875 -18.960938 16.375 -20.421875 C 16.769531 -21.316406 17.453125 -21.65625 18.421875 -21.4375 C 19.585938 -21.15625 19.9375 -20.484375 19.46875 -19.421875 C 19.09375 -18.679688 18.59375 -17.800781 17.96875 -16.78125 C 17.5 -16.019531 16.945312 -15.226562 16.3125 -14.40625 Z M 16.3125 -14.40625 "/></g></g></g><g fill="#826e52" fill-opacity="1"><g transform="translate(209.604659, 32.689026)"><g><path d="M 5.984375 2.375 C 4.398438 2.769531 3.347656 2.570312 2.828125 1.78125 C 2.429688 1.164062 2.539062 0.582031 3.15625 0.03125 C 3.625 -0.382812 4.332031 -0.71875 5.28125 -0.96875 C 7.425781 -1.707031 8.992188 -2.734375 9.984375 -4.046875 C 10.804688 -5.140625 11.378906 -6.675781 11.703125 -8.65625 L 9.203125 -8.65625 C 8.515625 -8.65625 7.960938 -8.859375 7.546875 -9.265625 C 7.140625 -9.671875 6.9375 -10.222656 6.9375 -10.921875 L 6.9375 -27.515625 C 6.9375 -28.234375 7.160156 -28.816406 7.609375 -29.265625 C 8.054688 -29.710938 8.640625 -29.9375 9.359375 -29.9375 L 27.9375 -29.9375 C 28.644531 -29.9375 29.222656 -29.710938 29.671875 -29.265625 C 30.117188 -28.816406 30.34375 -28.234375 30.34375 -27.515625 L 30.34375 -11.0625 C 30.34375 -10.34375 30.117188 -9.757812 29.671875 -9.3125 C 29.222656 -8.875 28.644531 -8.65625 27.9375 -8.65625 L 24.109375 -8.65625 L 24.109375 -1.9375 C 24.109375 -1.382812 24.210938 -1.035156 24.421875 -0.890625 C 24.628906 -0.742188 25.101562 -0.671875 25.84375 -0.671875 L 30.5625 -0.671875 C 31.332031 -0.671875 31.804688 -1.015625 31.984375 -1.703125 C 32.078125 -2.722656 32.296875 -3.539062 32.640625 -4.15625 C 33.066406 -4.945312 33.625 -5.195312 34.3125 -4.90625 C 34.738281 -4.726562 35.023438 -4.269531 35.171875 -3.53125 C 35.296875 -2.9375 35.320312 -2.316406 35.25 -1.671875 C 35 -0.0351562 34.550781 1.085938 33.90625 1.703125 C 33.289062 2.296875 32.289062 2.59375 30.90625 2.59375 L 25.4375 2.59375 C 23.53125 2.59375 22.25 2.273438 21.59375 1.640625 C 20.9375 1.015625 20.609375 -0.175781 20.609375 -1.9375 L 20.609375 -8.65625 L 15.34375 -8.65625 C 14.914062 -5.757812 14.097656 -3.519531 12.890625 -1.9375 C 11.429688 -0.0507812 9.128906 1.382812 5.984375 2.375 Z M 11.140625 -11.703125 L 26 -11.703125 C 26.59375 -11.703125 26.890625 -12 26.890625 -12.59375 L 26.890625 -14.890625 L 10.25 -14.890625 L 10.25 -12.59375 C 10.25 -12 10.546875 -11.703125 11.140625 -11.703125 Z M 10.25 -17.75 L 26.890625 -17.75 L 26.890625 -20.90625 L 10.25 -20.90625 Z M 10.25 -23.734375 L 26.890625 -23.734375 L 26.890625 -25.96875 C 26.890625 -26.5625 26.59375 -26.859375 26 -26.859375 L 11.140625 -26.859375 C 10.546875 -26.859375 10.25 -26.5625 10.25 -25.96875 Z M 10.25 -23.734375 "/></g></g></g><g fill="#826e52" fill-opacity="1"><g transform="translate(251.197523, 32.689026)"><g><path d="M 15.859375 1.78125 C 14.867188 1.78125 14.375 1.285156 14.375 0.296875 C 14.375 -0.691406 14.867188 -1.1875 15.859375 -1.1875 L 20.015625 -1.1875 C 19.816406 -2.351562 19.445312 -3.640625 18.90625 -5.046875 C 18.476562 -6.109375 18.8125 -6.78125 19.90625 -7.0625 C 20.75 -7.28125 21.359375 -6.992188 21.734375 -6.203125 C 22.078125 -5.460938 22.359375 -4.679688 22.578125 -3.859375 C 22.722656 -3.296875 22.65625 -2.785156 22.375 -2.328125 C 22.09375 -1.867188 21.640625 -1.550781 21.015625 -1.375 L 20.390625 -1.1875 L 33.578125 -1.1875 C 34.566406 -1.1875 35.0625 -0.691406 35.0625 0.296875 C 35.0625 1.285156 34.566406 1.78125 33.578125 1.78125 Z M 5.609375 0.8125 C 4.890625 0.8125 4.304688 0.585938 3.859375 0.140625 C 3.410156 -0.296875 3.1875 -0.875 3.1875 -1.59375 L 3.1875 -7.609375 C 3.1875 -8.328125 3.410156 -8.910156 3.859375 -9.359375 C 4.304688 -9.804688 4.890625 -10.03125 5.609375 -10.03125 L 10.84375 -10.03125 C 11.5625 -10.03125 12.132812 -9.8125 12.5625 -9.375 C 13 -8.945312 13.21875 -8.375 13.21875 -7.65625 L 13.21875 -1.59375 C 13.21875 -0.875 12.992188 -0.296875 12.546875 0.140625 C 12.109375 0.585938 11.53125 0.8125 10.8125 0.8125 Z M 29.234375 -2.1875 C 28.929688 -1.519531 28.359375 -1.285156 27.515625 -1.484375 C 26.503906 -1.753906 26.171875 -2.335938 26.515625 -3.234375 C 26.890625 -4.273438 27.1875 -5.164062 27.40625 -5.90625 C 27.675781 -6.914062 28.332031 -7.300781 29.375 -7.0625 C 30.488281 -6.8125 30.835938 -6.117188 30.421875 -4.984375 C 30.367188 -4.859375 30.28125 -4.648438 30.15625 -4.359375 C 30.03125 -4.078125 29.929688 -3.863281 29.859375 -3.71875 C 29.835938 -3.644531 29.800781 -3.554688 29.75 -3.453125 C 29.53125 -2.878906 29.359375 -2.457031 29.234375 -2.1875 Z M 6.875 -1.890625 L 9.515625 -1.890625 C 10.109375 -1.890625 10.40625 -2.1875 10.40625 -2.78125 L 10.40625 -6.34375 C 10.40625 -6.945312 10.109375 -7.25 9.515625 -7.25 L 6.875 -7.25 C 6.28125 -7.25 5.984375 -6.945312 5.984375 -6.34375 L 5.984375 -2.78125 C 5.984375 -2.1875 6.28125 -1.890625 6.875 -1.890625 Z M 19.171875 -7.421875 C 18.453125 -7.421875 17.867188 -7.644531 17.421875 -8.09375 C 16.972656 -8.539062 16.75 -9.125 16.75 -9.84375 L 16.75 -13.734375 C 16.75 -14.453125 16.972656 -15.035156 17.421875 -15.484375 C 17.867188 -15.929688 18.453125 -16.15625 19.171875 -16.15625 L 29.9375 -16.15625 C 30.65625 -16.15625 31.234375 -15.929688 31.671875 -15.484375 C 32.117188 -15.035156 32.34375 -14.453125 32.34375 -13.734375 L 32.34375 -9.84375 C 32.34375 -9.125 32.117188 -8.539062 31.671875 -8.09375 C 31.234375 -7.644531 30.65625 -7.421875 29.9375 -7.421875 Z M 20.71875 -10.140625 L 28.15625 -10.140625 C 28.75 -10.140625 29.046875 -10.4375 29.046875 -11.03125 L 29.046875 -12.59375 C 29.046875 -13.1875 28.75 -13.484375 28.15625 -13.484375 L 20.71875 -13.484375 C 20.125 -13.484375 19.828125 -13.1875 19.828125 -12.59375 L 19.828125 -11.03125 C 19.828125 -10.4375 20.125 -10.140625 20.71875 -10.140625 Z M 4.5625 -12.328125 C 3.675781 -12.328125 3.234375 -12.785156 3.234375 -13.703125 C 3.234375 -14.597656 3.675781 -15.046875 4.5625 -15.046875 L 11.84375 -15.046875 C 12.738281 -15.046875 13.1875 -14.597656 13.1875 -13.703125 C 13.1875 -12.785156 12.738281 -12.328125 11.84375 -12.328125 Z M 34.65625 -17.15625 C 34.007812 -16.34375 33.21875 -16.257812 32.28125 -16.90625 C 31.207031 -17.71875 30.210938 -18.71875 29.296875 -19.90625 L 29.296875 -18.90625 C 29.296875 -18.40625 29.050781 -18.15625 28.5625 -18.15625 L 20.828125 -18.15625 C 19.992188 -18.15625 19.578125 -18.578125 19.578125 -19.421875 L 19.578125 -19.53125 C 18.753906 -18.488281 17.820312 -17.550781 16.78125 -16.71875 C 16.1875 -16.289062 15.582031 -16.140625 14.96875 -16.265625 C 14.351562 -16.390625 13.820312 -16.757812 13.375 -17.375 C 13.34375 -17.40625 13.304688 -17.441406 13.265625 -17.484375 C 13.234375 -17.535156 13.207031 -17.578125 13.1875 -17.609375 L 13.1875 -17.34375 C 13.1875 -17.320312 13.171875 -17.3125 13.140625 -17.3125 L 4.5625 -17.3125 C 3.675781 -17.3125 3.234375 -17.753906 3.234375 -18.640625 C 3.234375 -19.535156 3.675781 -19.984375 4.5625 -19.984375 L 11.359375 -19.984375 C 11.929688 -19.984375 12.378906 -19.820312 12.703125 -19.5 C 13.023438 -19.175781 13.1875 -18.726562 13.1875 -18.15625 L 13.1875 -18.046875 C 14.695312 -18.890625 16.109375 -20.117188 17.421875 -21.734375 C 16.972656 -22.203125 16.398438 -22.742188 15.703125 -23.359375 C 14.960938 -23.953125 14.925781 -24.609375 15.59375 -25.328125 C 16.164062 -25.953125 16.773438 -26.019531 17.421875 -25.53125 C 18.066406 -25.050781 18.609375 -24.585938 19.046875 -24.140625 C 19.472656 -24.878906 19.832031 -25.609375 20.125 -26.328125 C 20.320312 -26.878906 20.125 -27.15625 19.53125 -27.15625 L 16.5625 -27.15625 C 15.675781 -27.15625 15.234375 -27.613281 15.234375 -28.53125 C 15.234375 -29.414062 15.675781 -29.859375 16.5625 -29.859375 L 21.46875 -29.859375 C 22.28125 -29.859375 22.859375 -29.601562 23.203125 -29.09375 C 23.554688 -28.59375 23.625 -27.867188 23.40625 -26.921875 C 22.78125 -24.867188 21.835938 -22.863281 20.578125 -20.90625 L 28.59375 -20.90625 C 27.15625 -23.0625 25.976562 -25.738281 25.0625 -28.9375 C 24.789062 -29.976562 25.140625 -30.609375 26.109375 -30.828125 C 27.078125 -31.046875 27.671875 -30.660156 27.890625 -29.671875 C 28.035156 -29.128906 28.25 -28.507812 28.53125 -27.8125 C 29.320312 -28.457031 29.953125 -28.992188 30.421875 -29.421875 C 30.742188 -29.734375 31.039062 -29.878906 31.3125 -29.859375 C 31.5625 -29.859375 31.84375 -29.695312 32.15625 -29.375 C 32.800781 -28.726562 32.71875 -28.125 31.90625 -27.5625 C 31.3125 -27.113281 30.46875 -26.554688 29.375 -25.890625 C 29.820312 -24.992188 30.21875 -24.285156 30.5625 -23.765625 C 30.632812 -23.816406 30.75 -23.90625 30.90625 -24.03125 C 31.664062 -24.675781 32.207031 -25.144531 32.53125 -25.4375 C 33.175781 -26.082031 33.804688 -26.070312 34.421875 -25.40625 C 35.066406 -24.707031 34.984375 -24.0625 34.171875 -23.46875 C 33.992188 -23.34375 33.734375 -23.179688 33.390625 -22.984375 C 32.691406 -22.515625 32.171875 -22.179688 31.828125 -21.984375 C 32.523438 -21.171875 33.289062 -20.429688 34.125 -19.765625 C 35.269531 -19.015625 35.445312 -18.144531 34.65625 -17.15625 Z M 3.046875 -22.28125 C 2.128906 -22.28125 1.671875 -22.738281 1.671875 -23.65625 C 1.671875 -24.570312 2.128906 -25.03125 3.046875 -25.03125 L 12.921875 -25.03125 C 13.835938 -25.03125 14.296875 -24.570312 14.296875 -23.65625 C 14.296875 -22.738281 13.835938 -22.28125 12.921875 -22.28125 Z M 4.796875 -27.21875 C 3.898438 -27.21875 3.453125 -27.675781 3.453125 -28.59375 C 3.453125 -29.488281 3.898438 -29.9375 4.796875 -29.9375 L 11.734375 -29.9375 C 12.628906 -29.9375 13.078125 -29.488281 13.078125 -28.59375 C 13.078125 -27.675781 12.628906 -27.21875 11.734375 -27.21875 Z M 4.796875 -27.21875 "/></g></g></g><g fill="#826e52" fill-opacity="1"><g transform="translate(292.790386, 32.689026)"><g><path d="M 31.015625 3.078125 C 28.359375 3.078125 26.15625 0.9375 24.40625 -3.34375 C 22.445312 -1.65625 20.523438 -0.269531 18.640625 0.8125 C 18.097656 1.113281 17.640625 1.238281 17.265625 1.1875 C 16.867188 1.132812 16.488281 0.898438 16.125 0.484375 C 15.625 -0.0859375 15.4375 -0.578125 15.5625 -0.984375 C 15.6875 -1.390625 16.09375 -1.78125 16.78125 -2.15625 C 18.96875 -3.363281 21.132812 -4.910156 23.28125 -6.796875 C 22.445312 -9.597656 21.789062 -13.066406 21.3125 -17.203125 L 13.1875 -17.203125 L 13.1875 -12 L 17.75 -12.890625 C 18.84375 -13.109375 19.425781 -12.660156 19.5 -11.546875 C 19.570312 -10.609375 19.160156 -10.039062 18.265625 -9.84375 C 16.140625 -9.320312 14.445312 -8.9375 13.1875 -8.6875 L 13.1875 -1.296875 C 13.1875 -0.253906 13.054688 0.535156 12.796875 1.078125 C 12.535156 1.617188 12.082031 2.023438 11.4375 2.296875 C 10.519531 2.671875 9.125 2.882812 7.25 2.9375 C 5.851562 2.988281 4.984375 2.539062 4.640625 1.59375 C 4.367188 0.851562 4.46875 0.3125 4.9375 -0.03125 C 5.363281 -0.332031 6.03125 -0.472656 6.9375 -0.453125 C 8.007812 -0.453125 8.65625 -0.460938 8.875 -0.484375 C 9.195312 -0.503906 9.421875 -0.570312 9.546875 -0.6875 C 9.671875 -0.800781 9.734375 -1.003906 9.734375 -1.296875 L 9.734375 -7.90625 C 8.640625 -7.6875 7.078125 -7.351562 5.046875 -6.90625 C 4.679688 -6.832031 4.398438 -6.769531 4.203125 -6.71875 C 3.160156 -6.519531 2.488281 -6.953125 2.1875 -8.015625 C 2.019531 -8.660156 2.007812 -9.144531 2.15625 -9.46875 C 2.332031 -9.8125 2.71875 -10.035156 3.3125 -10.140625 C 5.5625 -10.535156 7.703125 -10.929688 9.734375 -11.328125 L 9.734375 -17.203125 L 3.9375 -17.203125 C 2.84375 -17.203125 2.296875 -17.742188 2.296875 -18.828125 C 2.296875 -19.921875 2.84375 -20.46875 3.9375 -20.46875 L 9.734375 -20.46875 L 9.734375 -25.59375 C 8.742188 -25.414062 7.296875 -25.191406 5.390625 -24.921875 C 5.117188 -24.898438 4.921875 -24.875 4.796875 -24.84375 C 3.878906 -24.75 3.269531 -25.097656 2.96875 -25.890625 C 2.550781 -26.972656 2.984375 -27.613281 4.265625 -27.8125 C 9.097656 -28.65625 12.925781 -29.507812 15.75 -30.375 C 16.195312 -30.53125 16.582031 -30.546875 16.90625 -30.421875 C 17.144531 -30.296875 17.441406 -30.035156 17.796875 -29.640625 C 18.285156 -29.015625 18.476562 -28.507812 18.375 -28.125 C 18.28125 -27.75 17.863281 -27.445312 17.125 -27.21875 C 15.664062 -26.820312 14.351562 -26.515625 13.1875 -26.296875 L 13.1875 -20.46875 L 20.984375 -20.46875 C 20.785156 -22.664062 20.632812 -25.507812 20.53125 -29 C 20.488281 -30.21875 21.070312 -30.828125 22.28125 -30.828125 C 23.46875 -30.828125 24.0625 -30.207031 24.0625 -28.96875 C 24.0625 -25.875 24.1875 -23.039062 24.4375 -20.46875 L 33.28125 -20.46875 C 34.363281 -20.46875 34.90625 -19.921875 34.90625 -18.828125 C 34.90625 -17.742188 34.363281 -17.203125 33.28125 -17.203125 L 24.8125 -17.203125 C 25.207031 -14.128906 25.648438 -11.613281 26.140625 -9.65625 C 27.378906 -11.09375 28.53125 -12.664062 29.59375 -14.375 C 30.09375 -15.257812 30.828125 -15.492188 31.796875 -15.078125 C 32.835938 -14.628906 33.082031 -13.910156 32.53125 -12.921875 C 31.019531 -10.421875 29.238281 -8.109375 27.1875 -5.984375 C 28.445312 -2.296875 29.832031 -0.453125 31.34375 -0.453125 C 31.96875 -0.453125 32.390625 -1.523438 32.609375 -3.671875 C 32.710938 -4.859375 32.898438 -5.601562 33.171875 -5.90625 C 33.410156 -6.15625 33.789062 -6.066406 34.3125 -5.640625 C 35.226562 -5.171875 35.578125 -3.984375 35.359375 -2.078125 C 35.035156 -0.117188 34.539062 1.238281 33.875 2 C 33.226562 2.71875 32.273438 3.078125 31.015625 3.078125 Z M 32.9375 -23.140625 C 32.414062 -22.765625 31.984375 -22.59375 31.640625 -22.625 C 31.273438 -22.625 30.929688 -22.867188 30.609375 -23.359375 C 29.835938 -24.421875 28.742188 -25.660156 27.328125 -27.078125 C 26.421875 -27.941406 26.472656 -28.722656 27.484375 -29.421875 C 28.179688 -29.890625 28.847656 -29.863281 29.484375 -29.34375 C 30.179688 -28.695312 30.9375 -27.953125 31.75 -27.109375 C 32.519531 -26.296875 33.054688 -25.691406 33.359375 -25.296875 C 33.972656 -24.503906 33.832031 -23.785156 32.9375 -23.140625 Z M 32.9375 -23.140625 "/></g></g></g><g fill="#826e52" fill-opacity="1"><g transform="translate(334.383249, 32.689026)"><g><path d="M 7.25 2.890625 C 6.15625 2.890625 5.609375 2.359375 5.609375 1.296875 L 5.609375 -16.78125 C 5.015625 -15.84375 4.554688 -15.164062 4.234375 -14.75 C 3.660156 -14.03125 3.171875 -13.6875 2.765625 -13.71875 C 2.359375 -13.757812 1.96875 -14.1875 1.59375 -15 C 1.175781 -15.914062 1.265625 -16.734375 1.859375 -17.453125 C 4.359375 -20.816406 6.410156 -24.789062 8.015625 -29.375 C 8.367188 -30.46875 9.066406 -30.863281 10.109375 -30.5625 C 11.171875 -30.269531 11.515625 -29.59375 11.140625 -28.53125 C 10.472656 -26.59375 9.707031 -24.679688 8.84375 -22.796875 L 8.84375 1.296875 C 8.84375 2.359375 8.3125 2.890625 7.25 2.890625 Z M 27.671875 2.859375 C 27.078125 2.859375 26.554688 2.757812 26.109375 2.5625 C 25.566406 2.3125 25.21875 1.953125 25.0625 1.484375 C 24.84375 0.816406 24.957031 0.3125 25.40625 -0.03125 C 25.800781 -0.3125 26.421875 -0.4375 27.265625 -0.40625 C 28.722656 -0.351562 29.6875 -0.351562 30.15625 -0.40625 C 30.78125 -0.4375 31.09375 -0.75 31.09375 -1.34375 L 31.09375 -15.453125 L 26.265625 -15.453125 C 25.546875 -15.453125 24.960938 -15.671875 24.515625 -16.109375 C 24.066406 -16.554688 23.84375 -17.140625 23.84375 -17.859375 L 23.84375 -26.703125 C 23.84375 -27.421875 24.066406 -28.003906 24.515625 -28.453125 C 24.960938 -28.898438 25.546875 -29.125 26.265625 -29.125 L 31.90625 -29.125 C 32.625 -29.125 33.203125 -28.898438 33.640625 -28.453125 C 34.085938 -28.003906 34.3125 -27.421875 34.3125 -26.703125 L 34.3125 -1.296875 C 34.3125 -0.285156 34.179688 0.488281 33.921875 1.03125 C 33.660156 1.582031 33.195312 1.992188 32.53125 2.265625 C 31.613281 2.609375 29.992188 2.804688 27.671875 2.859375 Z M 13.484375 2.828125 C 12.421875 2.828125 11.890625 2.304688 11.890625 1.265625 L 11.890625 -26.703125 C 11.890625 -27.421875 12.109375 -28.003906 12.546875 -28.453125 C 12.992188 -28.898438 13.578125 -29.125 14.296875 -29.125 L 19.53125 -29.125 C 20.25 -29.125 20.820312 -28.90625 21.25 -28.46875 C 21.6875 -28.03125 21.90625 -27.453125 21.90625 -26.734375 L 21.90625 -17.859375 C 21.90625 -17.140625 21.679688 -16.554688 21.234375 -16.109375 C 20.796875 -15.671875 20.21875 -15.453125 19.5 -15.453125 L 15.046875 -15.453125 L 15.046875 1.265625 C 15.046875 2.304688 14.523438 2.828125 13.484375 2.828125 Z M 15.046875 -18.09375 L 18.390625 -18.09375 C 18.984375 -18.09375 19.28125 -18.390625 19.28125 -18.984375 L 19.28125 -21.09375 L 15.046875 -21.09375 Z M 27.515625 -18.09375 L 31.09375 -18.09375 L 31.09375 -21.09375 L 26.625 -21.09375 L 26.625 -18.984375 C 26.625 -18.390625 26.921875 -18.09375 27.515625 -18.09375 Z M 15.046875 -23.625 L 19.28125 -23.625 L 19.28125 -25.546875 C 19.28125 -26.140625 18.984375 -26.4375 18.390625 -26.4375 L 15.9375 -26.4375 C 15.34375 -26.4375 15.046875 -26.140625 15.046875 -25.546875 Z M 26.625 -23.625 L 31.09375 -23.625 L 31.09375 -25.546875 C 31.09375 -26.140625 30.796875 -26.4375 30.203125 -26.4375 L 27.515625 -26.4375 C 26.921875 -26.4375 26.625 -26.140625 26.625 -25.546875 Z M 26.625 -23.625 "/></g></g></g><g fill="#826e52" fill-opacity="1"><g transform="translate(375.976113, 32.689026)"><g><path d="M 28.71875 2.328125 C 27.96875 2.429688 26.710938 2.460938 24.953125 2.421875 C 23.765625 2.367188 23.023438 1.910156 22.734375 1.046875 C 22.265625 -0.347656 23.039062 -0.96875 25.0625 -0.8125 C 25.757812 -0.789062 26.566406 -0.78125 27.484375 -0.78125 C 28.179688 -0.78125 28.6875 -0.988281 29 -1.40625 C 29.570312 -2 30.007812 -3.734375 30.3125 -6.609375 C 30.601562 -9.359375 30.863281 -13.988281 31.09375 -20.5 C 31.113281 -21.195312 31.0625 -21.664062 30.9375 -21.90625 C 30.8125 -22.132812 30.585938 -22.25 30.265625 -22.25 L 22.46875 -22.25 C 21.695312 -20.507812 21.003906 -19.109375 20.390625 -18.046875 C 20.046875 -17.453125 19.554688 -17.101562 18.921875 -17 C 18.285156 -16.90625 17.660156 -17.09375 17.046875 -17.5625 C 16.898438 -17.664062 16.703125 -17.789062 16.453125 -17.9375 L 16.453125 -3.3125 C 16.453125 -2.59375 16.226562 -2.007812 15.78125 -1.5625 C 15.332031 -1.113281 14.753906 -0.890625 14.046875 -0.890625 L 5.75 -0.890625 C 5.039062 -0.890625 4.460938 -1.113281 4.015625 -1.5625 C 3.566406 -2.007812 3.34375 -2.59375 3.34375 -3.3125 L 3.34375 -22.796875 C 3.34375 -23.515625 3.566406 -24.097656 4.015625 -24.546875 C 4.460938 -24.992188 5.039062 -25.21875 5.75 -25.21875 L 7.46875 -25.21875 C 7.863281 -26.507812 8.195312 -27.910156 8.46875 -29.421875 C 8.6875 -30.628906 9.378906 -31.132812 10.546875 -30.9375 C 11.835938 -30.71875 12.25 -29.9375 11.78125 -28.59375 C 11.53125 -27.90625 11.171875 -26.90625 10.703125 -25.59375 C 10.617188 -25.414062 10.566406 -25.289062 10.546875 -25.21875 L 14.046875 -25.21875 C 14.753906 -25.21875 15.332031 -24.992188 15.78125 -24.546875 C 16.226562 -24.097656 16.453125 -23.515625 16.453125 -22.796875 L 16.453125 -18.203125 C 18.578125 -21.046875 20.25 -24.804688 21.46875 -29.484375 C 21.757812 -30.671875 22.457031 -31.128906 23.5625 -30.859375 C 24.664062 -30.585938 25.066406 -29.910156 24.765625 -28.828125 C 24.328125 -27.285156 23.984375 -26.144531 23.734375 -25.40625 L 31.9375 -25.40625 C 32.757812 -25.40625 33.34375 -25.082031 33.6875 -24.4375 C 34.101562 -23.664062 34.289062 -22.363281 34.25 -20.53125 C 34 -13.207031 33.710938 -8.070312 33.390625 -5.125 C 33.066406 -2.15625 32.570312 -0.25 31.90625 0.59375 C 31.476562 1.164062 31.007812 1.585938 30.5 1.859375 C 30.070312 2.078125 29.476562 2.234375 28.71875 2.328125 Z M 7.359375 -3.9375 L 12.40625 -3.9375 C 13 -3.9375 13.296875 -4.234375 13.296875 -4.828125 L 13.296875 -12.140625 L 6.46875 -12.140625 L 6.46875 -4.828125 C 6.46875 -4.234375 6.765625 -3.9375 7.359375 -3.9375 Z M 27.078125 -7.796875 C 26.554688 -7.453125 26.113281 -7.316406 25.75 -7.390625 C 25.394531 -7.460938 25.082031 -7.757812 24.8125 -8.28125 C 24.363281 -9.101562 23.832031 -9.992188 23.21875 -10.953125 C 22.570312 -11.992188 21.863281 -13.0625 21.09375 -14.15625 C 20.5 -14.988281 20.6875 -15.679688 21.65625 -16.234375 C 22.5 -16.679688 23.179688 -16.554688 23.703125 -15.859375 C 25.453125 -13.453125 26.820312 -11.421875 27.8125 -9.765625 C 28.039062 -9.316406 28.09375 -8.945312 27.96875 -8.65625 C 27.84375 -8.382812 27.546875 -8.097656 27.078125 -7.796875 Z M 6.46875 -15.15625 L 13.296875 -15.15625 L 13.296875 -21.3125 C 13.296875 -21.90625 13 -22.203125 12.40625 -22.203125 L 7.359375 -22.203125 C 6.765625 -22.203125 6.46875 -21.90625 6.46875 -21.3125 Z M 6.46875 -15.15625 "/></g></g></g><g fill="#826e52" fill-opacity="1"><g transform="translate(417.568976, 32.689026)"><g><path d="M 9.140625 1.859375 C 8.421875 1.859375 7.835938 1.632812 7.390625 1.1875 C 6.941406 0.738281 6.71875 0.15625 6.71875 -0.5625 L 6.71875 -3.640625 C 6.71875 -4.359375 6.941406 -4.9375 7.390625 -5.375 C 7.835938 -5.820312 8.421875 -6.046875 9.140625 -6.046875 L 28.265625 -6.046875 C 28.984375 -6.046875 29.5625 -5.820312 30 -5.375 C 30.445312 -4.9375 30.671875 -4.359375 30.671875 -3.640625 L 30.671875 -0.5625 C 30.671875 0.15625 30.445312 0.738281 30 1.1875 C 29.5625 1.632812 28.984375 1.859375 28.265625 1.859375 Z M 11 -0.59375 L 26.296875 -0.59375 C 26.890625 -0.59375 27.1875 -0.890625 27.1875 -1.484375 L 27.1875 -2.78125 C 27.1875 -3.375 26.890625 -3.671875 26.296875 -3.671875 L 11 -3.671875 C 10.40625 -3.671875 10.109375 -3.375 10.109375 -2.78125 L 10.109375 -1.484375 C 10.109375 -0.890625 10.40625 -0.59375 11 -0.59375 Z M 3.375 -7.796875 C 2.488281 -7.796875 2.046875 -8.238281 2.046875 -9.125 C 2.046875 -10.019531 2.488281 -10.46875 3.375 -10.46875 L 10.875 -10.46875 C 10.726562 -10.894531 10.546875 -11.304688 10.328125 -11.703125 C 10.179688 -11.972656 10.15625 -12.222656 10.25 -12.453125 C 10.351562 -12.691406 10.5625 -12.863281 10.875 -12.96875 L 11.296875 -13.078125 L 9.203125 -13.078125 C 8.660156 -13.078125 8.222656 -13.242188 7.890625 -13.578125 C 7.554688 -13.910156 7.390625 -14.347656 7.390625 -14.890625 L 7.390625 -17.609375 C 7.390625 -18.328125 7.613281 -18.90625 8.0625 -19.34375 C 8.507812 -19.789062 9.09375 -20.015625 9.8125 -20.015625 L 27.5625 -20.015625 C 28.28125 -20.015625 28.859375 -19.789062 29.296875 -19.34375 C 29.742188 -18.90625 29.96875 -18.328125 29.96875 -17.609375 L 29.96875 -15.484375 C 29.96875 -14.765625 29.742188 -14.179688 29.296875 -13.734375 C 28.859375 -13.296875 28.28125 -13.078125 27.5625 -13.078125 L 27 -13.078125 L 27.453125 -13 C 27.566406 -12.945312 27.585938 -12.882812 27.515625 -12.8125 C 27.296875 -12.4375 26.960938 -11.914062 26.515625 -11.25 C 26.296875 -10.90625 26.132812 -10.644531 26.03125 -10.46875 L 33.796875 -10.46875 C 34.691406 -10.46875 35.140625 -10.019531 35.140625 -9.125 C 35.140625 -8.238281 34.691406 -7.796875 33.796875 -7.796875 Z M 14.40625 -10.46875 L 22.546875 -10.46875 C 23.015625 -11.382812 23.410156 -12.253906 23.734375 -13.078125 L 13.1875 -13.078125 C 13.757812 -12.210938 14.164062 -11.34375 14.40625 -10.46875 Z M 11.546875 -15.296875 L 25.625 -15.296875 C 26.21875 -15.296875 26.515625 -15.59375 26.515625 -16.1875 L 26.515625 -16.90625 C 26.515625 -17.5 26.21875 -17.796875 25.625 -17.796875 L 11.546875 -17.796875 C 10.953125 -17.796875 10.65625 -17.5 10.65625 -16.90625 L 10.65625 -16.1875 C 10.65625 -15.59375 10.953125 -15.296875 11.546875 -15.296875 Z M 6.9375 -21.609375 C 6.125 -21.609375 5.71875 -22.03125 5.71875 -22.875 C 5.71875 -23.695312 6.125 -24.109375 6.9375 -24.109375 L 16.75 -24.109375 L 16.75 -26.21875 L 4.421875 -26.21875 C 3.597656 -26.21875 3.1875 -26.640625 3.1875 -27.484375 C 3.1875 -28.296875 3.597656 -28.703125 4.421875 -28.703125 L 16.75 -28.703125 L 16.75 -29.53125 C 16.75 -30.664062 17.332031 -31.234375 18.5 -31.234375 C 19.632812 -31.234375 20.203125 -30.664062 20.203125 -29.53125 L 20.203125 -28.703125 L 32.796875 -28.703125 C 33.609375 -28.703125 34.015625 -28.296875 34.015625 -27.484375 C 34.015625 -26.640625 33.609375 -26.21875 32.796875 -26.21875 L 20.203125 -26.21875 L 20.203125 -24.109375 L 30.5 -24.109375 C 31.3125 -24.109375 31.71875 -23.695312 31.71875 -22.875 C 31.71875 -22.03125 31.3125 -21.609375 30.5 -21.609375 Z M 6.9375 -21.609375 "/></g></g></g><g fill="#826e52" fill-opacity="1"><g transform="translate(459.161839, 32.689026)"><g><path d="M 8.25 2.890625 C 7.15625 2.890625 6.609375 2.347656 6.609375 1.265625 L 6.609375 -29.53125 C 6.609375 -30.613281 7.15625 -31.15625 8.25 -31.15625 C 9.332031 -31.15625 9.875 -30.613281 9.875 -29.53125 L 9.875 -25.03125 L 11 -25.515625 C 11.59375 -25.785156 12.035156 -25.648438 12.328125 -25.109375 C 12.828125 -24.140625 13.238281 -23.210938 13.5625 -22.328125 C 13.757812 -21.773438 14.039062 -21.75 14.40625 -22.25 C 15.226562 -23.3125 15.945312 -24.523438 16.5625 -25.890625 C 16.8125 -26.578125 17.226562 -27.050781 17.8125 -27.3125 C 18.394531 -27.570312 19.046875 -27.566406 19.765625 -27.296875 L 19.984375 -27.21875 L 19.984375 -28.859375 C 19.984375 -29.273438 20.113281 -29.613281 20.375 -29.875 C 20.632812 -30.132812 20.972656 -30.265625 21.390625 -30.265625 L 27.671875 -30.265625 C 28.285156 -30.265625 28.832031 -30.078125 29.3125 -29.703125 C 29.800781 -29.335938 30.144531 -28.847656 30.34375 -28.234375 C 31.332031 -25.484375 32.707031 -23.238281 34.46875 -21.5 C 34.988281 -21.082031 35.269531 -20.664062 35.3125 -20.25 C 35.363281 -19.84375 35.191406 -19.375 34.796875 -18.84375 C 34.398438 -18.3125 33.992188 -18.035156 33.578125 -18.015625 C 33.179688 -18.015625 32.722656 -18.25 32.203125 -18.71875 C 32.148438 -18.769531 32.097656 -18.820312 32.046875 -18.875 L 32.046875 -12.59375 C 32.046875 -11.875 31.820312 -11.289062 31.375 -10.84375 C 30.9375 -10.394531 30.359375 -10.171875 29.640625 -10.171875 L 28.234375 -10.171875 L 28.234375 -1.890625 C 28.234375 -1.421875 28.285156 -1.117188 28.390625 -0.984375 C 28.503906 -0.847656 28.75 -0.78125 29.125 -0.78125 L 31.5625 -0.78125 C 31.957031 -0.78125 32.21875 -1.050781 32.34375 -1.59375 C 32.414062 -2.539062 32.601562 -3.3125 32.90625 -3.90625 C 33.300781 -4.625 33.820312 -4.84375 34.46875 -4.5625 C 34.863281 -4.394531 35.132812 -3.960938 35.28125 -3.265625 C 35.40625 -2.703125 35.429688 -2.109375 35.359375 -1.484375 C 35.160156 -0.0234375 34.800781 0.988281 34.28125 1.5625 C 33.78125 2.082031 33 2.34375 31.9375 2.34375 L 28.5625 2.34375 C 27.070312 2.34375 26.066406 2.03125 25.546875 1.40625 C 25.054688 0.84375 24.8125 -0.242188 24.8125 -1.859375 L 24.8125 -10.171875 L 22.03125 -10.171875 C 21.707031 -7.304688 21.132812 -4.992188 20.3125 -3.234375 C 19.320312 -1.078125 17.785156 0.644531 15.703125 1.9375 C 14.546875 2.550781 13.671875 2.472656 13.078125 1.703125 C 12.304688 0.710938 12.6875 -0.210938 14.21875 -1.078125 C 15.6875 -2.085938 16.765625 -3.410156 17.453125 -5.046875 C 18.023438 -6.335938 18.421875 -8.046875 18.640625 -10.171875 L 17.015625 -10.171875 C 16.097656 -10.171875 15.640625 -10.628906 15.640625 -11.546875 L 15.640625 -18.875 C 15.390625 -18.625 15.140625 -18.375 14.890625 -18.125 C 14.492188 -17.78125 14.132812 -17.789062 13.8125 -18.15625 C 13.320312 -18.65625 12.953125 -19.015625 12.703125 -19.234375 L 12.296875 -19.046875 C 12.191406 -18.972656 12.117188 -18.988281 12.078125 -19.09375 C 11.648438 -20.820312 10.914062 -22.710938 9.875 -24.765625 L 9.875 1.265625 C 9.875 2.347656 9.332031 2.890625 8.25 2.890625 Z M 19.765625 -13.21875 L 27.75 -13.21875 C 28.34375 -13.21875 28.640625 -13.515625 28.640625 -14.109375 L 28.640625 -18.75 L 18.875 -18.75 L 18.875 -14.109375 C 18.875 -13.515625 19.171875 -13.21875 19.765625 -13.21875 Z M 3.96875 -14.453125 C 3.644531 -13.773438 3.140625 -13.597656 2.453125 -13.921875 C 2.023438 -14.097656 1.753906 -14.296875 1.640625 -14.515625 C 1.515625 -14.742188 1.523438 -15.039062 1.671875 -15.40625 C 2.441406 -17.363281 2.890625 -19.789062 3.015625 -22.6875 C 3.054688 -23.5625 3.5 -23.9375 4.34375 -23.8125 C 5.0625 -23.6875 5.421875 -23.289062 5.421875 -22.625 C 5.347656 -21.113281 5.195312 -19.644531 4.96875 -18.21875 C 4.75 -16.789062 4.414062 -15.535156 3.96875 -14.453125 Z M 17.90625 -21.84375 L 29.828125 -21.84375 C 28.734375 -23.59375 27.890625 -25.382812 27.296875 -27.21875 L 19.984375 -27.21875 L 20.3125 -27.078125 C 20.414062 -27.046875 20.453125 -26.984375 20.421875 -26.890625 C 19.804688 -25.179688 18.96875 -23.5 17.90625 -21.84375 Z M 17.90625 -21.84375 "/></g></g></g></g></g></g><g clip-path="url(#6a35f80713)"><g transform="matrix(1, 0, 0, 1, 96, 0.000000000000056843)"><g clip-path="url(#fc90320ce2)"><g fill="#826e52" fill-opacity="1"><g transform="translate(2.296322, 32.741774)"><g><path d="M 4.71875 2.9375 C 3.695312 2.9375 3.1875 2.441406 3.1875 1.453125 L 3.1875 -27.1875 C 3.1875 -27.90625 3.410156 -28.484375 3.859375 -28.921875 C 4.304688 -29.367188 4.890625 -29.59375 5.609375 -29.59375 L 11.328125 -29.59375 C 12.171875 -29.59375 12.769531 -29.335938 13.125 -28.828125 C 13.488281 -28.328125 13.546875 -27.609375 13.296875 -26.671875 C 12.484375 -23.671875 11.566406 -20.957031 10.546875 -18.53125 C 12.578125 -16.175781 13.59375 -13.601562 13.59375 -10.8125 C 13.59375 -8.582031 13.097656 -7.109375 12.109375 -6.390625 C 11.535156 -6.015625 10.867188 -5.765625 10.109375 -5.640625 C 9.554688 -5.597656 9.117188 -5.578125 8.796875 -5.578125 C 8.054688 -5.617188 7.648438 -5.960938 7.578125 -6.609375 C 7.578125 -6.679688 7.554688 -6.785156 7.515625 -6.921875 C 7.484375 -7.054688 7.453125 -7.164062 7.421875 -7.25 C 7.253906 -7.664062 7.25 -7.984375 7.40625 -8.203125 C 7.570312 -8.429688 7.890625 -8.53125 8.359375 -8.5 C 8.453125 -8.53125 8.585938 -8.546875 8.765625 -8.546875 C 9.179688 -8.546875 9.550781 -8.65625 9.875 -8.875 C 10.320312 -9.195312 10.546875 -9.976562 10.546875 -11.21875 C 10.546875 -12.945312 10 -14.664062 8.90625 -16.375 C 8.019531 -17.59375 7.765625 -18.707031 8.140625 -19.71875 C 8.679688 -21.351562 9.347656 -23.609375 10.140625 -26.484375 L 7.09375 -26.484375 C 6.5 -26.484375 6.203125 -26.1875 6.203125 -25.59375 L 6.203125 1.453125 C 6.203125 2.441406 5.707031 2.9375 4.71875 2.9375 Z M 24.21875 2.890625 C 23.101562 2.890625 22.546875 2.347656 22.546875 1.265625 L 22.546875 -7.46875 C 20.515625 -4.21875 18 -1.578125 15 0.453125 C 14.507812 0.742188 14.085938 0.863281 13.734375 0.8125 C 13.390625 0.769531 13.046875 0.535156 12.703125 0.109375 C 12.234375 -0.460938 12.046875 -0.945312 12.140625 -1.34375 C 12.242188 -1.738281 12.628906 -2.117188 13.296875 -2.484375 C 15.992188 -4.191406 18.285156 -6.375 20.171875 -9.03125 L 17.5625 -9.03125 C 16.84375 -9.03125 16.265625 -9.242188 15.828125 -9.671875 C 15.398438 -10.109375 15.1875 -10.6875 15.1875 -11.40625 L 15.1875 -19.421875 C 15.1875 -20.140625 15.410156 -20.722656 15.859375 -21.171875 C 16.304688 -21.617188 16.890625 -21.84375 17.609375 -21.84375 L 22.546875 -21.84375 L 22.546875 -24.59375 L 15.234375 -24.59375 C 14.265625 -24.59375 13.78125 -25.085938 13.78125 -26.078125 C 13.78125 -27.035156 14.265625 -27.515625 15.234375 -27.515625 L 22.546875 -27.515625 L 22.546875 -29.53125 C 22.546875 -30.613281 23.101562 -31.15625 24.21875 -31.15625 C 25.300781 -31.15625 25.84375 -30.613281 25.84375 -29.53125 L 25.84375 -27.515625 L 33.421875 -27.515625 C 34.390625 -27.515625 34.875 -27.035156 34.875 -26.078125 C 34.875 -25.085938 34.390625 -24.59375 33.421875 -24.59375 L 25.84375 -24.59375 L 25.84375 -21.84375 L 31.046875 -21.84375 C 31.765625 -21.84375 32.347656 -21.617188 32.796875 -21.171875 C 33.242188 -20.722656 33.46875 -20.140625 33.46875 -19.421875 L 33.46875 -11.4375 C 33.46875 -10.71875 33.242188 -10.132812 32.796875 -9.6875 C 32.347656 -9.25 31.765625 -9.03125 31.046875 -9.03125 L 28 -9.03125 C 29.632812 -6.445312 31.640625 -4.34375 34.015625 -2.71875 C 34.660156 -2.34375 35.023438 -1.960938 35.109375 -1.578125 C 35.203125 -1.191406 35.023438 -0.726562 34.578125 -0.1875 C 34.203125 0.28125 33.84375 0.53125 33.5 0.5625 C 33.15625 0.601562 32.722656 0.453125 32.203125 0.109375 C 29.773438 -1.773438 27.65625 -4.335938 25.84375 -7.578125 L 25.84375 1.265625 C 25.84375 2.347656 25.300781 2.890625 24.21875 2.890625 Z M 19.09375 -11.546875 L 22.546875 -11.546875 L 22.546875 -14.265625 L 18.203125 -14.265625 L 18.203125 -12.4375 C 18.203125 -11.84375 18.5 -11.546875 19.09375 -11.546875 Z M 25.84375 -11.546875 L 29.375 -11.546875 C 29.96875 -11.546875 30.265625 -11.84375 30.265625 -12.4375 L 30.265625 -14.265625 L 25.84375 -14.265625 Z M 18.203125 -16.640625 L 22.546875 -16.640625 L 22.546875 -19.34375 L 19.09375 -19.34375 C 18.5 -19.34375 18.203125 -19.046875 18.203125 -18.453125 Z M 25.84375 -16.640625 L 30.265625 -16.640625 L 30.265625 -18.453125 C 30.265625 -19.046875 29.96875 -19.34375 29.375 -19.34375 L 25.84375 -19.34375 Z M 25.84375 -16.640625 "/></g></g></g><g fill="#826e52" fill-opacity="1"><g transform="translate(43.889185, 32.741774)"><g><path d="M 5.5 2.53125 C 3.9375 2.820312 2.945312 2.582031 2.53125 1.8125 C 2.175781 1.195312 2.296875 0.679688 2.890625 0.265625 C 3.367188 -0.109375 4.050781 -0.367188 4.9375 -0.515625 C 7.664062 -1.109375 9.832031 -1.898438 11.4375 -2.890625 C 12.925781 -3.804688 14.050781 -4.984375 14.8125 -6.421875 L 3.640625 -6.421875 C 2.671875 -6.421875 2.1875 -6.914062 2.1875 -7.90625 C 2.1875 -8.875 2.671875 -9.359375 3.640625 -9.359375 L 15.890625 -9.359375 C 16.085938 -10.128906 16.210938 -10.757812 16.265625 -11.25 C 16.410156 -12.3125 17.003906 -12.84375 18.046875 -12.84375 L 18.15625 -12.84375 C 18.03125 -13.394531 17.859375 -13.929688 17.640625 -14.453125 C 17.242188 -15.316406 17.515625 -15.75 18.453125 -15.75 L 20.6875 -15.75 C 20.9375 -15.75 21.097656 -15.78125 21.171875 -15.84375 C 21.242188 -15.90625 21.28125 -16.046875 21.28125 -16.265625 L 21.28125 -24.84375 L 16.421875 -24.84375 L 16.421875 -22.984375 C 16.421875 -20.660156 16 -18.71875 15.15625 -17.15625 C 13.988281 -14.976562 11.921875 -13.207031 8.953125 -11.84375 C 8.429688 -11.644531 7.898438 -11.535156 7.359375 -11.515625 C 6.710938 -11.484375 6.253906 -11.628906 5.984375 -11.953125 C 5.554688 -12.453125 5.617188 -13.007812 6.171875 -13.625 C 6.609375 -14.101562 7.238281 -14.515625 8.0625 -14.859375 C 10.132812 -15.941406 11.582031 -17.28125 12.40625 -18.875 C 12.976562 -19.976562 13.265625 -21.363281 13.265625 -23.03125 L 13.265625 -24.84375 L 3.75 -24.84375 C 2.8125 -24.84375 2.34375 -25.3125 2.34375 -26.25 C 2.34375 -27.195312 2.8125 -27.671875 3.75 -27.671875 L 16.859375 -27.671875 L 16.859375 -29.453125 C 16.859375 -30.585938 17.425781 -31.15625 18.5625 -31.15625 C 19.707031 -31.15625 20.28125 -30.585938 20.28125 -29.453125 L 20.28125 -27.671875 L 33.421875 -27.671875 C 34.367188 -27.671875 34.84375 -27.195312 34.84375 -26.25 C 34.84375 -25.3125 34.367188 -24.84375 33.421875 -24.84375 L 24.59375 -24.84375 L 24.59375 -16.234375 C 24.59375 -15.390625 24.492188 -14.757812 24.296875 -14.34375 C 24.097656 -13.84375 23.722656 -13.457031 23.171875 -13.1875 C 22.554688 -12.863281 21.519531 -12.675781 20.0625 -12.625 C 19.882812 -11.1875 19.695312 -10.097656 19.5 -9.359375 L 33.421875 -9.359375 C 34.390625 -9.359375 34.875 -8.875 34.875 -7.90625 C 34.875 -6.914062 34.390625 -6.421875 33.421875 -6.421875 L 21.953125 -6.421875 C 23.878906 -3.503906 27.28125 -1.597656 32.15625 -0.703125 C 33.15625 -0.578125 33.851562 -0.332031 34.25 0.03125 C 34.71875 0.476562 34.726562 1.0625 34.28125 1.78125 C 33.78125 2.570312 32.875 2.867188 31.5625 2.671875 C 28.269531 2.078125 25.578125 1.070312 23.484375 -0.34375 C 21.398438 -1.769531 19.75 -3.722656 18.53125 -6.203125 C 17.613281 -3.992188 16.191406 -2.222656 14.265625 -0.890625 C 12.160156 0.597656 9.238281 1.738281 5.5 2.53125 Z M 33.890625 -15.765625 C 33.378906 -15.484375 32.976562 -15.351562 32.6875 -15.375 C 32.332031 -15.394531 32.019531 -15.617188 31.75 -16.046875 C 30.59375 -17.578125 29.160156 -19.1875 27.453125 -20.875 C 26.554688 -21.757812 26.65625 -22.488281 27.75 -23.0625 C 28.414062 -23.40625 29.019531 -23.34375 29.5625 -22.875 C 30.53125 -22.007812 31.492188 -21.082031 32.453125 -20.09375 C 33.328125 -19.175781 34 -18.410156 34.46875 -17.796875 C 34.789062 -17.347656 34.898438 -16.96875 34.796875 -16.65625 C 34.703125 -16.34375 34.398438 -16.046875 33.890625 -15.765625 Z M 5.125 -16.5625 C 4.40625 -16.019531 3.710938 -16.035156 3.046875 -16.609375 C 2.054688 -17.398438 2.15625 -18.191406 3.34375 -18.984375 C 4.800781 -20.097656 5.976562 -21.269531 6.875 -22.5 C 7.320312 -23.195312 7.960938 -23.4375 8.796875 -23.21875 C 9.960938 -22.914062 10.25 -22.269531 9.65625 -21.28125 C 9.0625 -20.4375 8.40625 -19.632812 7.6875 -18.875 C 6.96875 -18.125 6.113281 -17.351562 5.125 -16.5625 Z M 5.125 -16.5625 "/></g></g></g><g fill="#826e52" fill-opacity="1"><g transform="translate(85.482049, 32.741774)"><g><path d="M 18.203125 2.15625 C 17.140625 2.695312 16.347656 2.625 15.828125 1.9375 C 15.109375 0.988281 15.453125 0.144531 16.859375 -0.59375 C 19.109375 -2.082031 20.609375 -4.222656 21.359375 -7.015625 L 18.984375 -7.015625 C 18.335938 -7.015625 17.816406 -7.210938 17.421875 -7.609375 C 17.023438 -8.003906 16.828125 -8.523438 16.828125 -9.171875 L 16.828125 -9.328125 C 16.578125 -9.097656 16.316406 -8.875 16.046875 -8.65625 C 15.597656 -8.3125 15.226562 -8.3125 14.9375 -8.65625 C 14.582031 -9.070312 14.132812 -9.53125 13.59375 -10.03125 L 13.59375 -0.859375 C 13.59375 -0.015625 13.503906 0.640625 13.328125 1.109375 C 13.160156 1.609375 12.84375 2.003906 12.375 2.296875 C 11.820312 2.597656 10.941406 2.785156 9.734375 2.859375 C 8.421875 2.910156 7.640625 2.476562 7.390625 1.5625 C 7.046875 0.300781 7.691406 -0.304688 9.328125 -0.265625 C 9.546875 -0.265625 9.753906 -0.265625 9.953125 -0.265625 C 10.347656 -0.285156 10.546875 -0.492188 10.546875 -0.890625 L 10.546875 -8.953125 L 10.140625 -8.5 C 9.992188 -8.351562 9.867188 -8.34375 9.765625 -8.46875 C 9.148438 -9.238281 8.085938 -10.238281 6.578125 -11.46875 C 6.398438 -6.144531 5.742188 -1.800781 4.609375 1.5625 C 4.410156 2.101562 4.160156 2.429688 3.859375 2.546875 C 3.566406 2.660156 3.171875 2.566406 2.671875 2.265625 C 2.222656 2.015625 1.941406 1.734375 1.828125 1.421875 C 1.722656 1.117188 1.757812 0.71875 1.9375 0.21875 C 3.144531 -3.414062 3.75 -8.898438 3.75 -16.234375 L 3.75 -27.03125 C 3.75 -27.75 3.972656 -28.332031 4.421875 -28.78125 C 4.867188 -29.226562 5.453125 -29.453125 6.171875 -29.453125 L 11.25 -29.453125 C 11.96875 -29.453125 12.535156 -29.238281 12.953125 -28.8125 C 13.378906 -28.394531 13.59375 -27.828125 13.59375 -27.109375 L 13.59375 -10.875 C 15.28125 -12.070312 16.691406 -13.507812 17.828125 -15.1875 L 15.890625 -15.1875 C 14.898438 -15.1875 14.40625 -15.679688 14.40625 -16.671875 C 14.40625 -17.660156 14.898438 -18.15625 15.890625 -18.15625 L 19.53125 -18.15625 C 19.957031 -19.03125 20.351562 -20.046875 20.71875 -21.203125 L 17.96875 -21.203125 C 17.132812 -21.203125 16.71875 -21.625 16.71875 -22.46875 L 16.71875 -22.578125 L 16.671875 -22.546875 C 16.523438 -22.398438 16.316406 -22.398438 16.046875 -22.546875 C 15.503906 -22.910156 15.132812 -23.332031 14.9375 -23.8125 C 14.707031 -24.332031 14.78125 -24.789062 15.15625 -25.1875 C 16.039062 -26.375 16.742188 -27.609375 17.265625 -28.890625 C 17.585938 -29.765625 18.222656 -30.085938 19.171875 -29.859375 C 20.253906 -29.609375 20.570312 -28.96875 20.125 -27.9375 C 19.65625 -26.9375 19.085938 -25.921875 18.421875 -24.890625 C 18.078125 -24.390625 18.203125 -24.140625 18.796875 -24.140625 L 21.546875 -24.140625 C 21.890625 -25.628906 22.195312 -27.375 22.46875 -29.375 C 22.59375 -30.46875 23.175781 -30.953125 24.21875 -30.828125 C 25.257812 -30.703125 25.703125 -30.109375 25.546875 -29.046875 C 25.347656 -27.535156 25.066406 -25.898438 24.703125 -24.140625 L 31.125 -24.140625 C 31.738281 -24.140625 31.882812 -24.375 31.5625 -24.84375 C 31.09375 -25.613281 30.378906 -26.617188 29.421875 -27.859375 C 28.722656 -28.703125 28.878906 -29.367188 29.890625 -29.859375 C 30.609375 -30.234375 31.242188 -30.097656 31.796875 -29.453125 C 32.835938 -28.210938 33.691406 -27.097656 34.359375 -26.109375 C 34.703125 -25.585938 34.785156 -25.039062 34.609375 -24.46875 C 34.441406 -23.90625 34.0625 -23.445312 33.46875 -23.09375 L 33.359375 -23.03125 L 33.359375 -21.984375 C 33.359375 -21.460938 33.097656 -21.203125 32.578125 -21.203125 L 29.125 -21.203125 C 29.4375 -20.160156 29.832031 -19.144531 30.3125 -18.15625 L 33.875 -18.15625 C 34.863281 -18.15625 35.359375 -17.660156 35.359375 -16.671875 C 35.359375 -15.679688 34.863281 -15.1875 33.875 -15.1875 L 31.9375 -15.1875 C 32.726562 -14.070312 33.582031 -13.109375 34.5 -12.296875 C 35.5625 -11.546875 35.695312 -10.675781 34.90625 -9.6875 C 34.269531 -8.894531 33.503906 -8.847656 32.609375 -9.546875 C 32.609375 -9.273438 32.582031 -8.988281 32.53125 -8.6875 C 32.332031 -5.269531 32.109375 -2.820312 31.859375 -1.34375 C 31.617188 0.21875 31.273438 1.257812 30.828125 1.78125 C 30.285156 2.40625 29.503906 2.753906 28.484375 2.828125 C 28.015625 2.898438 27.273438 2.9375 26.265625 2.9375 C 25.148438 2.882812 24.476562 2.472656 24.25 1.703125 C 23.90625 0.546875 24.550781 0.00390625 26.1875 0.078125 C 26.457031 0.078125 26.726562 0.078125 27 0.078125 C 27.46875 0.0976562 27.851562 -0.015625 28.15625 -0.265625 C 28.644531 -0.828125 29.023438 -3.078125 29.296875 -7.015625 L 24.515625 -7.015625 C 24.066406 -4.960938 23.375 -3.21875 22.4375 -1.78125 C 21.394531 -0.195312 19.984375 1.113281 18.203125 2.15625 Z M 17.5625 -9.984375 L 21.90625 -9.984375 C 22.007812 -10.804688 22.070312 -11.476562 22.09375 -12 C 22.164062 -13.039062 22.710938 -13.5625 23.734375 -13.5625 C 24.796875 -13.5625 25.289062 -13.015625 25.21875 -11.921875 C 25.164062 -11.472656 25.09375 -10.828125 25 -9.984375 L 31.203125 -9.984375 C 31.816406 -9.984375 31.914062 -10.195312 31.5 -10.625 C 30.28125 -12.007812 29.25 -13.53125 28.40625 -15.1875 L 21.5 -15.1875 C 20.382812 -13.15625 19.070312 -11.421875 17.5625 -9.984375 Z M 10.546875 -11.8125 L 10.546875 -17.609375 L 10.171875 -17.15625 C 10.023438 -16.957031 9.90625 -16.929688 9.8125 -17.078125 C 9.238281 -17.753906 8.195312 -18.671875 6.6875 -19.828125 L 6.6875 -16.265625 C 6.6875 -14.953125 6.671875 -13.953125 6.640625 -13.265625 L 7.171875 -13.8125 C 7.421875 -14.0625 7.679688 -14.085938 7.953125 -13.890625 C 8.515625 -13.515625 9.34375 -12.859375 10.4375 -11.921875 C 10.488281 -11.867188 10.523438 -11.832031 10.546875 -11.8125 Z M 22.921875 -18.15625 L 27.15625 -18.15625 C 26.757812 -19.175781 26.4375 -20.191406 26.1875 -21.203125 L 23.953125 -21.203125 C 23.753906 -20.515625 23.59375 -19.992188 23.46875 -19.640625 C 23.34375 -19.296875 23.160156 -18.800781 22.921875 -18.15625 Z M 10.546875 -20.390625 L 10.546875 -25.40625 C 10.546875 -26 10.25 -26.296875 9.65625 -26.296875 L 7.578125 -26.296875 C 6.984375 -26.296875 6.6875 -26 6.6875 -25.40625 L 6.6875 -21.65625 L 7.203125 -22.203125 C 7.429688 -22.429688 7.679688 -22.472656 7.953125 -22.328125 C 8.960938 -21.609375 9.828125 -20.960938 10.546875 -20.390625 Z M 10.546875 -20.390625 "/></g></g></g><g fill="#826e52" fill-opacity="1"><g transform="translate(127.074912, 32.741774)"><g/></g></g><g fill="#826e52" fill-opacity="1"><g transform="translate(139.887924, 32.741774)"><g><path d="M 24.953125 -1.1875 C 24.609375 -0.0703125 23.941406 0.332031 22.953125 0.03125 C 21.367188 -0.507812 19.695312 -1.363281 17.9375 -2.53125 C 15.613281 -0.519531 12.90625 0.484375 9.8125 0.484375 C 7.226562 0.484375 5.144531 -0.242188 3.5625 -1.703125 C 2.03125 -3.117188 1.265625 -4.925781 1.265625 -7.125 C 1.265625 -8.832031 1.796875 -10.382812 2.859375 -11.78125 C 3.648438 -12.84375 4.875 -13.914062 6.53125 -15 C 5.34375 -17.300781 4.75 -19.359375 4.75 -21.171875 C 4.75 -23.078125 5.359375 -24.660156 6.578125 -25.921875 C 7.816406 -27.210938 9.425781 -27.859375 11.40625 -27.859375 C 13.1875 -27.859375 14.597656 -27.335938 15.640625 -26.296875 C 16.679688 -25.253906 17.203125 -23.890625 17.203125 -22.203125 C 17.203125 -20.597656 16.566406 -19.078125 15.296875 -17.640625 C 14.503906 -16.753906 13.117188 -15.601562 11.140625 -14.1875 C 12.898438 -11.707031 15.066406 -9.441406 17.640625 -7.390625 C 18.972656 -9.097656 20.023438 -11.078125 20.796875 -13.328125 C 21.140625 -14.421875 21.859375 -14.96875 22.953125 -14.96875 C 24.484375 -14.96875 25.003906 -14.210938 24.515625 -12.703125 C 23.472656 -9.972656 22.132812 -7.519531 20.5 -5.34375 C 21.738281 -4.582031 22.890625 -3.976562 23.953125 -3.53125 C 24.523438 -3.332031 24.882812 -3.035156 25.03125 -2.640625 C 25.175781 -2.285156 25.148438 -1.800781 24.953125 -1.1875 Z M 10.328125 -2.859375 C 11.910156 -2.859375 13.484375 -3.476562 15.046875 -4.71875 C 13.828125 -5.757812 12.613281 -6.921875 11.40625 -8.203125 C 10.257812 -9.472656 9.21875 -10.773438 8.28125 -12.109375 C 6.320312 -10.453125 5.34375 -8.878906 5.34375 -7.390625 C 5.34375 -6.054688 5.8125 -4.96875 6.75 -4.125 C 7.695312 -3.28125 8.890625 -2.859375 10.328125 -2.859375 Z M 9.515625 -16.90625 C 10.972656 -17.863281 11.984375 -18.65625 12.546875 -19.28125 C 13.390625 -20.164062 13.8125 -21.128906 13.8125 -22.171875 C 13.8125 -22.960938 13.628906 -23.609375 13.265625 -24.109375 C 12.835938 -24.628906 12.226562 -24.890625 11.4375 -24.890625 C 10.519531 -24.890625 9.773438 -24.546875 9.203125 -23.859375 C 8.640625 -23.179688 8.359375 -22.296875 8.359375 -21.203125 C 8.359375 -19.941406 8.742188 -18.507812 9.515625 -16.90625 Z M 9.515625 -16.90625 "/></g></g></g><g fill="#826e52" fill-opacity="1"><g transform="translate(170.525898, 32.741774)"><g/></g></g><g fill="#826e52" fill-opacity="1"><g transform="translate(183.338911, 32.741774)"><g><path d="M 8.796875 2.890625 C 7.734375 2.890625 7.203125 2.359375 7.203125 1.296875 L 7.203125 -12.921875 C 6.265625 -10.003906 5.25 -7.554688 4.15625 -5.578125 C 3.738281 -4.898438 3.367188 -4.582031 3.046875 -4.625 C 2.722656 -4.664062 2.375 -5.039062 2 -5.75 C 1.78125 -6.175781 1.671875 -6.535156 1.671875 -6.828125 C 1.671875 -7.128906 1.796875 -7.46875 2.046875 -7.84375 C 3.035156 -9.375 3.972656 -11.289062 4.859375 -13.59375 C 5.703125 -15.800781 6.382812 -18.003906 6.90625 -20.203125 L 3.75 -20.203125 C 2.6875 -20.203125 2.15625 -20.734375 2.15625 -21.796875 C 2.15625 -22.867188 2.6875 -23.40625 3.75 -23.40625 L 7.203125 -23.40625 L 7.203125 -29.5625 C 7.203125 -30.625 7.734375 -31.15625 8.796875 -31.15625 C 9.867188 -31.15625 10.40625 -30.625 10.40625 -29.5625 L 10.40625 -23.40625 L 13.03125 -23.40625 C 14.101562 -23.40625 14.640625 -22.867188 14.640625 -21.796875 C 14.640625 -20.734375 14.101562 -20.203125 13.03125 -20.203125 L 10.40625 -20.203125 L 10.40625 -17.859375 C 11.914062 -15.804688 13.238281 -13.914062 14.375 -12.1875 C 14.570312 -11.914062 14.644531 -11.664062 14.59375 -11.4375 C 14.570312 -11.289062 14.445312 -11.066406 14.21875 -10.765625 C 14.175781 -10.691406 14.140625 -10.644531 14.109375 -10.625 C 13.691406 -10 13.328125 -9.675781 13.015625 -9.65625 C 12.703125 -9.632812 12.398438 -9.941406 12.109375 -10.578125 C 11.765625 -11.273438 11.195312 -12.316406 10.40625 -13.703125 L 10.40625 1.296875 C 10.40625 2.359375 9.867188 2.890625 8.796875 2.890625 Z M 28.890625 2.890625 C 27.679688 2.867188 27.003906 2.351562 26.859375 1.34375 L 26.859375 1.296875 L 26.8125 1.21875 C 26.488281 0.351562 26.875 -0.0390625 27.96875 0.03125 C 28.289062 0.03125 28.613281 0.03125 28.9375 0.03125 C 29.40625 0.0625 29.773438 -0.0546875 30.046875 -0.328125 C 30.566406 -0.972656 30.988281 -2.992188 31.3125 -6.390625 C 31.363281 -7.003906 31.328125 -7.4375 31.203125 -7.6875 C 31.097656 -7.882812 30.882812 -7.984375 30.5625 -7.984375 L 29.296875 -7.984375 C 28.679688 -6.128906 27.867188 -4.296875 26.859375 -2.484375 C 25.785156 -0.648438 24.671875 0.878906 23.515625 2.109375 C 23.140625 2.460938 22.816406 2.640625 22.546875 2.640625 C 22.242188 2.640625 21.910156 2.460938 21.546875 2.109375 C 21.097656 1.691406 20.863281 1.328125 20.84375 1.015625 C 20.832031 0.710938 21.066406 0.363281 21.546875 -0.03125 C 23.617188 -2.09375 25.273438 -4.742188 26.515625 -7.984375 L 24 -7.984375 C 23.175781 -6.421875 22.125 -4.847656 20.84375 -3.265625 C 19.570312 -1.679688 18.257812 -0.320312 16.90625 0.8125 C 16.507812 1.132812 16.15625 1.28125 15.84375 1.25 C 15.53125 1.226562 15.203125 1.046875 14.859375 0.703125 C 14.410156 0.253906 14.210938 -0.132812 14.265625 -0.46875 C 14.316406 -0.800781 14.597656 -1.148438 15.109375 -1.515625 C 17.367188 -3.203125 19.328125 -5.359375 20.984375 -7.984375 L 18.34375 -7.984375 C 17.40625 -6.972656 16.503906 -6.082031 15.640625 -5.3125 C 14.941406 -4.789062 14.285156 -4.828125 13.671875 -5.421875 C 12.847656 -6.191406 12.910156 -6.921875 13.859375 -7.609375 C 15.691406 -9.097656 17.257812 -10.882812 18.5625 -12.96875 L 15.9375 -12.96875 C 14.988281 -12.96875 14.515625 -13.4375 14.515625 -14.375 C 14.515625 -15.3125 14.988281 -15.78125 15.9375 -15.78125 L 34.0625 -15.78125 C 35 -15.78125 35.46875 -15.3125 35.46875 -14.375 C 35.46875 -13.4375 35 -12.96875 34.0625 -12.96875 L 21.84375 -12.96875 C 21.488281 -12.289062 21.015625 -11.535156 20.421875 -10.703125 L 32.3125 -10.703125 C 33.125 -10.703125 33.707031 -10.390625 34.0625 -9.765625 C 34.457031 -9.046875 34.578125 -7.867188 34.421875 -6.234375 C 34.179688 -3.734375 33.925781 -1.878906 33.65625 -0.671875 C 33.375 0.492188 33.023438 1.300781 32.609375 1.75 C 32.085938 2.363281 31.382812 2.722656 30.5 2.828125 C 30 2.867188 29.460938 2.890625 28.890625 2.890625 Z M 19.421875 -17.5 C 18.703125 -17.5 18.117188 -17.71875 17.671875 -18.15625 C 17.234375 -18.601562 17.015625 -19.1875 17.015625 -19.90625 L 17.015625 -27.453125 C 17.015625 -28.171875 17.234375 -28.75 17.671875 -29.1875 C 18.117188 -29.632812 18.703125 -29.859375 19.421875 -29.859375 L 30.609375 -29.859375 C 31.328125 -29.859375 31.90625 -29.632812 32.34375 -29.1875 C 32.789062 -28.75 33.015625 -28.171875 33.015625 -27.453125 L 33.015625 -19.90625 C 33.015625 -19.1875 32.789062 -18.601562 32.34375 -18.15625 C 31.90625 -17.71875 31.328125 -17.5 30.609375 -17.5 Z M 21.171875 -19.9375 L 28.78125 -19.9375 C 29.375 -19.9375 29.671875 -20.234375 29.671875 -20.828125 L 29.671875 -22.546875 L 20.28125 -22.546875 L 20.28125 -20.828125 C 20.28125 -20.234375 20.578125 -19.9375 21.171875 -19.9375 Z M 20.28125 -24.84375 L 29.671875 -24.84375 L 29.671875 -26.484375 C 29.671875 -27.078125 29.375 -27.375 28.78125 -27.375 L 21.171875 -27.375 C 20.578125 -27.375 20.28125 -27.078125 20.28125 -26.484375 Z M 20.28125 -24.84375 "/></g></g></g><g fill="#826e52" fill-opacity="1"><g transform="translate(224.931774, 32.741774)"><g><path d="M 5.6875 2.34375 C 4.375 2.789062 3.421875 2.53125 2.828125 1.5625 C 2.003906 0.269531 2.472656 -0.644531 4.234375 -1.1875 C 8.765625 -2.675781 12.601562 -4.707031 15.75 -7.28125 C 12.28125 -11.113281 9.519531 -15.929688 7.46875 -21.734375 L 3.78125 -21.734375 C 2.664062 -21.734375 2.109375 -22.285156 2.109375 -23.390625 C 2.109375 -24.503906 2.664062 -25.0625 3.78125 -25.0625 L 16.78125 -25.0625 L 16.78125 -29.421875 C 16.78125 -30.578125 17.375 -31.15625 18.5625 -31.15625 C 19.726562 -31.15625 20.3125 -30.578125 20.3125 -29.421875 L 20.3125 -25.0625 L 33.5 -25.0625 C 34.613281 -25.0625 35.171875 -24.503906 35.171875 -23.390625 C 35.171875 -22.285156 34.613281 -21.734375 33.5 -21.734375 L 29.71875 -21.734375 C 27.65625 -15.984375 24.816406 -11.203125 21.203125 -7.390625 C 24.398438 -4.710938 28.238281 -2.671875 32.71875 -1.265625 C 34.65625 -0.742188 35.125 0.222656 34.125 1.640625 C 33.507812 2.523438 32.582031 2.785156 31.34375 2.421875 C 26.269531 0.804688 21.9375 -1.570312 18.34375 -4.71875 C 14.90625 -1.820312 10.6875 0.53125 5.6875 2.34375 Z M 18.53125 -9.84375 C 21.601562 -13.039062 23.992188 -17.003906 25.703125 -21.734375 L 11.21875 -21.734375 C 12.976562 -17.046875 15.414062 -13.082031 18.53125 -9.84375 Z M 18.53125 -9.84375 "/></g></g></g><g fill="#826e52" fill-opacity="1"><g transform="translate(266.524637, 32.741774)"><g><path d="M 6.71875 1.046875 C 6 1.046875 5.414062 0.820312 4.96875 0.375 C 4.53125 -0.0703125 4.3125 -0.65625 4.3125 -1.375 L 4.3125 -12.8125 C 4.3125 -13.53125 4.53125 -14.113281 4.96875 -14.5625 C 5.414062 -15.007812 6 -15.234375 6.71875 -15.234375 L 13.078125 -15.234375 L 13.078125 -18.390625 L 4.078125 -18.390625 C 3.046875 -18.390625 2.53125 -18.90625 2.53125 -19.9375 C 2.53125 -20.976562 3.046875 -21.5 4.078125 -21.5 L 33.09375 -21.5 C 34.132812 -21.5 34.65625 -20.976562 34.65625 -19.9375 C 34.65625 -18.90625 34.132812 -18.390625 33.09375 -18.390625 L 23.578125 -18.390625 L 23.578125 -15.234375 L 30.859375 -15.234375 C 31.578125 -15.234375 32.160156 -15.007812 32.609375 -14.5625 C 33.054688 -14.113281 33.28125 -13.53125 33.28125 -12.8125 L 33.28125 -1.375 C 33.28125 -0.65625 33.054688 -0.0703125 32.609375 0.375 C 32.160156 0.820312 31.578125 1.046875 30.859375 1.046875 Z M 8.4375 -2.078125 L 29.046875 -2.078125 C 29.640625 -2.078125 29.9375 -2.375 29.9375 -2.96875 L 29.9375 -5.6875 C 29.757812 -5.65625 29.488281 -5.640625 29.125 -5.640625 L 24.46875 -5.640625 C 22.863281 -5.640625 21.785156 -5.898438 21.234375 -6.421875 C 20.691406 -6.941406 20.421875 -7.945312 20.421875 -9.4375 L 20.421875 -12.25 L 16.078125 -12.25 C 16.054688 -11.164062 15.773438 -10.066406 15.234375 -8.953125 C 14.535156 -7.535156 13.503906 -6.347656 12.140625 -5.390625 C 10.410156 -4.441406 9.078125 -4.476562 8.140625 -5.5 C 8.015625 -5.664062 7.816406 -5.847656 7.546875 -6.046875 L 7.546875 -2.96875 C 7.546875 -2.375 7.84375 -2.078125 8.4375 -2.078125 Z M 7.546875 -6.171875 C 9.453125 -6.835938 10.898438 -7.8125 11.890625 -9.09375 C 12.648438 -10.113281 13.046875 -11.164062 13.078125 -12.25 L 8.4375 -12.25 C 7.84375 -12.25 7.546875 -11.953125 7.546875 -11.359375 Z M 24.890625 -8.390625 L 28.703125 -8.390625 C 29.222656 -8.390625 29.519531 -8.425781 29.59375 -8.5 C 29.644531 -8.550781 29.722656 -8.550781 29.828125 -8.5 L 29.9375 -8.4375 L 29.9375 -11.359375 C 29.9375 -11.953125 29.640625 -12.25 29.046875 -12.25 L 23.578125 -12.25 L 23.578125 -9.4375 C 23.578125 -8.96875 23.648438 -8.675781 23.796875 -8.5625 C 23.953125 -8.445312 24.316406 -8.390625 24.890625 -8.390625 Z M 16.078125 -15.234375 L 20.421875 -15.234375 L 20.421875 -18.390625 L 16.078125 -18.390625 Z M 12.140625 -22.328125 C 11.003906 -22.328125 10.4375 -22.894531 10.4375 -24.03125 L 10.4375 -25.296875 L 4.046875 -25.296875 C 3.003906 -25.296875 2.484375 -25.8125 2.484375 -26.84375 C 2.484375 -27.882812 3.003906 -28.40625 4.046875 -28.40625 L 10.4375 -28.40625 L 10.4375 -29.453125 C 10.4375 -30.585938 11.003906 -31.15625 12.140625 -31.15625 C 13.285156 -31.15625 13.859375 -30.585938 13.859375 -29.453125 L 13.859375 -28.40625 L 23.140625 -28.40625 L 23.140625 -29.453125 C 23.140625 -30.585938 23.722656 -31.15625 24.890625 -31.15625 C 26.023438 -31.15625 26.59375 -30.585938 26.59375 -29.453125 L 26.59375 -28.40625 L 33.015625 -28.40625 C 34.054688 -28.40625 34.578125 -27.882812 34.578125 -26.84375 C 34.578125 -25.8125 34.054688 -25.296875 33.015625 -25.296875 L 26.59375 -25.296875 L 26.59375 -24.03125 C 26.59375 -22.894531 26.023438 -22.328125 24.890625 -22.328125 C 23.722656 -22.328125 23.140625 -22.894531 23.140625 -24.03125 L 23.140625 -25.296875 L 13.859375 -25.296875 L 13.859375 -24.03125 C 13.859375 -22.894531 13.285156 -22.328125 12.140625 -22.328125 Z M 12.140625 -22.328125 "/></g></g></g></g></g></g></g></g></svg>