<svg xmlns="http://www.w3.org/2000/svg" xmlns:xlink="http://www.w3.org/1999/xlink" width="1080" zoomAndPan="magnify" viewBox="0 0 810 809.999993" height="1080" preserveAspectRatio="xMidYMid meet" version="1.0"><defs><g/><clipPath id="7b588b82ff"><rect x="0" width="72" y="0" height="115"/></clipPath><clipPath id="4426872d66"><rect x="0" width="229" y="0" height="126"/></clipPath><clipPath id="ddee067406"><rect x="0" width="176" y="0" height="126"/></clipPath></defs><g transform="matrix(1, 0, 0, 1, 416, 347)"><g clip-path="url(#7b588b82ff)"><g fill="#697054" fill-opacity="1"><g transform="translate(1.099159, 75.814815)"><g><path d="M 48.328125 -12.1875 C 49.628906 -12.425781 50.941406 -12.546875 52.265625 -12.546875 C 53.941406 -12.546875 55.578125 -12.300781 57.171875 -11.8125 C 58.773438 -11.332031 60.207031 -10.632812 61.46875 -9.71875 C 62.726562 -8.8125 63.734375 -7.695312 64.484375 -6.375 C 65.242188 -5.050781 65.625 -3.550781 65.625 -1.875 C 65.625 -0.382812 65.289062 0.96875 64.625 2.1875 C 63.96875 3.40625 63.054688 4.453125 61.890625 5.328125 C 60.722656 6.210938 59.34375 6.890625 57.75 7.359375 C 56.15625 7.835938 54.421875 8.078125 52.546875 8.078125 C 50.378906 8.078125 48.300781 7.835938 46.3125 7.359375 C 44.320312 6.890625 42.425781 6.234375 40.625 5.390625 C 38.832031 4.554688 37.113281 3.550781 35.46875 2.375 C 33.832031 1.195312 32.3125 -0.109375 30.90625 -1.546875 C 28.925781 -0.617188 26.847656 0.101562 24.671875 0.625 C 22.492188 1.15625 20.226562 1.421875 17.875 1.421875 C 14.976562 1.421875 12.5 1.113281 10.4375 0.5 C 8.375 -0.101562 6.691406 -0.925781 5.390625 -1.96875 C 4.097656 -3.007812 3.144531 -4.21875 2.53125 -5.59375 C 1.925781 -6.976562 1.625 -8.457031 1.625 -10.03125 C 1.625 -12.0625 2.085938 -13.867188 3.015625 -15.453125 C 3.953125 -17.035156 5.207031 -18.441406 6.78125 -19.671875 C 8.351562 -20.910156 10.164062 -22.015625 12.21875 -22.984375 C 14.28125 -23.960938 16.4375 -24.867188 18.6875 -25.703125 C 18.519531 -26.953125 18.4375 -28.1875 18.4375 -29.40625 C 18.4375 -32.1875 18.953125 -34.710938 19.984375 -36.984375 C 21.015625 -39.265625 22.359375 -41.203125 24.015625 -42.796875 C 25.679688 -44.398438 27.550781 -45.640625 29.625 -46.515625 C 31.695312 -47.398438 33.773438 -47.84375 35.859375 -47.84375 C 37.179688 -47.84375 38.382812 -47.648438 39.46875 -47.265625 C 40.550781 -46.890625 41.472656 -46.367188 42.234375 -45.703125 C 42.992188 -45.046875 43.582031 -44.269531 44 -43.375 C 44.414062 -42.476562 44.625 -41.53125 44.625 -40.53125 C 44.625 -39.125 44.332031 -37.859375 43.75 -36.734375 C 43.175781 -35.609375 42.378906 -34.582031 41.359375 -33.65625 C 40.347656 -32.738281 39.15625 -31.898438 37.78125 -31.140625 C 36.414062 -30.390625 34.941406 -29.6875 33.359375 -29.03125 C 31.773438 -28.382812 30.128906 -27.753906 28.421875 -27.140625 C 26.722656 -26.535156 25.019531 -25.921875 23.3125 -25.296875 C 23.632812 -23.785156 24.085938 -22.175781 24.671875 -20.46875 C 25.253906 -18.757812 25.953125 -17.03125 26.765625 -15.28125 C 27.578125 -13.539062 28.503906 -11.800781 29.546875 -10.0625 C 30.585938 -8.332031 31.71875 -6.679688 32.9375 -5.109375 C 34.476562 -6.035156 35.890625 -7.078125 37.171875 -8.234375 C 38.460938 -9.398438 39.570312 -10.640625 40.5 -11.953125 C 41.4375 -13.265625 42.171875 -14.625 42.703125 -16.03125 C 43.234375 -17.445312 43.5 -18.875 43.5 -20.3125 C 43.5 -21.394531 43.398438 -22.257812 43.203125 -22.90625 C 43.015625 -23.550781 42.910156 -23.96875 42.890625 -24.15625 L 44.953125 -24.734375 C 45.066406 -24.429688 45.207031 -23.890625 45.375 -23.109375 C 45.550781 -22.328125 45.640625 -21.378906 45.640625 -20.265625 C 45.640625 -18.773438 45.367188 -17.257812 44.828125 -15.71875 C 44.285156 -14.175781 43.519531 -12.671875 42.53125 -11.203125 C 41.550781 -9.742188 40.363281 -8.347656 38.96875 -7.015625 C 37.570312 -5.691406 36.019531 -4.488281 34.3125 -3.40625 C 35.507812 -2 36.773438 -0.703125 38.109375 0.484375 C 39.453125 1.679688 40.851562 2.710938 42.3125 3.578125 C 43.78125 4.441406 45.289062 5.113281 46.84375 5.59375 C 48.40625 6.082031 50.007812 6.328125 51.65625 6.328125 C 53.007812 6.328125 54.304688 6.148438 55.546875 5.796875 C 56.796875 5.453125 57.894531 4.921875 58.84375 4.203125 C 59.789062 3.484375 60.546875 2.5625 61.109375 1.4375 C 61.679688 0.3125 61.96875 -1.019531 61.96875 -2.5625 C 61.96875 -3.9375 61.679688 -5.144531 61.109375 -6.1875 C 60.546875 -7.226562 59.789062 -8.109375 58.84375 -8.828125 C 57.894531 -9.546875 56.816406 -10.085938 55.609375 -10.453125 C 54.410156 -10.816406 53.160156 -11 51.859375 -11 C 51.285156 -11 50.734375 -10.972656 50.203125 -10.921875 C 49.679688 -10.867188 49.191406 -10.800781 48.734375 -10.71875 Z M 19 -23.640625 C 17.300781 -22.910156 15.695312 -22.125 14.1875 -21.28125 C 12.6875 -20.4375 11.378906 -19.492188 10.265625 -18.453125 C 9.160156 -17.410156 8.28125 -16.238281 7.625 -14.9375 C 6.976562 -13.644531 6.65625 -12.1875 6.65625 -10.5625 C 6.65625 -9.175781 6.878906 -7.894531 7.328125 -6.71875 C 7.773438 -5.539062 8.476562 -4.507812 9.4375 -3.625 C 10.40625 -2.75 11.628906 -2.066406 13.109375 -1.578125 C 14.597656 -1.097656 16.390625 -0.859375 18.484375 -0.859375 C 20.316406 -0.859375 22.15625 -1.0625 24 -1.46875 C 25.84375 -1.875 27.617188 -2.453125 29.328125 -3.203125 C 27.972656 -4.691406 26.738281 -6.273438 25.625 -7.953125 C 24.507812 -9.640625 23.519531 -11.351562 22.65625 -13.09375 C 21.789062 -14.84375 21.046875 -16.601562 20.421875 -18.375 C 19.804688 -20.144531 19.332031 -21.898438 19 -23.640625 Z M 42.359375 -40.484375 C 42.359375 -41.109375 42.226562 -41.734375 41.96875 -42.359375 C 41.71875 -42.984375 41.328125 -43.535156 40.796875 -44.015625 C 40.265625 -44.503906 39.585938 -44.894531 38.765625 -45.1875 C 37.941406 -45.488281 36.972656 -45.640625 35.859375 -45.640625 C 34.335938 -45.640625 32.800781 -45.347656 31.25 -44.765625 C 29.695312 -44.191406 28.289062 -43.273438 27.03125 -42.015625 C 25.769531 -40.753906 24.738281 -39.128906 23.9375 -37.140625 C 23.144531 -35.148438 22.75 -32.757812 22.75 -29.96875 C 22.75 -29.539062 22.757812 -29.09375 22.78125 -28.625 C 22.8125 -28.164062 22.867188 -27.691406 22.953125 -27.203125 C 25.410156 -28.078125 27.800781 -28.9375 30.125 -29.78125 C 32.457031 -30.632812 34.53125 -31.566406 36.34375 -32.578125 C 38.15625 -33.597656 39.609375 -34.742188 40.703125 -36.015625 C 41.804688 -37.296875 42.359375 -38.785156 42.359375 -40.484375 Z M 42.359375 -40.484375 "/></g></g></g></g></g><g transform="matrix(1, 0, 0, 1, 157, 342)"><g clip-path="url(#4426872d66)"><g fill="#697054" fill-opacity="1"><g transform="translate(1.768802, 94.294454)"><g><path d="M 54.125 -65.1875 C 54.6875 -65.1875 54.894531 -64.875 54.75 -64.25 L 52.5625 -50.265625 C 52.5625 -50.054688 52.425781 -49.953125 52.15625 -49.953125 C 51.9375 -49.953125 51.738281 -50.003906 51.5625 -50.109375 C 51.394531 -50.210938 51.3125 -50.300781 51.3125 -50.375 C 51.03125 -54.195312 49.671875 -57.253906 47.234375 -59.546875 C 44.804688 -61.847656 41.679688 -63 37.859375 -63 L 35.984375 -63 C 33.960938 -63 32.5 -62.84375 31.59375 -62.53125 C 30.695312 -62.21875 30.054688 -61.640625 29.671875 -60.796875 C 29.285156 -59.960938 28.921875 -58.578125 28.578125 -56.640625 L 24.828125 -35.359375 L 36.609375 -35.359375 C 39.804688 -35.359375 42.253906 -35.960938 43.953125 -37.171875 C 45.660156 -38.390625 46.828125 -40.425781 47.453125 -43.28125 C 47.523438 -43.632812 47.769531 -43.789062 48.1875 -43.75 C 48.601562 -43.71875 48.773438 -43.523438 48.703125 -43.171875 C 48.429688 -41.234375 48.015625 -39.082031 47.453125 -36.71875 C 47.453125 -36.4375 47.28125 -35.492188 46.9375 -33.890625 C 46.726562 -32.640625 46.484375 -31.007812 46.203125 -29 C 46.066406 -28.226562 45.925781 -27.351562 45.78125 -26.375 C 45.644531 -25.40625 45.472656 -24.332031 45.265625 -23.15625 C 45.191406 -22.875 44.945312 -22.75 44.53125 -22.78125 C 44.113281 -22.820312 43.941406 -22.984375 44.015625 -23.265625 C 44.148438 -24.234375 44.21875 -24.925781 44.21875 -25.34375 C 44.21875 -27.632812 43.488281 -29.390625 42.03125 -30.609375 C 40.570312 -31.828125 38.519531 -32.4375 35.875 -32.4375 L 24.296875 -32.4375 L 20.125 -8.859375 C 19.914062 -7.609375 19.8125 -6.566406 19.8125 -5.734375 C 19.8125 -4.347656 20.191406 -3.410156 20.953125 -2.921875 C 21.722656 -2.429688 23.117188 -2.1875 25.140625 -2.1875 L 27.84375 -2.1875 C 31.875 -2.1875 35.835938 -3.488281 39.734375 -6.09375 C 43.628906 -8.707031 46.863281 -12.203125 49.4375 -16.578125 C 49.507812 -16.785156 49.753906 -16.835938 50.171875 -16.734375 C 50.585938 -16.628906 50.722656 -16.507812 50.578125 -16.375 C 49.472656 -12.757812 48.289062 -7.820312 47.03125 -1.5625 C 46.894531 -0.9375 46.722656 -0.519531 46.515625 -0.3125 C 46.304688 -0.101562 45.925781 0 45.375 0 L 2.09375 0 C 1.875 0 1.765625 -0.207031 1.765625 -0.625 C 1.765625 -1.039062 1.875 -1.25 2.09375 -1.25 C 4.03125 -1.25 5.46875 -1.421875 6.40625 -1.765625 C 7.351562 -2.117188 8.050781 -2.78125 8.5 -3.75 C 8.945312 -4.726562 9.378906 -6.296875 9.796875 -8.453125 L 18.25 -56.734375 C 18.53125 -58.054688 18.671875 -59.238281 18.671875 -60.28125 C 18.671875 -61.738281 18.269531 -62.710938 17.46875 -63.203125 C 16.664062 -63.691406 15.222656 -63.9375 13.140625 -63.9375 C 13.003906 -63.9375 12.9375 -64.144531 12.9375 -64.5625 C 12.9375 -64.976562 13.003906 -65.1875 13.140625 -65.1875 Z M 54.125 -65.1875 "/></g></g></g><g fill="#697054" fill-opacity="1"><g transform="translate(57.147463, 94.294454)"><g><path d="M 43.28125 -8.03125 C 43.351562 -8.101562 43.457031 -8.140625 43.59375 -8.140625 C 43.800781 -8.140625 43.972656 -8.015625 44.109375 -7.765625 C 44.253906 -7.523438 44.257812 -7.335938 44.125 -7.203125 C 39.664062 -1.773438 35.769531 0.9375 32.4375 0.9375 C 30.625 0.9375 29.300781 0.429688 28.46875 -0.578125 C 27.632812 -1.585938 27.21875 -3.164062 27.21875 -5.3125 C 27.21875 -6.5 27.320312 -7.820312 27.53125 -9.28125 L 28.78125 -16.375 C 26.144531 -10.8125 23 -6.460938 19.34375 -3.328125 C 15.695312 -0.203125 12.132812 1.359375 8.65625 1.359375 C 6.5 1.359375 4.796875 0.695312 3.546875 -0.625 C 2.296875 -1.945312 1.671875 -3.929688 1.671875 -6.578125 C 1.671875 -11.234375 3.21875 -16.320312 6.3125 -21.84375 C 9.40625 -27.375 13.226562 -32.050781 17.78125 -35.875 C 22.332031 -39.695312 26.625 -41.609375 30.65625 -41.609375 C 31.914062 -41.609375 33.222656 -41.382812 34.578125 -40.9375 C 35.929688 -40.488281 37.09375 -39.8125 38.0625 -38.90625 C 39.382812 -39.875 40.460938 -41.054688 41.296875 -42.453125 C 41.441406 -42.585938 41.582031 -42.65625 41.71875 -42.65625 C 41.925781 -42.65625 42.132812 -42.582031 42.34375 -42.4375 C 42.550781 -42.300781 42.617188 -42.203125 42.546875 -42.140625 L 36.5 -9.28125 C 36.289062 -8.375 36.1875 -7.578125 36.1875 -6.890625 C 36.1875 -5.210938 36.675781 -4.375 37.65625 -4.375 C 38.976562 -4.375 40.851562 -5.59375 43.28125 -8.03125 Z M 15.328125 -6.265625 C 17.410156 -6.265625 19.546875 -7.359375 21.734375 -9.546875 C 23.929688 -11.734375 25.847656 -14.40625 27.484375 -17.5625 C 29.117188 -20.726562 30.175781 -23.671875 30.65625 -26.390625 C 30.863281 -27.566406 30.96875 -28.609375 30.96875 -29.515625 C 30.96875 -31.742188 30.460938 -33.460938 29.453125 -34.671875 C 28.453125 -35.890625 27.046875 -36.5 25.234375 -36.5 C 22.035156 -36.5 19.203125 -34.773438 16.734375 -31.328125 C 14.265625 -27.890625 12.546875 -23.425781 11.578125 -17.9375 C 11.234375 -15.71875 11.0625 -14.050781 11.0625 -12.9375 C 11.0625 -10.632812 11.441406 -8.945312 12.203125 -7.875 C 12.960938 -6.800781 14.003906 -6.265625 15.328125 -6.265625 Z M 15.328125 -6.265625 "/></g></g></g><g fill="#697054" fill-opacity="1"><g transform="translate(103.452785, 94.294454)"><g><path d="M 11.265625 1.140625 C 8.273438 1.140625 5.734375 0.484375 3.640625 -0.828125 C 1.554688 -2.148438 0.515625 -3.75 0.515625 -5.625 C 0.515625 -7.226562 0.96875 -8.460938 1.875 -9.328125 C 2.78125 -10.203125 3.894531 -10.640625 5.21875 -10.640625 C 6.394531 -10.640625 7.332031 -10.328125 8.03125 -9.703125 C 8.726562 -9.078125 9.53125 -8.066406 10.4375 -6.671875 C 11.332031 -5.210938 12.179688 -4.132812 12.984375 -3.4375 C 13.785156 -2.75 14.878906 -2.40625 16.265625 -2.40625 C 17.453125 -2.40625 18.335938 -2.734375 18.921875 -3.390625 C 19.515625 -4.046875 19.914062 -5.109375 20.125 -6.578125 C 20.195312 -6.847656 20.234375 -7.265625 20.234375 -7.828125 C 20.234375 -9.835938 19.640625 -11.570312 18.453125 -13.03125 C 17.273438 -14.5 15.4375 -16.203125 12.9375 -18.140625 C 10.425781 -20.234375 8.5625 -22.023438 7.34375 -23.515625 C 6.132812 -25.015625 5.53125 -26.804688 5.53125 -28.890625 C 5.53125 -29.304688 5.597656 -29.929688 5.734375 -30.765625 C 6.085938 -32.503906 6.972656 -34.171875 8.390625 -35.765625 C 9.816406 -37.367188 11.660156 -38.691406 13.921875 -39.734375 C 16.179688 -40.773438 18.632812 -41.296875 21.28125 -41.296875 C 24.613281 -41.296875 27.203125 -40.738281 29.046875 -39.625 C 30.890625 -38.519531 31.707031 -36.992188 31.5 -35.046875 C 31.289062 -33.722656 30.71875 -32.675781 29.78125 -31.90625 C 28.84375 -31.144531 27.847656 -30.765625 26.796875 -30.765625 C 25.335938 -30.765625 24.257812 -31.09375 23.5625 -31.75 C 22.875 -32.414062 22.25 -33.375 21.6875 -34.625 C 21.0625 -35.875 20.4375 -36.8125 19.8125 -37.4375 C 19.1875 -38.0625 18.179688 -38.375 16.796875 -38.375 C 15.679688 -38.375 14.8125 -38.046875 14.1875 -37.390625 C 13.5625 -36.734375 13.175781 -35.984375 13.03125 -35.140625 C 12.96875 -34.867188 12.9375 -34.453125 12.9375 -33.890625 C 12.9375 -32.085938 13.523438 -30.488281 14.703125 -29.09375 C 15.890625 -27.707031 17.695312 -26.039062 20.125 -24.09375 C 22.769531 -21.9375 24.71875 -20.078125 25.96875 -18.515625 C 27.21875 -16.953125 27.84375 -15.125 27.84375 -13.03125 C 27.84375 -12.6875 27.773438 -12.097656 27.640625 -11.265625 C 27.296875 -9.390625 26.390625 -7.492188 24.921875 -5.578125 C 23.460938 -3.671875 21.535156 -2.070312 19.140625 -0.78125 C 16.742188 0.5 14.117188 1.140625 11.265625 1.140625 Z M 11.265625 1.140625 "/></g></g></g><g fill="#697054" fill-opacity="1"><g transform="translate(136.40882, 94.294454)"><g><path d="M 16.484375 1.453125 C 11.890625 1.453125 8.394531 -0.0195312 6 -2.96875 C 3.601562 -5.925781 2.40625 -9.769531 2.40625 -14.5 C 2.40625 -16.582031 2.578125 -18.457031 2.921875 -20.125 C 3.679688 -24.300781 5.191406 -28.019531 7.453125 -31.28125 C 9.710938 -34.550781 12.441406 -37.085938 15.640625 -38.890625 C 18.835938 -40.703125 22.28125 -41.609375 25.96875 -41.609375 C 30.625 -41.609375 34.1875 -40.203125 36.65625 -37.390625 C 39.125 -34.578125 40.359375 -30.804688 40.359375 -26.078125 C 40.359375 -24.203125 40.148438 -22.21875 39.734375 -20.125 C 38.828125 -15.539062 37.175781 -11.628906 34.78125 -8.390625 C 32.382812 -5.160156 29.566406 -2.710938 26.328125 -1.046875 C 23.097656 0.617188 19.816406 1.453125 16.484375 1.453125 Z M 20.03125 -1.140625 C 22.25 -1.140625 24.175781 -2.425781 25.8125 -5 C 27.445312 -7.570312 28.644531 -11.085938 29.40625 -15.546875 C 29.894531 -18.253906 30.140625 -21 30.140625 -23.78125 C 30.140625 -28.300781 29.460938 -31.984375 28.109375 -34.828125 C 26.753906 -37.679688 24.894531 -39.109375 22.53125 -39.109375 C 20.445312 -39.109375 18.585938 -37.890625 16.953125 -35.453125 C 15.316406 -33.023438 14.082031 -29.410156 13.25 -24.609375 C 12.757812 -21.898438 12.515625 -19.15625 12.515625 -16.375 C 12.515625 -11.851562 13.175781 -8.179688 14.5 -5.359375 C 15.820312 -2.546875 17.664062 -1.140625 20.03125 -1.140625 Z M 20.03125 -1.140625 "/></g></g></g><g fill="#697054" fill-opacity="1"><g transform="translate(178.959677, 94.294454)"><g><path d="M 46.515625 -8.03125 C 46.648438 -8.164062 46.753906 -8.234375 46.828125 -8.234375 C 47.035156 -8.234375 47.207031 -8.113281 47.34375 -7.875 C 47.488281 -7.632812 47.488281 -7.410156 47.34375 -7.203125 C 44.988281 -4.421875 42.890625 -2.367188 41.046875 -1.046875 C 39.203125 0.273438 37.304688 0.9375 35.359375 0.9375 C 32.015625 0.9375 30.34375 -1.007812 30.34375 -4.90625 C 30.34375 -5.945312 30.519531 -7.40625 30.875 -9.28125 L 33.890625 -25.859375 C 34.242188 -27.804688 34.421875 -29.375 34.421875 -30.5625 C 34.421875 -33.96875 33.304688 -35.671875 31.078125 -35.671875 C 29.128906 -35.671875 27.113281 -34.398438 25.03125 -31.859375 C 22.945312 -29.328125 20.984375 -25.625 19.140625 -20.75 C 17.296875 -15.882812 15.75 -10.046875 14.5 -3.234375 L 14.1875 -1.25 C 13.832031 0.132812 11.882812 0.828125 8.34375 0.828125 C 6.050781 0.828125 4.90625 0.550781 4.90625 0 L 5.3125 -2.1875 C 6.007812 -5.457031 6.394531 -7.300781 6.46875 -7.71875 L 10.75 -30.96875 C 10.882812 -31.601562 10.953125 -32.367188 10.953125 -33.265625 C 10.953125 -35.148438 10.359375 -36.09375 9.171875 -36.09375 C 7.710938 -36.09375 5.695312 -34.703125 3.125 -31.921875 C 3.0625 -31.847656 2.957031 -31.8125 2.8125 -31.8125 C 2.601562 -31.8125 2.429688 -31.929688 2.296875 -32.171875 C 2.160156 -32.421875 2.160156 -32.648438 2.296875 -32.859375 C 4.796875 -35.773438 7.035156 -37.894531 9.015625 -39.21875 C 11.003906 -40.539062 13.003906 -41.203125 15.015625 -41.203125 C 18.285156 -41.203125 19.921875 -39.359375 19.921875 -35.671875 C 19.921875 -34.628906 19.816406 -33.484375 19.609375 -32.234375 L 17.9375 -22.734375 C 20.375 -28.785156 23.171875 -33.441406 26.328125 -36.703125 C 29.492188 -39.972656 32.851562 -41.609375 36.40625 -41.609375 C 41.195312 -41.609375 43.59375 -38.722656 43.59375 -32.953125 C 43.59375 -31.628906 43.421875 -29.925781 43.078125 -27.84375 L 39.640625 -9.28125 C 39.421875 -8.238281 39.3125 -7.40625 39.3125 -6.78125 C 39.3125 -5.175781 39.867188 -4.375 40.984375 -4.375 C 41.679688 -4.375 42.460938 -4.6875 43.328125 -5.3125 C 44.203125 -5.945312 45.265625 -6.851562 46.515625 -8.03125 Z M 46.515625 -8.03125 "/></g></g></g></g></g><g transform="matrix(1, 0, 0, 1, 507, 342)"><g clip-path="url(#ddee067406)"><g fill="#697054" fill-opacity="1"><g transform="translate(0.530486, 94.294454)"><g><path d="M 94.8125 -65.1875 C 95.019531 -65.1875 95.125 -64.976562 95.125 -64.5625 C 95.125 -64.144531 95.019531 -63.9375 94.8125 -63.9375 C 92.445312 -63.9375 90.289062 -63.203125 88.34375 -61.734375 C 86.394531 -60.273438 84.238281 -57.289062 81.875 -52.78125 L 54.4375 -0.109375 C 54.226562 0.242188 53.78125 0.421875 53.09375 0.421875 C 52.25 0.421875 51.757812 0.242188 51.625 -0.109375 L 44.75 -28.46875 L 30.03125 -0.109375 C 29.820312 0.242188 29.375 0.421875 28.6875 0.421875 C 27.851562 0.421875 27.363281 0.242188 27.21875 -0.109375 L 13.5625 -56.53125 C 12.863281 -59.3125 12.0625 -61.238281 11.15625 -62.3125 C 10.25 -63.394531 8.929688 -63.9375 7.203125 -63.9375 C 6.992188 -63.9375 6.890625 -64.144531 6.890625 -64.5625 C 6.890625 -64.976562 6.992188 -65.1875 7.203125 -65.1875 L 12.203125 -65.078125 C 14.429688 -64.941406 16.066406 -64.875 17.109375 -64.875 C 19.191406 -64.875 21.414062 -64.941406 23.78125 -65.078125 L 27.53125 -65.1875 C 27.8125 -65.1875 27.953125 -64.976562 27.953125 -64.5625 C 27.953125 -64.144531 27.8125 -63.9375 27.53125 -63.9375 C 26.414062 -63.9375 25.476562 -63.625 24.71875 -63 C 23.957031 -62.375 23.578125 -61.328125 23.578125 -59.859375 C 23.578125 -59.171875 23.679688 -58.410156 23.890625 -57.578125 L 34.421875 -14.1875 L 43.8125 -32.546875 L 37.96875 -56.53125 C 37.269531 -59.382812 36.570312 -61.332031 35.875 -62.375 C 35.175781 -63.414062 34.171875 -63.9375 32.859375 -63.9375 C 32.648438 -63.9375 32.546875 -64.144531 32.546875 -64.5625 C 32.546875 -64.976562 32.648438 -65.1875 32.859375 -65.1875 L 37.125 -65.078125 C 39.070312 -64.941406 40.535156 -64.875 41.515625 -64.875 C 43.109375 -64.875 44.8125 -64.941406 46.625 -65.078125 L 49.546875 -65.1875 C 49.816406 -65.1875 49.953125 -64.976562 49.953125 -64.5625 C 49.953125 -64.144531 49.816406 -63.9375 49.546875 -63.9375 C 48.773438 -63.9375 48.25 -63.832031 47.96875 -63.625 C 47.695312 -63.414062 47.5625 -62.925781 47.5625 -62.15625 C 47.5625 -61.113281 47.804688 -59.585938 48.296875 -57.578125 L 51.515625 -44.21875 L 56 -53.09375 C 57.8125 -56.707031 58.71875 -59.382812 58.71875 -61.125 C 58.71875 -63 57.640625 -63.9375 55.484375 -63.9375 C 55.347656 -63.9375 55.28125 -64.144531 55.28125 -64.5625 C 55.28125 -64.976562 55.347656 -65.1875 55.484375 -65.1875 L 58.40625 -65.078125 C 60.21875 -64.941406 61.78125 -64.875 63.09375 -64.875 C 64.144531 -64.875 65.429688 -64.941406 66.953125 -65.078125 L 70.609375 -65.1875 C 70.890625 -65.1875 71.03125 -64.976562 71.03125 -64.5625 C 71.03125 -64.144531 70.890625 -63.9375 70.609375 -63.9375 C 69.285156 -63.9375 68.101562 -63.675781 67.0625 -63.15625 C 66.019531 -62.632812 64.875 -61.570312 63.625 -59.96875 C 62.375 -58.375 60.910156 -55.976562 59.234375 -52.78125 L 52.5625 -39.84375 L 58.71875 -14.078125 L 78.53125 -53.09375 C 79.644531 -55.25 80.203125 -57.226562 80.203125 -59.03125 C 80.203125 -60.5625 79.785156 -61.757812 78.953125 -62.625 C 78.117188 -63.5 76.898438 -63.9375 75.296875 -63.9375 C 75.085938 -63.9375 74.984375 -64.144531 74.984375 -64.5625 C 74.984375 -64.976562 75.085938 -65.1875 75.296875 -65.1875 L 79.375 -65.078125 C 81.59375 -64.941406 83.675781 -64.875 85.625 -64.875 C 86.945312 -64.875 88.515625 -64.941406 90.328125 -65.078125 Z M 94.8125 -65.1875 "/></g></g></g><g fill="#697054" fill-opacity="1"><g transform="translate(87.405144, 94.294454)"><g><path d="M 28.15625 -41.609375 C 30.800781 -41.609375 32.851562 -41.15625 34.3125 -40.25 C 35.769531 -39.351562 36.5 -38.101562 36.5 -36.5 C 36.5 -33.375 34.1875 -30.4375 29.5625 -27.6875 C 24.9375 -24.945312 19.359375 -22.945312 12.828125 -21.6875 C 12.617188 -20.164062 12.515625 -18.671875 12.515625 -17.203125 C 12.515625 -13.035156 13.382812 -9.679688 15.125 -7.140625 C 16.863281 -4.609375 19.4375 -3.34375 22.84375 -3.34375 C 24.300781 -3.34375 25.878906 -3.601562 27.578125 -4.125 C 29.285156 -4.644531 30.835938 -5.460938 32.234375 -6.578125 L 32.328125 -6.578125 C 32.535156 -6.578125 32.726562 -6.46875 32.90625 -6.25 C 33.082031 -6.039062 33.097656 -5.867188 32.953125 -5.734375 C 30.453125 -3.304688 27.8125 -1.535156 25.03125 -0.421875 C 22.25 0.691406 19.46875 1.25 16.6875 1.25 C 11.882812 1.25 8.285156 -0.207031 5.890625 -3.125 C 3.492188 -6.050781 2.296875 -9.738281 2.296875 -14.1875 C 2.296875 -15.71875 2.46875 -17.421875 2.8125 -19.296875 C 3.507812 -23.046875 5.054688 -26.625 7.453125 -30.03125 C 9.859375 -33.4375 12.867188 -36.21875 16.484375 -38.375 C 20.097656 -40.53125 23.988281 -41.609375 28.15625 -41.609375 Z M 25.96875 -33.796875 C 26.039062 -34.066406 26.078125 -34.484375 26.078125 -35.046875 C 26.078125 -36.222656 25.78125 -37.140625 25.1875 -37.796875 C 24.59375 -38.460938 23.773438 -38.796875 22.734375 -38.796875 C 20.515625 -38.796875 18.550781 -37.367188 16.84375 -34.515625 C 15.132812 -31.671875 13.863281 -27.953125 13.03125 -23.359375 C 21.03125 -25.441406 25.34375 -28.921875 25.96875 -33.796875 Z M 25.96875 -33.796875 "/></g></g></g><g fill="#697054" fill-opacity="1"><g transform="translate(124.637126, 94.294454)"><g><path d="M 46.515625 -8.03125 C 46.648438 -8.164062 46.753906 -8.234375 46.828125 -8.234375 C 47.035156 -8.234375 47.207031 -8.113281 47.34375 -7.875 C 47.488281 -7.632812 47.488281 -7.410156 47.34375 -7.203125 C 44.988281 -4.421875 42.890625 -2.367188 41.046875 -1.046875 C 39.203125 0.273438 37.304688 0.9375 35.359375 0.9375 C 32.015625 0.9375 30.34375 -1.007812 30.34375 -4.90625 C 30.34375 -5.945312 30.519531 -7.40625 30.875 -9.28125 L 33.890625 -25.859375 C 34.242188 -27.804688 34.421875 -29.375 34.421875 -30.5625 C 34.421875 -33.96875 33.304688 -35.671875 31.078125 -35.671875 C 29.128906 -35.671875 27.113281 -34.398438 25.03125 -31.859375 C 22.945312 -29.328125 20.984375 -25.625 19.140625 -20.75 C 17.296875 -15.882812 15.75 -10.046875 14.5 -3.234375 L 14.1875 -1.25 C 13.832031 0.132812 11.882812 0.828125 8.34375 0.828125 C 6.050781 0.828125 4.90625 0.550781 4.90625 0 L 5.3125 -2.1875 C 6.007812 -5.457031 6.394531 -7.300781 6.46875 -7.71875 L 10.75 -30.96875 C 10.882812 -31.601562 10.953125 -32.367188 10.953125 -33.265625 C 10.953125 -35.148438 10.359375 -36.09375 9.171875 -36.09375 C 7.710938 -36.09375 5.695312 -34.703125 3.125 -31.921875 C 3.0625 -31.847656 2.957031 -31.8125 2.8125 -31.8125 C 2.601562 -31.8125 2.429688 -31.929688 2.296875 -32.171875 C 2.160156 -32.421875 2.160156 -32.648438 2.296875 -32.859375 C 4.796875 -35.773438 7.035156 -37.894531 9.015625 -39.21875 C 11.003906 -40.539062 13.003906 -41.203125 15.015625 -41.203125 C 18.285156 -41.203125 19.921875 -39.359375 19.921875 -35.671875 C 19.921875 -34.628906 19.816406 -33.484375 19.609375 -32.234375 L 17.9375 -22.734375 C 20.375 -28.785156 23.171875 -33.441406 26.328125 -36.703125 C 29.492188 -39.972656 32.851562 -41.609375 36.40625 -41.609375 C 41.195312 -41.609375 43.59375 -38.722656 43.59375 -32.953125 C 43.59375 -31.628906 43.421875 -29.925781 43.078125 -27.84375 L 39.640625 -9.28125 C 39.421875 -8.238281 39.3125 -7.40625 39.3125 -6.78125 C 39.3125 -5.175781 39.867188 -4.375 40.984375 -4.375 C 41.679688 -4.375 42.460938 -4.6875 43.328125 -5.3125 C 44.203125 -5.945312 45.265625 -6.851562 46.515625 -8.03125 Z M 46.515625 -8.03125 "/></g></g></g></g></g></svg>