<svg xmlns="http://www.w3.org/2000/svg" xmlns:xlink="http://www.w3.org/1999/xlink" width="1080" zoomAndPan="magnify" viewBox="0 0 810 809.999993" height="1080" preserveAspectRatio="xMidYMid meet" version="1.0"><defs><g/><clipPath id="309eaadd8d"><rect x="0" width="579" y="0" height="184"/></clipPath></defs><g transform="matrix(1, 0, 0, 1, 116, 319)"><g clip-path="url(#309eaadd8d)"><g fill="#697054" fill-opacity="1"><g transform="translate(1.548928, 137.461693)"><g><path d="M 5.546875 -4.046875 C 14.222656 -12.023438 20.554688 -18.035156 24.546875 -22.078125 C 28.546875 -26.117188 31.367188 -29.585938 33.015625 -32.484375 C 34.660156 -35.378906 35.484375 -38.328125 35.484375 -41.328125 C 35.484375 -45.015625 34.535156 -48.226562 32.640625 -50.96875 C 30.742188 -53.71875 28.046875 -55.09375 24.546875 -55.09375 C 20.859375 -55.09375 17.84375 -53.46875 15.5 -50.21875 C 13.15625 -46.976562 10.785156 -41.96875 8.390625 -35.1875 C 8.390625 -35.082031 8.1875 -35.03125 7.78125 -35.03125 C 6.882812 -35.03125 6.488281 -35.179688 6.59375 -35.484375 L 13.171875 -61.078125 C 13.171875 -61.285156 13.375 -61.390625 13.78125 -61.390625 C 14.070312 -61.390625 14.34375 -61.3125 14.59375 -61.15625 C 14.84375 -61.007812 14.921875 -60.882812 14.828125 -60.78125 C 14.722656 -60.28125 14.671875 -59.679688 14.671875 -58.984375 C 14.671875 -57.285156 15.421875 -56.4375 16.921875 -56.4375 C 17.816406 -56.4375 19.3125 -56.785156 21.40625 -57.484375 C 25.695312 -58.984375 29.640625 -59.734375 33.234375 -59.734375 C 38.722656 -59.734375 43.015625 -58.4375 46.109375 -55.84375 C 49.203125 -53.25 50.75 -49.804688 50.75 -45.515625 C 50.75 -40.328125 48.726562 -35.609375 44.6875 -31.359375 C 40.644531 -27.117188 35.082031 -22.503906 28 -17.515625 L 22.015625 -13.03125 C 21.710938 -12.726562 21.632812 -12.476562 21.78125 -12.28125 C 21.9375 -12.082031 22.257812 -11.984375 22.75 -11.984375 C 30.738281 -11.984375 36.753906 -12.128906 40.796875 -12.421875 C 44.835938 -12.722656 48.03125 -13.394531 50.375 -14.4375 C 52.726562 -15.488281 54.253906 -17.164062 54.953125 -19.46875 C 55.046875 -19.757812 55.367188 -19.90625 55.921875 -19.90625 C 56.472656 -19.90625 56.75 -19.757812 56.75 -19.46875 L 53.59375 -1.640625 C 53.59375 -1.242188 53.46875 -0.867188 53.21875 -0.515625 C 52.96875 -0.171875 52.644531 0 52.25 0 L 6.4375 0 C 6.039062 0 5.71875 -0.296875 5.46875 -0.890625 C 5.21875 -1.492188 5.09375 -2.09375 5.09375 -2.6875 C 5.09375 -3.289062 5.242188 -3.742188 5.546875 -4.046875 Z M 5.546875 -4.046875 "/></g></g></g><g fill="#697054" fill-opacity="1"><g transform="translate(61.73126, 137.461693)"><g><path d="M 35.9375 1.953125 C 29.75 1.953125 24.234375 0.601562 19.390625 -2.09375 C 14.546875 -4.789062 10.75 -8.507812 8 -13.25 C 5.257812 -17.988281 3.890625 -23.300781 3.890625 -29.1875 C 3.890625 -35.082031 5.257812 -40.347656 8 -44.984375 C 10.75 -49.628906 14.546875 -53.25 19.390625 -55.84375 C 24.234375 -58.4375 29.75 -59.734375 35.9375 -59.734375 C 42.125 -59.734375 47.613281 -58.410156 52.40625 -55.765625 C 57.195312 -53.117188 60.910156 -49.453125 63.546875 -44.765625 C 66.191406 -40.078125 67.515625 -34.785156 67.515625 -28.890625 C 67.515625 -23.003906 66.164062 -17.710938 63.46875 -13.015625 C 60.78125 -8.328125 57.039062 -4.660156 52.25 -2.015625 C 47.457031 0.628906 42.019531 1.953125 35.9375 1.953125 Z M 37.4375 -1.203125 C 42.019531 -1.203125 45.484375 -3.445312 47.828125 -7.9375 C 50.179688 -12.425781 51.359375 -18.710938 51.359375 -26.796875 C 51.359375 -36.878906 49.785156 -44.363281 46.640625 -49.25 C 43.492188 -54.144531 39.523438 -56.59375 34.734375 -56.59375 C 30.046875 -56.59375 26.398438 -54.269531 23.796875 -49.625 C 21.203125 -44.988281 19.90625 -38.726562 19.90625 -30.84375 C 19.90625 -21.957031 21.503906 -14.796875 24.703125 -9.359375 C 27.898438 -3.921875 32.144531 -1.203125 37.4375 -1.203125 Z M 37.4375 -1.203125 "/></g></g></g><g fill="#697054" fill-opacity="1"><g transform="translate(133.141643, 137.461693)"><g><path d="M 5.546875 -4.046875 C 14.222656 -12.023438 20.554688 -18.035156 24.546875 -22.078125 C 28.546875 -26.117188 31.367188 -29.585938 33.015625 -32.484375 C 34.660156 -35.378906 35.484375 -38.328125 35.484375 -41.328125 C 35.484375 -45.015625 34.535156 -48.226562 32.640625 -50.96875 C 30.742188 -53.71875 28.046875 -55.09375 24.546875 -55.09375 C 20.859375 -55.09375 17.84375 -53.46875 15.5 -50.21875 C 13.15625 -46.976562 10.785156 -41.96875 8.390625 -35.1875 C 8.390625 -35.082031 8.1875 -35.03125 7.78125 -35.03125 C 6.882812 -35.03125 6.488281 -35.179688 6.59375 -35.484375 L 13.171875 -61.078125 C 13.171875 -61.285156 13.375 -61.390625 13.78125 -61.390625 C 14.070312 -61.390625 14.34375 -61.3125 14.59375 -61.15625 C 14.84375 -61.007812 14.921875 -60.882812 14.828125 -60.78125 C 14.722656 -60.28125 14.671875 -59.679688 14.671875 -58.984375 C 14.671875 -57.285156 15.421875 -56.4375 16.921875 -56.4375 C 17.816406 -56.4375 19.3125 -56.785156 21.40625 -57.484375 C 25.695312 -58.984375 29.640625 -59.734375 33.234375 -59.734375 C 38.722656 -59.734375 43.015625 -58.4375 46.109375 -55.84375 C 49.203125 -53.25 50.75 -49.804688 50.75 -45.515625 C 50.75 -40.328125 48.726562 -35.609375 44.6875 -31.359375 C 40.644531 -27.117188 35.082031 -22.503906 28 -17.515625 L 22.015625 -13.03125 C 21.710938 -12.726562 21.632812 -12.476562 21.78125 -12.28125 C 21.9375 -12.082031 22.257812 -11.984375 22.75 -11.984375 C 30.738281 -11.984375 36.753906 -12.128906 40.796875 -12.421875 C 44.835938 -12.722656 48.03125 -13.394531 50.375 -14.4375 C 52.726562 -15.488281 54.253906 -17.164062 54.953125 -19.46875 C 55.046875 -19.757812 55.367188 -19.90625 55.921875 -19.90625 C 56.472656 -19.90625 56.75 -19.757812 56.75 -19.46875 L 53.59375 -1.640625 C 53.59375 -1.242188 53.46875 -0.867188 53.21875 -0.515625 C 52.96875 -0.171875 52.644531 0 52.25 0 L 6.4375 0 C 6.039062 0 5.71875 -0.296875 5.46875 -0.890625 C 5.21875 -1.492188 5.09375 -2.09375 5.09375 -2.6875 C 5.09375 -3.289062 5.242188 -3.742188 5.546875 -4.046875 Z M 5.546875 -4.046875 "/></g></g></g><g fill="#697054" fill-opacity="1"><g transform="translate(193.323975, 137.461693)"><g><path d="M 46.265625 -43.125 C 52.753906 -43.125 57.644531 -41.203125 60.9375 -37.359375 C 64.226562 -33.515625 65.875 -29 65.875 -23.8125 C 65.875 -19.113281 64.472656 -14.789062 61.671875 -10.84375 C 58.878906 -6.90625 55.0625 -3.785156 50.21875 -1.484375 C 45.382812 0.804688 40.125 1.953125 34.4375 1.953125 C 25.550781 1.953125 18.515625 -0.96875 13.328125 -6.8125 C 8.140625 -12.65625 5.546875 -20.710938 5.546875 -30.984375 C 5.546875 -40.367188 7.738281 -49.578125 12.125 -58.609375 C 16.519531 -67.648438 22.832031 -75.710938 31.0625 -82.796875 C 39.300781 -89.878906 48.910156 -95.269531 59.890625 -98.96875 C 60.285156 -99.0625 60.582031 -98.859375 60.78125 -98.359375 C 60.976562 -97.859375 60.929688 -97.507812 60.640625 -97.3125 C 52.054688 -93.019531 44.769531 -87.40625 38.78125 -80.46875 C 32.789062 -73.53125 28.296875 -65.96875 25.296875 -57.78125 C 22.304688 -49.601562 20.8125 -41.375 20.8125 -33.09375 C 20.8125 -27.300781 21.535156 -22.007812 22.984375 -17.21875 C 24.429688 -12.425781 26.5 -8.628906 29.1875 -5.828125 C 31.882812 -3.035156 34.984375 -1.640625 38.484375 -1.640625 C 42.171875 -1.640625 45.113281 -3.210938 47.3125 -6.359375 C 49.507812 -9.503906 50.609375 -13.875 50.609375 -19.46875 C 50.609375 -24.757812 49.554688 -28.972656 47.453125 -32.109375 C 45.359375 -35.253906 42.265625 -36.828125 38.171875 -36.828125 C 36.378906 -36.828125 34.679688 -36.503906 33.078125 -35.859375 C 31.484375 -35.210938 29.640625 -34.140625 27.546875 -32.640625 C 27.453125 -32.535156 27.300781 -32.484375 27.09375 -32.484375 C 26.800781 -32.484375 26.503906 -32.632812 26.203125 -32.9375 C 25.898438 -33.238281 25.800781 -33.488281 25.90625 -33.6875 C 31.6875 -39.976562 38.472656 -43.125 46.265625 -43.125 Z M 46.265625 -43.125 "/></g></g></g><g fill="#697054" fill-opacity="1"><g transform="translate(262.937863, 137.461693)"><g><path d="M 15.71875 1.640625 C 12.925781 1.640625 10.707031 0.816406 9.0625 -0.828125 C 7.414062 -2.472656 6.59375 -4.691406 6.59375 -7.484375 C 6.59375 -10.078125 7.414062 -12.171875 9.0625 -13.765625 C 10.707031 -15.367188 12.925781 -16.171875 15.71875 -16.171875 C 18.507812 -16.171875 20.675781 -15.394531 22.21875 -13.84375 C 23.769531 -12.300781 24.546875 -10.179688 24.546875 -7.484375 C 24.546875 -4.585938 23.769531 -2.34375 22.21875 -0.75 C 20.675781 0.84375 18.507812 1.640625 15.71875 1.640625 Z M 15.71875 1.640625 "/></g></g></g><g fill="#697054" fill-opacity="1"><g transform="translate(293.927277, 137.461693)"><g><path d="M 17.8125 -45.671875 C 17.8125 -48.765625 17.5625 -51.007812 17.0625 -52.40625 C 16.5625 -53.800781 15.515625 -54.75 13.921875 -55.25 C 12.328125 -55.75 9.78125 -56 6.28125 -56 C 6.082031 -56 5.984375 -56.296875 5.984375 -56.890625 C 5.984375 -57.492188 6.082031 -57.796875 6.28125 -57.796875 C 9.582031 -57.796875 12.128906 -57.742188 13.921875 -57.640625 L 24.859375 -57.484375 L 35.640625 -57.640625 C 37.535156 -57.742188 40.128906 -57.796875 43.421875 -57.796875 C 43.722656 -57.796875 43.875 -57.492188 43.875 -56.890625 C 43.875 -56.296875 43.722656 -56 43.421875 -56 C 40.128906 -56 37.679688 -55.722656 36.078125 -55.171875 C 34.484375 -54.617188 33.382812 -53.644531 32.78125 -52.25 C 32.1875 -50.851562 31.890625 -48.660156 31.890625 -45.671875 L 31.890625 -12.125 C 31.890625 -9.03125 32.140625 -6.785156 32.640625 -5.390625 C 33.140625 -3.992188 34.1875 -3.046875 35.78125 -2.546875 C 37.375 -2.046875 39.921875 -1.796875 43.421875 -1.796875 C 43.722656 -1.796875 43.875 -1.492188 43.875 -0.890625 C 43.875 -0.296875 43.722656 0 43.421875 0 C 40.128906 0 37.582031 -0.0507812 35.78125 -0.15625 L 24.859375 -0.296875 L 14.078125 -0.15625 C 12.179688 -0.0507812 9.582031 0 6.28125 0 C 6.082031 0 5.984375 -0.296875 5.984375 -0.890625 C 5.984375 -1.492188 6.082031 -1.796875 6.28125 -1.796875 C 9.582031 -1.796875 12.03125 -2.066406 13.625 -2.609375 C 15.21875 -3.160156 16.3125 -4.132812 16.90625 -5.53125 C 17.507812 -6.9375 17.8125 -9.132812 17.8125 -12.125 Z M 17.8125 -45.671875 "/></g></g></g><g fill="#697054" fill-opacity="1"><g transform="translate(343.630097, 137.461693)"><g><path d="M 35.9375 1.953125 C 29.75 1.953125 24.234375 0.601562 19.390625 -2.09375 C 14.546875 -4.789062 10.75 -8.507812 8 -13.25 C 5.257812 -17.988281 3.890625 -23.300781 3.890625 -29.1875 C 3.890625 -35.082031 5.257812 -40.347656 8 -44.984375 C 10.75 -49.628906 14.546875 -53.25 19.390625 -55.84375 C 24.234375 -58.4375 29.75 -59.734375 35.9375 -59.734375 C 42.125 -59.734375 47.613281 -58.410156 52.40625 -55.765625 C 57.195312 -53.117188 60.910156 -49.453125 63.546875 -44.765625 C 66.191406 -40.078125 67.515625 -34.785156 67.515625 -28.890625 C 67.515625 -23.003906 66.164062 -17.710938 63.46875 -13.015625 C 60.78125 -8.328125 57.039062 -4.660156 52.25 -2.015625 C 47.457031 0.628906 42.019531 1.953125 35.9375 1.953125 Z M 37.4375 -1.203125 C 42.019531 -1.203125 45.484375 -3.445312 47.828125 -7.9375 C 50.179688 -12.425781 51.359375 -18.710938 51.359375 -26.796875 C 51.359375 -36.878906 49.785156 -44.363281 46.640625 -49.25 C 43.492188 -54.144531 39.523438 -56.59375 34.734375 -56.59375 C 30.046875 -56.59375 26.398438 -54.269531 23.796875 -49.625 C 21.203125 -44.988281 19.90625 -38.726562 19.90625 -30.84375 C 19.90625 -21.957031 21.503906 -14.796875 24.703125 -9.359375 C 27.898438 -3.921875 32.144531 -1.203125 37.4375 -1.203125 Z M 37.4375 -1.203125 "/></g></g></g><g fill="#697054" fill-opacity="1"><g transform="translate(415.040481, 137.461693)"><g><path d="M 15.71875 1.640625 C 12.925781 1.640625 10.707031 0.816406 9.0625 -0.828125 C 7.414062 -2.472656 6.59375 -4.691406 6.59375 -7.484375 C 6.59375 -10.078125 7.414062 -12.171875 9.0625 -13.765625 C 10.707031 -15.367188 12.925781 -16.171875 15.71875 -16.171875 C 18.507812 -16.171875 20.675781 -15.394531 22.21875 -13.84375 C 23.769531 -12.300781 24.546875 -10.179688 24.546875 -7.484375 C 24.546875 -4.585938 23.769531 -2.34375 22.21875 -0.75 C 20.675781 0.84375 18.507812 1.640625 15.71875 1.640625 Z M 15.71875 1.640625 "/></g></g></g><g fill="#697054" fill-opacity="1"><g transform="translate(446.029894, 137.461693)"><g><path d="M 35.9375 1.953125 C 29.75 1.953125 24.234375 0.601562 19.390625 -2.09375 C 14.546875 -4.789062 10.75 -8.507812 8 -13.25 C 5.257812 -17.988281 3.890625 -23.300781 3.890625 -29.1875 C 3.890625 -35.082031 5.257812 -40.347656 8 -44.984375 C 10.75 -49.628906 14.546875 -53.25 19.390625 -55.84375 C 24.234375 -58.4375 29.75 -59.734375 35.9375 -59.734375 C 42.125 -59.734375 47.613281 -58.410156 52.40625 -55.765625 C 57.195312 -53.117188 60.910156 -49.453125 63.546875 -44.765625 C 66.191406 -40.078125 67.515625 -34.785156 67.515625 -28.890625 C 67.515625 -23.003906 66.164062 -17.710938 63.46875 -13.015625 C 60.78125 -8.328125 57.039062 -4.660156 52.25 -2.015625 C 47.457031 0.628906 42.019531 1.953125 35.9375 1.953125 Z M 37.4375 -1.203125 C 42.019531 -1.203125 45.484375 -3.445312 47.828125 -7.9375 C 50.179688 -12.425781 51.359375 -18.710938 51.359375 -26.796875 C 51.359375 -36.878906 49.785156 -44.363281 46.640625 -49.25 C 43.492188 -54.144531 39.523438 -56.59375 34.734375 -56.59375 C 30.046875 -56.59375 26.398438 -54.269531 23.796875 -49.625 C 21.203125 -44.988281 19.90625 -38.726562 19.90625 -30.84375 C 19.90625 -21.957031 21.503906 -14.796875 24.703125 -9.359375 C 27.898438 -3.921875 32.144531 -1.203125 37.4375 -1.203125 Z M 37.4375 -1.203125 "/></g></g></g><g fill="#697054" fill-opacity="1"><g transform="translate(517.440277, 137.461693)"><g><path d="M 33.234375 -19.609375 C 40.222656 -18.515625 45.488281 -15.96875 49.03125 -11.96875 C 52.570312 -7.976562 54.34375 -3.390625 54.34375 1.796875 C 54.34375 6.484375 52.671875 11.269531 49.328125 16.15625 C 45.984375 21.050781 40.84375 25.671875 33.90625 30.015625 C 26.96875 34.359375 18.359375 38.078125 8.078125 41.171875 C 7.679688 41.273438 7.359375 41.078125 7.109375 40.578125 C 6.859375 40.078125 6.9375 39.726562 7.34375 39.53125 C 18.21875 35.132812 26.050781 29.664062 30.84375 23.125 C 35.632812 16.59375 38.03125 10.132812 38.03125 3.75 C 38.03125 -2.144531 36.53125 -6.863281 33.53125 -10.40625 C 30.539062 -13.945312 26.5 -15.71875 21.40625 -15.71875 C 19.414062 -15.71875 17.367188 -15.421875 15.265625 -14.828125 C 14.972656 -14.722656 14.722656 -14.96875 14.515625 -15.5625 C 14.316406 -16.164062 14.367188 -16.519531 14.671875 -16.625 C 21.660156 -18.414062 26.75 -21.132812 29.9375 -24.78125 C 33.132812 -28.425781 34.734375 -33.539062 34.734375 -40.125 C 34.734375 -45.113281 33.984375 -48.929688 32.484375 -51.578125 C 30.992188 -54.222656 28.800781 -55.546875 25.90625 -55.546875 C 21.707031 -55.546875 17.882812 -54.097656 14.4375 -51.203125 C 11 -48.304688 8.179688 -44.113281 5.984375 -38.625 C 5.984375 -38.53125 5.785156 -38.484375 5.390625 -38.484375 C 4.492188 -38.484375 4.09375 -38.679688 4.1875 -39.078125 L 9.734375 -60.9375 C 9.929688 -61.132812 10.128906 -61.234375 10.328125 -61.234375 C 10.628906 -61.234375 10.925781 -61.15625 11.21875 -61 C 11.519531 -60.851562 11.625 -60.734375 11.53125 -60.640625 C 11.332031 -59.835938 11.234375 -59.285156 11.234375 -58.984375 C 11.234375 -57.285156 12.082031 -56.4375 13.78125 -56.4375 C 14.976562 -56.4375 16.671875 -56.835938 18.859375 -57.640625 C 21.253906 -58.335938 23.300781 -58.859375 25 -59.203125 C 26.695312 -59.554688 28.644531 -59.734375 30.84375 -59.734375 C 36.832031 -59.734375 41.5 -58.0625 44.84375 -54.71875 C 48.1875 -51.375 49.859375 -47.359375 49.859375 -42.671875 C 49.859375 -37.878906 48.382812 -33.359375 45.4375 -29.109375 C 42.488281 -24.867188 38.421875 -21.703125 33.234375 -19.609375 Z M 33.234375 -19.609375 "/></g></g></g></g></g></svg>