<svg xmlns="http://www.w3.org/2000/svg" xmlns:xlink="http://www.w3.org/1999/xlink" width="1080" zoomAndPan="magnify" viewBox="0 0 810 809.999993" height="1080" preserveAspectRatio="xMidYMid meet" version="1.0"><defs><g/><clipPath id="346579e998"><rect x="0" width="492" y="0" height="116"/></clipPath></defs><g transform="matrix(1, 0, 0, 1, 151, 347)"><g clip-path="url(#346579e998)"><g fill="#73822e" fill-opacity="1"><g transform="translate(0.657891, 79.581687)"><g><path d="M 40.8125 -42.125 C 40.8125 -40.382812 41.3125 -38.96875 42.3125 -37.875 C 43.3125 -36.789062 44.726562 -36.25 46.5625 -36.25 C 48.550781 -36.25 50.476562 -37.070312 52.34375 -38.71875 C 54.21875 -40.375 55.875 -42.3125 57.3125 -44.53125 C 58.75 -46.75 59.769531 -48.640625 60.375 -50.203125 C 61.070312 -52.023438 61.570312 -53.238281 61.875 -53.84375 C 62.175781 -54.457031 62.414062 -54.765625 62.59375 -54.765625 C 63.03125 -54.765625 63.25 -54.460938 63.25 -53.859375 C 63.25 -51.941406 62.832031 -49.851562 62 -47.59375 C 61.175781 -45.332031 60.023438 -43.179688 58.546875 -41.140625 C 57.066406 -39.097656 55.328125 -37.425781 53.328125 -36.125 C 51.335938 -34.820312 49.164062 -34.171875 46.8125 -34.171875 C 44.8125 -34.171875 43.050781 -34.773438 41.53125 -35.984375 C 40.007812 -37.203125 39.25 -39.117188 39.25 -41.734375 C 39.25 -44.859375 40.3125 -47.941406 42.4375 -50.984375 C 44.570312 -54.023438 47.351562 -56.546875 50.78125 -58.546875 C 54.21875 -60.546875 57.894531 -61.546875 61.8125 -61.546875 C 66.25 -61.546875 69.703125 -60.503906 72.171875 -58.421875 C 74.648438 -56.335938 75.890625 -53.378906 75.890625 -49.546875 C 75.890625 -44.941406 74.800781 -41.140625 72.625 -38.140625 C 70.457031 -35.140625 67.675781 -32.617188 64.28125 -30.578125 C 60.894531 -28.535156 57.3125 -26.707031 53.53125 -25.09375 C 49.75 -23.488281 46.296875 -21.734375 43.171875 -19.828125 C 40.734375 -18.429688 38.359375 -16.84375 36.046875 -15.0625 C 33.742188 -13.28125 31.875 -11.691406 30.4375 -10.296875 C 29.007812 -8.910156 28.296875 -8 28.296875 -7.5625 C 28.296875 -7.21875 28.335938 -7.085938 28.421875 -7.171875 L 28.421875 -6.90625 C 28.421875 -6.90625 29.070312 -7.492188 30.375 -8.671875 C 31.6875 -9.847656 33.363281 -11 35.40625 -12.125 C 37.445312 -13.257812 39.46875 -13.828125 41.46875 -13.828125 C 43.207031 -13.828125 44.945312 -13.28125 46.6875 -12.1875 C 48.425781 -11.101562 49.296875 -9.082031 49.296875 -6.125 C 49.296875 -4.738281 49.507812 -3.71875 49.9375 -3.0625 C 50.375 -2.414062 51.203125 -2.09375 52.421875 -2.09375 C 53.554688 -2.09375 54.835938 -2.632812 56.265625 -3.71875 C 57.703125 -4.800781 59.203125 -6.144531 60.765625 -7.75 C 62.328125 -9.363281 63.765625 -11 65.078125 -12.65625 C 66.023438 -13.863281 66.71875 -14.707031 67.15625 -15.1875 C 67.59375 -15.664062 67.851562 -15.90625 67.9375 -15.90625 C 68.375 -15.90625 68.59375 -15.644531 68.59375 -15.125 C 68.59375 -15.039062 68.222656 -14.410156 67.484375 -13.234375 C 66.742188 -12.054688 65.023438 -9.945312 62.328125 -6.90625 C 60.679688 -4.90625 58.703125 -3.125 56.390625 -1.5625 C 54.085938 0 51.675781 0.78125 49.15625 0.78125 C 46.46875 0.78125 44.578125 0.0859375 43.484375 -1.296875 C 42.398438 -2.691406 41.726562 -4.347656 41.46875 -6.265625 C 41.207031 -8.085938 40.945312 -9.320312 40.6875 -9.96875 C 40.425781 -10.625 39.726562 -10.953125 38.59375 -10.953125 C 37.289062 -10.953125 35.46875 -10.191406 33.125 -8.671875 C 30.78125 -7.148438 28.78125 -5.390625 27.125 -3.390625 C 25.5625 -1.472656 24.519531 -0.171875 24 0.515625 C 23.476562 1.210938 23.085938 1.5625 22.828125 1.5625 C 22.296875 1.5625 22.03125 1.210938 22.03125 0.515625 C 22.03125 0.0859375 22.3125 -0.773438 22.875 -2.078125 C 23.445312 -3.390625 24.273438 -4.867188 25.359375 -6.515625 C 26.453125 -8.171875 27.738281 -9.691406 29.21875 -11.078125 C 31.207031 -13.078125 33.484375 -14.96875 36.046875 -16.75 C 38.617188 -18.539062 41.597656 -20.566406 44.984375 -22.828125 C 48.378906 -25.085938 52.335938 -27.820312 56.859375 -31.03125 C 59.460938 -32.863281 61.765625 -35.0625 63.765625 -37.625 C 65.765625 -40.1875 67.328125 -42.789062 68.453125 -45.4375 C 69.585938 -48.09375 70.15625 -50.460938 70.15625 -52.546875 C 70.15625 -55.503906 69.328125 -57.484375 67.671875 -58.484375 C 66.023438 -59.484375 63.941406 -59.984375 61.421875 -59.984375 C 57.941406 -59.984375 54.613281 -59.046875 51.4375 -57.171875 C 48.269531 -55.304688 45.707031 -53.003906 43.75 -50.265625 C 41.789062 -47.523438 40.8125 -44.8125 40.8125 -42.125 Z M 40.8125 -42.125 "/></g></g></g><g fill="#73822e" fill-opacity="1"><g transform="translate(51.387698, 79.581687)"><g><path d="M 30.125 -15.65625 C 30.125 -19.21875 30.90625 -23.082031 32.46875 -27.25 C 34.03125 -31.425781 36.09375 -35.535156 38.65625 -39.578125 C 41.226562 -43.617188 44.097656 -47.289062 47.265625 -50.59375 C 50.441406 -53.894531 53.679688 -56.546875 56.984375 -58.546875 C 60.285156 -60.546875 63.375 -61.546875 66.25 -61.546875 C 69.550781 -61.546875 71.875 -60.65625 73.21875 -58.875 C 74.570312 -57.09375 75.25 -54.421875 75.25 -50.859375 C 75.25 -46.597656 74.488281 -42.117188 72.96875 -37.421875 C 71.445312 -32.734375 69.421875 -28.128906 66.890625 -23.609375 C 64.367188 -19.085938 61.609375 -14.976562 58.609375 -11.28125 C 55.617188 -7.582031 52.578125 -4.644531 49.484375 -2.46875 C 46.398438 -0.300781 43.597656 0.78125 41.078125 0.78125 C 37.335938 0.78125 34.578125 -0.78125 32.796875 -3.90625 C 31.015625 -7.039062 30.125 -10.957031 30.125 -15.65625 Z M 35.34375 -7.953125 C 35.34375 -5.867188 35.753906 -4.148438 36.578125 -2.796875 C 37.398438 -1.453125 38.941406 -0.78125 41.203125 -0.78125 C 43.816406 -0.78125 46.597656 -2.019531 49.546875 -4.5 C 52.503906 -6.976562 55.375 -10.238281 58.15625 -14.28125 C 60.9375 -18.320312 63.457031 -22.6875 65.71875 -27.375 C 67.976562 -32.070312 69.78125 -36.640625 71.125 -41.078125 C 72.476562 -45.515625 73.15625 -49.382812 73.15625 -52.6875 C 73.15625 -54.945312 72.632812 -56.726562 71.59375 -58.03125 C 70.550781 -59.332031 68.769531 -59.984375 66.25 -59.984375 C 63.894531 -59.984375 61.328125 -58.785156 58.546875 -56.390625 C 55.765625 -54.003906 53.003906 -50.851562 50.265625 -46.9375 C 47.523438 -43.03125 45.023438 -38.75 42.765625 -34.09375 C 40.503906 -29.445312 38.703125 -24.84375 37.359375 -20.28125 C 36.015625 -15.71875 35.34375 -11.609375 35.34375 -7.953125 Z M 35.34375 -7.953125 "/></g></g></g><g fill="#73822e" fill-opacity="1"><g transform="translate(102.117504, 79.581687)"><g><path d="M 40.8125 -42.125 C 40.8125 -40.382812 41.3125 -38.96875 42.3125 -37.875 C 43.3125 -36.789062 44.726562 -36.25 46.5625 -36.25 C 48.550781 -36.25 50.476562 -37.070312 52.34375 -38.71875 C 54.21875 -40.375 55.875 -42.3125 57.3125 -44.53125 C 58.75 -46.75 59.769531 -48.640625 60.375 -50.203125 C 61.070312 -52.023438 61.570312 -53.238281 61.875 -53.84375 C 62.175781 -54.457031 62.414062 -54.765625 62.59375 -54.765625 C 63.03125 -54.765625 63.25 -54.460938 63.25 -53.859375 C 63.25 -51.941406 62.832031 -49.851562 62 -47.59375 C 61.175781 -45.332031 60.023438 -43.179688 58.546875 -41.140625 C 57.066406 -39.097656 55.328125 -37.425781 53.328125 -36.125 C 51.335938 -34.820312 49.164062 -34.171875 46.8125 -34.171875 C 44.8125 -34.171875 43.050781 -34.773438 41.53125 -35.984375 C 40.007812 -37.203125 39.25 -39.117188 39.25 -41.734375 C 39.25 -44.859375 40.3125 -47.941406 42.4375 -50.984375 C 44.570312 -54.023438 47.351562 -56.546875 50.78125 -58.546875 C 54.21875 -60.546875 57.894531 -61.546875 61.8125 -61.546875 C 66.25 -61.546875 69.703125 -60.503906 72.171875 -58.421875 C 74.648438 -56.335938 75.890625 -53.378906 75.890625 -49.546875 C 75.890625 -44.941406 74.800781 -41.140625 72.625 -38.140625 C 70.457031 -35.140625 67.675781 -32.617188 64.28125 -30.578125 C 60.894531 -28.535156 57.3125 -26.707031 53.53125 -25.09375 C 49.75 -23.488281 46.296875 -21.734375 43.171875 -19.828125 C 40.734375 -18.429688 38.359375 -16.84375 36.046875 -15.0625 C 33.742188 -13.28125 31.875 -11.691406 30.4375 -10.296875 C 29.007812 -8.910156 28.296875 -8 28.296875 -7.5625 C 28.296875 -7.21875 28.335938 -7.085938 28.421875 -7.171875 L 28.421875 -6.90625 C 28.421875 -6.90625 29.070312 -7.492188 30.375 -8.671875 C 31.6875 -9.847656 33.363281 -11 35.40625 -12.125 C 37.445312 -13.257812 39.46875 -13.828125 41.46875 -13.828125 C 43.207031 -13.828125 44.945312 -13.28125 46.6875 -12.1875 C 48.425781 -11.101562 49.296875 -9.082031 49.296875 -6.125 C 49.296875 -4.738281 49.507812 -3.71875 49.9375 -3.0625 C 50.375 -2.414062 51.203125 -2.09375 52.421875 -2.09375 C 53.554688 -2.09375 54.835938 -2.632812 56.265625 -3.71875 C 57.703125 -4.800781 59.203125 -6.144531 60.765625 -7.75 C 62.328125 -9.363281 63.765625 -11 65.078125 -12.65625 C 66.023438 -13.863281 66.71875 -14.707031 67.15625 -15.1875 C 67.59375 -15.664062 67.851562 -15.90625 67.9375 -15.90625 C 68.375 -15.90625 68.59375 -15.644531 68.59375 -15.125 C 68.59375 -15.039062 68.222656 -14.410156 67.484375 -13.234375 C 66.742188 -12.054688 65.023438 -9.945312 62.328125 -6.90625 C 60.679688 -4.90625 58.703125 -3.125 56.390625 -1.5625 C 54.085938 0 51.675781 0.78125 49.15625 0.78125 C 46.46875 0.78125 44.578125 0.0859375 43.484375 -1.296875 C 42.398438 -2.691406 41.726562 -4.347656 41.46875 -6.265625 C 41.207031 -8.085938 40.945312 -9.320312 40.6875 -9.96875 C 40.425781 -10.625 39.726562 -10.953125 38.59375 -10.953125 C 37.289062 -10.953125 35.46875 -10.191406 33.125 -8.671875 C 30.78125 -7.148438 28.78125 -5.390625 27.125 -3.390625 C 25.5625 -1.472656 24.519531 -0.171875 24 0.515625 C 23.476562 1.210938 23.085938 1.5625 22.828125 1.5625 C 22.296875 1.5625 22.03125 1.210938 22.03125 0.515625 C 22.03125 0.0859375 22.3125 -0.773438 22.875 -2.078125 C 23.445312 -3.390625 24.273438 -4.867188 25.359375 -6.515625 C 26.453125 -8.171875 27.738281 -9.691406 29.21875 -11.078125 C 31.207031 -13.078125 33.484375 -14.96875 36.046875 -16.75 C 38.617188 -18.539062 41.597656 -20.566406 44.984375 -22.828125 C 48.378906 -25.085938 52.335938 -27.820312 56.859375 -31.03125 C 59.460938 -32.863281 61.765625 -35.0625 63.765625 -37.625 C 65.765625 -40.1875 67.328125 -42.789062 68.453125 -45.4375 C 69.585938 -48.09375 70.15625 -50.460938 70.15625 -52.546875 C 70.15625 -55.503906 69.328125 -57.484375 67.671875 -58.484375 C 66.023438 -59.484375 63.941406 -59.984375 61.421875 -59.984375 C 57.941406 -59.984375 54.613281 -59.046875 51.4375 -57.171875 C 48.269531 -55.304688 45.707031 -53.003906 43.75 -50.265625 C 41.789062 -47.523438 40.8125 -44.8125 40.8125 -42.125 Z M 40.8125 -42.125 "/></g></g></g><g fill="#73822e" fill-opacity="1"><g transform="translate(152.84731, 79.581687)"><g><path d="M 34.296875 -6.65625 C 34.296875 -4.914062 34.796875 -3.5 35.796875 -2.40625 C 36.796875 -1.320312 37.988281 -0.78125 39.375 -0.78125 C 41.90625 -0.78125 44.382812 -1.800781 46.8125 -3.84375 C 49.25 -5.882812 51.507812 -8.445312 53.59375 -11.53125 C 55.6875 -14.625 57.335938 -17.78125 58.546875 -21 C 59.765625 -24.21875 60.375 -27.039062 60.375 -29.46875 C 60.375 -31.820312 60.003906 -33.582031 59.265625 -34.75 C 58.523438 -35.925781 57.242188 -36.515625 55.421875 -36.515625 C 52.816406 -36.515625 50.253906 -35.445312 47.734375 -33.3125 C 45.210938 -31.1875 42.953125 -28.515625 40.953125 -25.296875 C 38.953125 -22.078125 37.34375 -18.796875 36.125 -15.453125 C 34.90625 -12.109375 34.296875 -9.175781 34.296875 -6.65625 Z M 66.109375 -25.953125 C 66.109375 -23.078125 65.410156 -20.078125 64.015625 -16.953125 C 62.628906 -13.828125 60.738281 -10.914062 58.34375 -8.21875 C 55.957031 -5.519531 53.285156 -3.34375 50.328125 -1.6875 C 47.378906 -0.0390625 44.296875 0.78125 41.078125 0.78125 C 37.335938 0.78125 34.53125 -0.5625 32.65625 -3.25 C 30.789062 -5.945312 29.859375 -9.644531 29.859375 -14.34375 C 29.859375 -18.6875 30.8125 -23.078125 32.71875 -27.515625 C 34.632812 -31.953125 37.179688 -36.210938 40.359375 -40.296875 C 43.535156 -44.378906 47.035156 -48.003906 50.859375 -51.171875 C 54.679688 -54.347656 58.570312 -56.867188 62.53125 -58.734375 C 66.488281 -60.609375 70.160156 -61.546875 73.546875 -61.546875 C 76.941406 -61.546875 79.640625 -60.785156 81.640625 -59.265625 C 83.640625 -57.742188 84.640625 -55.59375 84.640625 -52.8125 C 84.640625 -50.988281 84.140625 -49.53125 83.140625 -48.4375 C 82.140625 -47.351562 81.113281 -46.8125 80.0625 -46.8125 C 77.375 -46.8125 76.03125 -48.117188 76.03125 -50.734375 C 76.03125 -52.117188 76.332031 -53.070312 76.9375 -53.59375 C 77.550781 -54.113281 78.160156 -54.546875 78.765625 -54.890625 C 79.367188 -55.242188 79.671875 -55.769531 79.671875 -56.46875 C 79.671875 -57.425781 79.128906 -58.25 78.046875 -58.9375 C 76.960938 -59.632812 75.375 -59.984375 73.28125 -59.984375 C 70.5 -59.984375 67.648438 -59.132812 64.734375 -57.4375 C 61.828125 -55.75 59.023438 -53.554688 56.328125 -50.859375 C 53.640625 -48.160156 51.164062 -45.3125 48.90625 -42.3125 C 46.644531 -39.3125 44.753906 -36.460938 43.234375 -33.765625 C 41.710938 -31.078125 40.691406 -28.90625 40.171875 -27.25 L 40.421875 -27 C 41.460938 -28.5625 42.722656 -30.1875 44.203125 -31.875 C 45.679688 -33.570312 47.375 -35.03125 49.28125 -36.25 C 51.195312 -37.46875 53.332031 -38.078125 55.6875 -38.078125 C 58.726562 -38.078125 61.222656 -36.898438 63.171875 -34.546875 C 65.128906 -32.203125 66.109375 -29.335938 66.109375 -25.953125 Z M 66.109375 -25.953125 "/></g></g></g><g fill="#73822e" fill-opacity="1"><g transform="translate(203.577116, 79.581687)"><g><path d="M 40.171875 -8.078125 C 42.691406 -8.078125 43.953125 -6.992188 43.953125 -4.828125 C 43.953125 -1.085938 42.253906 0.78125 38.859375 0.78125 C 37.816406 0.78125 37.007812 0.519531 36.4375 0 C 35.875 -0.519531 35.59375 -1.476562 35.59375 -2.875 C 35.59375 -4.34375 35.941406 -5.578125 36.640625 -6.578125 C 37.335938 -7.578125 38.515625 -8.078125 40.171875 -8.078125 Z M 40.171875 -8.078125 "/></g></g></g><g fill="#73822e" fill-opacity="1"><g transform="translate(232.528296, 79.581687)"><g><path d="M 34.421875 0 C 40.335938 -9.5625 46.507812 -19.101562 52.9375 -28.625 C 59.375 -38.144531 65.289062 -47.46875 70.6875 -56.59375 L 70.421875 -56.859375 C 66.859375 -53.117188 62.878906 -49.140625 58.484375 -44.921875 C 54.097656 -40.703125 49.035156 -36.289062 43.296875 -31.6875 C 39.898438 -28.988281 37.53125 -27.160156 36.1875 -26.203125 C 34.84375 -25.253906 33.863281 -24.78125 33.25 -24.78125 C 32.90625 -24.78125 32.734375 -24.992188 32.734375 -25.421875 C 32.734375 -25.859375 33.207031 -26.425781 34.15625 -27.125 C 35.113281 -27.820312 36.921875 -29.171875 39.578125 -31.171875 C 42.234375 -33.171875 46.125 -36.34375 51.25 -40.6875 C 56.632812 -45.289062 60.847656 -49.132812 63.890625 -52.21875 C 66.941406 -55.3125 69.203125 -57.640625 70.671875 -59.203125 C 72.148438 -60.765625 73.109375 -61.546875 73.546875 -61.546875 C 73.984375 -61.546875 74.203125 -61.113281 74.203125 -60.25 C 74.203125 -59.8125 73.613281 -58.222656 72.4375 -55.484375 C 71.269531 -52.742188 69.660156 -49.265625 67.609375 -45.046875 C 65.566406 -40.835938 63.242188 -36.210938 60.640625 -31.171875 C 58.035156 -26.128906 55.335938 -20.976562 52.546875 -15.71875 C 49.765625 -10.457031 47.03125 -5.476562 44.34375 -0.78125 C 42.6875 -0.78125 41.03125 -0.691406 39.375 -0.515625 C 37.726562 -0.347656 36.078125 -0.175781 34.421875 0 Z M 34.421875 0 "/></g></g></g><g fill="#73822e" fill-opacity="1"><g transform="translate(283.258128, 79.581687)"><g><path d="M 30.125 -15.65625 C 30.125 -19.21875 30.90625 -23.082031 32.46875 -27.25 C 34.03125 -31.425781 36.09375 -35.535156 38.65625 -39.578125 C 41.226562 -43.617188 44.097656 -47.289062 47.265625 -50.59375 C 50.441406 -53.894531 53.679688 -56.546875 56.984375 -58.546875 C 60.285156 -60.546875 63.375 -61.546875 66.25 -61.546875 C 69.550781 -61.546875 71.875 -60.65625 73.21875 -58.875 C 74.570312 -57.09375 75.25 -54.421875 75.25 -50.859375 C 75.25 -46.597656 74.488281 -42.117188 72.96875 -37.421875 C 71.445312 -32.734375 69.421875 -28.128906 66.890625 -23.609375 C 64.367188 -19.085938 61.609375 -14.976562 58.609375 -11.28125 C 55.617188 -7.582031 52.578125 -4.644531 49.484375 -2.46875 C 46.398438 -0.300781 43.597656 0.78125 41.078125 0.78125 C 37.335938 0.78125 34.578125 -0.78125 32.796875 -3.90625 C 31.015625 -7.039062 30.125 -10.957031 30.125 -15.65625 Z M 35.34375 -7.953125 C 35.34375 -5.867188 35.753906 -4.148438 36.578125 -2.796875 C 37.398438 -1.453125 38.941406 -0.78125 41.203125 -0.78125 C 43.816406 -0.78125 46.597656 -2.019531 49.546875 -4.5 C 52.503906 -6.976562 55.375 -10.238281 58.15625 -14.28125 C 60.9375 -18.320312 63.457031 -22.6875 65.71875 -27.375 C 67.976562 -32.070312 69.78125 -36.640625 71.125 -41.078125 C 72.476562 -45.515625 73.15625 -49.382812 73.15625 -52.6875 C 73.15625 -54.945312 72.632812 -56.726562 71.59375 -58.03125 C 70.550781 -59.332031 68.769531 -59.984375 66.25 -59.984375 C 63.894531 -59.984375 61.328125 -58.785156 58.546875 -56.390625 C 55.765625 -54.003906 53.003906 -50.851562 50.265625 -46.9375 C 47.523438 -43.03125 45.023438 -38.75 42.765625 -34.09375 C 40.503906 -29.445312 38.703125 -24.84375 37.359375 -20.28125 C 36.015625 -15.71875 35.34375 -11.609375 35.34375 -7.953125 Z M 35.34375 -7.953125 "/></g></g></g><g fill="#73822e" fill-opacity="1"><g transform="translate(333.98791, 79.581687)"><g><path d="M 40.171875 -8.078125 C 42.691406 -8.078125 43.953125 -6.992188 43.953125 -4.828125 C 43.953125 -1.085938 42.253906 0.78125 38.859375 0.78125 C 37.816406 0.78125 37.007812 0.519531 36.4375 0 C 35.875 -0.519531 35.59375 -1.476562 35.59375 -2.875 C 35.59375 -4.34375 35.941406 -5.578125 36.640625 -6.578125 C 37.335938 -7.578125 38.515625 -8.078125 40.171875 -8.078125 Z M 40.171875 -8.078125 "/></g></g></g><g fill="#73822e" fill-opacity="1"><g transform="translate(362.939115, 79.581687)"><g><path d="M 30.125 -15.65625 C 30.125 -19.21875 30.90625 -23.082031 32.46875 -27.25 C 34.03125 -31.425781 36.09375 -35.535156 38.65625 -39.578125 C 41.226562 -43.617188 44.097656 -47.289062 47.265625 -50.59375 C 50.441406 -53.894531 53.679688 -56.546875 56.984375 -58.546875 C 60.285156 -60.546875 63.375 -61.546875 66.25 -61.546875 C 69.550781 -61.546875 71.875 -60.65625 73.21875 -58.875 C 74.570312 -57.09375 75.25 -54.421875 75.25 -50.859375 C 75.25 -46.597656 74.488281 -42.117188 72.96875 -37.421875 C 71.445312 -32.734375 69.421875 -28.128906 66.890625 -23.609375 C 64.367188 -19.085938 61.609375 -14.976562 58.609375 -11.28125 C 55.617188 -7.582031 52.578125 -4.644531 49.484375 -2.46875 C 46.398438 -0.300781 43.597656 0.78125 41.078125 0.78125 C 37.335938 0.78125 34.578125 -0.78125 32.796875 -3.90625 C 31.015625 -7.039062 30.125 -10.957031 30.125 -15.65625 Z M 35.34375 -7.953125 C 35.34375 -5.867188 35.753906 -4.148438 36.578125 -2.796875 C 37.398438 -1.453125 38.941406 -0.78125 41.203125 -0.78125 C 43.816406 -0.78125 46.597656 -2.019531 49.546875 -4.5 C 52.503906 -6.976562 55.375 -10.238281 58.15625 -14.28125 C 60.9375 -18.320312 63.457031 -22.6875 65.71875 -27.375 C 67.976562 -32.070312 69.78125 -36.640625 71.125 -41.078125 C 72.476562 -45.515625 73.15625 -49.382812 73.15625 -52.6875 C 73.15625 -54.945312 72.632812 -56.726562 71.59375 -58.03125 C 70.550781 -59.332031 68.769531 -59.984375 66.25 -59.984375 C 63.894531 -59.984375 61.328125 -58.785156 58.546875 -56.390625 C 55.765625 -54.003906 53.003906 -50.851562 50.265625 -46.9375 C 47.523438 -43.03125 45.023438 -38.75 42.765625 -34.09375 C 40.503906 -29.445312 38.703125 -24.84375 37.359375 -20.28125 C 36.015625 -15.71875 35.34375 -11.609375 35.34375 -7.953125 Z M 35.34375 -7.953125 "/></g></g></g><g fill="#73822e" fill-opacity="1"><g transform="translate(413.668921, 79.581687)"><g><path d="M 76.421875 -51.640625 C 76.421875 -48.679688 75.613281 -46.179688 74 -44.140625 C 72.394531 -42.097656 70.375 -40.378906 67.9375 -38.984375 C 65.507812 -37.597656 62.988281 -36.359375 60.375 -35.265625 C 57.769531 -34.179688 55.46875 -33.117188 53.46875 -32.078125 L 53.46875 -31.8125 C 57.289062 -31.8125 60.285156 -30.832031 62.453125 -28.875 C 64.628906 -26.925781 65.71875 -24.382812 65.71875 -21.25 C 65.71875 -18.46875 64.976562 -15.75 63.5 -13.09375 C 62.03125 -10.445312 60.054688 -8.082031 57.578125 -6 C 55.097656 -3.914062 52.3125 -2.265625 49.21875 -1.046875 C 46.132812 0.171875 42.988281 0.78125 39.78125 0.78125 C 36.207031 0.78125 33.421875 0.21875 31.421875 -0.90625 C 29.421875 -2.039062 28.007812 -3.453125 27.1875 -5.140625 C 26.363281 -6.835938 25.953125 -8.601562 25.953125 -10.4375 C 25.953125 -11.820312 26.40625 -13.1875 27.3125 -14.53125 C 28.226562 -15.882812 29.425781 -16.5625 30.90625 -16.5625 C 32.382812 -16.5625 33.425781 -16.191406 34.03125 -15.453125 C 34.644531 -14.710938 34.953125 -13.863281 34.953125 -12.90625 C 34.953125 -10.5625 33.515625 -9 30.640625 -8.21875 C 29.859375 -8.039062 29.359375 -7.773438 29.140625 -7.421875 C 28.921875 -7.078125 28.8125 -6.691406 28.8125 -6.265625 C 28.90625 -4.785156 29.710938 -3.5 31.234375 -2.40625 C 32.753906 -1.320312 34.992188 -0.78125 37.953125 -0.78125 C 40.378906 -0.78125 42.875 -1.5625 45.4375 -3.125 C 48.007812 -4.695312 50.398438 -6.71875 52.609375 -9.1875 C 54.828125 -11.664062 56.609375 -14.316406 57.953125 -17.140625 C 59.304688 -19.972656 59.984375 -22.691406 59.984375 -25.296875 C 59.984375 -28.597656 58.03125 -30.25 54.125 -30.25 C 52.382812 -30.25 50.835938 -29.96875 49.484375 -29.40625 C 48.140625 -28.84375 47.078125 -28.253906 46.296875 -27.640625 C 45.515625 -27.035156 44.945312 -26.734375 44.59375 -26.734375 C 43.988281 -26.734375 43.6875 -27.082031 43.6875 -27.78125 C 43.6875 -28.207031 43.96875 -28.53125 44.53125 -28.75 C 45.09375 -28.96875 46.132812 -29.445312 47.65625 -30.1875 C 49.1875 -30.925781 51.382812 -32.164062 54.25 -33.90625 C 60.414062 -37.726562 64.695312 -41.289062 67.09375 -44.59375 C 69.488281 -47.894531 70.6875 -50.984375 70.6875 -53.859375 C 70.6875 -57.941406 68.425781 -59.984375 63.90625 -59.984375 C 61.03125 -59.984375 58.15625 -59.265625 55.28125 -57.828125 C 52.414062 -56.398438 50.046875 -54.554688 48.171875 -52.296875 C 46.304688 -50.035156 45.375 -47.726562 45.375 -45.375 C 45.375 -44.164062 45.804688 -43.253906 46.671875 -42.640625 C 47.546875 -42.035156 48.375 -41.734375 49.15625 -41.734375 C 51.332031 -41.734375 53.550781 -42.753906 55.8125 -44.796875 C 58.070312 -46.835938 60.03125 -49.207031 61.6875 -51.90625 C 62.632812 -53.382812 63.109375 -54.359375 63.109375 -54.828125 C 63.109375 -55.304688 63.328125 -55.546875 63.765625 -55.546875 C 64.023438 -55.546875 64.15625 -55.203125 64.15625 -54.515625 C 64.332031 -52.597656 63.8125 -50.53125 62.59375 -48.3125 C 61.375 -46.09375 59.722656 -44.179688 57.640625 -42.578125 C 55.554688 -40.972656 53.207031 -40.171875 50.59375 -40.171875 C 48.6875 -40.171875 47.078125 -40.625 45.765625 -41.53125 C 44.460938 -42.445312 43.8125 -43.859375 43.8125 -45.765625 C 43.8125 -47.859375 44.765625 -50.140625 46.671875 -52.609375 C 48.585938 -55.085938 51.109375 -57.195312 54.234375 -58.9375 C 57.367188 -60.675781 60.765625 -61.546875 64.421875 -61.546875 C 66.335938 -61.546875 68.207031 -61.175781 70.03125 -60.4375 C 71.851562 -59.695312 73.375 -58.609375 74.59375 -57.171875 C 75.8125 -55.742188 76.421875 -53.898438 76.421875 -51.640625 Z M 76.421875 -51.640625 "/></g></g></g></g></g></svg>