<svg xmlns="http://www.w3.org/2000/svg" xmlns:xlink="http://www.w3.org/1999/xlink" width="1080" zoomAndPan="magnify" viewBox="0 0 810 809.999993" height="1080" preserveAspectRatio="xMidYMid meet" version="1.0"><defs><clipPath id="c773999587"><path d="M 235 358 L 493 358 L 493 658.46875 L 235 658.46875 Z M 235 358 " clip-rule="nonzero"/></clipPath></defs><path fill="#f3dfbd" d="M 540.105469 602.113281 C 539.585938 597.964844 539.066406 594.332031 538.722656 590.671875 C 536.53125 567.035156 533.820312 543.480469 528.980469 520.191406 C 522.40625 488.480469 511.710938 458.269531 496.578125 429.644531 C 495.742188 428.089844 495.222656 426.300781 492.945312 424.660156 C 492.484375 429.761719 492.023438 434.402344 491.648438 439.042969 C 489.253906 468.417969 490.207031 497.734375 493.492188 527.023438 C 495.425781 544.203125 496.546875 561.5 497.328125 578.765625 C 497.703125 587.414062 496.75 596.03125 496.261719 604.59375 C 493.953125 604.855469 494.300781 603.324219 494.328125 602.257812 C 494.503906 597.847656 494.933594 593.4375 495.050781 589 C 495.511719 571.472656 493.953125 554.003906 492.195312 536.59375 C 489.054688 505.71875 486.605469 474.875 489.140625 443.828125 C 489.6875 437.226562 490.003906 430.570312 490.582031 423.96875 C 490.839844 420.824219 490.265625 418.085938 488.59375 415.375 C 468.242188 382.285156 446.851562 349.882812 422.578125 319.5 C 414.277344 309.121094 404.851562 299.726562 395.597656 290.183594 C 390.609375 285.023438 385.335938 284.332031 379.339844 288.222656 C 366.542969 296.523438 353.308594 296.699219 339.644531 290.847656 C 333.332031 288.136719 327.335938 284.878906 321.800781 280.785156 C 311.597656 273.261719 301.335938 265.855469 290.496094 259.253906 C 286.519531 256.832031 282.972656 253.832031 280.292969 249.96875 C 277.984375 246.65625 276.949219 243.195312 278.621094 239.1875 C 280.40625 234.835938 280.234375 230.109375 280.925781 225.554688 C 281.242188 223.507812 280.207031 222.09375 279.484375 220.480469 C 277.726562 216.558594 277.554688 212.667969 280.234375 209.066406 C 282.136719 206.5 282.539062 203.675781 282.628906 200.5625 C 282.828125 189.550781 288.679688 184.042969 299.777344 184.417969 C 302.054688 184.503906 302.949219 184.128906 303.324219 181.738281 C 303.902344 177.960938 305.226562 174.328125 307.070312 170.957031 C 311.742188 162.335938 318.804688 159.859375 327.886719 163.605469 C 330.132812 164.527344 332.152344 165.824219 334.226562 167.757812 C 336.878906 163.117188 340.425781 160.117188 345.816406 160.261719 C 347.804688 160.320312 348.582031 158.878906 349.476562 157.582031 C 352.820312 152.824219 357.171875 151.46875 362.648438 153.488281 C 365.300781 154.46875 368.097656 154.871094 370.953125 154.785156 C 371.558594 154.785156 372.191406 154.726562 372.769531 154.871094 C 378.648438 156.484375 384.355469 158.707031 390.667969 158.648438 C 393.4375 158.648438 395.597656 161.128906 397.472656 163.316406 C 399.808594 166.085938 402.085938 168.824219 405.429688 170.582031 C 408.570312 172.226562 409.347656 175.539062 410.097656 178.683594 C 412.460938 188.683594 413.875 198.832031 415.402344 208.980469 C 416.382812 215.523438 417.449219 222.039062 417.535156 229.589844 C 425.433594 222.988281 429.988281 230.078125 435.695312 233.367188 C 436.070312 230.28125 436.1875 227.890625 436.675781 225.582031 C 438.320312 217.800781 443.277344 213.359375 451.117188 213.820312 C 457.171875 214.167969 462.589844 213.128906 468.011719 210.566406 C 471.671875 208.835938 475.707031 208 479.714844 209.613281 C 481.585938 210.363281 483.117188 210.046875 484.84375 209.125 C 492.457031 205 500.84375 203.875 509.289062 203.269531 C 515.257812 202.839844 520.042969 205.03125 522.578125 210.652344 C 523.761719 213.273438 525.316406 213.820312 528.054688 214.109375 C 536.503906 215.03125 542.960938 218.925781 544.949219 227.890625 C 545.496094 230.367188 546.589844 231.378906 549.097656 230.628906 C 554 229.1875 558.4375 229.707031 562.761719 232.875 C 564.550781 234.203125 567.40625 234 569.683594 234.808594 C 575.359375 236.824219 576.109375 239.132812 572.796875 244.148438 C 562.300781 259.914062 553.972656 276.921875 544.949219 293.527344 C 541.777344 299.378906 538.578125 305.171875 534.714844 310.59375 C 527.507812 320.625 518.082031 326.648438 505.371094 327.140625 C 498.625 327.398438 493.40625 332.671875 492.628906 339.273438 C 490.351562 358.734375 490.496094 378.21875 492.050781 397.734375 C 492.226562 399.953125 492.800781 402.175781 492.570312 404.335938 C 491.5625 414.425781 495.394531 422.929688 500.007812 431.636719 C 518.140625 465.910156 529.066406 502.578125 535.003906 540.828125 C 537.914062 559.539062 539.703125 578.332031 541.574219 597.15625 C 541.71875 598.597656 542.527344 600.269531 540.105469 602 Z M 466.109375 303.300781 L 466.222656 303.183594 C 468.789062 304.914062 470.027344 309.035156 475.074219 307.59375 C 468.585938 298.773438 465.503906 288.511719 460.140625 279.34375 C 454.835938 270.292969 450.3125 260.78125 448.410156 250.289062 C 452.558594 258.648438 455.5 267.554688 460.773438 276.171875 C 462.070312 267.757812 458.929688 261.070312 455.933594 253.863281 C 459.191406 254.84375 458.441406 258.214844 461.121094 259.023438 C 461.46875 256.425781 463.082031 254.238281 462.621094 251.5 C 460.832031 241.003906 452.617188 234.867188 441.953125 235.84375 C 438.953125 236.132812 438.78125 237.316406 439.53125 239.738281 C 439.992188 241.207031 441.347656 242.675781 440.308594 244.609375 C 438.003906 242.476562 438.40625 239.132812 435.898438 236.796875 C 437.28125 245.214844 441.546875 252.21875 443.335938 260.347656 C 441.433594 259.453125 441.203125 258.042969 440.683594 256.832031 C 438.03125 250.75 435.78125 244.523438 433.964844 238.152344 C 432.726562 233.742188 432.699219 233.742188 427.769531 231.609375 C 426.875 234.085938 429.585938 236.394531 428.171875 239.074219 C 426.414062 236.507812 426.328125 233.597656 425.433594 230.972656 C 424.539062 228.320312 422.925781 228.582031 421.339844 229.9375 C 418.054688 232.761719 416.957031 236.59375 417.1875 240.804688 C 417.476562 246.65625 418.488281 252.390625 421.023438 257.753906 C 425.433594 267.007812 430.59375 275.855469 435.78125 284.707031 C 437.253906 287.183594 439.15625 287.992188 442.527344 288.195312 C 436.472656 277.585938 430.851562 267.667969 427.539062 255.390625 C 429.84375 257.867188 430.476562 259.800781 431.199219 261.644531 C 435.175781 271.792969 440.511719 281.21875 445.871094 290.644531 C 447.746094 293.929688 450.109375 296.667969 454.808594 298.976562 C 450.628906 290.671875 445.582031 284.1875 443.074219 275.914062 C 445.066406 276.867188 445.351562 278.25 445.929688 279.429688 C 449.53125 286.867188 454.03125 293.757812 458.46875 300.675781 C 460.027344 303.097656 462.015625 304.421875 464.550781 305.144531 C 466.222656 305.605469 465.703125 304.019531 466.109375 303.269531 Z M 288.710938 219.90625 C 287.039062 219.644531 285.164062 218.722656 284.414062 221.34375 C 284.039062 222.699219 283.433594 223.996094 283.175781 225.351562 C 282.023438 231.289062 282.339844 236.335938 288.132812 240.542969 C 296.722656 246.800781 304.621094 254.007812 312.808594 260.867188 C 313.703125 261.617188 314.941406 262.25 315.289062 264.527344 C 303.265625 255.707031 292.429688 246.886719 282.164062 237.199219 C 278.851562 242.476562 280.0625 246.570312 283.464844 250.429688 C 285.742188 253.027344 288.277344 255.304688 291.21875 257.089844 C 302.746094 264.09375 313.585938 272.082031 324.511719 279.980469 C 330.566406 284.359375 337.195312 287.703125 344.230469 290.296875 C 350.859375 292.75 357.664062 293.296875 364.726562 291.480469 C 339.328125 290.242188 320.792969 275.742188 302.804688 260.234375 C 306.582031 261.644531 309.695312 264.152344 312.867188 266.515625 C 319.121094 271.246094 325.40625 275.972656 332.351562 279.632812 C 342.960938 285.253906 354.058594 289.261719 366.308594 288.484375 C 370.230469 288.253906 374.210938 287.992188 377.640625 285.601562 C 376.71875 283.640625 375.101562 284.1875 373.835938 284.042969 C 364.378906 282.804688 355.355469 280.066406 346.996094 275.453125 C 333.042969 267.757812 319.957031 258.792969 308.050781 248.15625 C 306.09375 246.425781 304.363281 244.464844 302.515625 242.589844 C 304.765625 243.167969 306.292969 244.40625 307.765625 245.703125 C 319.46875 255.9375 332.179688 264.699219 345.640625 272.457031 C 354.835938 277.730469 364.753906 280.816406 375.21875 282.167969 C 377.035156 282.398438 379.597656 283.582031 380.40625 280.871094 C 381.242188 278.078125 378.300781 277.816406 376.71875 276.980469 C 355.816406 266.113281 337.859375 251.324219 320.621094 235.527344 C 320.128906 235.066406 319.265625 234.722656 319.871094 233.078125 C 324.453125 236.910156 328.921875 240.515625 333.21875 244.292969 C 346.5625 255.996094 360.949219 266.230469 376.660156 274.558594 C 377.925781 275.222656 379.050781 276.605469 381.53125 275.800781 C 373.949219 271.761719 369.050781 265.625 363.945312 259.65625 C 359.96875 254.984375 355.269531 251.238281 349.417969 249.25 C 342.585938 246.914062 336.90625 242.90625 331.949219 237.746094 C 327.335938 232.960938 322.4375 228.496094 317.421875 224.140625 C 312.808594 220.136719 307.589844 217.164062 301.652344 215.609375 C 297.90625 214.628906 294.101562 214.515625 290.324219 215.4375 C 287.671875 216.070312 287.5 217.769531 288.738281 219.90625 Z M 316.640625 169.027344 L 316.296875 169.371094 C 312.347656 166.804688 312.203125 166.777344 309.925781 170.324219 C 301.566406 183.292969 304.621094 198.773438 313.355469 205.546875 C 313.992188 206.039062 315.230469 206.441406 314.566406 207.914062 C 311.136719 207.363281 309.753906 203.933594 307.042969 202.320312 C 305.285156 204.105469 305.6875 206.066406 306.207031 208.027344 C 307.300781 212.035156 309.347656 215.492188 312.75 217.886719 C 320.359375 223.25 327.105469 229.5625 333.476562 236.277344 C 340.019531 243.195312 348.234375 246.972656 358.382812 250.316406 C 348.582031 239.046875 337.484375 230.917969 328.578125 220.625 C 339.820312 229.359375 350.253906 238.957031 360.890625 248.386719 C 359.015625 245.183594 356.566406 242.5625 354.40625 239.738281 C 352.273438 236.910156 349.128906 234.722656 348.8125 230.597656 L 360.140625 243.367188 C 347.6875 220.480469 329.757812 201.886719 313.441406 181.96875 C 314.335938 181.449219 314.828125 181.738281 315.230469 182.199219 C 336.1875 204.453125 355.644531 227.859375 371.296875 254.324219 C 368.242188 243.945312 362.390625 234.808594 359.480469 224.429688 C 366.023438 234.691406 370.171875 246.222656 376.253906 256.714844 C 376.773438 254.4375 375.507812 252.796875 374.671875 251.035156 C 369.222656 239.535156 365.242188 227.542969 362.910156 215.03125 C 360.71875 203.359375 357.949219 191.855469 353.078125 180.960938 C 352.734375 180.210938 352.070312 179.230469 353.222656 178.367188 C 356.277344 182.199219 357.058594 187.101562 359.507812 191.453125 C 359.910156 190.703125 360.371094 190.214844 360.402344 189.695312 C 360.832031 181.015625 359.015625 172.945312 353.683594 165.941406 C 352.15625 163.921875 349.910156 162.972656 347.488281 162.480469 C 343.796875 161.730469 340.710938 162.941406 338.292969 165.738281 C 335.785156 168.621094 337.3125 171.160156 338.953125 173.925781 C 343.824219 182.257812 348.554688 190.675781 351.953125 199.753906 C 352.648438 201.597656 353.972656 203.359375 353.394531 206.125 C 350.425781 201.773438 348.957031 197.363281 347.027344 193.183594 C 343.449219 185.515625 339.617188 177.992188 334.34375 171.332031 C 330.738281 166.75 326.210938 164.066406 320.1875 164.558594 C 319.871094 166.574219 322.464844 167.066406 321.773438 168.96875 C 319.8125 168.21875 318.890625 166.546875 317.421875 165.480469 C 316.902344 165.105469 316.296875 164.960938 315.777344 165.363281 C 314.941406 166.054688 315.433594 166.71875 315.921875 167.410156 C 316.238281 167.902344 316.410156 168.476562 316.671875 169.027344 Z M 516.554688 305.492188 C 519.035156 302.636719 520.417969 299.292969 521.542969 295.917969 C 525.808594 283.324219 531.023438 271.15625 536.847656 259.222656 C 538.347656 256.167969 539.558594 252.941406 540.597656 249.683594 C 542.5 243.714844 543.851562 237.632812 543.363281 231.289062 C 542.699219 223.160156 536.675781 217.078125 528.632812 216.273438 C 525.722656 215.984375 523.789062 216.53125 522.722656 219.816406 C 521.253906 224.402344 519.265625 228.839844 517.132812 233.136719 C 510.097656 247.316406 507.070312 262.335938 507.273438 278.078125 C 507.359375 284.101562 507.273438 290.15625 507.1875 296.179688 C 507.128906 299.839844 506.636719 303.414062 505.167969 307.652344 C 504.503906 306.296875 504.160156 305.921875 504.1875 305.605469 C 505.484375 295.199219 505.082031 284.707031 505.167969 274.269531 C 505.285156 259.742188 508.570312 246.019531 514.796875 232.90625 C 516.957031 228.378906 518.714844 223.652344 520.761719 219.066406 C 522.609375 214.945312 521.28125 211.601562 518.457031 208.632812 C 514.160156 204.050781 510.585938 204.742188 508.65625 210.679688 C 507.214844 215.0625 506.03125 219.53125 504.765625 223.96875 C 503.8125 227.3125 502.917969 230.683594 501.882812 234.578125 C 500.988281 232.558594 501.507812 231.175781 501.765625 229.820312 C 503.09375 222.5 504.851562 215.261719 507.847656 208.429688 C 508.253906 207.507812 508.683594 206.382812 507.417969 205.953125 C 506.292969 205.578125 505.515625 206.441406 505.167969 207.421875 C 504.476562 209.265625 504.246094 211.3125 502.917969 212.929688 C 501.332031 210.824219 504.390625 208.835938 503.035156 206.730469 C 499.777344 205.894531 497.585938 206.847656 496.460938 210.101562 C 495.339844 213.332031 493.898438 216.445312 492.832031 219.671875 C 488.96875 231.40625 487.496094 243.570312 486.71875 255.851562 C 486.285156 262.625 485.882812 269.398438 485.449219 276.203125 L 484.269531 276.058594 C 484.125 252.941406 485.507812 230.023438 495.28125 208.316406 C 492.832031 207.769531 491.476562 208.804688 489.949219 209.238281 C 484.960938 210.621094 482.28125 213.707031 482.050781 219.125 C 481.730469 226.160156 480.808594 233.136719 480.347656 240.167969 C 478.992188 260.953125 479.914062 281.59375 484.558594 301.972656 C 484.988281 303.875 486.027344 305.75 484.699219 309.007812 C 475.765625 277.730469 477.351562 247 479.945312 216.15625 C 470.375 230.65625 470.171875 246.28125 474.238281 262.539062 C 470.691406 258.359375 471.09375 253.082031 469.335938 248.558594 C 468.296875 248.558594 467.808594 249.191406 467.375 249.855469 C 463.601562 255.417969 462.417969 261.644531 462.851562 268.246094 C 463.886719 283.609375 469.941406 296.988281 479.109375 309.121094 C 479.945312 310.246094 480.867188 311.398438 482.019531 312.148438 C 485.824219 314.628906 488.707031 317.65625 490.609375 321.949219 C 492.3125 325.8125 496.058594 325.582031 498.363281 321.863281 C 499.113281 320.683594 499.75 319.414062 500.527344 318.230469 C 500.785156 317.828125 501.21875 317.914062 501.507812 318.230469 C 501.9375 319.875 499.75 321.199219 500.671875 323.191406 C 505.65625 318.40625 507.042969 311.976562 510.097656 306.355469 C 511.652344 308.230469 508.945312 310.042969 510.386719 311.949219 C 515.921875 302.609375 519.957031 289.460938 521.773438 276.289062 C 523.242188 265.738281 524.453125 255.128906 527.625 244.898438 C 528.027344 243.570312 527.941406 241.898438 530.417969 241.351562 C 523.90625 262.511719 525.085938 284.964844 516.554688 305.460938 Z M 490.410156 412.496094 C 490.496094 410.878906 490.640625 410.074219 490.582031 409.292969 C 490.089844 401.050781 489.457031 392.835938 489.113281 384.589844 C 488.449219 370.121094 488.792969 355.648438 490.207031 341.207031 C 490.925781 333.742188 488.707031 331.722656 481.269531 332.386719 C 474.007812 333.046875 466.769531 332.933594 459.707031 330.914062 C 443.449219 326.273438 431.285156 316.90625 425.78125 300.386719 C 422.839844 291.539062 424.25 289.117188 432.957031 286.207031 C 433.128906 286.148438 433.273438 285.976562 433.734375 285.628906 C 427.308594 273.867188 419.667969 262.652344 415.34375 248.296875 C 413.355469 254.324219 411.308594 258.648438 408.484375 262.566406 C 406.234375 265.710938 403.296875 268.160156 400.644531 270.898438 C 395.394531 276.261719 394.878906 279.980469 398.308594 286.609375 C 398.941406 287.847656 399.664062 289.117188 400.527344 290.183594 C 404.792969 295.515625 408.714844 301.109375 413.527344 306.007812 C 419.035156 311.601562 423.992188 317.683594 428.835938 323.851562 C 449.675781 350.515625 468.183594 378.765625 486.316406 407.304688 C 487.351562 408.917969 487.957031 410.910156 490.410156 412.496094 Z M 394.90625 266.601562 C 395.195312 266.632812 395.484375 266.691406 395.769531 266.71875 C 396.320312 264.238281 396.980469 261.761719 397.386719 259.253906 C 400.324219 240.488281 398.421875 221.980469 394.417969 203.589844 C 393.207031 198.054688 391.304688 192.664062 391.1875 186.957031 C 400.09375 213.679688 403.757812 240.859375 396.980469 269.945312 C 404.851562 264.585938 409.664062 258.675781 412 250.894531 C 414.679688 241.957031 416.007812 232.675781 415.085938 223.480469 C 413.613281 208.691406 411.28125 193.988281 408.023438 179.460938 C 407.53125 177.328125 407.300781 174.703125 405.371094 173.523438 C 400.785156 170.753906 397.671875 166.519531 393.925781 162.972656 C 390.265625 159.511719 385.914062 159.28125 382.394531 161.847656 C 378.015625 165.078125 375.996094 170.496094 377.695312 174.703125 C 381.414062 183.8125 384.671875 193.125 387.125 202.667969 C 389.660156 212.496094 390.582031 222.5 390.785156 232.617188 C 389.890625 229.734375 389.226562 226.824219 388.9375 223.855469 C 387.265625 206.902344 382.109375 190.875 375.96875 175.109375 C 375.449219 173.8125 375.21875 172.226562 373.199219 172.859375 C 371.210938 173.464844 371.183594 174.648438 371.585938 176.578125 C 372.25 179.835938 373.863281 183.035156 372.882812 186.898438 C 370.75 183.238281 371.875 178.769531 368.558594 175.222656 C 365.878906 182.574219 365.847656 189.378906 369.769531 195.402344 C 375.507812 204.25 376.429688 213.734375 375.160156 223.765625 C 374.382812 229.992188 374.410156 236.191406 375.449219 242.390625 C 377.003906 251.757812 380.984375 260.089844 386.027344 269.398438 C 387.46875 258.933594 383.78125 250.402344 382.769531 241.179688 C 384.789062 242.417969 384.902344 244.0625 385.308594 245.558594 C 387.324219 253.171875 388.824219 260.839844 388.246094 268.765625 C 388.132812 270.207031 387.902344 271.707031 389.976562 271.878906 C 391.765625 272.023438 392.457031 271.015625 392.542969 269.34375 C 392.6875 266.921875 392.859375 264.527344 393.0625 262.136719 C 393.261719 259.828125 393.175781 257.4375 394.933594 255.332031 L 394.933594 266.601562 Z M 538.117188 293.125 C 533.070312 305.953125 525.117188 316.328125 511.710938 323.363281 C 517.535156 322.730469 519.640625 321.835938 523.761719 318.835938 C 529.757812 314.457031 533.90625 308.546875 537.539062 302.261719 C 549.128906 282.285156 558.757812 261.183594 571.613281 241.929688 C 573.140625 239.621094 572.421875 238.351562 569.363281 237.085938 C 566.164062 235.757812 565.097656 236.074219 564.261719 238.726562 C 563.972656 239.679688 563.972656 240.746094 563.597656 241.667969 C 563.222656 242.5625 563.195312 243.832031 561.609375 244.378906 C 561.78125 240.199219 565.730469 235.007812 558.035156 233.480469 C 555.355469 248.296875 552.617188 263.144531 545.148438 276.546875 C 549.675781 262.105469 554.433594 247.75 556.160156 232.589844 C 549.90625 232.269531 549.792969 232.269531 549.5625 237.605469 C 549.300781 243.457031 548.40625 249.222656 546.9375 254.871094 C 544.976562 262.394531 543.074219 269.945312 538.921875 277.84375 C 538.550781 274.242188 539.789062 272.082031 540.507812 269.890625 C 543.851562 259.742188 546.621094 249.507812 547.832031 238.871094 C 548.03125 237.027344 548.636719 235.183594 547.425781 233.480469 C 545.46875 234.203125 545.667969 235.585938 545.554688 236.679688 C 544.457031 246.828125 540.882812 256.140625 536.414062 265.21875 C 532.0625 274.070312 528.199219 283.09375 525.117188 292.460938 C 522.578125 300.101562 519.351562 307.449219 514.390625 313.9375 C 513.960938 314.511719 513.296875 315.175781 514.21875 316.039062 C 521.945312 310.417969 525.578125 301.65625 530.96875 294.21875 C 528.085938 303.445312 522.722656 311.082031 516.035156 317.945312 C 526.328125 312.179688 531.804688 302.347656 538.058594 293.152344 Z M 476.285156 330.484375 C 478.992188 331.03125 481.328125 330.136719 483.632812 329.648438 C 485.710938 329.1875 488.476562 328.925781 488.996094 326.445312 C 489.542969 323.765625 487.84375 321.605469 486.171875 319.472656 C 483.460938 315.984375 481.15625 319.039062 478.359375 320.078125 C 479.339844 318.175781 480.925781 316.472656 477.695312 316.445312 C 473.890625 316.386719 470.058594 316.472656 466.253906 316.472656 C 455.960938 316.472656 447.976562 312.496094 443.132812 303.039062 C 442.125 301.109375 441.027344 297.648438 439.5 297.851562 C 435.351562 298.398438 438.203125 293.84375 435.667969 293.527344 C 434.660156 293.410156 433.878906 291.941406 432.46875 293.039062 C 431.863281 297.015625 434.6875 300.5625 434.398438 304.855469 C 433.160156 303.269531 432.667969 301.800781 432.324219 300.214844 C 431.746094 297.679688 431.082031 295.171875 430.421875 292.632812 C 430.21875 291.828125 429.785156 291.164062 428.804688 291.191406 C 427.625 291.191406 426.960938 291.882812 426.816406 293.007812 C 426.730469 293.785156 426.703125 294.621094 426.816406 295.402344 C 428.980469 307.046875 435.582031 315.550781 444.691406 321.890625 C 446.792969 320.941406 445.496094 317.855469 446.332031 318.722656 C 448.753906 321.289062 447.832031 317.164062 449.128906 317.972656 C 449.246094 318.460938 449.386719 319.210938 449.621094 319.933594 C 451.664062 326.589844 454.230469 327.800781 460.746094 325.09375 C 462.996094 324.140625 465.15625 322.988281 467.953125 321.605469 C 465.992188 325.523438 461.839844 325.4375 459.792969 328.207031 C 467.460938 331.347656 474.292969 328.117188 481.328125 326.476562 C 480.550781 329.097656 477.523438 328.117188 476.339844 330.539062 Z M 469.335938 243.484375 C 470.257812 231.609375 472.21875 221.171875 479.425781 212.207031 C 474.613281 210.132812 470.75 211.804688 466.914062 213.417969 C 463.398438 214.886719 459.996094 216.53125 455.988281 216.328125 C 450.050781 216.042969 450.050781 216.1875 450.3125 222.238281 C 450.3125 222.5 450.023438 222.785156 449.707031 223.390625 C 449.246094 221.777344 448.871094 220.453125 448.496094 219.125 C 448.179688 218.058594 448.265625 216.328125 446.507812 216.878906 C 445.066406 217.308594 445.671875 218.835938 445.671875 220.019531 C 445.671875 221.605469 446.910156 223.019531 446.390625 224.691406 C 444.316406 223.390625 445.179688 220.566406 443.191406 218.75 C 440.136719 220.882812 438.839844 223.96875 438.550781 227.339844 C 437.886719 235.066406 438.78125 234.519531 444.632812 233.769531 C 451.523438 232.875 456.796875 235.46875 460.3125 241.496094 C 460.917969 242.53125 461.523438 243.570312 462.1875 244.578125 C 462.476562 245.042969 462.878906 245.414062 463.484375 246.136719 C 463.714844 244.4375 463.886719 243.109375 464.0625 241.640625 C 465.761719 242.734375 464.4375 245.558594 467 245.878906 C 466.625 240.167969 464.984375 234.578125 465.328125 228.40625 C 468.183594 232.933594 466.683594 238.179688 469.335938 243.457031 Z M 303.007812 206.039062 C 304.015625 204.710938 303.46875 203.472656 302.890625 202.148438 C 302 200.042969 305.457031 200.761719 305.113281 198.917969 C 304.96875 198.140625 304.851562 197.363281 304.679688 196.613281 C 304.1875 194.449219 303.382812 192.316406 303.296875 190.15625 C 303.179688 187.128906 301.394531 186.550781 298.972656 186.351562 C 291.1875 185.6875 285.335938 190.847656 284.847656 199.351562 C 284.585938 203.675781 284.011719 207.59375 281.417969 211.226562 C 279.425781 214.050781 279.570312 217.222656 282.078125 220.828125 C 287.238281 209.527344 296.753906 212.726562 305.746094 213.9375 C 304.996094 208.921875 300.238281 208.113281 298.566406 204.683594 C 300.585938 203.964844 301.308594 206.441406 303.007812 206.039062 Z M 362.535156 180.46875 C 364.695312 177.210938 365.878906 173.898438 368.875 172.65625 C 373.515625 170.753906 375.851562 166.921875 378.246094 162.972656 C 380.089844 159.917969 380.0625 159.597656 377.035156 158.214844 C 374.210938 156.890625 371.183594 157.035156 368.183594 157.003906 C 367.40625 157.003906 366.742188 157.089844 366.078125 157.753906 C 364.898438 158.9375 364.695312 158.820312 363.484375 157.265625 C 362.390625 158.9375 364.726562 161.039062 362.851562 162.511719 C 360.832031 160.203125 362.964844 155.390625 358.441406 154.902344 C 354.347656 154.46875 352.128906 157.207031 350.167969 160.578125 C 358.007812 164.875 359.851562 172.457031 362.535156 180.441406 Z M 371.988281 238.09375 C 371.875 230.050781 373.488281 222.09375 373.34375 214.050781 C 373.257812 209.960938 372.824219 206.039062 370.921875 202.347656 C 369.453125 199.496094 367.839844 196.699219 366.484375 193.789062 C 365.214844 191.078125 364.753906 188.109375 363.890625 185.226562 C 360.660156 203.734375 366.195312 220.882812 371.988281 238.09375 Z M 433.101562 289.605469 C 439.761719 292.375 442.875 297.996094 446.074219 303.585938 C 449.015625 308.691406 453.25 312.179688 459.132812 313.417969 C 465.386719 314.742188 471.613281 314.195312 478.386719 313.992188 C 476.6875 311.484375 474.640625 311.054688 472.824219 310.535156 C 461.753906 307.421875 452.15625 301.914062 444.230469 293.5 C 442.441406 291.597656 440.164062 290.242188 437.683594 289.320312 C 436.417969 288.855469 435.089844 288.253906 433.101562 289.578125 Z M 433.101562 289.605469 " fill-opacity="1" fill-rule="nonzero"/><g clip-path="url(#c773999587)"><path fill="#f3dfbd" d="M 492.425781 658.558594 C 490.378906 657.347656 490.695312 655.359375 490.523438 653.65625 C 487.527344 624.976562 478.042969 598.453125 463.6875 573.664062 C 448.207031 546.941406 428.632812 523.648438 404.042969 504.738281 C 398.769531 500.675781 393.40625 496.8125 387.554688 493.613281 C 379.136719 489.027344 370.777344 488.625 362.476562 494.042969 C 351.464844 501.222656 339.214844 500.992188 326.875 499.464844 C 316.5 498.195312 306.148438 496.667969 295.683594 498.773438 C 290.527344 499.808594 285.652344 501.710938 280.695312 503.296875 C 274.554688 505.285156 268.328125 507.046875 261.757812 506.152344 C 257.691406 505.605469 253.828125 504.539062 251.78125 500.386719 C 249.332031 495.429688 250.484375 490.152344 255.125 486.347656 C 257.085938 484.734375 259.363281 483.464844 262.304688 481.503906 C 256.222656 479.71875 251.148438 477.585938 246.535156 474.5 C 243.652344 472.570312 241.117188 470.347656 239.183594 467.464844 C 234.167969 459.941406 233.9375 453.628906 239.15625 446.25 C 243.308594 440.339844 247.863281 434.75 251.089844 428.175781 C 252.9375 424.398438 256.511719 422.757812 260.605469 422.871094 C 263.628906 422.957031 264.785156 421.546875 265.675781 419.007812 C 267.609375 413.617188 270.492188 408.777344 275.363281 405.519531 C 277.378906 404.164062 277.265625 402.867188 276.632812 400.964844 C 275.882812 398.6875 275.421875 396.292969 275.421875 393.84375 C 275.421875 386.867188 279.425781 381.535156 286.289062 380.84375 C 293.148438 380.152344 299.03125 377.613281 304.652344 373.894531 C 309.78125 370.523438 315.289062 368.042969 321.660156 369.285156 C 324.945312 369.917969 326.242188 367.265625 328.171875 365.707031 C 329.039062 365.015625 329.382812 363.664062 330.019531 362.652344 C 331.777344 359.914062 334.109375 358.242188 337.542969 358.703125 C 340.742188 359.136719 342.441406 361.210938 343.363281 364.09375 C 344.402344 367.351562 345.007812 370.726562 345.441406 374.097656 C 346.621094 383.464844 347.257812 392.921875 348.957031 402.230469 C 350.800781 412.40625 353.972656 422.066406 359.335938 430.972656 C 364.121094 438.871094 368.960938 446.769531 372.625 455.300781 C 374.296875 459.191406 375.792969 463.054688 375.738281 467.464844 C 375.679688 471.644531 377.695312 475.191406 380.117188 478.476562 C 383.347656 482.859375 387.152344 486.75 391.273438 490.324219 C 399.460938 497.445312 407.792969 504.421875 415.863281 511.6875 C 453.136719 545.125 478.675781 585.597656 489.746094 634.777344 C 491.15625 641.058594 492.136719 647.429688 492.714844 653.828125 C 492.859375 655.328125 493.292969 656.941406 492.398438 658.527344 Z M 262.390625 439.476562 L 262.246094 439.648438 C 264.234375 436.707031 262.9375 433.421875 263.253906 430.308594 C 263.429688 428.667969 264.554688 426.332031 262.535156 425.378906 C 260.546875 424.429688 258.152344 425.035156 256.164062 426.15625 C 252.878906 428.0625 250.917969 431.261719 251.667969 434.71875 C 253.773438 444.261719 251.148438 451.785156 244.546875 458.847656 C 241.03125 462.625 242.328125 468.53125 246.480469 471.703125 C 253.023438 476.691406 260.402344 479.660156 268.734375 479.863281 C 271.066406 479.917969 273.257812 479.402344 274.960938 477.152344 C 251.523438 470.78125 249.964844 470.117188 246.363281 465.417969 C 248.46875 465.652344 250.054688 467.003906 251.8125 467.839844 C 259.304688 471.414062 267.148438 473.722656 275.390625 474.671875 C 278.707031 475.046875 280.722656 473.980469 282.050781 470.609375 C 273.402344 468.042969 264.898438 465.59375 257.492188 459.453125 C 259.855469 458.90625 260.804688 460.203125 261.957031 460.808594 C 268.011719 464.007812 274.296875 466.601562 280.925781 468.390625 C 283.144531 468.996094 285.539062 469.742188 286.71875 466.429688 C 282.511719 463.890625 277.238281 464.121094 273.632812 460.664062 C 276.632812 461.066406 279.484375 461.902344 282.308594 462.769531 C 286.421875 464.015625 289.476562 464.324219 291.476562 463.691406 C 288.046875 461.703125 285.019531 459.855469 281.933594 458.125 C 273.835938 453.570312 265.964844 448.785156 262.363281 439.503906 Z M 306.640625 434.144531 C 324.886719 449.996094 344.460938 463.460938 367.664062 471.128906 C 362.21875 464.007812 356.222656 457.578125 349.273438 452.074219 C 344.230469 448.066406 339.183594 444.089844 334.34375 439.820312 C 324.773438 431.40625 317.566406 421.460938 314.566406 408.804688 C 313.644531 404.882812 313.644531 400.878906 313.269531 396.929688 C 313.125 395.515625 313.242188 394.160156 311.972656 393.09375 C 307.996094 389.722656 301.421875 389.777344 298.25 393.265625 C 292.371094 399.753906 292.398438 400.242188 298.742188 405.894531 C 300.382812 407.363281 302.113281 408.777344 303.613281 410.390625 C 304.21875 411.023438 305.949219 411.457031 304.792969 413.101562 C 301.855469 411.484375 299.519531 409.207031 297.300781 406.929688 C 294.011719 403.585938 290.84375 401.109375 286.058594 404.335938 C 284.992188 405.058594 283.320312 404.914062 281.964844 405.257812 C 279.425781 405.894531 276.113281 406.296875 275.335938 408.804688 C 274.554688 411.226562 277.84375 412.464844 279.3125 414.253906 C 280.464844 415.636719 281.90625 416.789062 283.03125 418.203125 C 283.980469 419.382812 285.742188 420.191406 285.625 423.679688 C 281.589844 419.355469 278.445312 415.953125 275.277344 412.582031 C 274.496094 411.773438 273.691406 410.449219 272.363281 411.6875 C 271.183594 412.78125 270.953125 414.078125 272.191406 415.347656 C 273.171875 416.355469 274.125 417.394531 275.101562 418.402344 C 281.417969 425.207031 288.652344 431 295.628906 437.054688 C 297.125 438.378906 298.539062 439.820312 299.980469 441.207031 C 288.652344 434.289062 278.964844 425.640625 269.828125 415.492188 C 266.945312 420.363281 265.734375 425.121094 266.195312 430.195312 C 266.917969 438.0625 271.296875 443.222656 278.792969 445.441406 C 285.164062 447.34375 289.777344 450.976562 292.746094 456.945312 C 294.1875 459.828125 296.523438 462.132812 299.316406 463.863281 C 312.953125 472.367188 327.855469 477.699219 343.363281 481.359375 C 348.234375 482.515625 353.394531 483.609375 358.585938 481.964844 C 348.351562 480.351562 338.203125 478.421875 328.632812 474.386719 C 319.179688 470.378906 309.808594 466.199219 301.769531 459.566406 C 303.351562 459.828125 304.738281 460.519531 306.0625 461.269531 C 313.960938 465.707031 322.089844 469.6875 330.535156 472.945312 C 341.722656 477.296875 353.339844 479.371094 365.332031 479.488281 C 367.925781 479.488281 370.546875 479.632812 370.980469 475.855469 C 367.347656 475.132812 363.859375 474.414062 360.316406 473.75 C 356.539062 473.058594 352.90625 471.878906 349.332031 470.550781 C 345.929688 469.3125 342.558594 468.015625 339.242188 466.542969 C 335.753906 464.988281 332.351562 463.257812 328.980469 461.46875 C 326.070312 459.914062 323.097656 458.355469 320.9375 455.707031 C 332.613281 461.875 344.402344 467.4375 357.257812 470.464844 C 338.609375 460.75 320.820312 449.941406 306.667969 434.054688 Z M 322.4375 376.578125 C 321.3125 376.71875 321.167969 377.296875 321.054688 377.816406 C 318.746094 387.992188 318.890625 397.820312 325.550781 406.527344 C 330.59375 413.128906 334.457031 420.335938 337.484375 428.0625 C 341.03125 437.167969 346.363281 445.097656 353.453125 451.898438 C 357.808594 456.078125 361.785156 460.605469 365.992188 464.929688 C 366.886719 465.851562 367.464844 467.292969 369.28125 467.378906 C 369.191406 465.046875 367.953125 463.171875 367.058594 461.238281 C 362.792969 452.074219 356.828125 443.972656 350.628906 436.046875 C 343.710938 427.167969 337.109375 418.058594 331.171875 408.488281 C 330.074219 406.699219 328.578125 405.027344 328.460938 402.089844 C 330.566406 403.441406 331.199219 405.144531 332.152344 406.554688 C 337.773438 415.144531 343.625 423.535156 349.964844 431.605469 C 358.554688 442.53125 366.773438 453.660156 371.960938 466.71875 C 372.074219 467.003906 372.535156 467.148438 373.027344 467.523438 C 373.921875 464.121094 372.738281 461.152344 371.527344 458.242188 C 368.472656 450.777344 364.496094 443.800781 360.34375 436.9375 C 355.960938 429.703125 351.722656 422.410156 349.5625 414.136719 C 348.179688 408.890625 346.390625 403.789062 344.71875 398.628906 C 342.960938 393.238281 341.171875 387.789062 341.433594 381.910156 C 342.210938 383.753906 342.960938 385.597656 344.257812 388.683594 C 344.605469 383.378906 343.941406 379.632812 343.507812 375.855469 C 343.078125 372.253906 342.644531 368.648438 341.519531 365.21875 C 340.453125 361.875 338.578125 360.519531 335.871094 360.980469 C 332.902344 361.472656 331.285156 363.460938 331.027344 366.34375 C 330.855469 368.332031 330.882812 370.40625 331.285156 372.339844 C 332.152344 376.664062 333.449219 380.902344 334.285156 385.253906 C 334.746094 387.644531 336.273438 389.921875 335.292969 393.355469 C 331.460938 385.253906 330.394531 377.125 328.519531 369.167969 C 324.945312 370.898438 324.222656 373.261719 324.859375 376.433594 C 325.722656 381.015625 327.566406 385.253906 329.09375 389.605469 C 329.789062 391.539062 331.171875 393.355469 330.449219 396.410156 C 326.386719 389.808594 324.714844 383.003906 322.496094 376.578125 Z M 366.828125 484.242188 C 353.914062 485.769531 341.605469 484.15625 329.527344 479.804688 C 320.074219 476.402344 310.648438 472.945312 301.625 468.503906 C 298.65625 467.035156 296.347656 467.351562 293.871094 469.3125 C 290.496094 471.992188 287.785156 475.191406 285.855469 478.996094 C 281.675781 487.355469 275.074219 491.046875 265.734375 490.039062 C 262.765625 489.71875 259.679688 489.863281 256.941406 491.507812 C 254.492188 492.949219 253.078125 495.082031 253.28125 497.964844 C 253.484375 500.730469 255.445312 502.171875 257.808594 503.039062 C 258.933594 503.441406 260.113281 503.703125 261.296875 503.875 C 270.578125 505.199219 278.734375 501.65625 286.949219 498.136719 C 279.140625 497.214844 271.414062 498.195312 263.628906 498.339844 C 264.726562 497.503906 265.851562 497.015625 267.003906 496.871094 C 282.800781 494.910156 298.65625 495.054688 314.480469 495.917969 C 322.292969 496.351562 330.019531 497.878906 337.859375 498.050781 C 345.871094 498.253906 353.453125 496.925781 360.371094 492.660156 C 363.484375 490.730469 366.136719 488.394531 366.714844 484.214844 Z M 321.660156 371.589844 C 315.894531 370.40625 311.714844 372.425781 307.707031 374.703125 C 302.316406 377.757812 297.328125 381.648438 290.898438 382.457031 C 288.738281 382.714844 289.863281 385.050781 289.371094 385.339844 C 287.644531 386.292969 287.152344 382.226562 286.203125 383.496094 C 284.644531 385.542969 282.222656 383.957031 280.839844 385.65625 C 279.570312 387.214844 278.160156 388.683594 277.898438 390.789062 C 277.46875 393.988281 277.582031 397.1875 278.359375 400.359375 C 278.9375 402.664062 280.121094 403.875 282.65625 402.925781 C 287.5 401.136719 291.996094 399.148438 294.9375 394.332031 C 298.453125 388.566406 301.652344 387.617188 307.5625 389 C 309.550781 389.460938 311.800781 392 313.5 389.953125 C 315.058594 388.105469 312.835938 385.886719 312.03125 383.898438 C 311.945312 383.726562 311.914062 383.523438 311.855469 383.320312 C 311.742188 382.804688 311.886719 382.515625 312.289062 382.484375 C 313.039062 383.0625 313.816406 383.640625 314.914062 384.476562 C 316.46875 379.949219 319.0625 376.203125 321.714844 371.648438 Z M 317.449219 386.808594 C 311.339844 403.761719 320.449219 429.503906 342.328125 442.472656 C 338.523438 435.988281 335.695312 429.589844 333.042969 423.132812 C 331.515625 419.414062 329.699219 415.78125 327.191406 412.636719 C 321.167969 405.085938 316.902344 396.898438 317.449219 386.808594 Z M 290.871094 468.128906 C 287.414062 469.367188 285.046875 471.820312 282.65625 474.210938 C 278.214844 478.707031 273.257812 482.140625 266.800781 483.234375 C 263.167969 483.839844 259.507812 485.050781 256.539062 488.828125 C 261.152344 487.617188 265.128906 487.761719 269.136719 487.875 C 274.785156 488.046875 279.226562 485.742188 282.164062 480.84375 C 284.816406 476.429688 287.46875 472.019531 290.898438 468.070312 Z M 240.222656 463.632812 C 241.320312 458.386719 244.574219 454.957031 247.601562 451.292969 C 250.890625 447.289062 250.773438 442.761719 249.160156 437.832031 C 238.984375 447.75 234.429688 456.3125 240.222656 463.632812 Z M 266.195312 439.707031 C 270.175781 451.84375 281.820312 454.550781 291.101562 460.203125 C 289.085938 454.121094 285.597656 449.765625 279.226562 447.921875 C 274.179688 446.480469 269.65625 443.886719 266.195312 439.707031 Z M 266.195312 439.707031 " fill-opacity="1" fill-rule="nonzero"/></g><path fill="#f3dfbd" d="M 493.636719 308.113281 C 492.3125 291.453125 494.070312 275.019531 498.421875 258.847656 C 496 275.164062 494.617188 291.597656 493.636719 308.113281 Z M 493.636719 308.113281 " fill-opacity="1" fill-rule="nonzero"/><path fill="#f3dfbd" d="M 474.238281 283.035156 C 470.460938 275.972656 467.460938 268.535156 467.808594 260.234375 C 469.453125 267.929688 472.363281 275.28125 474.238281 283.035156 Z M 474.238281 283.035156 " fill-opacity="1" fill-rule="nonzero"/><path fill="#f3dfbd" d="M 316.640625 169.027344 C 319.351562 170.609375 321.082031 173.0625 322.464844 175.828125 C 319.984375 174.042969 317.566406 172.253906 316.269531 169.34375 C 316.269531 169.34375 316.613281 168.996094 316.613281 168.996094 Z M 316.640625 169.027344 " fill-opacity="1" fill-rule="nonzero"/><path fill="#f3dfbd" d="M 321.226562 221.34375 C 318.574219 220.308594 317.246094 218.695312 315.460938 217.164062 C 318.457031 217.742188 318.488281 217.714844 321.226562 221.34375 Z M 321.226562 221.34375 " fill-opacity="1" fill-rule="nonzero"/><path fill="#f3dfbd" d="M 327.105469 225.785156 C 324.683594 225.179688 323.734375 224.085938 322.003906 222.210938 C 324.683594 222.757812 325.695312 223.796875 327.105469 225.785156 Z M 327.105469 225.785156 " fill-opacity="1" fill-rule="nonzero"/><path fill="#f3dfbd" d="M 288.710938 219.90625 C 291.824219 221.027344 294.214844 223.105469 296.117188 225.757812 L 295.886719 226.015625 C 292.859375 224.746094 290.179688 223.019531 288.710938 219.90625 Z M 288.710938 219.90625 " fill-opacity="1" fill-rule="nonzero"/><path fill="#f3dfbd" d="M 333.417969 256.082031 C 330.625 256.054688 329.875 253.371094 328.171875 251.929688 C 330.449219 252.652344 332.351562 253.832031 333.304688 256.195312 Z M 333.417969 256.082031 " fill-opacity="1" fill-rule="nonzero"/><path fill="#f3dfbd" d="M 333.304688 256.195312 C 335.8125 256.714844 337.398438 258.472656 338.78125 260.464844 C 336.503906 259.597656 334.253906 258.703125 333.417969 256.082031 C 333.417969 256.082031 333.304688 256.195312 333.304688 256.195312 Z M 333.304688 256.195312 " fill-opacity="1" fill-rule="nonzero"/><path fill="#f3dfbd" d="M 296.089844 225.785156 C 297.875 226.21875 299.085938 227.285156 300.5 229.648438 C 298.019531 228.550781 296.550781 227.832031 295.828125 226.042969 C 295.828125 226.042969 296.058594 225.785156 296.058594 225.785156 Z M 296.089844 225.785156 " fill-opacity="1" fill-rule="nonzero"/><path fill="#f3dfbd" d="M 406.234375 251.210938 C 407.476562 238.902344 408.023438 226.621094 406.410156 214.253906 C 404.824219 202.148438 400.929688 190.558594 398.941406 178.597656 C 407.042969 202.234375 413.097656 226.101562 406.265625 251.210938 Z M 406.234375 251.210938 " fill-opacity="1" fill-rule="nonzero"/><path fill="#f3dfbd" d="M 385.796875 227.859375 C 383.460938 227.023438 384.097656 225.351562 384.472656 223.535156 C 385.710938 224.949219 385.105469 226.621094 385.683594 227.976562 Z M 385.796875 227.859375 " fill-opacity="1" fill-rule="nonzero"/><path fill="#f3dfbd" d="M 385.683594 227.976562 C 386.289062 229.386719 386.835938 230.773438 385.855469 232.90625 C 385.132812 230.886719 385.019531 229.417969 385.769531 227.859375 C 385.769531 227.859375 385.683594 227.976562 385.683594 227.976562 Z M 385.683594 227.976562 " fill-opacity="1" fill-rule="nonzero"/><path fill="#f3dfbd" d="M 466.136719 303.300781 C 460.890625 298.371094 459.191406 291.597656 456.277344 285.457031 C 456.683594 285.253906 457.085938 285.050781 457.488281 284.851562 C 460.398438 290.960938 463.339844 297.074219 466.253906 303.183594 C 466.253906 303.183594 466.136719 303.300781 466.136719 303.300781 Z M 466.136719 303.300781 " fill-opacity="1" fill-rule="nonzero"/><path fill="#f3dfbd" d="M 337.457031 448.039062 C 332.46875 446.796875 328.664062 443.628906 324.65625 440.832031 C 321.425781 438.582031 318.3125 436.160156 316.152344 432.5 C 319.726562 435.125 323.300781 437.71875 326.847656 440.339844 C 330.363281 442.90625 333.910156 445.472656 337.457031 448.039062 Z M 337.457031 448.039062 " fill-opacity="1" fill-rule="nonzero"/><path fill="#f3dfbd" d="M 310.558594 404.019531 C 307.5625 402.320312 305.167969 400.011719 303.410156 397.101562 C 306.410156 398.800781 308.832031 401.050781 310.558594 404.019531 Z M 310.558594 404.019531 " fill-opacity="1" fill-rule="nonzero"/><path fill="#f3dfbd" d="M 332.179688 467.351562 C 329.613281 466.773438 328.289062 466.113281 327.25 464.441406 C 329.09375 464.726562 330.304688 465.59375 332.179688 467.351562 Z M 332.179688 467.351562 " fill-opacity="1" fill-rule="nonzero"/><path fill="#f3dfbd" d="M 345.007812 489.691406 C 329.324219 487.90625 314.421875 483.867188 300.988281 475.191406 C 302.980469 476.085938 304.9375 477.035156 306.957031 477.902344 C 321.109375 484.128906 335.695312 488.222656 351.378906 487.039062 C 353.972656 486.839844 356.566406 486.695312 359.046875 485.65625 C 360.457031 485.078125 362.074219 484.648438 364.089844 486.117188 C 342.355469 496.089844 321.082031 494.9375 299.808594 486.261719 C 314.683594 489.777344 329.5 493.84375 345.035156 489.71875 Z M 345.007812 489.691406 " fill-opacity="1" fill-rule="nonzero"/><path fill="#f3dfbd" d="M 297.328125 490.699219 C 293.957031 491.335938 290.582031 492.027344 286.230469 489.808594 C 290.757812 490.183594 294.042969 490.441406 297.328125 490.699219 Z M 297.328125 490.699219 " fill-opacity="1" fill-rule="nonzero"/><path fill="#f3dfbd" d="M 262.390625 439.476562 C 260.863281 439.820312 259.480469 439.765625 257.519531 437.285156 C 259.910156 438.324219 261.410156 438.121094 262.21875 439.648438 C 262.21875 439.648438 262.390625 439.476562 262.390625 439.476562 Z M 262.390625 439.476562 " fill-opacity="1" fill-rule="nonzero"/></svg>