<svg xmlns="http://www.w3.org/2000/svg" xmlns:xlink="http://www.w3.org/1999/xlink" width="1080" zoomAndPan="magnify" viewBox="0 0 810 809.999993" height="1080" preserveAspectRatio="xMidYMid meet" version="1.0"><defs><g/><clipPath id="455f4a8a46"><path d="M 0.839844 0.839844 L 385 0.839844 L 385 193 L 0.839844 193 Z M 0.839844 0.839844 " clip-rule="nonzero"/></clipPath><clipPath id="5e562cb548"><path d="M 11 0.839844 L 282 0.839844 L 282 135 L 11 135 Z M 11 0.839844 " clip-rule="nonzero"/></clipPath><clipPath id="efbb698f61"><rect x="0" width="385" y="0" height="193"/></clipPath><clipPath id="b2fa1dfebd"><path d="M 140 252 L 273 252 L 273 382.199219 L 140 382.199219 Z M 140 252 " clip-rule="nonzero"/></clipPath><clipPath id="256ecb739d"><path d="M 0.761719 89 L 1 89 L 1 90 L 0.761719 90 Z M 0.761719 89 " clip-rule="nonzero"/></clipPath><clipPath id="fb0721c312"><rect x="0" width="133" y="0" height="131"/></clipPath><clipPath id="512645136a"><path d="M 280 176 L 706.441406 176 L 706.441406 377 L 280 377 Z M 280 176 " clip-rule="nonzero"/></clipPath><clipPath id="f3a3a8f91f"><path d="M 7 0.519531 L 187 0.519531 L 187 189 L 7 189 Z M 7 0.519531 " clip-rule="nonzero"/></clipPath><clipPath id="2b55073bd5"><rect x="0" width="427" y="0" height="201"/></clipPath><clipPath id="664e4272ed"><rect x="0" width="707" y="0" height="383"/></clipPath></defs><g transform="matrix(1, 0, 0, 1, 39, 213)"><g clip-path="url(#664e4272ed)"><g clip-path="url(#455f4a8a46)"><g transform="matrix(1, 0, 0, 1, 0, 0.000000000000056843)"><g clip-path="url(#efbb698f61)"><g clip-path="url(#5e562cb548)"><g fill="#73822e" fill-opacity="1"><g transform="translate(2.036521, 134.026954)"><g><path d="M 260.484375 -129.40625 C 260.484375 -129.40625 262.175781 -129.21875 265.5625 -128.84375 C 268.945312 -128.476562 273.65625 -128.664062 279.6875 -129.40625 C 279.4375 -128.914062 277.832031 -126.640625 274.875 -122.578125 C 271.925781 -118.515625 268.113281 -113.34375 263.4375 -107.0625 C 258.757812 -100.789062 253.585938 -93.992188 247.921875 -86.671875 C 242.265625 -79.347656 236.570312 -72.054688 230.84375 -64.796875 C 225.125 -57.535156 219.804688 -50.953125 214.890625 -45.046875 C 214.148438 -44.179688 212.488281 -42.117188 209.90625 -38.859375 C 207.320312 -35.597656 204.085938 -31.78125 200.203125 -27.40625 C 196.328125 -23.039062 192.019531 -18.734375 187.28125 -14.484375 C 182.539062 -10.242188 177.648438 -6.738281 172.609375 -3.96875 C 167.566406 -1.195312 162.582031 0.1875 157.65625 0.1875 C 150.394531 0.1875 144.703125 -1.347656 140.578125 -4.421875 C 136.453125 -7.503906 133.742188 -11.660156 132.453125 -16.890625 C 131.160156 -22.117188 131.007812 -27.9375 132 -34.34375 C 129.164062 -31.019531 125.867188 -27.359375 122.109375 -23.359375 C 118.359375 -19.359375 114.328125 -15.570312 110.015625 -12 C 105.710938 -8.425781 101.316406 -5.5 96.828125 -3.21875 C 92.335938 -0.945312 87.875 0.1875 83.4375 0.1875 C 76.175781 0.1875 70.515625 -1.316406 66.453125 -4.328125 C 62.398438 -7.347656 59.695312 -11.410156 58.34375 -16.515625 C 56.988281 -21.628906 56.800781 -27.382812 57.78125 -33.78125 C 58.769531 -40.1875 60.707031 -46.894531 63.59375 -53.90625 C 66.488281 -60.914062 70.085938 -67.804688 74.390625 -74.578125 C 79.441406 -82.335938 84.675781 -89.203125 90.09375 -95.171875 C 95.507812 -101.140625 100.367188 -106.769531 104.671875 -112.0625 C 99.503906 -112.300781 94.363281 -113.128906 89.25 -114.546875 C 84.144531 -115.960938 78.945312 -117.316406 73.65625 -118.609375 C 68.363281 -119.898438 62.914062 -120.578125 57.3125 -120.640625 C 51.71875 -120.703125 45.84375 -119.503906 39.6875 -117.046875 C 36.613281 -115.816406 33.722656 -113.753906 31.015625 -110.859375 C 28.304688 -107.960938 26.335938 -104.453125 25.109375 -100.328125 C 23.878906 -96.210938 23.96875 -91.691406 25.375 -86.765625 C 26.789062 -81.835938 30.023438 -76.726562 35.078125 -71.4375 C 28.554688 -71.4375 23.234375 -73.160156 19.109375 -76.609375 C 14.984375 -80.054688 12.273438 -84.457031 10.984375 -89.8125 C 9.691406 -95.164062 9.96875 -100.671875 11.8125 -106.328125 C 13.65625 -111.992188 17.222656 -117.039062 22.515625 -121.46875 C 27.566406 -125.53125 32.953125 -128.144531 38.671875 -129.3125 C 44.398438 -130.488281 50.15625 -130.769531 55.9375 -130.15625 C 61.71875 -129.539062 67.285156 -128.492188 72.640625 -127.015625 C 77.992188 -125.535156 82.703125 -124.242188 86.765625 -123.140625 C 93.898438 -121.285156 100.390625 -120.664062 106.234375 -121.28125 C 112.085938 -121.90625 116.890625 -123.351562 120.640625 -125.625 C 124.390625 -127.90625 126.632812 -130.398438 127.375 -133.109375 C 130.207031 -132.609375 131.960938 -131.25 132.640625 -129.03125 C 133.316406 -126.820312 132.914062 -124.488281 131.4375 -122.03125 C 130.207031 -118.707031 127.59375 -114.738281 123.59375 -110.125 C 119.59375 -105.507812 114.945312 -100.335938 109.65625 -94.609375 C 104.363281 -88.890625 99.070312 -82.582031 93.78125 -75.6875 C 89.46875 -70.03125 85.804688 -64.03125 82.796875 -57.6875 C 79.785156 -51.351562 77.507812 -45.203125 75.96875 -39.234375 C 74.425781 -33.265625 73.65625 -27.847656 73.65625 -22.984375 C 73.65625 -18.117188 74.453125 -14.238281 76.046875 -11.34375 C 77.648438 -8.457031 80.054688 -7.015625 83.265625 -7.015625 C 87.566406 -7.015625 91.960938 -8.425781 96.453125 -11.25 C 100.953125 -14.082031 105.351562 -17.742188 109.65625 -22.234375 C 113.96875 -26.734375 118.09375 -31.566406 122.03125 -36.734375 C 125.96875 -41.898438 129.597656 -46.882812 132.921875 -51.6875 C 136.242188 -56.488281 139.132812 -60.613281 141.59375 -64.0625 L 158.953125 -89.53125 C 161.285156 -92.976562 163.160156 -96.144531 164.578125 -99.03125 C 165.992188 -101.925781 166.394531 -104.789062 165.78125 -107.625 C 169.46875 -108.238281 172.171875 -107.960938 173.890625 -106.796875 C 175.617188 -105.628906 176.632812 -103.9375 176.9375 -101.71875 C 177.25 -99.5 177.066406 -97.160156 176.390625 -94.703125 C 175.710938 -92.242188 174.757812 -90.09375 173.53125 -88.25 C 171.8125 -85.539062 169.9375 -82.738281 167.90625 -79.84375 C 165.875 -76.945312 163.8125 -74.023438 161.71875 -71.078125 C 156.789062 -64.304688 153.097656 -57.195312 150.640625 -49.75 C 148.179688 -42.300781 146.828125 -35.347656 146.578125 -28.890625 C 146.328125 -22.429688 147.125 -17.171875 148.96875 -13.109375 C 150.820312 -9.046875 153.65625 -7.015625 157.46875 -7.015625 C 161.78125 -7.015625 166.179688 -8.425781 170.671875 -11.25 C 175.160156 -14.082031 179.554688 -17.742188 183.859375 -22.234375 C 188.171875 -26.734375 192.296875 -31.566406 196.234375 -36.734375 C 200.171875 -41.898438 203.800781 -46.882812 207.125 -51.6875 C 210.445312 -56.488281 213.34375 -60.613281 215.8125 -64.0625 C 219.625 -69.71875 223.59375 -75.59375 227.71875 -81.6875 C 231.84375 -87.78125 235.875 -93.65625 239.8125 -99.3125 C 243.75 -104.976562 247.253906 -110.085938 250.328125 -114.640625 C 253.410156 -119.191406 255.875 -122.789062 257.71875 -125.4375 C 259.5625 -128.082031 260.484375 -129.40625 260.484375 -129.40625 Z M 260.484375 -129.40625 "/></g></g></g></g><g fill="#73822e" fill-opacity="1"><g transform="translate(245.33834, 134.026954)"><g><path d="M 57.78125 -51.140625 L 62.03125 -51.140625 C 53.539062 -40.796875 44.863281 -31.773438 36 -24.078125 C 27.132812 -16.390625 19.007812 -10.421875 11.625 -6.171875 C 4.238281 -1.929688 -1.539062 0.1875 -5.71875 0.1875 C -10.519531 0.1875 -14.085938 -1.007812 -16.421875 -3.40625 C -18.765625 -5.8125 -20.117188 -8.890625 -20.484375 -12.640625 C -20.859375 -16.398438 -20.398438 -20.492188 -19.109375 -24.921875 C -17.816406 -29.347656 -15.816406 -33.59375 -13.109375 -37.65625 C -8.054688 -45.414062 -2.300781 -51.878906 4.15625 -57.046875 C 10.613281 -62.210938 16.976562 -66.085938 23.25 -68.671875 C 29.53125 -71.253906 34.890625 -72.546875 39.328125 -72.546875 C 44.859375 -72.546875 48.394531 -71.160156 49.9375 -68.390625 C 51.476562 -65.628906 51.382812 -62.1875 49.65625 -58.0625 C 47.9375 -53.9375 45.046875 -49.84375 40.984375 -45.78125 C 37.285156 -42.09375 32.882812 -38.894531 27.78125 -36.1875 C 22.675781 -33.476562 17.507812 -31.597656 12.28125 -30.546875 C 7.050781 -29.503906 2.34375 -29.597656 -1.84375 -30.828125 C -3.320312 -27.378906 -4.367188 -23.992188 -4.984375 -20.671875 C -5.597656 -17.347656 -5.410156 -14.609375 -4.421875 -12.453125 C -3.441406 -10.304688 -1.414062 -9.234375 1.65625 -9.234375 C 3.625 -9.234375 6.671875 -10.335938 10.796875 -12.546875 C 14.921875 -14.765625 19.660156 -17.8125 25.015625 -21.6875 C 30.367188 -25.5625 35.875 -30.019531 41.53125 -35.0625 C 47.195312 -40.113281 52.613281 -45.472656 57.78125 -51.140625 Z M 4.0625 -42.09375 C 3.320312 -41.101562 2.613281 -40.023438 1.9375 -38.859375 C 1.257812 -37.691406 0.613281 -36.492188 0 -35.265625 C 2.957031 -34.148438 6.21875 -34.144531 9.78125 -35.25 C 13.351562 -36.363281 16.953125 -38.210938 20.578125 -40.796875 C 24.210938 -43.378906 27.566406 -46.269531 30.640625 -49.46875 C 33.722656 -52.675781 36.28125 -55.785156 38.3125 -58.796875 C 40.34375 -61.816406 41.507812 -64.3125 41.8125 -66.28125 C 42.125 -68.25 41.296875 -69.234375 39.328125 -69.234375 C 36.984375 -69.347656 33.8125 -68.421875 29.8125 -66.453125 C 25.8125 -64.484375 21.535156 -61.5 16.984375 -57.5 C 12.429688 -53.5 8.125 -48.363281 4.0625 -42.09375 Z M 4.0625 -42.09375 "/></g></g></g><g fill="#73822e" fill-opacity="1"><g transform="translate(302.194904, 134.026954)"><g><path d="M 75.6875 -50.953125 L 81.046875 -50.953125 C 77.347656 -45.910156 73.34375 -40.492188 69.03125 -34.703125 C 64.726562 -28.921875 60.363281 -23.441406 55.9375 -18.265625 C 51.507812 -13.097656 47.078125 -8.757812 42.640625 -5.25 C 38.210938 -1.75 34.03125 0.179688 30.09375 0.546875 C 25.664062 1.046875 22.742188 0.00390625 21.328125 -2.578125 C 19.910156 -5.171875 19.507812 -8.25 20.125 -11.8125 C 20.988281 -16.363281 22.742188 -21.160156 25.390625 -26.203125 C 28.035156 -31.253906 30.863281 -36.148438 33.875 -40.890625 C 36.894531 -45.628906 39.539062 -49.875 41.8125 -53.625 C 44.09375 -57.382812 45.382812 -60.398438 45.6875 -62.671875 C 46 -64.953125 44.675781 -66.09375 41.71875 -66.09375 C 38.644531 -66.09375 34.492188 -64.335938 29.265625 -60.828125 C 24.035156 -57.316406 18.003906 -51.160156 11.171875 -42.359375 C 4.335938 -33.566406 -3.015625 -21.289062 -10.890625 -5.53125 C -12.242188 -2.582031 -12.921875 -0.675781 -12.921875 0.1875 L -28.25 0.1875 C -20.988281 -16.1875 -14.15625 -29.695312 -7.75 -40.34375 C -1.351562 -50.988281 3.84375 -58.894531 7.84375 -64.0625 C 11.84375 -69.226562 13.84375 -71.8125 13.84375 -71.8125 C 13.84375 -71.8125 15.503906 -71.65625 18.828125 -71.34375 C 22.148438 -71.039062 26.890625 -71.195312 33.046875 -71.8125 C 31.941406 -71.070312 30.398438 -69.78125 28.421875 -67.9375 C 26.453125 -66.09375 24.484375 -64.09375 22.515625 -61.9375 C 20.546875 -59.78125 18.945312 -57.78125 17.71875 -55.9375 L 16.4375 -53.90625 C 22.21875 -60.675781 27.503906 -65.351562 32.296875 -67.9375 C 37.097656 -70.519531 41.53125 -71.8125 45.59375 -71.8125 C 50.394531 -71.8125 53.6875 -70.890625 55.46875 -69.046875 C 57.257812 -67.203125 58 -64.738281 57.6875 -61.65625 C 57.382812 -58.582031 56.398438 -55.195312 54.734375 -51.5 C 53.078125 -47.8125 51.109375 -44.054688 48.828125 -40.234375 C 46.546875 -36.421875 44.390625 -32.882812 42.359375 -29.625 C 40.335938 -26.363281 38.769531 -23.628906 37.65625 -21.421875 C 35.195312 -16.492188 33.90625 -13.101562 33.78125 -11.25 C 33.65625 -9.40625 34.332031 -8.609375 35.8125 -8.859375 C 37.289062 -9.109375 39.132812 -9.96875 41.34375 -11.4375 C 43.5625 -12.914062 45.75 -14.578125 47.90625 -16.421875 C 50.0625 -18.273438 51.691406 -19.878906 52.796875 -21.234375 C 54.273438 -22.953125 56.398438 -25.566406 59.171875 -29.078125 C 61.941406 -32.585938 64.863281 -36.3125 67.9375 -40.25 C 71.007812 -44.1875 73.59375 -47.753906 75.6875 -50.953125 Z M 75.6875 -50.953125 "/></g></g></g></g></g></g><g clip-path="url(#b2fa1dfebd)"><g transform="matrix(1, 0, 0, 1, 140, 252)"><g clip-path="url(#fb0721c312)"><g clip-path="url(#256ecb739d)"><g fill="#73822e" fill-opacity="1"><g transform="translate(0.925639, 89.504987)"><g/></g></g></g><g fill="#73822e" fill-opacity="1"><g transform="translate(26.488636, 89.504987)"><g><path d="M 68.875 -61.46875 C 70.925781 -61.8125 72.757812 -61.425781 74.375 -60.3125 C 76 -59.207031 77.234375 -57.675781 78.078125 -55.71875 C 78.929688 -53.757812 79.269531 -51.671875 79.09375 -49.453125 C 78.925781 -47.242188 78.078125 -45.160156 76.546875 -43.203125 C 74.335938 -40.472656 71.1875 -38.785156 67.09375 -38.140625 C 63 -37.503906 58.695312 -37.101562 54.1875 -36.9375 C 55.71875 -36.332031 56.71875 -35.347656 57.1875 -33.984375 C 57.65625 -32.628906 57.78125 -31.117188 57.5625 -29.453125 C 57.351562 -27.796875 56.992188 -26.222656 56.484375 -24.734375 C 55.972656 -23.242188 55.503906 -22.070312 55.078125 -21.21875 C 52.859375 -17.039062 49.769531 -13.78125 45.8125 -11.4375 C 41.851562 -9.09375 37.570312 -7.453125 32.96875 -6.515625 C 28.375 -5.578125 23.988281 -5.195312 19.8125 -5.375 C 12.570312 -5.625 7.289062 -7.472656 3.96875 -10.921875 C 0.644531 -14.378906 -0.59375 -18.363281 0.25 -22.875 C 1.101562 -27.300781 2.976562 -31.367188 5.875 -35.078125 C 8.769531 -38.785156 12.367188 -41.894531 16.671875 -44.40625 C 20.972656 -46.914062 25.507812 -48.554688 30.28125 -49.328125 C 28.238281 -50.097656 26.554688 -51.484375 25.234375 -53.484375 C 23.921875 -55.484375 23.238281 -57.820312 23.1875 -60.5 C 23.144531 -63.1875 23.976562 -65.894531 25.6875 -68.625 C 27.90625 -72.207031 30.695312 -75.125 34.0625 -77.375 C 37.425781 -79.632812 40.894531 -81.253906 44.46875 -82.234375 C 48.050781 -83.210938 51.207031 -83.445312 53.9375 -82.9375 C 57.769531 -82.34375 60.769531 -80.832031 62.9375 -78.40625 C 65.113281 -75.976562 65.988281 -72.675781 65.5625 -68.5 C 64.875 -62.625 61.929688 -57.597656 56.734375 -53.421875 C 55.117188 -52.140625 53.285156 -51.304688 51.234375 -50.921875 C 49.191406 -50.546875 47.234375 -50.503906 45.359375 -50.796875 C 43.492188 -51.097656 41.941406 -51.628906 40.703125 -52.390625 C 39.460938 -53.160156 38.757812 -54.054688 38.59375 -55.078125 C 42.851562 -54.140625 46.390625 -54.648438 49.203125 -56.609375 C 52.015625 -58.566406 54.015625 -60.867188 55.203125 -63.515625 C 55.804688 -64.796875 56.316406 -66.304688 56.734375 -68.046875 C 57.160156 -69.796875 57.332031 -71.519531 57.25 -73.21875 C 57.164062 -74.925781 56.71875 -76.394531 55.90625 -77.625 C 55.101562 -78.863281 53.71875 -79.53125 51.75 -79.625 C 49.96875 -79.789062 47.945312 -79.273438 45.6875 -78.078125 C 43.425781 -76.890625 41.25 -75.316406 39.15625 -73.359375 C 37.070312 -71.398438 35.394531 -69.179688 34.125 -66.703125 C 32.25 -63.046875 31.691406 -59.554688 32.453125 -56.234375 C 33.222656 -52.910156 35.015625 -50.820312 37.828125 -49.96875 L 40 -49.71875 C 41.957031 -49.539062 43.679688 -48.8125 45.171875 -47.53125 C 46.660156 -46.257812 47.238281 -45.070312 46.90625 -43.96875 C 45.363281 -45.15625 43.359375 -45.894531 40.890625 -46.1875 C 38.421875 -46.488281 36.125 -46.472656 34 -46.140625 C 31.007812 -45.796875 28.191406 -44.878906 25.546875 -43.390625 C 22.910156 -41.898438 20.59375 -40.171875 18.59375 -38.203125 C 16.59375 -36.242188 14.992188 -34.285156 13.796875 -32.328125 C 10.984375 -27.554688 9.617188 -23.125 9.703125 -19.03125 C 9.796875 -14.945312 10.992188 -12.265625 13.296875 -10.984375 C 15.585938 -9.710938 18.242188 -9.078125 21.265625 -9.078125 C 24.296875 -9.078125 27.363281 -9.609375 30.46875 -10.671875 C 33.582031 -11.734375 36.523438 -13.265625 39.296875 -15.265625 C 42.066406 -17.273438 44.347656 -19.640625 46.140625 -22.359375 C 47.835938 -25.003906 48.453125 -27.519531 47.984375 -29.90625 C 47.515625 -32.289062 46.472656 -33.566406 44.859375 -33.734375 C 43.328125 -33.992188 41.898438 -33.546875 40.578125 -32.390625 C 39.253906 -31.242188 38.484375 -29.925781 38.265625 -28.4375 C 38.054688 -26.945312 38.804688 -25.816406 40.515625 -25.046875 C 37.785156 -23.941406 35.628906 -23.921875 34.046875 -24.984375 C 32.472656 -26.046875 31.601562 -27.535156 31.4375 -29.453125 C 31.269531 -31.367188 31.867188 -33.097656 33.234375 -34.640625 C 35.441406 -37.273438 38.269531 -38.785156 41.71875 -39.171875 C 45.175781 -39.554688 49.25 -39.914062 53.9375 -40.25 C 58.789062 -40.675781 62.6875 -42.039062 65.625 -44.34375 C 68.5625 -46.644531 70.347656 -49.367188 70.984375 -52.515625 C 71.628906 -55.671875 70.925781 -58.65625 68.875 -61.46875 Z M 68.875 -61.46875 "/></g></g></g><g fill="#73822e" fill-opacity="1"><g transform="translate(106.749247, 89.504987)"><g/></g></g></g></g></g><g clip-path="url(#512645136a)"><g transform="matrix(1, 0, 0, 1, 280, 176)"><g clip-path="url(#2b55073bd5)"><g clip-path="url(#f3a3a8f91f)"><g fill="#73822e" fill-opacity="1"><g transform="translate(1.034263, 141.871647)"><g><path d="M 140.859375 1.84375 C 144.054688 3.8125 146.453125 6.550781 148.046875 10.0625 C 149.648438 13.570312 150.328125 17.382812 150.078125 21.5 C 149.835938 25.625 148.546875 29.5625 146.203125 33.3125 C 143.867188 37.070312 140.457031 40.148438 135.96875 42.546875 C 131.476562 44.953125 125.722656 46.15625 118.703125 46.15625 C 109.960938 46.15625 102.269531 44.863281 95.625 42.28125 C 88.976562 39.695312 83.160156 36.429688 78.171875 32.484375 C 73.191406 28.546875 68.734375 24.421875 64.796875 20.109375 C 60.859375 15.804688 57.226562 11.867188 53.90625 8.296875 C 50.582031 4.734375 47.289062 2.085938 44.03125 0.359375 C 40.769531 -1.359375 37.289062 -1.601562 33.59375 -0.375 C 31.382812 0.363281 29.296875 1.132812 27.328125 1.9375 C 25.359375 2.738281 23.296875 3.320312 21.140625 3.6875 C 18.984375 4.0625 16.367188 3.878906 13.296875 3.140625 C 11.203125 2.523438 9.476562 1.296875 8.125 -0.546875 C 6.769531 -2.398438 6.09375 -4.429688 6.09375 -6.640625 C 6.09375 -8.859375 6.890625 -10.707031 8.484375 -12.1875 C 8.609375 -10.832031 9.410156 -9.628906 10.890625 -8.578125 C 12.367188 -7.535156 14.15625 -6.890625 16.25 -6.640625 C 18.34375 -6.398438 20.3125 -6.832031 22.15625 -7.9375 C 27.9375 -11.507812 33.347656 -17.109375 38.390625 -24.734375 C 43.441406 -32.367188 48.550781 -40.800781 53.71875 -50.03125 C 53.101562 -50.03125 52.425781 -50.03125 51.6875 -50.03125 C 50.945312 -50.03125 50.207031 -49.96875 49.46875 -49.84375 C 43.070312 -48.976562 38.550781 -47.097656 35.90625 -44.203125 C 33.257812 -41.316406 32.242188 -38.03125 32.859375 -34.34375 C 31.378906 -34.707031 30.238281 -35.71875 29.4375 -37.375 C 28.644531 -39.039062 28.304688 -40.921875 28.421875 -43.015625 C 28.546875 -45.109375 29.164062 -46.832031 30.28125 -48.1875 C 32.125 -50.519531 35.289062 -52.882812 39.78125 -55.28125 C 44.269531 -57.6875 50.457031 -58.765625 58.34375 -58.515625 C 62.894531 -66.765625 67.691406 -74.796875 72.734375 -82.609375 C 77.785156 -90.421875 83.296875 -97.34375 89.265625 -103.375 C 95.234375 -109.40625 101.847656 -113.710938 109.109375 -116.296875 C 104.554688 -117.160156 99.910156 -117.929688 95.171875 -118.609375 C 90.429688 -119.285156 85.535156 -119.75 80.484375 -120 C 73.597656 -120.363281 66.859375 -119.898438 60.265625 -118.609375 C 53.679688 -117.316406 47.925781 -115.039062 43 -111.78125 C 38.082031 -108.519531 34.519531 -104.179688 32.3125 -98.765625 C 30.457031 -94.085938 29.867188 -90.023438 30.546875 -86.578125 C 31.222656 -83.128906 32.421875 -80.296875 34.140625 -78.078125 C 35.867188 -75.867188 37.53125 -74.207031 39.125 -73.09375 C 40.726562 -71.988281 41.53125 -71.4375 41.53125 -71.4375 C 33.039062 -72.175781 26.640625 -74.390625 22.328125 -78.078125 C 18.023438 -81.773438 15.566406 -86.175781 14.953125 -91.28125 C 14.335938 -96.394531 15.382812 -101.660156 18.09375 -107.078125 C 20.800781 -112.492188 24.984375 -117.289062 30.640625 -121.46875 C 36.304688 -125.78125 42.242188 -128.644531 48.453125 -130.0625 C 54.671875 -131.476562 60.828125 -132.03125 66.921875 -131.71875 C 73.015625 -131.40625 78.707031 -130.695312 84 -129.59375 C 89.289062 -128.488281 93.84375 -127.441406 97.65625 -126.453125 C 101.96875 -125.472656 106.890625 -124.488281 112.421875 -123.5 C 117.960938 -122.519531 123.71875 -121.8125 129.6875 -121.375 C 135.65625 -120.945312 141.46875 -120.945312 147.125 -121.375 C 152.789062 -121.8125 157.835938 -122.953125 162.265625 -124.796875 C 166.085938 -126.398438 168.828125 -128.367188 170.484375 -130.703125 C 172.148438 -133.046875 173.164062 -135.140625 173.53125 -136.984375 C 173.90625 -138.828125 174.09375 -139.75 174.09375 -139.75 C 175.6875 -140.613281 177.34375 -140.644531 179.0625 -139.84375 C 180.789062 -139.039062 182.207031 -137.6875 183.3125 -135.78125 C 184.425781 -133.875 184.921875 -131.6875 184.796875 -129.21875 C 184.671875 -126.757812 183.625 -124.359375 181.65625 -122.015625 C 179.6875 -119.679688 176.425781 -117.65625 171.875 -115.9375 C 163.5 -112.738281 155.1875 -111.257812 146.9375 -111.5 C 138.695312 -111.75 130.207031 -112.613281 121.46875 -114.09375 C 118.269531 -111.875 114.269531 -108.578125 109.46875 -104.203125 C 104.675781 -99.835938 99.628906 -94.207031 94.328125 -87.3125 C 89.035156 -80.425781 83.867188 -71.9375 78.828125 -61.84375 L 75.328125 -55.015625 C 79.992188 -53.910156 84.878906 -52.894531 89.984375 -51.96875 C 95.097656 -51.039062 99.992188 -50.914062 104.671875 -51.59375 C 109.347656 -52.269531 113.285156 -54.269531 116.484375 -57.59375 C 117.960938 -56.125 118.457031 -54.003906 117.96875 -51.234375 C 117.476562 -48.460938 115.90625 -45.90625 113.25 -43.5625 C 110.601562 -41.226562 106.757812 -39.9375 101.71875 -39.6875 C 94.582031 -39.445312 88.613281 -40.03125 83.8125 -41.4375 C 79.007812 -42.851562 74.640625 -44.363281 70.703125 -45.96875 C 66.890625 -38.945312 62.859375 -32.207031 58.609375 -25.75 C 54.367188 -19.289062 49.910156 -13.722656 45.234375 -9.046875 C 49.296875 -7.203125 53.171875 -4.738281 56.859375 -1.65625 C 60.546875 1.414062 64.390625 4.675781 68.390625 8.125 C 72.390625 11.570312 76.726562 14.832031 81.40625 17.90625 C 86.082031 20.976562 91.34375 23.46875 97.1875 25.375 C 103.039062 27.289062 109.722656 28.1875 117.234375 28.0625 C 122.273438 27.9375 126.363281 26.976562 129.5 25.1875 C 132.644531 23.40625 135.015625 21.222656 136.609375 18.640625 C 138.210938 16.054688 139.289062 13.472656 139.84375 10.890625 C 140.394531 8.304688 140.703125 6.148438 140.765625 4.421875 C 140.828125 2.703125 140.859375 1.84375 140.859375 1.84375 Z M 140.859375 1.84375 "/></g></g></g></g><g fill="#73822e" fill-opacity="1"><g transform="translate(146.49847, 141.871647)"><g><path d="M 83.625 -50.953125 L 88.609375 -50.953125 C 84.921875 -45.910156 80.890625 -40.585938 76.515625 -34.984375 C 72.148438 -29.378906 67.691406 -24.023438 63.140625 -18.921875 C 58.585938 -13.816406 54.21875 -9.539062 50.03125 -6.09375 C 45.84375 -2.644531 42.148438 -0.550781 38.953125 0.1875 C 34.398438 1.050781 31.015625 0.710938 28.796875 -0.828125 C 26.578125 -2.367188 25.34375 -4.769531 25.09375 -8.03125 C 24.851562 -11.289062 25.289062 -14.953125 26.40625 -19.015625 C 21.601562 -13.722656 16.398438 -9.195312 10.796875 -5.4375 C 5.203125 -1.6875 -0.179688 0.1875 -5.359375 0.1875 C -10.148438 0.1875 -13.710938 -1.007812 -16.046875 -3.40625 C -18.390625 -5.8125 -19.742188 -8.890625 -20.109375 -12.640625 C -20.484375 -16.398438 -20.023438 -20.492188 -18.734375 -24.921875 C -17.441406 -29.347656 -15.441406 -33.59375 -12.734375 -37.65625 C -7.691406 -45.414062 -1.941406 -51.878906 4.515625 -57.046875 C 10.984375 -62.210938 17.351562 -66.085938 23.625 -68.671875 C 29.90625 -71.253906 35.257812 -72.546875 39.6875 -72.546875 C 44.613281 -72.546875 47.597656 -71.097656 48.640625 -68.203125 C 49.691406 -65.316406 49.539062 -61.597656 48.1875 -57.046875 C 51.257812 -61.347656 53.8125 -64.882812 55.84375 -67.65625 C 57.875 -70.425781 58.890625 -71.8125 58.890625 -71.8125 C 58.890625 -71.8125 60.582031 -71.65625 63.96875 -71.34375 C 67.351562 -71.039062 72.0625 -71.195312 78.09375 -71.8125 C 77.59375 -70.945312 75.804688 -68.851562 72.734375 -65.53125 C 69.660156 -62.207031 66.0625 -58.019531 61.9375 -52.96875 C 57.8125 -47.925781 53.78125 -42.421875 49.84375 -36.453125 C 45.90625 -30.484375 42.890625 -24.425781 40.796875 -18.28125 C 39.078125 -13.351562 38.460938 -10.148438 38.953125 -8.671875 C 39.441406 -7.203125 40.578125 -6.832031 42.359375 -7.5625 C 44.148438 -8.300781 46.242188 -9.65625 48.640625 -11.625 C 51.046875 -13.59375 53.320312 -15.625 55.46875 -17.71875 C 57.625 -19.8125 59.257812 -21.410156 60.375 -22.515625 C 61.96875 -24.117188 64.023438 -26.457031 66.546875 -29.53125 C 69.078125 -32.613281 71.847656 -36.03125 74.859375 -39.78125 C 77.867188 -43.53125 80.789062 -47.253906 83.625 -50.953125 Z M 34.34375 -36.1875 L 38.765625 -43.203125 C 40.984375 -47.503906 42.769531 -51.410156 44.125 -54.921875 C 45.476562 -58.429688 45.90625 -61.257812 45.40625 -63.40625 C 44.914062 -65.5625 43.007812 -66.640625 39.6875 -66.640625 C 37.351562 -66.640625 34.1875 -65.898438 30.1875 -64.421875 C 26.1875 -62.953125 21.90625 -60.429688 17.34375 -56.859375 C 12.789062 -53.285156 8.488281 -48.363281 4.4375 -42.09375 C 2.46875 -39.132812 0.65625 -35.78125 -1 -32.03125 C -2.664062 -28.28125 -3.867188 -24.679688 -4.609375 -21.234375 C -5.347656 -17.785156 -5.253906 -14.921875 -4.328125 -12.640625 C -3.410156 -10.367188 -1.289062 -9.234375 2.03125 -9.234375 C 4.863281 -9.234375 8.09375 -10.398438 11.71875 -12.734375 C 15.351562 -15.078125 18.984375 -18.03125 22.609375 -21.59375 C 26.242188 -25.164062 29.414062 -28.796875 32.125 -32.484375 Z M 34.34375 -36.1875 "/></g></g></g><g fill="#73822e" fill-opacity="1"><g transform="translate(229.383537, 141.871647)"><g><path d="M 53.171875 -50.953125 C 49.597656 -46.023438 45.59375 -40.726562 41.15625 -35.0625 C 36.726562 -29.40625 32.269531 -24.054688 27.78125 -19.015625 C 23.289062 -13.972656 18.953125 -9.789062 14.765625 -6.46875 C 9.960938 -2.03125 3.378906 0.1875 -4.984375 0.1875 C -10.398438 0.1875 -14.859375 -1.316406 -18.359375 -4.328125 C -21.867188 -7.347656 -24.144531 -11.164062 -25.1875 -15.78125 C -26.238281 -20.394531 -25.90625 -25.164062 -24.1875 -30.09375 C -22.21875 -34.03125 -19.847656 -36.488281 -17.078125 -37.46875 C -14.304688 -38.457031 -11.875 -38.335938 -9.78125 -37.109375 C -7.6875 -35.878906 -6.765625 -33.722656 -7.015625 -30.640625 C -10.085938 -27.566406 -11.75 -24.117188 -12 -20.296875 C -12.25 -16.484375 -11.445312 -13.191406 -9.59375 -10.421875 C -7.75 -7.660156 -5.289062 -6.28125 -2.21875 -6.28125 C 1.226562 -6.28125 3.75 -7.476562 5.34375 -9.875 C 6.945312 -12.269531 7.71875 -15.160156 7.65625 -18.546875 C 7.59375 -21.929688 6.765625 -25.164062 5.171875 -28.25 C 0.859375 -36.988281 -1.046875 -44.679688 -0.546875 -51.328125 C -0.0546875 -57.972656 2.242188 -63.171875 6.359375 -66.921875 C 10.484375 -70.671875 15.75 -72.484375 22.15625 -72.359375 C 25.84375 -72.359375 28.882812 -71.46875 31.28125 -69.6875 C 33.6875 -67.90625 35.195312 -65.414062 35.8125 -62.21875 C 36.425781 -59.75 36.054688 -57.375 34.703125 -55.09375 C 33.347656 -52.820312 31.378906 -51.6875 28.796875 -51.6875 C 27.441406 -51.6875 26.269531 -52.175781 25.28125 -53.15625 C 24.300781 -54.144531 23.8125 -55.316406 23.8125 -56.671875 C 23.8125 -58.023438 24.300781 -59.191406 25.28125 -60.171875 C 26.269531 -61.160156 27.441406 -61.65625 28.796875 -61.65625 C 29.410156 -61.65625 30.210938 -61.410156 31.203125 -60.921875 C 31.203125 -61.285156 30.984375 -62.050781 30.546875 -63.21875 C 30.117188 -64.394531 29.347656 -65.535156 28.234375 -66.640625 C 27.128906 -67.753906 25.410156 -68.3125 23.078125 -68.3125 C 18.648438 -68.425781 15.476562 -66.789062 13.5625 -63.40625 C 11.65625 -60.03125 10.976562 -55.785156 11.53125 -50.671875 C 12.09375 -45.566406 13.847656 -40.550781 16.796875 -35.625 C 18.523438 -32.550781 19.753906 -29.597656 20.484375 -26.765625 C 21.222656 -23.929688 21.472656 -21.285156 21.234375 -18.828125 C 21.972656 -19.566406 22.648438 -20.242188 23.265625 -20.859375 C 23.878906 -21.472656 24.367188 -22.023438 24.734375 -22.515625 C 26.335938 -24.117188 28.398438 -26.457031 30.921875 -29.53125 C 33.441406 -32.613281 36.207031 -36.03125 39.21875 -39.78125 C 42.238281 -43.53125 45.164062 -47.253906 48 -50.953125 Z M 53.171875 -50.953125 "/></g></g></g><g fill="#73822e" fill-opacity="1"><g transform="translate(277.194747, 141.871647)"><g><path d="M 39.328125 -72.546875 C 44.003906 -72.546875 47.382812 -71.40625 49.46875 -69.125 C 51.5625 -66.851562 52.609375 -63.867188 52.609375 -60.171875 C 52.609375 -56.484375 51.835938 -52.425781 50.296875 -48 C 48.765625 -43.570312 46.644531 -39.203125 43.9375 -34.890625 C 41.476562 -30.828125 38.523438 -26.734375 35.078125 -22.609375 C 31.628906 -18.492188 27.875 -14.710938 23.8125 -11.265625 C 19.75 -7.816406 15.65625 -5.046875 11.53125 -2.953125 C 7.414062 -0.859375 3.445312 0.1875 -0.375 0.1875 C -5.050781 0.1875 -8.679688 -1.007812 -11.265625 -3.40625 C -13.847656 -5.8125 -15.445312 -8.890625 -16.0625 -12.640625 C -16.675781 -16.398438 -16.488281 -20.492188 -15.5 -24.921875 C -14.519531 -29.347656 -12.859375 -33.59375 -10.515625 -37.65625 C -5.960938 -45.414062 -0.644531 -51.878906 5.4375 -57.046875 C 11.53125 -62.210938 17.59375 -66.085938 23.625 -68.671875 C 29.65625 -71.253906 34.890625 -72.546875 39.328125 -72.546875 Z M 6.28125 -42.09375 C 4.550781 -39.132812 3.007812 -35.78125 1.65625 -32.03125 C 0.300781 -28.28125 -0.617188 -24.679688 -1.109375 -21.234375 C -1.597656 -17.785156 -1.285156 -14.921875 -0.171875 -12.640625 C 0.929688 -10.367188 3.144531 -9.234375 6.46875 -9.234375 C 8.4375 -9.234375 10.585938 -9.816406 12.921875 -10.984375 C 15.265625 -12.148438 17.664062 -13.71875 20.125 -15.6875 C 21.84375 -17.039062 24.117188 -19.191406 26.953125 -22.140625 C 29.785156 -25.097656 32.523438 -28.363281 35.171875 -31.9375 C 37.816406 -35.507812 39.753906 -38.957031 40.984375 -42.28125 C 42.210938 -45.601562 41.96875 -48.304688 40.25 -50.390625 C 39.75 -51.128906 39.222656 -51.835938 38.671875 -52.515625 C 38.117188 -53.191406 37.84375 -53.960938 37.84375 -54.828125 C 37.84375 -56.179688 38.363281 -57.347656 39.40625 -58.328125 C 40.457031 -59.316406 41.660156 -59.8125 43.015625 -59.8125 C 44.609375 -59.8125 45.898438 -59.195312 46.890625 -57.96875 C 47.015625 -60.550781 46.550781 -62.640625 45.5 -64.234375 C 44.457031 -65.835938 42.582031 -66.640625 39.875 -66.640625 C 37.539062 -66.640625 34.398438 -65.898438 30.453125 -64.421875 C 26.515625 -62.953125 22.390625 -60.429688 18.078125 -56.859375 C 13.773438 -53.285156 9.84375 -48.363281 6.28125 -42.09375 Z M 6.28125 -42.09375 "/></g></g></g><g fill="#73822e" fill-opacity="1"><g transform="translate(344.019684, 141.871647)"><g><path d="M 75.6875 -50.953125 L 81.046875 -50.953125 C 77.347656 -45.910156 73.34375 -40.492188 69.03125 -34.703125 C 64.726562 -28.921875 60.363281 -23.441406 55.9375 -18.265625 C 51.507812 -13.097656 47.078125 -8.757812 42.640625 -5.25 C 38.210938 -1.75 34.03125 0.179688 30.09375 0.546875 C 25.664062 1.046875 22.742188 0.00390625 21.328125 -2.578125 C 19.910156 -5.171875 19.507812 -8.25 20.125 -11.8125 C 20.988281 -16.363281 22.742188 -21.160156 25.390625 -26.203125 C 28.035156 -31.253906 30.863281 -36.148438 33.875 -40.890625 C 36.894531 -45.628906 39.539062 -49.875 41.8125 -53.625 C 44.09375 -57.382812 45.382812 -60.398438 45.6875 -62.671875 C 46 -64.953125 44.675781 -66.09375 41.71875 -66.09375 C 38.644531 -66.09375 34.492188 -64.335938 29.265625 -60.828125 C 24.035156 -57.316406 18.003906 -51.160156 11.171875 -42.359375 C 4.335938 -33.566406 -3.015625 -21.289062 -10.890625 -5.53125 C -12.242188 -2.582031 -12.921875 -0.675781 -12.921875 0.1875 L -28.25 0.1875 C -20.988281 -16.1875 -14.15625 -29.695312 -7.75 -40.34375 C -1.351562 -50.988281 3.84375 -58.894531 7.84375 -64.0625 C 11.84375 -69.226562 13.84375 -71.8125 13.84375 -71.8125 C 13.84375 -71.8125 15.503906 -71.65625 18.828125 -71.34375 C 22.148438 -71.039062 26.890625 -71.195312 33.046875 -71.8125 C 31.941406 -71.070312 30.398438 -69.78125 28.421875 -67.9375 C 26.453125 -66.09375 24.484375 -64.09375 22.515625 -61.9375 C 20.546875 -59.78125 18.945312 -57.78125 17.71875 -55.9375 L 16.4375 -53.90625 C 22.21875 -60.675781 27.503906 -65.351562 32.296875 -67.9375 C 37.097656 -70.519531 41.53125 -71.8125 45.59375 -71.8125 C 50.394531 -71.8125 53.6875 -70.890625 55.46875 -69.046875 C 57.257812 -67.203125 58 -64.738281 57.6875 -61.65625 C 57.382812 -58.582031 56.398438 -55.195312 54.734375 -51.5 C 53.078125 -47.8125 51.109375 -44.054688 48.828125 -40.234375 C 46.546875 -36.421875 44.390625 -32.882812 42.359375 -29.625 C 40.335938 -26.363281 38.769531 -23.628906 37.65625 -21.421875 C 35.195312 -16.492188 33.90625 -13.101562 33.78125 -11.25 C 33.65625 -9.40625 34.332031 -8.609375 35.8125 -8.859375 C 37.289062 -9.109375 39.132812 -9.96875 41.34375 -11.4375 C 43.5625 -12.914062 45.75 -14.578125 47.90625 -16.421875 C 50.0625 -18.273438 51.691406 -19.878906 52.796875 -21.234375 C 54.273438 -22.953125 56.398438 -25.566406 59.171875 -29.078125 C 61.941406 -32.585938 64.863281 -36.3125 67.9375 -40.25 C 71.007812 -44.1875 73.59375 -47.753906 75.6875 -50.953125 Z M 75.6875 -50.953125 "/></g></g></g></g></g></g></g></g></svg>