<svg xmlns="http://www.w3.org/2000/svg" xmlns:xlink="http://www.w3.org/1999/xlink" width="1080" zoomAndPan="magnify" viewBox="0 0 810 809.999993" height="1080" preserveAspectRatio="xMidYMid meet" version="1.0"><defs><g/><clipPath id="20dad2fa93"><rect x="0" width="89" y="0" height="48"/></clipPath><clipPath id="51a7dcd262"><rect x="0" width="95" y="0" height="48"/></clipPath><clipPath id="e4b4a54f12"><rect x="0" width="204" y="0" height="48"/></clipPath><clipPath id="5627782b7d"><rect x="0" width="134" y="0" height="31"/></clipPath><clipPath id="e63733bde4"><rect x="0" width="131" y="0" height="31"/></clipPath><clipPath id="53d4619f0a"><rect x="0" width="165" y="0" height="31"/></clipPath></defs><path stroke-linecap="butt" transform="matrix(0, -0.75, 0.75, 0, 309.013318, 466.918389)" fill="none" stroke-linejoin="miter" d="M 0.00055968 2.497868 L 99.005773 2.497868 " stroke="#697054" stroke-width="5" stroke-opacity="1" stroke-miterlimit="4"/><path stroke-linecap="butt" transform="matrix(0, -0.75, 0.75, 0, 541.565592, 465.503853)" fill="none" stroke-linejoin="miter" d="M -0.0000715585 2.501085 L 99.005142 2.501085 " stroke="#697054" stroke-width="5" stroke-opacity="1" stroke-miterlimit="4"/><g transform="matrix(1, 0, 0, 1, 572, 384)"><g clip-path="url(#20dad2fa93)"><g fill="#697054" fill-opacity="1"><g transform="translate(0.256596, 35.641639)"><g><path d="M 4.5 -11.546875 C 4.5 -12.328125 4.4375 -12.894531 4.3125 -13.25 C 4.1875 -13.601562 3.921875 -13.84375 3.515625 -13.96875 C 3.117188 -14.101562 2.476562 -14.171875 1.59375 -14.171875 C 1.539062 -14.171875 1.515625 -14.242188 1.515625 -14.390625 C 1.515625 -14.546875 1.539062 -14.625 1.59375 -14.625 C 2.425781 -14.625 3.066406 -14.609375 3.515625 -14.578125 L 6.28125 -14.546875 L 9.015625 -14.578125 C 9.492188 -14.609375 10.148438 -14.625 10.984375 -14.625 C 11.054688 -14.625 11.09375 -14.546875 11.09375 -14.390625 C 11.09375 -14.242188 11.054688 -14.171875 10.984375 -14.171875 C 10.148438 -14.171875 9.53125 -14.097656 9.125 -13.953125 C 8.71875 -13.816406 8.4375 -13.570312 8.28125 -13.21875 C 8.132812 -12.863281 8.0625 -12.304688 8.0625 -11.546875 L 8.0625 -3.0625 C 8.0625 -2.28125 8.125 -1.710938 8.25 -1.359375 C 8.382812 -1.003906 8.648438 -0.765625 9.046875 -0.640625 C 9.453125 -0.515625 10.097656 -0.453125 10.984375 -0.453125 C 11.054688 -0.453125 11.09375 -0.375 11.09375 -0.21875 C 11.09375 -0.0703125 11.054688 0 10.984375 0 C 10.148438 0 9.503906 -0.0078125 9.046875 -0.03125 L 6.28125 -0.078125 L 3.5625 -0.03125 C 3.082031 -0.0078125 2.425781 0 1.59375 0 C 1.539062 0 1.515625 -0.0703125 1.515625 -0.21875 C 1.515625 -0.375 1.539062 -0.453125 1.59375 -0.453125 C 2.425781 -0.453125 3.039062 -0.519531 3.4375 -0.65625 C 3.84375 -0.800781 4.117188 -1.050781 4.265625 -1.40625 C 4.421875 -1.757812 4.5 -2.3125 4.5 -3.0625 Z M 4.5 -11.546875 "/></g></g></g><g fill="#697054" fill-opacity="1"><g transform="translate(16.618058, 35.641639)"><g><path d="M 6.703125 8.03125 C 6.523438 8.488281 6.257812 8.789062 5.90625 8.9375 L 2.796875 10.421875 L 2.765625 10.421875 C 2.691406 10.421875 2.628906 10.382812 2.578125 10.3125 C 2.523438 10.25 2.507812 10.195312 2.53125 10.15625 L 12.390625 -11.015625 C 12.484375 -11.191406 12.429688 -11.28125 12.234375 -11.28125 C 8.648438 -11.28125 6.160156 -11.226562 4.765625 -11.125 C 3.378906 -11.03125 2.453125 -10.816406 1.984375 -10.484375 C 1.515625 -10.160156 1.171875 -9.570312 0.953125 -8.71875 C 0.898438 -8.664062 0.832031 -8.640625 0.75 -8.640625 C 0.675781 -8.640625 0.609375 -8.65625 0.546875 -8.6875 C 0.484375 -8.726562 0.46875 -8.773438 0.5 -8.828125 L 2.203125 -15.640625 C 2.222656 -15.691406 2.304688 -15.710938 2.453125 -15.703125 C 2.609375 -15.691406 2.675781 -15.660156 2.65625 -15.609375 C 2.625 -15.503906 2.609375 -15.375 2.609375 -15.21875 C 2.609375 -14.96875 2.726562 -14.804688 2.96875 -14.734375 C 3.207031 -14.660156 3.695312 -14.625 4.4375 -14.625 L 14.46875 -14.625 C 14.570312 -14.625 14.664062 -14.566406 14.75 -14.453125 C 14.84375 -14.335938 14.863281 -14.226562 14.8125 -14.125 Z M 6.703125 8.03125 "/></g></g></g><g fill="#697054" fill-opacity="1"><g transform="translate(36.652634, 35.641639)"><g><path d="M 3.984375 -10.21875 C 3.273438 -10.21875 2.710938 -10.425781 2.296875 -10.84375 C 1.878906 -11.257812 1.671875 -11.820312 1.671875 -12.53125 C 1.671875 -13.1875 1.878906 -13.71875 2.296875 -14.125 C 2.710938 -14.53125 3.273438 -14.734375 3.984375 -14.734375 C 4.679688 -14.734375 5.226562 -14.535156 5.625 -14.140625 C 6.019531 -13.753906 6.21875 -13.21875 6.21875 -12.53125 C 6.21875 -11.800781 6.019531 -11.234375 5.625 -10.828125 C 5.226562 -10.421875 4.679688 -10.21875 3.984375 -10.21875 Z M 3.984375 0.421875 C 3.273438 0.421875 2.710938 0.210938 2.296875 -0.203125 C 1.878906 -0.617188 1.671875 -1.179688 1.671875 -1.890625 C 1.671875 -2.546875 1.878906 -3.078125 2.296875 -3.484375 C 2.710938 -3.890625 3.273438 -4.09375 3.984375 -4.09375 C 4.679688 -4.09375 5.226562 -3.894531 5.625 -3.5 C 6.019531 -3.113281 6.21875 -2.578125 6.21875 -1.890625 C 6.21875 -1.160156 6.019531 -0.59375 5.625 -0.1875 C 5.226562 0.214844 4.679688 0.421875 3.984375 0.421875 Z M 3.984375 0.421875 "/></g></g></g><g fill="#697054" fill-opacity="1"><g transform="translate(48.280681, 35.641639)"><g><path d="M 8.40625 -4.96875 C 10.175781 -4.6875 11.507812 -4.039062 12.40625 -3.03125 C 13.300781 -2.019531 13.75 -0.855469 13.75 0.453125 C 13.75 1.640625 13.328125 2.851562 12.484375 4.09375 C 11.640625 5.332031 10.335938 6.5 8.578125 7.59375 C 6.828125 8.6875 4.648438 9.628906 2.046875 10.421875 C 1.941406 10.441406 1.859375 10.390625 1.796875 10.265625 C 1.734375 10.140625 1.753906 10.050781 1.859375 10 C 4.609375 8.882812 6.585938 7.5 7.796875 5.84375 C 9.015625 4.195312 9.625 2.566406 9.625 0.953125 C 9.625 -0.535156 9.242188 -1.726562 8.484375 -2.625 C 7.722656 -3.53125 6.703125 -3.984375 5.421875 -3.984375 C 4.910156 -3.984375 4.390625 -3.90625 3.859375 -3.75 C 3.785156 -3.726562 3.722656 -3.789062 3.671875 -3.9375 C 3.617188 -4.09375 3.632812 -4.179688 3.71875 -4.203125 C 5.476562 -4.660156 6.757812 -5.347656 7.5625 -6.265625 C 8.375 -7.191406 8.78125 -8.488281 8.78125 -10.15625 C 8.78125 -11.414062 8.59375 -12.378906 8.21875 -13.046875 C 7.84375 -13.710938 7.285156 -14.046875 6.546875 -14.046875 C 5.492188 -14.046875 4.53125 -13.679688 3.65625 -12.953125 C 2.78125 -12.222656 2.066406 -11.160156 1.515625 -9.765625 C 1.515625 -9.742188 1.460938 -9.734375 1.359375 -9.734375 C 1.128906 -9.734375 1.03125 -9.785156 1.0625 -9.890625 L 2.46875 -15.421875 C 2.507812 -15.460938 2.554688 -15.484375 2.609375 -15.484375 C 2.691406 -15.484375 2.769531 -15.460938 2.84375 -15.421875 C 2.914062 -15.390625 2.941406 -15.363281 2.921875 -15.34375 C 2.867188 -15.132812 2.84375 -14.992188 2.84375 -14.921875 C 2.84375 -14.492188 3.054688 -14.28125 3.484375 -14.28125 C 3.785156 -14.28125 4.210938 -14.378906 4.765625 -14.578125 C 5.378906 -14.753906 5.898438 -14.882812 6.328125 -14.96875 C 6.753906 -15.0625 7.242188 -15.109375 7.796875 -15.109375 C 9.316406 -15.109375 10.5 -14.6875 11.34375 -13.84375 C 12.1875 -13 12.609375 -11.984375 12.609375 -10.796875 C 12.609375 -9.578125 12.234375 -8.429688 11.484375 -7.359375 C 10.742188 -6.285156 9.71875 -5.488281 8.40625 -4.96875 Z M 8.40625 -4.96875 "/></g></g></g><g fill="#697054" fill-opacity="1"><g transform="translate(66.98988, 35.641639)"><g><path d="M 9.09375 0.5 C 7.519531 0.5 6.117188 0.160156 4.890625 -0.515625 C 3.671875 -1.203125 2.710938 -2.144531 2.015625 -3.34375 C 1.328125 -4.550781 0.984375 -5.898438 0.984375 -7.390625 C 0.984375 -8.878906 1.328125 -10.207031 2.015625 -11.375 C 2.710938 -12.550781 3.671875 -13.46875 4.890625 -14.125 C 6.117188 -14.78125 7.519531 -15.109375 9.09375 -15.109375 C 10.65625 -15.109375 12.039062 -14.773438 13.25 -14.109375 C 14.46875 -13.441406 15.410156 -12.515625 16.078125 -11.328125 C 16.742188 -10.140625 17.078125 -8.800781 17.078125 -7.3125 C 17.078125 -5.820312 16.734375 -4.484375 16.046875 -3.296875 C 15.367188 -2.109375 14.425781 -1.175781 13.21875 -0.5 C 12.007812 0.164062 10.632812 0.5 9.09375 0.5 Z M 9.46875 -0.296875 C 10.632812 -0.296875 11.507812 -0.863281 12.09375 -2 C 12.6875 -3.144531 12.984375 -4.738281 12.984375 -6.78125 C 12.984375 -9.332031 12.585938 -11.222656 11.796875 -12.453125 C 11.003906 -13.691406 10 -14.3125 8.78125 -14.3125 C 7.59375 -14.3125 6.671875 -13.722656 6.015625 -12.546875 C 5.359375 -11.378906 5.03125 -9.796875 5.03125 -7.796875 C 5.03125 -5.554688 5.4375 -3.742188 6.25 -2.359375 C 7.0625 -0.984375 8.132812 -0.296875 9.46875 -0.296875 Z M 9.46875 -0.296875 "/></g></g></g></g></g><g transform="matrix(1, 0, 0, 1, 190, 384)"><g clip-path="url(#51a7dcd262)"><g fill="#697054" fill-opacity="1"><g transform="translate(2.071773, 35.641639)"><g><path d="M 4.5 -11.546875 C 4.5 -12.328125 4.4375 -12.894531 4.3125 -13.25 C 4.1875 -13.601562 3.921875 -13.84375 3.515625 -13.96875 C 3.117188 -14.101562 2.476562 -14.171875 1.59375 -14.171875 C 1.539062 -14.171875 1.515625 -14.242188 1.515625 -14.390625 C 1.515625 -14.546875 1.539062 -14.625 1.59375 -14.625 C 2.425781 -14.625 3.066406 -14.609375 3.515625 -14.578125 L 6.28125 -14.546875 L 9.015625 -14.578125 C 9.492188 -14.609375 10.148438 -14.625 10.984375 -14.625 C 11.054688 -14.625 11.09375 -14.546875 11.09375 -14.390625 C 11.09375 -14.242188 11.054688 -14.171875 10.984375 -14.171875 C 10.148438 -14.171875 9.53125 -14.097656 9.125 -13.953125 C 8.71875 -13.816406 8.4375 -13.570312 8.28125 -13.21875 C 8.132812 -12.863281 8.0625 -12.304688 8.0625 -11.546875 L 8.0625 -3.0625 C 8.0625 -2.28125 8.125 -1.710938 8.25 -1.359375 C 8.382812 -1.003906 8.648438 -0.765625 9.046875 -0.640625 C 9.453125 -0.515625 10.097656 -0.453125 10.984375 -0.453125 C 11.054688 -0.453125 11.09375 -0.375 11.09375 -0.21875 C 11.09375 -0.0703125 11.054688 0 10.984375 0 C 10.148438 0 9.503906 -0.0078125 9.046875 -0.03125 L 6.28125 -0.078125 L 3.5625 -0.03125 C 3.082031 -0.0078125 2.425781 0 1.59375 0 C 1.539062 0 1.515625 -0.0703125 1.515625 -0.21875 C 1.515625 -0.375 1.539062 -0.453125 1.59375 -0.453125 C 2.425781 -0.453125 3.039062 -0.519531 3.4375 -0.65625 C 3.84375 -0.800781 4.117188 -1.050781 4.265625 -1.40625 C 4.421875 -1.757812 4.5 -2.3125 4.5 -3.0625 Z M 4.5 -11.546875 "/></g></g></g><g fill="#697054" fill-opacity="1"><g transform="translate(18.433236, 35.641639)"><g><path d="M 6.703125 8.03125 C 6.523438 8.488281 6.257812 8.789062 5.90625 8.9375 L 2.796875 10.421875 L 2.765625 10.421875 C 2.691406 10.421875 2.628906 10.382812 2.578125 10.3125 C 2.523438 10.25 2.507812 10.195312 2.53125 10.15625 L 12.390625 -11.015625 C 12.484375 -11.191406 12.429688 -11.28125 12.234375 -11.28125 C 8.648438 -11.28125 6.160156 -11.226562 4.765625 -11.125 C 3.378906 -11.03125 2.453125 -10.816406 1.984375 -10.484375 C 1.515625 -10.160156 1.171875 -9.570312 0.953125 -8.71875 C 0.898438 -8.664062 0.832031 -8.640625 0.75 -8.640625 C 0.675781 -8.640625 0.609375 -8.65625 0.546875 -8.6875 C 0.484375 -8.726562 0.46875 -8.773438 0.5 -8.828125 L 2.203125 -15.640625 C 2.222656 -15.691406 2.304688 -15.710938 2.453125 -15.703125 C 2.609375 -15.691406 2.675781 -15.660156 2.65625 -15.609375 C 2.625 -15.503906 2.609375 -15.375 2.609375 -15.21875 C 2.609375 -14.96875 2.726562 -14.804688 2.96875 -14.734375 C 3.207031 -14.660156 3.695312 -14.625 4.4375 -14.625 L 14.46875 -14.625 C 14.570312 -14.625 14.664062 -14.566406 14.75 -14.453125 C 14.84375 -14.335938 14.863281 -14.226562 14.8125 -14.125 Z M 6.703125 8.03125 "/></g></g></g><g fill="#697054" fill-opacity="1"><g transform="translate(38.467811, 35.641639)"><g><path d="M 3.984375 -10.21875 C 3.273438 -10.21875 2.710938 -10.425781 2.296875 -10.84375 C 1.878906 -11.257812 1.671875 -11.820312 1.671875 -12.53125 C 1.671875 -13.1875 1.878906 -13.71875 2.296875 -14.125 C 2.710938 -14.53125 3.273438 -14.734375 3.984375 -14.734375 C 4.679688 -14.734375 5.226562 -14.535156 5.625 -14.140625 C 6.019531 -13.753906 6.21875 -13.21875 6.21875 -12.53125 C 6.21875 -11.800781 6.019531 -11.234375 5.625 -10.828125 C 5.226562 -10.421875 4.679688 -10.21875 3.984375 -10.21875 Z M 3.984375 0.421875 C 3.273438 0.421875 2.710938 0.210938 2.296875 -0.203125 C 1.878906 -0.617188 1.671875 -1.179688 1.671875 -1.890625 C 1.671875 -2.546875 1.878906 -3.078125 2.296875 -3.484375 C 2.710938 -3.890625 3.273438 -4.09375 3.984375 -4.09375 C 4.679688 -4.09375 5.226562 -3.894531 5.625 -3.5 C 6.019531 -3.113281 6.21875 -2.578125 6.21875 -1.890625 C 6.21875 -1.160156 6.019531 -0.59375 5.625 -0.1875 C 5.226562 0.214844 4.679688 0.421875 3.984375 0.421875 Z M 3.984375 0.421875 "/></g></g></g><g fill="#697054" fill-opacity="1"><g transform="translate(50.095858, 35.641639)"><g><path d="M 9.09375 0.5 C 7.519531 0.5 6.117188 0.160156 4.890625 -0.515625 C 3.671875 -1.203125 2.710938 -2.144531 2.015625 -3.34375 C 1.328125 -4.550781 0.984375 -5.898438 0.984375 -7.390625 C 0.984375 -8.878906 1.328125 -10.207031 2.015625 -11.375 C 2.710938 -12.550781 3.671875 -13.46875 4.890625 -14.125 C 6.117188 -14.78125 7.519531 -15.109375 9.09375 -15.109375 C 10.65625 -15.109375 12.039062 -14.773438 13.25 -14.109375 C 14.46875 -13.441406 15.410156 -12.515625 16.078125 -11.328125 C 16.742188 -10.140625 17.078125 -8.800781 17.078125 -7.3125 C 17.078125 -5.820312 16.734375 -4.484375 16.046875 -3.296875 C 15.367188 -2.109375 14.425781 -1.175781 13.21875 -0.5 C 12.007812 0.164062 10.632812 0.5 9.09375 0.5 Z M 9.46875 -0.296875 C 10.632812 -0.296875 11.507812 -0.863281 12.09375 -2 C 12.6875 -3.144531 12.984375 -4.738281 12.984375 -6.78125 C 12.984375 -9.332031 12.585938 -11.222656 11.796875 -12.453125 C 11.003906 -13.691406 10 -14.3125 8.78125 -14.3125 C 7.59375 -14.3125 6.671875 -13.722656 6.015625 -12.546875 C 5.359375 -11.378906 5.03125 -9.796875 5.03125 -7.796875 C 5.03125 -5.554688 5.4375 -3.742188 6.25 -2.359375 C 7.0625 -0.984375 8.132812 -0.296875 9.46875 -0.296875 Z M 9.46875 -0.296875 "/></g></g></g><g fill="#697054" fill-opacity="1"><g transform="translate(71.948051, 35.641639)"><g><path d="M 9.09375 0.5 C 7.519531 0.5 6.117188 0.160156 4.890625 -0.515625 C 3.671875 -1.203125 2.710938 -2.144531 2.015625 -3.34375 C 1.328125 -4.550781 0.984375 -5.898438 0.984375 -7.390625 C 0.984375 -8.878906 1.328125 -10.207031 2.015625 -11.375 C 2.710938 -12.550781 3.671875 -13.46875 4.890625 -14.125 C 6.117188 -14.78125 7.519531 -15.109375 9.09375 -15.109375 C 10.65625 -15.109375 12.039062 -14.773438 13.25 -14.109375 C 14.46875 -13.441406 15.410156 -12.515625 16.078125 -11.328125 C 16.742188 -10.140625 17.078125 -8.800781 17.078125 -7.3125 C 17.078125 -5.820312 16.734375 -4.484375 16.046875 -3.296875 C 15.367188 -2.109375 14.425781 -1.175781 13.21875 -0.5 C 12.007812 0.164062 10.632812 0.5 9.09375 0.5 Z M 9.46875 -0.296875 C 10.632812 -0.296875 11.507812 -0.863281 12.09375 -2 C 12.6875 -3.144531 12.984375 -4.738281 12.984375 -6.78125 C 12.984375 -9.332031 12.585938 -11.222656 11.796875 -12.453125 C 11.003906 -13.691406 10 -14.3125 8.78125 -14.3125 C 7.59375 -14.3125 6.671875 -13.722656 6.015625 -12.546875 C 5.359375 -11.378906 5.03125 -9.796875 5.03125 -7.796875 C 5.03125 -5.554688 5.4375 -3.742188 6.25 -2.359375 C 7.0625 -0.984375 8.132812 -0.296875 9.46875 -0.296875 Z M 9.46875 -0.296875 "/></g></g></g></g></g><g transform="matrix(1, 0, 0, 1, 326, 384)"><g clip-path="url(#e4b4a54f12)"><g fill="#697054" fill-opacity="1"><g transform="translate(2.318875, 35.641639)"><g><path d="M 4.5 -11.546875 C 4.5 -12.328125 4.4375 -12.894531 4.3125 -13.25 C 4.1875 -13.601562 3.921875 -13.84375 3.515625 -13.96875 C 3.117188 -14.101562 2.476562 -14.171875 1.59375 -14.171875 C 1.539062 -14.171875 1.515625 -14.242188 1.515625 -14.390625 C 1.515625 -14.546875 1.539062 -14.625 1.59375 -14.625 C 2.425781 -14.625 3.066406 -14.609375 3.515625 -14.578125 L 6.28125 -14.546875 L 9.015625 -14.578125 C 9.492188 -14.609375 10.148438 -14.625 10.984375 -14.625 C 11.054688 -14.625 11.09375 -14.546875 11.09375 -14.390625 C 11.09375 -14.242188 11.054688 -14.171875 10.984375 -14.171875 C 10.148438 -14.171875 9.53125 -14.097656 9.125 -13.953125 C 8.71875 -13.816406 8.4375 -13.570312 8.28125 -13.21875 C 8.132812 -12.863281 8.0625 -12.304688 8.0625 -11.546875 L 8.0625 -3.0625 C 8.0625 -2.28125 8.125 -1.710938 8.25 -1.359375 C 8.382812 -1.003906 8.648438 -0.765625 9.046875 -0.640625 C 9.453125 -0.515625 10.097656 -0.453125 10.984375 -0.453125 C 11.054688 -0.453125 11.09375 -0.375 11.09375 -0.21875 C 11.09375 -0.0703125 11.054688 0 10.984375 0 C 10.148438 0 9.503906 -0.0078125 9.046875 -0.03125 L 6.28125 -0.078125 L 3.5625 -0.03125 C 3.082031 -0.0078125 2.425781 0 1.59375 0 C 1.539062 0 1.515625 -0.0703125 1.515625 -0.21875 C 1.515625 -0.375 1.539062 -0.453125 1.59375 -0.453125 C 2.425781 -0.453125 3.039062 -0.519531 3.4375 -0.65625 C 3.84375 -0.800781 4.117188 -1.050781 4.265625 -1.40625 C 4.421875 -1.757812 4.5 -2.3125 4.5 -3.0625 Z M 4.5 -11.546875 "/></g></g></g><g fill="#697054" fill-opacity="1"><g transform="translate(18.680338, 35.641639)"><g><path d="M 6.703125 8.03125 C 6.523438 8.488281 6.257812 8.789062 5.90625 8.9375 L 2.796875 10.421875 L 2.765625 10.421875 C 2.691406 10.421875 2.628906 10.382812 2.578125 10.3125 C 2.523438 10.25 2.507812 10.195312 2.53125 10.15625 L 12.390625 -11.015625 C 12.484375 -11.191406 12.429688 -11.28125 12.234375 -11.28125 C 8.648438 -11.28125 6.160156 -11.226562 4.765625 -11.125 C 3.378906 -11.03125 2.453125 -10.816406 1.984375 -10.484375 C 1.515625 -10.160156 1.171875 -9.570312 0.953125 -8.71875 C 0.898438 -8.664062 0.832031 -8.640625 0.75 -8.640625 C 0.675781 -8.640625 0.609375 -8.65625 0.546875 -8.6875 C 0.484375 -8.726562 0.46875 -8.773438 0.5 -8.828125 L 2.203125 -15.640625 C 2.222656 -15.691406 2.304688 -15.710938 2.453125 -15.703125 C 2.609375 -15.691406 2.675781 -15.660156 2.65625 -15.609375 C 2.625 -15.503906 2.609375 -15.375 2.609375 -15.21875 C 2.609375 -14.96875 2.726562 -14.804688 2.96875 -14.734375 C 3.207031 -14.660156 3.695312 -14.625 4.4375 -14.625 L 14.46875 -14.625 C 14.570312 -14.625 14.664062 -14.566406 14.75 -14.453125 C 14.84375 -14.335938 14.863281 -14.226562 14.8125 -14.125 Z M 6.703125 8.03125 "/></g></g></g><g fill="#697054" fill-opacity="1"><g transform="translate(38.714913, 35.641639)"><g><path d="M 3.984375 -10.21875 C 3.273438 -10.21875 2.710938 -10.425781 2.296875 -10.84375 C 1.878906 -11.257812 1.671875 -11.820312 1.671875 -12.53125 C 1.671875 -13.1875 1.878906 -13.71875 2.296875 -14.125 C 2.710938 -14.53125 3.273438 -14.734375 3.984375 -14.734375 C 4.679688 -14.734375 5.226562 -14.535156 5.625 -14.140625 C 6.019531 -13.753906 6.21875 -13.21875 6.21875 -12.53125 C 6.21875 -11.800781 6.019531 -11.234375 5.625 -10.828125 C 5.226562 -10.421875 4.679688 -10.21875 3.984375 -10.21875 Z M 3.984375 0.421875 C 3.273438 0.421875 2.710938 0.210938 2.296875 -0.203125 C 1.878906 -0.617188 1.671875 -1.179688 1.671875 -1.890625 C 1.671875 -2.546875 1.878906 -3.078125 2.296875 -3.484375 C 2.710938 -3.890625 3.273438 -4.09375 3.984375 -4.09375 C 4.679688 -4.09375 5.226562 -3.894531 5.625 -3.5 C 6.019531 -3.113281 6.21875 -2.578125 6.21875 -1.890625 C 6.21875 -1.160156 6.019531 -0.59375 5.625 -0.1875 C 5.226562 0.214844 4.679688 0.421875 3.984375 0.421875 Z M 3.984375 0.421875 "/></g></g></g><g fill="#697054" fill-opacity="1"><g transform="translate(50.34296, 35.641639)"><g><path d="M 9.09375 0.5 C 7.519531 0.5 6.117188 0.160156 4.890625 -0.515625 C 3.671875 -1.203125 2.710938 -2.144531 2.015625 -3.34375 C 1.328125 -4.550781 0.984375 -5.898438 0.984375 -7.390625 C 0.984375 -8.878906 1.328125 -10.207031 2.015625 -11.375 C 2.710938 -12.550781 3.671875 -13.46875 4.890625 -14.125 C 6.117188 -14.78125 7.519531 -15.109375 9.09375 -15.109375 C 10.65625 -15.109375 12.039062 -14.773438 13.25 -14.109375 C 14.46875 -13.441406 15.410156 -12.515625 16.078125 -11.328125 C 16.742188 -10.140625 17.078125 -8.800781 17.078125 -7.3125 C 17.078125 -5.820312 16.734375 -4.484375 16.046875 -3.296875 C 15.367188 -2.109375 14.425781 -1.175781 13.21875 -0.5 C 12.007812 0.164062 10.632812 0.5 9.09375 0.5 Z M 9.46875 -0.296875 C 10.632812 -0.296875 11.507812 -0.863281 12.09375 -2 C 12.6875 -3.144531 12.984375 -4.738281 12.984375 -6.78125 C 12.984375 -9.332031 12.585938 -11.222656 11.796875 -12.453125 C 11.003906 -13.691406 10 -14.3125 8.78125 -14.3125 C 7.59375 -14.3125 6.671875 -13.722656 6.015625 -12.546875 C 5.359375 -11.378906 5.03125 -9.796875 5.03125 -7.796875 C 5.03125 -5.554688 5.4375 -3.742188 6.25 -2.359375 C 7.0625 -0.984375 8.132812 -0.296875 9.46875 -0.296875 Z M 9.46875 -0.296875 "/></g></g></g><g fill="#697054" fill-opacity="1"><g transform="translate(72.195153, 35.641639)"><g><path d="M 9.09375 0.5 C 7.519531 0.5 6.117188 0.160156 4.890625 -0.515625 C 3.671875 -1.203125 2.710938 -2.144531 2.015625 -3.34375 C 1.328125 -4.550781 0.984375 -5.898438 0.984375 -7.390625 C 0.984375 -8.878906 1.328125 -10.207031 2.015625 -11.375 C 2.710938 -12.550781 3.671875 -13.46875 4.890625 -14.125 C 6.117188 -14.78125 7.519531 -15.109375 9.09375 -15.109375 C 10.65625 -15.109375 12.039062 -14.773438 13.25 -14.109375 C 14.46875 -13.441406 15.410156 -12.515625 16.078125 -11.328125 C 16.742188 -10.140625 17.078125 -8.800781 17.078125 -7.3125 C 17.078125 -5.820312 16.734375 -4.484375 16.046875 -3.296875 C 15.367188 -2.109375 14.425781 -1.175781 13.21875 -0.5 C 12.007812 0.164062 10.632812 0.5 9.09375 0.5 Z M 9.46875 -0.296875 C 10.632812 -0.296875 11.507812 -0.863281 12.09375 -2 C 12.6875 -3.144531 12.984375 -4.738281 12.984375 -6.78125 C 12.984375 -9.332031 12.585938 -11.222656 11.796875 -12.453125 C 11.003906 -13.691406 10 -14.3125 8.78125 -14.3125 C 7.59375 -14.3125 6.671875 -13.722656 6.015625 -12.546875 C 5.359375 -11.378906 5.03125 -9.796875 5.03125 -7.796875 C 5.03125 -5.554688 5.4375 -3.742188 6.25 -2.359375 C 7.0625 -0.984375 8.132812 -0.296875 9.46875 -0.296875 Z M 9.46875 -0.296875 "/></g></g></g><g fill="#697054" fill-opacity="1"><g transform="translate(94.047345, 35.641639)"><g><path d="M 11.9375 -8.03125 C 12.613281 -8.03125 13.144531 -8.15625 13.53125 -8.40625 C 13.925781 -8.65625 14.328125 -9.007812 14.734375 -9.46875 L 14.8125 -9.5 C 14.863281 -9.5 14.910156 -9.460938 14.953125 -9.390625 C 15.003906 -9.316406 15.019531 -9.253906 15 -9.203125 C 14.007812 -7.640625 13.210938 -6.59375 12.609375 -6.0625 C 12.003906 -5.53125 11.335938 -5.265625 10.609375 -5.265625 C 10.179688 -5.265625 9.78125 -5.3125 9.40625 -5.40625 C 9.039062 -5.507812 8.53125 -5.675781 7.875 -5.90625 C 6.71875 -6.382812 5.722656 -6.625 4.890625 -6.625 C 4.285156 -6.625 3.816406 -6.535156 3.484375 -6.359375 C 3.148438 -6.179688 2.851562 -5.957031 2.59375 -5.6875 C 2.332031 -5.425781 2.160156 -5.257812 2.078125 -5.1875 L 2.046875 -5.1875 C 1.992188 -5.1875 1.9375 -5.21875 1.875 -5.28125 C 1.8125 -5.34375 1.789062 -5.398438 1.8125 -5.453125 C 3.40625 -8.078125 4.960938 -9.390625 6.484375 -9.390625 C 6.804688 -9.390625 7.171875 -9.328125 7.578125 -9.203125 C 7.984375 -9.078125 8.382812 -8.9375 8.78125 -8.78125 C 9.414062 -8.53125 9.972656 -8.34375 10.453125 -8.21875 C 10.929688 -8.09375 11.425781 -8.03125 11.9375 -8.03125 Z M 11.9375 -8.03125 "/></g></g></g><g fill="#697054" fill-opacity="1"><g transform="translate(114.612041, 35.641639)"><g><path d="M 4.5 -11.546875 C 4.5 -12.328125 4.4375 -12.894531 4.3125 -13.25 C 4.1875 -13.601562 3.921875 -13.84375 3.515625 -13.96875 C 3.117188 -14.101562 2.476562 -14.171875 1.59375 -14.171875 C 1.539062 -14.171875 1.515625 -14.242188 1.515625 -14.390625 C 1.515625 -14.546875 1.539062 -14.625 1.59375 -14.625 C 2.425781 -14.625 3.066406 -14.609375 3.515625 -14.578125 L 6.28125 -14.546875 L 9.015625 -14.578125 C 9.492188 -14.609375 10.148438 -14.625 10.984375 -14.625 C 11.054688 -14.625 11.09375 -14.546875 11.09375 -14.390625 C 11.09375 -14.242188 11.054688 -14.171875 10.984375 -14.171875 C 10.148438 -14.171875 9.53125 -14.097656 9.125 -13.953125 C 8.71875 -13.816406 8.4375 -13.570312 8.28125 -13.21875 C 8.132812 -12.863281 8.0625 -12.304688 8.0625 -11.546875 L 8.0625 -3.0625 C 8.0625 -2.28125 8.125 -1.710938 8.25 -1.359375 C 8.382812 -1.003906 8.648438 -0.765625 9.046875 -0.640625 C 9.453125 -0.515625 10.097656 -0.453125 10.984375 -0.453125 C 11.054688 -0.453125 11.09375 -0.375 11.09375 -0.21875 C 11.09375 -0.0703125 11.054688 0 10.984375 0 C 10.148438 0 9.503906 -0.0078125 9.046875 -0.03125 L 6.28125 -0.078125 L 3.5625 -0.03125 C 3.082031 -0.0078125 2.425781 0 1.59375 0 C 1.539062 0 1.515625 -0.0703125 1.515625 -0.21875 C 1.515625 -0.375 1.539062 -0.453125 1.59375 -0.453125 C 2.425781 -0.453125 3.039062 -0.519531 3.4375 -0.65625 C 3.84375 -0.800781 4.117188 -1.050781 4.265625 -1.40625 C 4.421875 -1.757812 4.5 -2.3125 4.5 -3.0625 Z M 4.5 -11.546875 "/></g></g></g><g fill="#697054" fill-opacity="1"><g transform="translate(130.973503, 35.641639)"><g><path d="M 6.703125 8.03125 C 6.523438 8.488281 6.257812 8.789062 5.90625 8.9375 L 2.796875 10.421875 L 2.765625 10.421875 C 2.691406 10.421875 2.628906 10.382812 2.578125 10.3125 C 2.523438 10.25 2.507812 10.195312 2.53125 10.15625 L 12.390625 -11.015625 C 12.484375 -11.191406 12.429688 -11.28125 12.234375 -11.28125 C 8.648438 -11.28125 6.160156 -11.226562 4.765625 -11.125 C 3.378906 -11.03125 2.453125 -10.816406 1.984375 -10.484375 C 1.515625 -10.160156 1.171875 -9.570312 0.953125 -8.71875 C 0.898438 -8.664062 0.832031 -8.640625 0.75 -8.640625 C 0.675781 -8.640625 0.609375 -8.65625 0.546875 -8.6875 C 0.484375 -8.726562 0.46875 -8.773438 0.5 -8.828125 L 2.203125 -15.640625 C 2.222656 -15.691406 2.304688 -15.710938 2.453125 -15.703125 C 2.609375 -15.691406 2.675781 -15.660156 2.65625 -15.609375 C 2.625 -15.503906 2.609375 -15.375 2.609375 -15.21875 C 2.609375 -14.96875 2.726562 -14.804688 2.96875 -14.734375 C 3.207031 -14.660156 3.695312 -14.625 4.4375 -14.625 L 14.46875 -14.625 C 14.570312 -14.625 14.664062 -14.566406 14.75 -14.453125 C 14.84375 -14.335938 14.863281 -14.226562 14.8125 -14.125 Z M 6.703125 8.03125 "/></g></g></g><g fill="#697054" fill-opacity="1"><g transform="translate(151.008079, 35.641639)"><g><path d="M 3.984375 -10.21875 C 3.273438 -10.21875 2.710938 -10.425781 2.296875 -10.84375 C 1.878906 -11.257812 1.671875 -11.820312 1.671875 -12.53125 C 1.671875 -13.1875 1.878906 -13.71875 2.296875 -14.125 C 2.710938 -14.53125 3.273438 -14.734375 3.984375 -14.734375 C 4.679688 -14.734375 5.226562 -14.535156 5.625 -14.140625 C 6.019531 -13.753906 6.21875 -13.21875 6.21875 -12.53125 C 6.21875 -11.800781 6.019531 -11.234375 5.625 -10.828125 C 5.226562 -10.421875 4.679688 -10.21875 3.984375 -10.21875 Z M 3.984375 0.421875 C 3.273438 0.421875 2.710938 0.210938 2.296875 -0.203125 C 1.878906 -0.617188 1.671875 -1.179688 1.671875 -1.890625 C 1.671875 -2.546875 1.878906 -3.078125 2.296875 -3.484375 C 2.710938 -3.890625 3.273438 -4.09375 3.984375 -4.09375 C 4.679688 -4.09375 5.226562 -3.894531 5.625 -3.5 C 6.019531 -3.113281 6.21875 -2.578125 6.21875 -1.890625 C 6.21875 -1.160156 6.019531 -0.59375 5.625 -0.1875 C 5.226562 0.214844 4.679688 0.421875 3.984375 0.421875 Z M 3.984375 0.421875 "/></g></g></g><g fill="#697054" fill-opacity="1"><g transform="translate(162.636126, 35.641639)"><g><path d="M 8.40625 -4.96875 C 10.175781 -4.6875 11.507812 -4.039062 12.40625 -3.03125 C 13.300781 -2.019531 13.75 -0.855469 13.75 0.453125 C 13.75 1.640625 13.328125 2.851562 12.484375 4.09375 C 11.640625 5.332031 10.335938 6.5 8.578125 7.59375 C 6.828125 8.6875 4.648438 9.628906 2.046875 10.421875 C 1.941406 10.441406 1.859375 10.390625 1.796875 10.265625 C 1.734375 10.140625 1.753906 10.050781 1.859375 10 C 4.609375 8.882812 6.585938 7.5 7.796875 5.84375 C 9.015625 4.195312 9.625 2.566406 9.625 0.953125 C 9.625 -0.535156 9.242188 -1.726562 8.484375 -2.625 C 7.722656 -3.53125 6.703125 -3.984375 5.421875 -3.984375 C 4.910156 -3.984375 4.390625 -3.90625 3.859375 -3.75 C 3.785156 -3.726562 3.722656 -3.789062 3.671875 -3.9375 C 3.617188 -4.09375 3.632812 -4.179688 3.71875 -4.203125 C 5.476562 -4.660156 6.757812 -5.347656 7.5625 -6.265625 C 8.375 -7.191406 8.78125 -8.488281 8.78125 -10.15625 C 8.78125 -11.414062 8.59375 -12.378906 8.21875 -13.046875 C 7.84375 -13.710938 7.285156 -14.046875 6.546875 -14.046875 C 5.492188 -14.046875 4.53125 -13.679688 3.65625 -12.953125 C 2.78125 -12.222656 2.066406 -11.160156 1.515625 -9.765625 C 1.515625 -9.742188 1.460938 -9.734375 1.359375 -9.734375 C 1.128906 -9.734375 1.03125 -9.785156 1.0625 -9.890625 L 2.46875 -15.421875 C 2.507812 -15.460938 2.554688 -15.484375 2.609375 -15.484375 C 2.691406 -15.484375 2.769531 -15.460938 2.84375 -15.421875 C 2.914062 -15.390625 2.941406 -15.363281 2.921875 -15.34375 C 2.867188 -15.132812 2.84375 -14.992188 2.84375 -14.921875 C 2.84375 -14.492188 3.054688 -14.28125 3.484375 -14.28125 C 3.785156 -14.28125 4.210938 -14.378906 4.765625 -14.578125 C 5.378906 -14.753906 5.898438 -14.882812 6.328125 -14.96875 C 6.753906 -15.0625 7.242188 -15.109375 7.796875 -15.109375 C 9.316406 -15.109375 10.5 -14.6875 11.34375 -13.84375 C 12.1875 -13 12.609375 -11.984375 12.609375 -10.796875 C 12.609375 -9.578125 12.234375 -8.429688 11.484375 -7.359375 C 10.742188 -6.285156 9.71875 -5.488281 8.40625 -4.96875 Z M 8.40625 -4.96875 "/></g></g></g><g fill="#697054" fill-opacity="1"><g transform="translate(181.345325, 35.641639)"><g><path d="M 9.09375 0.5 C 7.519531 0.5 6.117188 0.160156 4.890625 -0.515625 C 3.671875 -1.203125 2.710938 -2.144531 2.015625 -3.34375 C 1.328125 -4.550781 0.984375 -5.898438 0.984375 -7.390625 C 0.984375 -8.878906 1.328125 -10.207031 2.015625 -11.375 C 2.710938 -12.550781 3.671875 -13.46875 4.890625 -14.125 C 6.117188 -14.78125 7.519531 -15.109375 9.09375 -15.109375 C 10.65625 -15.109375 12.039062 -14.773438 13.25 -14.109375 C 14.46875 -13.441406 15.410156 -12.515625 16.078125 -11.328125 C 16.742188 -10.140625 17.078125 -8.800781 17.078125 -7.3125 C 17.078125 -5.820312 16.734375 -4.484375 16.046875 -3.296875 C 15.367188 -2.109375 14.425781 -1.175781 13.21875 -0.5 C 12.007812 0.164062 10.632812 0.5 9.09375 0.5 Z M 9.46875 -0.296875 C 10.632812 -0.296875 11.507812 -0.863281 12.09375 -2 C 12.6875 -3.144531 12.984375 -4.738281 12.984375 -6.78125 C 12.984375 -9.332031 12.585938 -11.222656 11.796875 -12.453125 C 11.003906 -13.691406 10 -14.3125 8.78125 -14.3125 C 7.59375 -14.3125 6.671875 -13.722656 6.015625 -12.546875 C 5.359375 -11.378906 5.03125 -9.796875 5.03125 -7.796875 C 5.03125 -5.554688 5.4375 -3.742188 6.25 -2.359375 C 7.0625 -0.984375 8.132812 -0.296875 9.46875 -0.296875 Z M 9.46875 -0.296875 "/></g></g></g></g></g><g transform="matrix(1, 0, 0, 1, 152, 435)"><g clip-path="url(#5627782b7d)"><g fill="#697054" fill-opacity="1"><g transform="translate(2.192063, 26.013578)"><g><path d="M 3.8125 0.84375 C 2.90625 1.601562 2.203125 1.484375 1.703125 0.484375 C 1.316406 -0.292969 1.476562 -0.929688 2.1875 -1.421875 C 3.40625 -2.296875 4.367188 -3.035156 5.078125 -3.640625 L 5.078125 -7.875 C 5.078125 -8.34375 4.847656 -8.578125 4.390625 -8.578125 L 2.828125 -8.578125 C 2.003906 -8.578125 1.59375 -8.988281 1.59375 -9.8125 C 1.59375 -10.632812 2.003906 -11.046875 2.828125 -11.046875 L 6.234375 -11.046875 C 6.671875 -11.046875 7.015625 -10.921875 7.265625 -10.671875 C 7.515625 -10.421875 7.640625 -10.078125 7.640625 -9.640625 L 7.640625 -3.84375 C 8.910156 -1.9375 11.179688 -0.925781 14.453125 -0.8125 C 18.109375 -0.695312 21.957031 -0.734375 26 -0.921875 C 26.613281 -0.941406 27.003906 -0.835938 27.171875 -0.609375 C 27.347656 -0.390625 27.34375 0.015625 27.15625 0.609375 C 27.039062 0.992188 26.882812 1.265625 26.6875 1.421875 C 26.5 1.585938 26.210938 1.679688 25.828125 1.703125 C 21.265625 1.859375 17.472656 1.878906 14.453125 1.765625 C 12.609375 1.660156 11.0625 1.359375 9.8125 0.859375 C 8.5 0.328125 7.398438 -0.488281 6.515625 -1.59375 C 6.003906 -1.101562 5.207031 -0.386719 4.125 0.546875 C 3.988281 0.679688 3.882812 0.78125 3.8125 0.84375 Z M 18.765625 -1.703125 C 17.953125 -1.703125 17.546875 -2.109375 17.546875 -2.921875 L 17.546875 -22.046875 C 16.234375 -21.296875 14.6875 -20.578125 12.90625 -19.890625 L 12.90625 -7.9375 C 13.320312 -8.03125 13.957031 -8.203125 14.8125 -8.453125 C 15.0625 -8.515625 15.242188 -8.5625 15.359375 -8.59375 C 16.140625 -8.8125 16.585938 -8.503906 16.703125 -7.671875 C 16.804688 -6.984375 16.519531 -6.550781 15.84375 -6.375 C 14.84375 -6.082031 13.390625 -5.660156 11.484375 -5.109375 C 10.929688 -4.953125 10.53125 -4.835938 10.28125 -4.765625 C 9.539062 -4.546875 9.070312 -4.835938 8.875 -5.640625 C 8.6875 -6.441406 8.976562 -6.9375 9.75 -7.125 C 9.832031 -7.144531 9.953125 -7.171875 10.109375 -7.203125 C 10.273438 -7.242188 10.394531 -7.273438 10.46875 -7.296875 L 10.46875 -20.953125 C 10.46875 -21.253906 10.554688 -21.46875 10.734375 -21.59375 C 10.910156 -21.71875 11.140625 -21.742188 11.421875 -21.671875 L 11.515625 -21.640625 C 12.609375 -22.117188 13.628906 -22.660156 14.578125 -23.265625 C 14.941406 -23.535156 15.363281 -23.640625 15.84375 -23.578125 C 16.320312 -23.515625 16.742188 -23.285156 17.109375 -22.890625 L 17.75 -22.25 L 24.296875 -22.25 C 24.859375 -22.25 25.3125 -22.078125 25.65625 -21.734375 C 26 -21.390625 26.171875 -20.9375 26.171875 -20.375 L 26.171875 -7.5625 C 26.171875 -6.96875 26.101562 -6.503906 25.96875 -6.171875 C 25.832031 -5.804688 25.582031 -5.53125 25.21875 -5.34375 C 24.800781 -5.113281 24.097656 -4.976562 23.109375 -4.9375 C 22.242188 -4.894531 21.707031 -5.191406 21.5 -5.828125 C 21.207031 -6.753906 21.660156 -7.195312 22.859375 -7.15625 C 22.929688 -7.15625 23.035156 -7.164062 23.171875 -7.1875 C 23.253906 -7.1875 23.3125 -7.1875 23.34375 -7.1875 C 23.59375 -7.1875 23.71875 -7.320312 23.71875 -7.59375 L 23.71875 -19.28125 C 23.71875 -19.738281 23.488281 -19.96875 23.03125 -19.96875 L 19.96875 -19.96875 L 19.96875 -2.921875 C 19.96875 -2.109375 19.566406 -1.703125 18.765625 -1.703125 Z M 7.390625 -14.046875 C 6.753906 -13.378906 6.140625 -13.332031 5.546875 -13.90625 C 5.328125 -14.101562 4.976562 -14.375 4.5 -14.71875 C 4.425781 -14.78125 4.367188 -14.816406 4.328125 -14.828125 C 3.828125 -15.191406 3.363281 -15.5 2.9375 -15.75 C 2.070312 -16.238281 2 -16.835938 2.71875 -17.546875 C 3.175781 -18.003906 3.6875 -18.09375 4.25 -17.8125 C 5.476562 -17.132812 6.550781 -16.421875 7.46875 -15.671875 C 7.757812 -15.398438 7.894531 -15.140625 7.875 -14.890625 C 7.851562 -14.640625 7.691406 -14.359375 7.390625 -14.046875 Z M 7.390625 -19.140625 C 7.097656 -19.097656 6.800781 -19.238281 6.5 -19.5625 C 5.820312 -20.175781 5.003906 -20.8125 4.046875 -21.46875 C 3.640625 -21.71875 3.414062 -22 3.375 -22.3125 C 3.332031 -22.632812 3.488281 -22.953125 3.84375 -23.265625 C 4.300781 -23.679688 4.789062 -23.753906 5.3125 -23.484375 C 5.976562 -23.109375 6.582031 -22.71875 7.125 -22.3125 C 7.664062 -21.945312 8.085938 -21.617188 8.390625 -21.328125 C 8.929688 -20.785156 8.894531 -20.226562 8.28125 -19.65625 C 7.9375 -19.320312 7.640625 -19.148438 7.390625 -19.140625 Z M 7.390625 -19.140625 "/></g></g></g><g fill="#697054" fill-opacity="1"><g transform="translate(34.511155, 26.013578)"><g><path d="M 25.3125 1.8125 C 24.832031 2.164062 24.367188 2.242188 23.921875 2.046875 C 22.265625 1.335938 20.332031 0.632812 18.125 -0.0625 C 17.550781 -0.226562 17.222656 -0.460938 17.140625 -0.765625 C 17.066406 -1.066406 17.234375 -1.390625 17.640625 -1.734375 L 17.6875 -1.796875 L 11 -1.796875 L 11.921875 -1.15625 C 12.148438 -1 12.269531 -0.835938 12.28125 -0.671875 C 12.289062 -0.515625 12.195312 -0.382812 12 -0.28125 C 9.84375 0.726562 7.238281 1.535156 4.1875 2.140625 C 3.644531 2.210938 3.203125 2.066406 2.859375 1.703125 C 2.085938 0.890625 2.304688 0.359375 3.515625 0.109375 C 6.148438 -0.441406 8.25 -1.078125 9.8125 -1.796875 L 7.640625 -1.796875 C 7.085938 -1.796875 6.632812 -1.96875 6.28125 -2.3125 C 5.9375 -2.65625 5.765625 -3.109375 5.765625 -3.671875 L 5.765625 -10.5 C 5.003906 -10.425781 4.253906 -10.34375 3.515625 -10.25 C 2.847656 -10.164062 2.335938 -10.394531 1.984375 -10.9375 C 1.679688 -11.4375 1.609375 -11.8125 1.765625 -12.0625 C 1.929688 -12.3125 2.328125 -12.453125 2.953125 -12.484375 C 3.578125 -12.515625 4.226562 -12.578125 4.90625 -12.671875 C 4.832031 -12.765625 4.710938 -12.898438 4.546875 -13.078125 C 4.378906 -13.265625 4.257812 -13.398438 4.1875 -13.484375 C 3.800781 -13.828125 3.878906 -14.101562 4.421875 -14.3125 C 5.992188 -14.945312 7.175781 -15.582031 7.96875 -16.21875 C 8.3125 -16.507812 8.742188 -16.578125 9.265625 -16.421875 C 10.203125 -16.128906 10.351562 -15.664062 9.71875 -15.03125 C 8.71875 -14.1875 7.601562 -13.445312 6.375 -12.8125 C 8.757812 -13.082031 11.03125 -13.445312 13.1875 -13.90625 L 13.1875 -16.703125 L 7.796875 -16.703125 C 7.160156 -16.703125 6.84375 -17.03125 6.84375 -17.6875 C 6.84375 -18.320312 7.160156 -18.640625 7.796875 -18.640625 L 21.125 -18.640625 C 21.757812 -18.640625 22.078125 -18.320312 22.078125 -17.6875 C 22.078125 -17.03125 21.757812 -16.703125 21.125 -16.703125 L 15.5625 -16.703125 L 15.5625 -14.484375 C 17.476562 -15.046875 19.046875 -15.65625 20.265625 -16.3125 C 20.679688 -16.5625 21.148438 -16.550781 21.671875 -16.28125 C 22.671875 -15.757812 22.726562 -15.226562 21.84375 -14.6875 C 20.226562 -13.820312 18.285156 -13.070312 16.015625 -12.4375 L 21.703125 -12.4375 C 22.265625 -12.4375 22.71875 -12.265625 23.0625 -11.921875 C 23.40625 -11.578125 23.578125 -11.125 23.578125 -10.5625 L 23.578125 -3.671875 C 23.578125 -3.109375 23.40625 -2.65625 23.0625 -2.3125 C 22.71875 -1.96875 22.265625 -1.796875 21.703125 -1.796875 L 19.28125 -1.796875 C 21.582031 -1.097656 23.613281 -0.449219 25.375 0.140625 C 25.96875 0.367188 26.242188 0.617188 26.203125 0.890625 C 26.179688 1.117188 25.882812 1.425781 25.3125 1.8125 Z M 9.03125 -3.34375 L 20.203125 -3.34375 C 20.660156 -3.34375 20.890625 -3.578125 20.890625 -4.046875 L 20.890625 -4.90625 L 8.34375 -4.90625 L 8.34375 -4.046875 C 8.34375 -3.578125 8.570312 -3.34375 9.03125 -3.34375 Z M 8.34375 -6.375 L 20.890625 -6.375 L 20.890625 -7.90625 L 8.34375 -7.90625 Z M 8.34375 -9.40625 L 20.890625 -9.40625 L 20.890625 -10.21875 C 20.890625 -10.632812 20.679688 -10.84375 20.265625 -10.84375 L 8.34375 -10.84375 Z M 3.921875 -17.0625 C 3.117188 -17.0625 2.71875 -17.460938 2.71875 -18.265625 L 2.71875 -20.28125 C 2.71875 -20.84375 2.882812 -21.289062 3.21875 -21.625 C 3.550781 -21.96875 4 -22.140625 4.5625 -22.140625 L 13.078125 -22.140625 L 13.078125 -22.890625 C 13.078125 -23.773438 13.53125 -24.21875 14.4375 -24.21875 C 15.3125 -24.21875 15.75 -23.773438 15.75 -22.890625 L 15.75 -22.140625 L 24.359375 -22.140625 C 24.910156 -22.140625 25.359375 -21.960938 25.703125 -21.609375 C 26.054688 -21.265625 26.234375 -20.816406 26.234375 -20.265625 L 26.234375 -18.328125 C 26.234375 -17.484375 25.8125 -17.0625 24.96875 -17.0625 C 24.113281 -17.0625 23.6875 -17.484375 23.6875 -18.328125 L 23.6875 -19.25 C 23.6875 -19.707031 23.457031 -19.9375 23 -19.9375 L 5.828125 -19.9375 C 5.367188 -19.9375 5.140625 -19.707031 5.140625 -19.25 L 5.140625 -18.265625 C 5.140625 -17.460938 4.734375 -17.0625 3.921875 -17.0625 Z M 3.921875 -17.0625 "/></g></g></g><g fill="#697054" fill-opacity="1"><g transform="translate(66.830248, 26.013578)"><g><path d="M 4.8125 1.46875 C 4.0625 1.96875 3.351562 1.929688 2.6875 1.359375 C 1.707031 0.492188 1.820312 -0.300781 3.03125 -1.03125 C 7.4375 -3.9375 10.457031 -8.625 12.09375 -15.09375 C 12.363281 -16.132812 12.941406 -16.578125 13.828125 -16.421875 L 13.90625 -16.390625 C 13.71875 -17.503906 13.59375 -18.648438 13.53125 -19.828125 L 8.109375 -19.828125 C 7.203125 -19.828125 6.75 -20.28125 6.75 -21.1875 C 6.75 -22.09375 7.203125 -22.546875 8.109375 -22.546875 L 14.28125 -22.546875 C 14.800781 -22.546875 15.265625 -22.398438 15.671875 -22.109375 C 16.015625 -21.835938 16.1875 -21.554688 16.1875 -21.265625 C 16.382812 -12.679688 19.453125 -6.148438 25.390625 -1.671875 C 26.003906 -1.242188 26.4375 -0.800781 26.6875 -0.34375 C 26.976562 0.226562 26.921875 0.726562 26.515625 1.15625 C 25.878906 1.832031 25.0625 1.84375 24.0625 1.1875 C 19.351562 -2.175781 16.207031 -6.898438 14.625 -12.984375 C 12.664062 -6.523438 9.394531 -1.707031 4.8125 1.46875 Z M 4.8125 1.46875 "/></g></g></g><g fill="#697054" fill-opacity="1"><g transform="translate(99.149341, 26.013578)"><g><path d="M 21.90625 2.1875 C 21.070312 2.175781 20.59375 1.800781 20.46875 1.0625 L 20.46875 1.03125 L 20.4375 0.984375 C 20.144531 0.328125 20.429688 0.03125 21.296875 0.09375 C 21.566406 0.101562 21.882812 0.109375 22.25 0.109375 C 22.675781 0.109375 22.972656 0.00390625 23.140625 -0.203125 C 23.546875 -0.679688 23.894531 -2.335938 24.1875 -5.171875 C 24.21875 -5.648438 24.1875 -5.984375 24.09375 -6.171875 C 24.019531 -6.328125 23.859375 -6.40625 23.609375 -6.40625 L 22.5625 -6.40625 C 22.039062 -4.882812 21.347656 -3.40625 20.484375 -1.96875 C 19.585938 -0.476562 18.628906 0.742188 17.609375 1.703125 C 17.316406 1.953125 17.054688 2.078125 16.828125 2.078125 C 16.597656 2.097656 16.328125 1.984375 16.015625 1.734375 C 15.609375 1.421875 15.410156 1.128906 15.421875 0.859375 C 15.429688 0.597656 15.640625 0.300781 16.046875 -0.03125 C 17.796875 -1.601562 19.226562 -3.726562 20.34375 -6.40625 L 18.09375 -6.40625 C 17.40625 -5.132812 16.523438 -3.875 15.453125 -2.625 C 14.390625 -1.375 13.289062 -0.316406 12.15625 0.546875 C 11.820312 0.753906 11.539062 0.859375 11.3125 0.859375 C 11.0625 0.847656 10.800781 0.71875 10.53125 0.46875 C 10.144531 0.113281 9.972656 -0.191406 10.015625 -0.453125 C 10.054688 -0.722656 10.304688 -0.992188 10.765625 -1.265625 C 12.648438 -2.554688 14.296875 -4.269531 15.703125 -6.40625 L 13.28125 -6.40625 C 12.46875 -5.476562 11.597656 -4.671875 10.671875 -3.984375 C 10.097656 -3.535156 9.539062 -3.554688 9 -4.046875 C 8.613281 -4.390625 8.460938 -4.707031 8.546875 -5 C 8.597656 -5.257812 8.847656 -5.546875 9.296875 -5.859375 C 10.960938 -7.066406 12.316406 -8.546875 13.359375 -10.296875 L 10.84375 -10.296875 C 10.09375 -10.296875 9.71875 -10.679688 9.71875 -11.453125 C 9.71875 -12.203125 10.09375 -12.578125 10.84375 -12.578125 L 26.4375 -12.578125 C 27.1875 -12.578125 27.5625 -12.203125 27.5625 -11.453125 C 27.5625 -10.679688 27.1875 -10.296875 26.4375 -10.296875 L 16.015625 -10.296875 C 15.722656 -9.703125 15.378906 -9.128906 14.984375 -8.578125 L 25 -8.578125 C 25.625 -8.578125 26.070312 -8.332031 26.34375 -7.84375 C 26.65625 -7.3125 26.753906 -6.410156 26.640625 -5.140625 C 26.441406 -3.097656 26.226562 -1.585938 26 -0.609375 C 25.789062 0.335938 25.519531 0.984375 25.1875 1.328125 C 24.789062 1.765625 24.222656 2.035156 23.484375 2.140625 C 22.953125 2.171875 22.425781 2.1875 21.90625 2.1875 Z M 3.34375 -3.296875 C 2.539062 -2.910156 1.960938 -3.175781 1.609375 -4.09375 C 1.441406 -4.539062 1.40625 -4.898438 1.5 -5.171875 C 1.59375 -5.453125 1.851562 -5.679688 2.28125 -5.859375 C 3.03125 -6.160156 3.875 -6.523438 4.8125 -6.953125 L 4.8125 -15.5625 L 2.9375 -15.5625 C 2.09375 -15.5625 1.671875 -15.984375 1.671875 -16.828125 C 1.671875 -17.671875 2.09375 -18.09375 2.9375 -18.09375 L 4.8125 -18.09375 L 4.8125 -22.6875 C 4.8125 -23.507812 5.226562 -23.921875 6.0625 -23.921875 C 6.882812 -23.921875 7.296875 -23.507812 7.296875 -22.6875 L 7.296875 -18.09375 L 8.890625 -18.09375 C 9.734375 -18.09375 10.15625 -17.671875 10.15625 -16.828125 C 10.15625 -15.984375 9.734375 -15.5625 8.890625 -15.5625 L 7.296875 -15.5625 L 7.296875 -8.046875 C 7.398438 -8.085938 7.554688 -8.15625 7.765625 -8.25 C 8.148438 -8.445312 8.445312 -8.59375 8.65625 -8.6875 C 9.5 -9.070312 10.03125 -8.8125 10.25 -7.90625 C 10.394531 -7.226562 10.160156 -6.726562 9.546875 -6.40625 C 8.972656 -6.113281 8.097656 -5.671875 6.921875 -5.078125 C 5.285156 -4.253906 4.09375 -3.660156 3.34375 -3.296875 Z M 14.25 -13.96875 C 13.695312 -13.96875 13.242188 -14.140625 12.890625 -14.484375 C 12.546875 -14.828125 12.375 -15.28125 12.375 -15.84375 L 12.375 -21.5625 C 12.375 -22.113281 12.546875 -22.5625 12.890625 -22.90625 C 13.242188 -23.257812 13.695312 -23.4375 14.25 -23.4375 L 23.6875 -23.4375 C 24.25 -23.4375 24.703125 -23.257812 25.046875 -22.90625 C 25.390625 -22.5625 25.5625 -22.113281 25.5625 -21.5625 L 25.5625 -15.84375 C 25.5625 -15.28125 25.390625 -14.828125 25.046875 -14.484375 C 24.703125 -14.140625 24.25 -13.96875 23.6875 -13.96875 Z M 15.46875 -15.90625 L 22.421875 -15.90625 C 22.878906 -15.90625 23.109375 -16.132812 23.109375 -16.59375 L 23.109375 -17.8125 L 14.78125 -17.8125 L 14.78125 -16.59375 C 14.78125 -16.132812 15.007812 -15.90625 15.46875 -15.90625 Z M 14.78125 -19.625 L 23.109375 -19.625 L 23.109375 -20.8125 C 23.109375 -21.269531 22.878906 -21.5 22.421875 -21.5 L 15.46875 -21.5 C 15.007812 -21.5 14.78125 -21.269531 14.78125 -20.8125 Z M 14.78125 -19.625 "/></g></g></g></g></g><g transform="matrix(1, 0, 0, 1, 568, 435)"><g clip-path="url(#e63733bde4)"><g fill="#697054" fill-opacity="1"><g transform="translate(0.370248, 26.013578)"><g><path d="M 11.078125 1.796875 C 10.046875 2.171875 9.316406 2.0625 8.890625 1.46875 C 8.554688 1.007812 8.546875 0.585938 8.859375 0.203125 C 9.109375 -0.117188 9.550781 -0.398438 10.1875 -0.640625 C 12.09375 -1.441406 13.601562 -2.46875 14.71875 -3.71875 C 15.738281 -4.875 16.488281 -6.269531 16.96875 -7.90625 L 14 -7.90625 C 13.4375 -7.90625 12.984375 -8.078125 12.640625 -8.421875 C 12.296875 -8.773438 12.125 -9.226562 12.125 -9.78125 L 12.125 -14.625 L 11.828125 -14.375 C 11.734375 -14.28125 11.65625 -14.28125 11.59375 -14.375 C 11.269531 -14.78125 10.859375 -15.203125 10.359375 -15.640625 L 10.359375 -5.109375 C 10.359375 -4.546875 10.1875 -4.09375 9.84375 -3.75 C 9.5 -3.40625 9.046875 -3.234375 8.484375 -3.234375 L 4.21875 -3.234375 C 3.65625 -3.234375 3.203125 -3.40625 2.859375 -3.75 C 2.515625 -4.09375 2.34375 -4.546875 2.34375 -5.109375 L 2.34375 -20.203125 C 2.34375 -20.753906 2.515625 -21.203125 2.859375 -21.546875 C 3.203125 -21.898438 3.65625 -22.078125 4.21875 -22.078125 L 8.484375 -22.078125 C 9.046875 -22.078125 9.5 -21.898438 9.84375 -21.546875 C 10.1875 -21.203125 10.359375 -20.753906 10.359375 -20.203125 L 10.359375 -16.453125 C 12.378906 -18.242188 13.992188 -20.523438 15.203125 -23.296875 C 15.335938 -23.617188 15.519531 -23.832031 15.75 -23.9375 C 15.988281 -24.039062 16.300781 -24.066406 16.6875 -24.015625 C 17.6875 -23.878906 17.984375 -23.347656 17.578125 -22.421875 C 17.515625 -22.265625 17.410156 -22.035156 17.265625 -21.734375 L 21.5 -21.734375 C 22.15625 -21.734375 22.609375 -21.53125 22.859375 -21.125 C 23.109375 -20.71875 23.097656 -20.148438 22.828125 -19.421875 C 22.421875 -18.554688 21.921875 -17.71875 21.328125 -16.90625 L 24.671875 -16.90625 C 25.234375 -16.90625 25.6875 -16.734375 26.03125 -16.390625 C 26.375 -16.046875 26.546875 -15.59375 26.546875 -15.03125 L 26.546875 -9.78125 C 26.546875 -9.226562 26.375 -8.773438 26.03125 -8.421875 C 25.6875 -8.078125 25.234375 -7.90625 24.671875 -7.90625 L 21.765625 -7.90625 L 21.765625 -1.46875 C 21.765625 -1.082031 21.804688 -0.835938 21.890625 -0.734375 C 21.972656 -0.628906 22.179688 -0.578125 22.515625 -0.578125 L 24.609375 -0.578125 C 24.804688 -0.578125 24.957031 -0.625 25.0625 -0.71875 C 25.164062 -0.8125 25.25 -1.015625 25.3125 -1.328125 C 25.351562 -2.003906 25.5 -2.570312 25.75 -3.03125 C 26.050781 -3.570312 26.429688 -3.734375 26.890625 -3.515625 C 27.179688 -3.378906 27.382812 -3.0625 27.5 -2.5625 C 27.582031 -2.164062 27.601562 -1.742188 27.5625 -1.296875 C 27.40625 -0.109375 27.125 0.71875 26.71875 1.1875 C 26.332031 1.601562 25.71875 1.8125 24.875 1.8125 L 22.140625 1.8125 C 20.984375 1.8125 20.210938 1.582031 19.828125 1.125 C 19.441406 0.6875 19.25 -0.164062 19.25 -1.4375 L 19.25 -6.8125 C 18.632812 -4.84375 17.71875 -3.1875 16.5 -1.84375 C 15.15625 -0.363281 13.347656 0.847656 11.078125 1.796875 Z M 5.390625 -5.59375 L 7.265625 -5.59375 C 7.734375 -5.59375 7.96875 -5.828125 7.96875 -6.296875 L 7.96875 -11.59375 L 4.703125 -11.59375 L 4.703125 -6.296875 C 4.703125 -5.828125 4.929688 -5.59375 5.390625 -5.59375 Z M 15.15625 -10.125 L 17.484375 -10.125 C 17.679688 -11.28125 17.828125 -12.800781 17.921875 -14.6875 L 14.453125 -14.6875 L 14.453125 -10.828125 C 14.453125 -10.359375 14.6875 -10.125 15.15625 -10.125 Z M 20 -10.125 L 23.40625 -10.125 C 23.863281 -10.125 24.09375 -10.359375 24.09375 -10.828125 L 24.09375 -14 C 24.09375 -14.457031 23.863281 -14.6875 23.40625 -14.6875 L 20.4375 -14.6875 C 20.332031 -12.820312 20.1875 -11.300781 20 -10.125 Z M 4.703125 -13.9375 L 7.96875 -13.9375 L 7.96875 -19.015625 C 7.96875 -19.484375 7.734375 -19.71875 7.265625 -19.71875 L 5.390625 -19.71875 C 4.929688 -19.71875 4.703125 -19.484375 4.703125 -19.015625 Z M 14.234375 -16.90625 L 18.640625 -16.90625 C 19.085938 -17.488281 19.632812 -18.347656 20.28125 -19.484375 L 16.015625 -19.484375 C 15.492188 -18.628906 14.898438 -17.769531 14.234375 -16.90625 Z M 14.234375 -16.90625 "/></g></g></g><g fill="#697054" fill-opacity="1"><g transform="translate(32.689341, 26.013578)"><g><path d="M 24.671875 1.59375 C 24.171875 2.070312 23.644531 2.1875 23.09375 1.9375 C 21.351562 1.144531 19.164062 0.371094 16.53125 -0.375 C 13.957031 0.914062 10.046875 1.769531 4.796875 2.1875 C 3.910156 2.269531 3.332031 1.992188 3.0625 1.359375 C 2.695312 0.429688 3.148438 -0.0546875 4.421875 -0.109375 C 7.941406 -0.328125 10.726562 -0.742188 12.78125 -1.359375 C 11.144531 -1.765625 9.585938 -2.097656 8.109375 -2.359375 L 8.078125 -2.34375 C 7.773438 -2.03125 7.410156 -1.929688 6.984375 -2.046875 C 5.785156 -2.359375 5.535156 -2.898438 6.234375 -3.671875 C 6.804688 -4.304688 7.375 -4.957031 7.9375 -5.625 L 2.9375 -5.625 C 2.1875 -5.625 1.8125 -6.007812 1.8125 -6.78125 C 1.8125 -7.53125 2.1875 -7.90625 2.9375 -7.90625 L 9.84375 -7.90625 C 10.207031 -8.40625 10.601562 -8.914062 11.03125 -9.4375 L 8.421875 -9.4375 C 7.867188 -9.4375 7.414062 -9.609375 7.0625 -9.953125 C 6.71875 -10.296875 6.546875 -10.75 6.546875 -11.3125 L 6.546875 -16.1875 C 6.546875 -16.75 6.71875 -17.203125 7.0625 -17.546875 C 7.414062 -17.890625 7.867188 -18.0625 8.421875 -18.0625 L 20.375 -18.0625 C 20.9375 -18.0625 21.390625 -17.890625 21.734375 -17.546875 C 22.078125 -17.203125 22.25 -16.75 22.25 -16.1875 L 22.25 -11.3125 C 22.25 -10.75 22.078125 -10.296875 21.734375 -9.953125 C 21.390625 -9.609375 20.9375 -9.4375 20.375 -9.4375 L 14.234375 -9.4375 C 13.960938 -9.113281 13.554688 -8.601562 13.015625 -7.90625 L 25.796875 -7.90625 C 26.546875 -7.90625 26.921875 -7.53125 26.921875 -6.78125 C 26.921875 -6.007812 26.546875 -5.625 25.796875 -5.625 L 21.875 -5.625 C 21.238281 -4.257812 20.316406 -3.054688 19.109375 -2.015625 C 21.023438 -1.460938 22.84375 -0.859375 24.5625 -0.203125 C 25.101562 0.0234375 25.375 0.285156 25.375 0.578125 C 25.375 0.828125 25.140625 1.164062 24.671875 1.59375 Z M 16.109375 -2.828125 C 17.316406 -3.554688 18.265625 -4.488281 18.953125 -5.625 L 11.046875 -5.625 C 10.472656 -4.96875 10.050781 -4.488281 9.78125 -4.1875 C 11.875 -3.820312 13.984375 -3.367188 16.109375 -2.828125 Z M 9.75 -11.203125 L 18.953125 -11.203125 C 19.421875 -11.203125 19.65625 -11.429688 19.65625 -11.890625 L 19.65625 -12.921875 L 9.0625 -12.921875 L 9.0625 -11.890625 C 9.0625 -11.429688 9.289062 -11.203125 9.75 -11.203125 Z M 9.0625 -14.609375 L 19.65625 -14.609375 L 19.65625 -15.609375 C 19.65625 -16.078125 19.421875 -16.3125 18.953125 -16.3125 L 9.75 -16.3125 C 9.289062 -16.3125 9.0625 -16.078125 9.0625 -15.609375 Z M 3.515625 -16.5625 C 2.671875 -16.5625 2.25 -16.984375 2.25 -17.828125 L 2.25 -20.265625 C 2.25 -20.816406 2.421875 -21.265625 2.765625 -21.609375 C 3.117188 -21.960938 3.570312 -22.140625 4.125 -22.140625 L 13.015625 -22.140625 L 13.015625 -22.859375 C 13.015625 -23.765625 13.46875 -24.21875 14.375 -24.21875 C 15.28125 -24.21875 15.734375 -23.765625 15.734375 -22.859375 L 15.734375 -22.140625 L 24.796875 -22.140625 C 25.347656 -22.140625 25.796875 -21.960938 26.140625 -21.609375 C 26.492188 -21.265625 26.671875 -20.816406 26.671875 -20.265625 L 26.671875 -17.890625 C 26.671875 -17.003906 26.226562 -16.5625 25.34375 -16.5625 C 24.457031 -16.5625 24.015625 -17.003906 24.015625 -17.890625 L 24.015625 -19.140625 C 24.015625 -19.597656 23.78125 -19.828125 23.3125 -19.828125 L 5.484375 -19.828125 C 5.023438 -19.828125 4.796875 -19.597656 4.796875 -19.140625 L 4.796875 -17.828125 C 4.796875 -16.984375 4.367188 -16.5625 3.515625 -16.5625 Z M 3.515625 -16.5625 "/></g></g></g><g fill="#697054" fill-opacity="1"><g transform="translate(65.008434, 26.013578)"><g><path d="M 4.015625 2.28125 C 3.128906 2.28125 2.6875 1.847656 2.6875 0.984375 L 2.6875 -21.1875 C 2.6875 -21.738281 2.859375 -22.1875 3.203125 -22.53125 C 3.546875 -22.882812 4 -23.0625 4.5625 -23.0625 L 11.40625 -23.0625 C 11.957031 -23.0625 12.40625 -22.882812 12.75 -22.53125 C 13.101562 -22.1875 13.28125 -21.738281 13.28125 -21.1875 L 13.28125 -15.09375 C 13.28125 -14.53125 13.101562 -14.078125 12.75 -13.734375 C 12.40625 -13.390625 11.957031 -13.21875 11.40625 -13.21875 L 5.3125 -13.21875 L 5.3125 0.984375 C 5.3125 1.847656 4.878906 2.28125 4.015625 2.28125 Z M 9.84375 1.359375 C 9.144531 1.910156 8.546875 1.957031 8.046875 1.5 C 7.410156 0.882812 7.535156 0.222656 8.421875 -0.484375 C 9.421875 -1.566406 10.019531 -2.882812 10.21875 -4.4375 L 8.078125 -4.4375 C 7.347656 -4.4375 6.984375 -4.8125 6.984375 -5.5625 C 6.984375 -6.300781 7.347656 -6.671875 8.078125 -6.671875 L 10.296875 -6.671875 L 10.296875 -9.40625 L 8.546875 -9.40625 C 7.828125 -9.40625 7.46875 -9.757812 7.46875 -10.46875 C 7.46875 -11.1875 7.828125 -11.546875 8.546875 -11.546875 L 20.28125 -11.546875 C 21 -11.546875 21.359375 -11.1875 21.359375 -10.46875 C 21.359375 -9.757812 21 -9.40625 20.28125 -9.40625 L 18.390625 -9.40625 L 18.390625 -6.671875 L 20.8125 -6.671875 C 21.539062 -6.671875 21.90625 -6.300781 21.90625 -5.5625 C 21.90625 -4.8125 21.539062 -4.4375 20.8125 -4.4375 L 18.390625 -4.4375 L 18.390625 0.578125 C 18.390625 1.367188 17.992188 1.765625 17.203125 1.765625 C 16.390625 1.765625 15.984375 1.367188 15.984375 0.578125 L 15.984375 -4.4375 L 12.546875 -4.4375 C 12.265625 -2.039062 11.363281 -0.105469 9.84375 1.359375 Z M 22.25 2.1875 C 21.15625 2.1875 20.492188 1.832031 20.265625 1.125 C 19.910156 0.0507812 20.476562 -0.46875 21.96875 -0.4375 C 22.351562 -0.4375 22.734375 -0.4375 23.109375 -0.4375 C 23.492188 -0.457031 23.6875 -0.65625 23.6875 -1.03125 L 23.6875 -13.15625 L 17.375 -13.15625 C 16.8125 -13.15625 16.359375 -13.328125 16.015625 -13.671875 C 15.671875 -14.023438 15.5 -14.476562 15.5 -15.03125 L 15.5 -21.1875 C 15.5 -21.738281 15.671875 -22.1875 16.015625 -22.53125 C 16.359375 -22.882812 16.8125 -23.0625 17.375 -23.0625 L 24.4375 -23.0625 C 25 -23.0625 25.453125 -22.882812 25.796875 -22.53125 C 26.140625 -22.1875 26.3125 -21.738281 26.3125 -21.1875 L 26.3125 -1.015625 C 26.3125 -0.265625 26.226562 0.3125 26.0625 0.71875 C 25.863281 1.144531 25.535156 1.472656 25.078125 1.703125 C 24.535156 1.972656 23.59375 2.132812 22.25 2.1875 Z M 12.609375 -6.671875 L 15.984375 -6.671875 L 15.984375 -9.40625 L 12.609375 -9.40625 Z M 18.734375 -15.125 L 23.6875 -15.125 L 23.6875 -17.28125 L 18.03125 -17.28125 L 18.03125 -15.8125 C 18.03125 -15.351562 18.265625 -15.125 18.734375 -15.125 Z M 5.3125 -15.1875 L 10.09375 -15.1875 C 10.5625 -15.1875 10.796875 -15.414062 10.796875 -15.875 L 10.796875 -17.28125 L 5.3125 -17.28125 Z M 5.3125 -19.140625 L 10.796875 -19.140625 L 10.796875 -20.375 C 10.796875 -20.832031 10.5625 -21.0625 10.09375 -21.0625 L 6 -21.0625 C 5.539062 -21.0625 5.3125 -20.832031 5.3125 -20.375 Z M 18.03125 -19.140625 L 23.6875 -19.140625 L 23.6875 -20.375 C 23.6875 -20.832031 23.457031 -21.0625 23 -21.0625 L 18.734375 -21.0625 C 18.265625 -21.0625 18.03125 -20.832031 18.03125 -20.375 Z M 18.03125 -19.140625 "/></g></g></g><g fill="#697054" fill-opacity="1"><g transform="translate(97.327527, 26.013578)"><g><path d="M 4.328125 1.640625 C 3.597656 2.117188 2.984375 2.046875 2.484375 1.421875 C 2.148438 0.992188 2.015625 0.617188 2.078125 0.296875 C 2.148438 -0.0117188 2.421875 -0.316406 2.890625 -0.609375 C 4.296875 -1.628906 5.503906 -3.050781 6.515625 -4.875 C 5.898438 -5.351562 5.101562 -5.941406 4.125 -6.640625 L 4.09375 -6.578125 C 3.90625 -5.867188 3.4375 -5.707031 2.6875 -6.09375 C 1.96875 -6.476562 1.675781 -6.957031 1.8125 -7.53125 C 2.394531 -9.53125 3.085938 -12.320312 3.890625 -15.90625 L 2.734375 -15.90625 C 1.910156 -15.90625 1.5 -16.316406 1.5 -17.140625 C 1.5 -17.972656 1.910156 -18.390625 2.734375 -18.390625 L 4.421875 -18.390625 C 4.609375 -19.390625 4.882812 -20.832031 5.25 -22.71875 C 5.289062 -22.882812 5.320312 -23.015625 5.34375 -23.109375 C 5.476562 -23.859375 5.945312 -24.1875 6.75 -24.09375 C 7.632812 -24.019531 7.992188 -23.5625 7.828125 -22.71875 C 7.742188 -22.363281 7.632812 -21.820312 7.5 -21.09375 C 7.25 -19.90625 7.054688 -19.003906 6.921875 -18.390625 L 10.296875 -18.390625 C 10.898438 -18.390625 11.359375 -18.203125 11.671875 -17.828125 C 11.992188 -17.453125 12.125 -16.925781 12.0625 -16.25 C 11.882812 -14.300781 11.644531 -12.597656 11.34375 -11.140625 C 10.9375 -9.023438 10.40625 -7.175781 9.75 -5.59375 C 10.8125 -4.695312 11.648438 -3.929688 12.265625 -3.296875 C 12.703125 -2.773438 12.703125 -2.222656 12.265625 -1.640625 C 11.941406 -1.203125 11.632812 -0.960938 11.34375 -0.921875 C 11.03125 -0.878906 10.710938 -1.050781 10.390625 -1.4375 C 9.910156 -1.9375 9.304688 -2.523438 8.578125 -3.203125 C 7.441406 -1.242188 6.023438 0.367188 4.328125 1.640625 Z M 15.984375 1.0625 C 15.429688 1.0625 14.976562 0.890625 14.625 0.546875 C 14.28125 0.203125 14.109375 -0.25 14.109375 -0.8125 L 14.109375 -7.59375 C 14.109375 -8.144531 14.28125 -8.59375 14.625 -8.9375 C 14.976562 -9.289062 15.429688 -9.46875 15.984375 -9.46875 L 24.5 -9.46875 C 25.0625 -9.46875 25.515625 -9.289062 25.859375 -8.9375 C 26.203125 -8.59375 26.375 -8.144531 26.375 -7.59375 L 26.375 -0.8125 C 26.375 -0.25 26.203125 0.203125 25.859375 0.546875 C 25.515625 0.890625 25.0625 1.0625 24.5 1.0625 Z M 17.3125 -1.359375 L 23.0625 -1.359375 C 23.519531 -1.359375 23.75 -1.585938 23.75 -2.046875 L 23.75 -6.3125 C 23.75 -6.78125 23.519531 -7.015625 23.0625 -7.015625 L 17.3125 -7.015625 C 16.851562 -7.015625 16.625 -6.78125 16.625 -6.3125 L 16.625 -2.046875 C 16.625 -1.585938 16.851562 -1.359375 17.3125 -1.359375 Z M 7.59375 -7.1875 C 8.09375 -8.414062 8.492188 -9.753906 8.796875 -11.203125 C 9.085938 -12.546875 9.3125 -13.875 9.46875 -15.1875 C 9.519531 -15.664062 9.316406 -15.90625 8.859375 -15.90625 L 6.375 -15.90625 C 6.007812 -14.363281 5.472656 -12.140625 4.765625 -9.234375 C 4.742188 -9.171875 4.734375 -9.125 4.734375 -9.09375 C 6.003906 -8.300781 6.957031 -7.664062 7.59375 -7.1875 Z M 26.984375 -11.546875 C 26.117188 -11.078125 25.519531 -11.28125 25.1875 -12.15625 C 25.175781 -12.226562 25.132812 -12.335938 25.0625 -12.484375 C 25 -12.628906 24.945312 -12.738281 24.90625 -12.8125 C 23.09375 -12.65625 20.414062 -12.460938 16.875 -12.234375 C 15.363281 -12.140625 14.269531 -12.0625 13.59375 -12 C 13.164062 -11.988281 12.867188 -12.078125 12.703125 -12.265625 C 12.546875 -12.421875 12.445312 -12.726562 12.40625 -13.1875 C 12.332031 -14.09375 12.738281 -14.554688 13.625 -14.578125 L 14.546875 -14.625 C 15.597656 -17.28125 16.484375 -20.050781 17.203125 -22.9375 C 17.316406 -23.40625 17.507812 -23.710938 17.78125 -23.859375 C 18.050781 -24.015625 18.425781 -24.046875 18.90625 -23.953125 C 19.945312 -23.765625 20.289062 -23.164062 19.9375 -22.15625 C 18.90625 -19.15625 17.984375 -16.707031 17.171875 -14.8125 L 20.4375 -14.984375 L 23.6875 -15.1875 C 23.15625 -16.082031 22.640625 -16.90625 22.140625 -17.65625 C 21.671875 -18.351562 21.820312 -18.90625 22.59375 -19.3125 C 23.1875 -19.613281 23.707031 -19.488281 24.15625 -18.9375 C 25.789062 -16.695312 26.960938 -14.703125 27.671875 -12.953125 C 27.785156 -12.609375 27.785156 -12.332031 27.671875 -12.125 C 27.578125 -11.945312 27.347656 -11.753906 26.984375 -11.546875 Z M 26.984375 -11.546875 "/></g></g></g></g></g><g transform="matrix(1, 0, 0, 1, 346, 435)"><g clip-path="url(#53d4619f0a)"><g fill="#697054" fill-opacity="1"><g transform="translate(1.100828, 26.013578)"><g><path d="M 3.78125 1.8125 C 2.957031 2.125 2.351562 2.019531 1.96875 1.5 C 1.445312 0.75 1.8125 0.152344 3.0625 -0.28125 C 4.75 -1.113281 5.851562 -2.335938 6.375 -3.953125 L 2.59375 -3.953125 C 1.925781 -3.953125 1.59375 -4.285156 1.59375 -4.953125 C 1.59375 -5.628906 1.925781 -5.96875 2.59375 -5.96875 L 6.8125 -5.96875 C 6.851562 -6.257812 6.890625 -6.710938 6.921875 -7.328125 C 6.941406 -7.597656 6.960938 -7.800781 6.984375 -7.9375 L 2.890625 -7.765625 C 2.191406 -7.742188 1.816406 -8.078125 1.765625 -8.765625 C 1.703125 -9.503906 2.019531 -9.882812 2.71875 -9.90625 C 2.925781 -9.914062 3.25 -9.921875 3.6875 -9.921875 C 4.132812 -9.941406 4.472656 -9.953125 4.703125 -9.953125 C 4.816406 -10.066406 5 -10.242188 5.25 -10.484375 C 5.5 -10.722656 5.691406 -10.90625 5.828125 -11.03125 C 5.003906 -11.851562 4.148438 -12.609375 3.265625 -13.296875 C 2.742188 -13.703125 2.703125 -14.164062 3.140625 -14.6875 C 3.523438 -15.132812 3.957031 -15.203125 4.4375 -14.890625 C 4.457031 -14.867188 4.488281 -14.84375 4.53125 -14.8125 C 4.570312 -14.789062 4.601562 -14.769531 4.625 -14.75 C 5.101562 -15.382812 5.648438 -16.226562 6.265625 -17.28125 C 6.453125 -17.664062 6.785156 -17.785156 7.265625 -17.640625 L 7.359375 -17.609375 C 7.296875 -18.390625 7.132812 -19.148438 6.875 -19.890625 C 6.769531 -20.140625 6.851562 -20.289062 7.125 -20.34375 L 7.21875 -20.375 C 7.65625 -20.46875 8.054688 -20.375 8.421875 -20.09375 C 8.753906 -19.800781 8.976562 -19.414062 9.09375 -18.9375 C 9.1875 -18.550781 9.175781 -18.210938 9.0625 -17.921875 C 8.925781 -17.597656 8.6875 -17.382812 8.34375 -17.28125 L 8.28125 -17.28125 L 8.625 -17.171875 C 8.757812 -17.128906 8.78125 -17.0625 8.6875 -16.96875 C 7.625 -15.507812 6.75 -14.40625 6.0625 -13.65625 C 6.519531 -13.269531 6.929688 -12.910156 7.296875 -12.578125 C 7.972656 -13.390625 8.648438 -14.226562 9.328125 -15.09375 C 9.691406 -15.550781 10.171875 -15.65625 10.765625 -15.40625 C 11.585938 -15.039062 11.691406 -14.523438 11.078125 -13.859375 C 9.535156 -12.222656 8.273438 -10.953125 7.296875 -10.046875 L 10.828125 -10.15625 C 10.765625 -10.21875 10.695312 -10.304688 10.625 -10.421875 C 10.582031 -10.472656 10.550781 -10.507812 10.53125 -10.53125 C 10.050781 -11.09375 10.140625 -11.566406 10.796875 -11.953125 C 11.273438 -12.222656 11.707031 -12.15625 12.09375 -11.75 C 12.863281 -10.863281 13.523438 -9.96875 14.078125 -9.0625 C 14.367188 -8.5625 14.226562 -8.128906 13.65625 -7.765625 C 13.039062 -7.359375 12.554688 -7.492188 12.203125 -8.171875 C 10.921875 -8.109375 9.648438 -8.050781 8.390625 -8 L 8.953125 -8 C 9.210938 -8 9.328125 -7.863281 9.296875 -7.59375 C 9.273438 -7.207031 9.222656 -6.664062 9.140625 -5.96875 L 13.28125 -5.96875 C 13.945312 -5.96875 14.28125 -5.628906 14.28125 -4.953125 C 14.28125 -4.285156 13.945312 -3.953125 13.28125 -3.953125 L 8.796875 -3.953125 L 8.65625 -3.484375 C 10.96875 -2.085938 12.601562 -0.972656 13.5625 -0.140625 C 13.8125 0.0859375 13.914062 0.316406 13.875 0.546875 C 13.863281 0.742188 13.722656 0.976562 13.453125 1.25 C 13.179688 1.53125 12.941406 1.703125 12.734375 1.765625 C 12.515625 1.796875 12.269531 1.695312 12 1.46875 C 10.96875 0.53125 9.59375 -0.488281 7.875 -1.59375 C 7.070312 -0.144531 5.707031 0.988281 3.78125 1.8125 Z M 17.4375 0.953125 C 16.875 0.953125 16.421875 0.773438 16.078125 0.421875 C 15.734375 0.078125 15.5625 -0.367188 15.5625 -0.921875 L 15.5625 -12.46875 C 15.539062 -12.445312 15.515625 -12.410156 15.484375 -12.359375 C 15.453125 -12.316406 15.425781 -12.273438 15.40625 -12.234375 C 14.769531 -11.304688 14.109375 -11.238281 13.421875 -12.03125 C 13.109375 -12.375 12.9375 -12.691406 12.90625 -12.984375 C 12.882812 -13.273438 13.007812 -13.601562 13.28125 -13.96875 C 14.832031 -16.21875 16.070312 -19.171875 17 -22.828125 C 17.207031 -23.753906 17.738281 -24.117188 18.59375 -23.921875 C 19.457031 -23.734375 19.769531 -23.210938 19.53125 -22.359375 C 19.207031 -21.109375 18.816406 -19.820312 18.359375 -18.5 L 20.984375 -18.5 C 21.421875 -19.707031 21.8125 -21.070312 22.15625 -22.59375 C 22.3125 -23.425781 22.832031 -23.742188 23.71875 -23.546875 C 24.601562 -23.359375 24.898438 -22.800781 24.609375 -21.875 C 24.078125 -20.300781 23.6875 -19.175781 23.4375 -18.5 L 26 -18.5 C 26.8125 -18.5 27.21875 -18.09375 27.21875 -17.28125 C 27.21875 -16.476562 26.8125 -16.078125 26 -16.078125 L 23.40625 -16.078125 L 23.40625 -12.875 L 25.625 -12.875 C 26.375 -12.875 26.75 -12.5 26.75 -11.75 C 26.75 -10.976562 26.375 -10.59375 25.625 -10.59375 L 23.40625 -10.59375 L 23.40625 -7.15625 L 25.625 -7.15625 C 26.375 -7.15625 26.75 -6.78125 26.75 -6.03125 C 26.75 -5.257812 26.375 -4.875 25.625 -4.875 L 23.40625 -4.875 L 23.40625 -1.46875 L 26.3125 -1.46875 C 27.125 -1.46875 27.53125 -1.0625 27.53125 -0.25 C 27.53125 0.550781 27.125 0.953125 26.3125 0.953125 Z M 18.703125 -1.46875 L 20.921875 -1.46875 L 20.921875 -4.875 L 18.015625 -4.875 L 18.015625 -2.171875 C 18.015625 -1.703125 18.242188 -1.46875 18.703125 -1.46875 Z M 18.015625 -7.15625 L 20.921875 -7.15625 L 20.921875 -10.59375 L 18.015625 -10.59375 Z M 18.015625 -12.875 L 20.921875 -12.875 L 20.921875 -16.078125 L 18.015625 -16.078125 Z M 3.484375 -16.359375 C 3.117188 -15.785156 2.628906 -15.691406 2.015625 -16.078125 C 1.671875 -16.304688 1.460938 -16.539062 1.390625 -16.78125 C 1.328125 -17.019531 1.410156 -17.3125 1.640625 -17.65625 C 2.203125 -18.675781 2.6875 -19.878906 3.09375 -21.265625 C 3.207031 -21.742188 3.429688 -22.082031 3.765625 -22.28125 C 4.097656 -22.488281 4.488281 -22.546875 4.9375 -22.453125 L 5.015625 -22.421875 C 7.828125 -22.941406 9.972656 -23.460938 11.453125 -23.984375 C 11.929688 -24.148438 12.375 -24.046875 12.78125 -23.671875 C 13.613281 -22.929688 13.535156 -22.410156 12.546875 -22.109375 C 11.765625 -21.859375 10.863281 -21.625 9.84375 -21.40625 C 8.257812 -21.039062 6.707031 -20.765625 5.1875 -20.578125 C 4.6875 -18.941406 4.117188 -17.535156 3.484375 -16.359375 Z M 13.671875 -16.796875 C 12.984375 -16.484375 12.523438 -16.65625 12.296875 -17.3125 C 12.179688 -17.582031 11.988281 -17.988281 11.71875 -18.53125 C 11.46875 -19.03125 11.207031 -19.484375 10.9375 -19.890625 C 10.53125 -20.503906 10.675781 -20.953125 11.375 -21.234375 C 11.894531 -21.472656 12.304688 -21.367188 12.609375 -20.921875 C 13.304688 -19.878906 13.851562 -18.898438 14.25 -17.984375 C 14.488281 -17.460938 14.296875 -17.066406 13.671875 -16.796875 Z M 13.671875 -16.796875 "/></g></g></g><g fill="#697054" fill-opacity="1"><g transform="translate(33.419921, 26.013578)"><g><path d="M 3.3125 1.75 C 3.03125 1.851562 2.664062 1.78125 2.21875 1.53125 C 1.425781 1.082031 1.265625 0.425781 1.734375 -0.4375 C 2.597656 -2.351562 3.191406 -4.726562 3.515625 -7.5625 C 3.734375 -9.445312 3.84375 -11.765625 3.84375 -14.515625 L 3.84375 -21.015625 C 3.84375 -21.566406 4.015625 -22.015625 4.359375 -22.359375 C 4.703125 -22.710938 5.15625 -22.890625 5.71875 -22.890625 L 23.609375 -22.890625 C 24.160156 -22.890625 24.609375 -22.710938 24.953125 -22.359375 C 25.304688 -22.015625 25.484375 -21.566406 25.484375 -21.015625 L 25.484375 -17.546875 C 25.484375 -16.984375 25.304688 -16.53125 24.953125 -16.1875 C 24.609375 -15.84375 24.160156 -15.671875 23.609375 -15.671875 L 20.75 -15.671875 L 21.8125 -14.8125 C 22.082031 -14.59375 22.207031 -14.382812 22.1875 -14.1875 C 22.164062 -14 22.015625 -13.859375 21.734375 -13.765625 C 20.390625 -13.335938 18.65625 -12.914062 16.53125 -12.5 L 16.53125 -10.359375 L 23.234375 -11.34375 C 23.941406 -11.457031 24.351562 -11.160156 24.46875 -10.453125 C 24.582031 -9.710938 24.285156 -9.285156 23.578125 -9.171875 L 16.53125 -8.109375 L 16.53125 -5.890625 L 25.140625 -7.21875 C 25.828125 -7.332031 26.25 -7.03125 26.40625 -6.3125 C 26.5625 -5.582031 26.265625 -5.160156 25.515625 -5.046875 L 16.53125 -3.640625 L 16.53125 -1.9375 C 16.53125 -1.375 16.632812 -1.015625 16.84375 -0.859375 C 17.0625 -0.710938 17.546875 -0.640625 18.296875 -0.640625 L 23.203125 -0.640625 C 23.742188 -0.640625 24.117188 -0.789062 24.328125 -1.09375 C 24.441406 -1.769531 24.644531 -2.28125 24.9375 -2.625 C 25.28125 -3.050781 25.691406 -3.15625 26.171875 -2.9375 C 26.503906 -2.789062 26.726562 -2.484375 26.84375 -2.015625 C 26.9375 -1.617188 26.945312 -1.1875 26.875 -0.71875 C 26.632812 0.214844 26.257812 0.867188 25.75 1.234375 C 25.25 1.609375 24.46875 1.796875 23.40625 1.796875 L 18.03125 1.796875 C 16.394531 1.796875 15.300781 1.539062 14.75 1.03125 C 14.207031 0.53125 13.9375 -0.445312 13.9375 -1.90625 L 13.9375 -3.234375 L 8.25 -2.34375 C 7.539062 -2.226562 7.113281 -2.539062 6.96875 -3.28125 C 6.820312 -4.019531 7.125 -4.445312 7.875 -4.5625 L 13.9375 -5.515625 L 13.9375 -7.703125 L 9 -6.953125 C 8.269531 -6.835938 7.847656 -7.132812 7.734375 -7.84375 C 7.578125 -8.59375 7.875 -9.023438 8.625 -9.140625 L 13.9375 -9.953125 L 13.9375 -12 C 13.726562 -11.96875 13.398438 -11.921875 12.953125 -11.859375 C 11.316406 -11.609375 10.109375 -11.4375 9.328125 -11.34375 C 8.703125 -11.257812 8.285156 -11.5 8.078125 -12.0625 C 7.804688 -12.789062 8.113281 -13.210938 9 -13.328125 C 13.675781 -13.960938 17.378906 -14.742188 20.109375 -15.671875 L 6.515625 -15.671875 L 6.515625 -14.546875 C 6.515625 -7.867188 5.707031 -2.722656 4.09375 0.890625 C 3.863281 1.359375 3.601562 1.644531 3.3125 1.75 Z M 6.515625 -17.953125 L 22.109375 -17.953125 C 22.566406 -17.953125 22.796875 -18.179688 22.796875 -18.640625 L 22.796875 -19.90625 C 22.796875 -20.375 22.566406 -20.609375 22.109375 -20.609375 L 7.21875 -20.609375 C 6.75 -20.609375 6.515625 -20.375 6.515625 -19.90625 Z M 6.515625 -17.953125 "/></g></g></g><g fill="#697054" fill-opacity="1"><g transform="translate(65.739014, 26.013578)"><g><path d="M 4.703125 0.578125 C 4.273438 1.398438 3.648438 1.550781 2.828125 1.03125 C 2.421875 0.78125 2.171875 0.523438 2.078125 0.265625 C 1.984375 -0.0234375 2.050781 -0.363281 2.28125 -0.75 C 2.351562 -0.90625 2.46875 -1.128906 2.625 -1.421875 C 3.1875 -2.492188 3.609375 -3.335938 3.890625 -3.953125 C 4.492188 -5.160156 5.0625 -6.382812 5.59375 -7.625 C 5.957031 -8.539062 6.554688 -8.703125 7.390625 -8.109375 C 8.003906 -7.671875 8.164062 -7.125 7.875 -6.46875 C 6.851562 -3.96875 5.796875 -1.617188 4.703125 0.578125 Z M 11.3125 0.953125 C 10.75 0.953125 10.296875 0.773438 9.953125 0.421875 C 9.609375 0.078125 9.4375 -0.367188 9.4375 -0.921875 L 9.4375 -14.984375 C 9.4375 -15.535156 9.609375 -15.984375 9.953125 -16.328125 C 10.296875 -16.679688 10.75 -16.859375 11.3125 -16.859375 L 14.140625 -16.859375 L 14.140625 -20.203125 L 9.75 -20.203125 C 8.945312 -20.203125 8.546875 -20.613281 8.546875 -21.4375 C 8.546875 -22.25 8.945312 -22.65625 9.75 -22.65625 L 26.09375 -22.65625 C 26.894531 -22.65625 27.296875 -22.25 27.296875 -21.4375 C 27.296875 -20.613281 26.894531 -20.203125 26.09375 -20.203125 L 21.265625 -20.203125 L 21.265625 -16.859375 L 24.53125 -16.859375 C 25.09375 -16.859375 25.546875 -16.679688 25.890625 -16.328125 C 26.234375 -15.984375 26.40625 -15.535156 26.40625 -14.984375 L 26.40625 -0.921875 C 26.40625 -0.367188 26.234375 0.078125 25.890625 0.421875 C 25.546875 0.773438 25.09375 0.953125 24.53125 0.953125 Z M 12.546875 -1.390625 L 23.171875 -1.390625 C 23.628906 -1.390625 23.859375 -1.617188 23.859375 -2.078125 L 23.859375 -4.15625 L 11.859375 -4.15625 L 11.859375 -2.078125 C 11.859375 -1.617188 12.085938 -1.390625 12.546875 -1.390625 Z M 11.859375 -6.4375 L 23.859375 -6.4375 L 23.859375 -8.796875 L 21.234375 -8.796875 C 20.253906 -8.796875 19.597656 -8.976562 19.265625 -9.34375 C 18.929688 -9.71875 18.765625 -10.429688 18.765625 -11.484375 L 18.765625 -14.515625 L 16.59375 -14.515625 L 16.59375 -13.625 C 16.59375 -11.601562 15.878906 -9.957031 14.453125 -8.6875 C 13.429688 -7.976562 12.566406 -7.988281 11.859375 -8.71875 Z M 11.859375 -9.375 C 13.648438 -10.4375 14.546875 -11.863281 14.546875 -13.65625 L 14.546875 -14.515625 L 12.546875 -14.515625 C 12.085938 -14.515625 11.859375 -14.285156 11.859375 -13.828125 Z M 21.5 -10.9375 L 23.375 -10.9375 C 23.582031 -10.9375 23.742188 -10.957031 23.859375 -11 L 23.859375 -13.828125 C 23.859375 -14.285156 23.628906 -14.515625 23.171875 -14.515625 L 20.859375 -14.515625 L 20.859375 -11.515625 C 20.859375 -11.265625 20.898438 -11.101562 20.984375 -11.03125 C 21.078125 -10.96875 21.25 -10.9375 21.5 -10.9375 Z M 6.703125 -12.4375 C 6.179688 -11.6875 5.582031 -11.535156 4.90625 -11.984375 C 4.789062 -12.054688 4.585938 -12.179688 4.296875 -12.359375 C 4.046875 -12.503906 3.851562 -12.617188 3.71875 -12.703125 C 3.5625 -12.796875 3.328125 -12.929688 3.015625 -13.109375 C 2.710938 -13.296875 2.488281 -13.425781 2.34375 -13.5 C 1.550781 -13.925781 1.429688 -14.503906 1.984375 -15.234375 C 2.410156 -15.828125 2.953125 -15.960938 3.609375 -15.640625 C 4.453125 -15.203125 5.40625 -14.703125 6.46875 -14.140625 C 6.832031 -13.910156 7.023438 -13.664062 7.046875 -13.40625 C 7.078125 -13.144531 6.960938 -12.820312 6.703125 -12.4375 Z M 16.484375 -16.859375 L 18.84375 -16.859375 L 18.84375 -20.203125 L 16.484375 -20.203125 Z M 6.71875 -19.234375 C 6.4375 -19.179688 6.113281 -19.28125 5.75 -19.53125 C 5.707031 -19.550781 5.644531 -19.59375 5.5625 -19.65625 C 5.164062 -19.925781 4.851562 -20.128906 4.625 -20.265625 C 4.46875 -20.359375 4.234375 -20.503906 3.921875 -20.703125 C 3.617188 -20.910156 3.390625 -21.0625 3.234375 -21.15625 C 2.503906 -21.570312 2.414062 -22.140625 2.96875 -22.859375 C 3.4375 -23.429688 3.957031 -23.566406 4.53125 -23.265625 C 5.375 -22.796875 6.328125 -22.242188 7.390625 -21.609375 C 7.753906 -21.378906 7.945312 -21.128906 7.96875 -20.859375 C 7.96875 -20.609375 7.832031 -20.289062 7.5625 -19.90625 C 7.289062 -19.519531 7.007812 -19.296875 6.71875 -19.234375 Z M 6.71875 -19.234375 "/></g></g></g><g fill="#697054" fill-opacity="1"><g transform="translate(98.058107, 26.013578)"><g><path d="M 19.90625 2.21875 C 18.875 2.21875 18.242188 1.882812 18.015625 1.21875 C 17.660156 0.21875 18.21875 -0.265625 19.6875 -0.234375 C 20.164062 -0.234375 20.632812 -0.234375 21.09375 -0.234375 C 21.320312 -0.253906 21.472656 -0.296875 21.546875 -0.359375 C 21.628906 -0.429688 21.671875 -0.570312 21.671875 -0.78125 L 21.671875 -7.828125 L 12.46875 -7.828125 C 11.675781 -7.828125 11.28125 -8.21875 11.28125 -9 C 11.28125 -9.789062 11.675781 -10.1875 12.46875 -10.1875 L 21.671875 -10.1875 L 21.671875 -13.078125 L 12.375 -13.078125 C 11.59375 -13.078125 11.203125 -13.46875 11.203125 -14.25 C 11.203125 -15.039062 11.59375 -15.4375 12.375 -15.4375 L 18.015625 -15.4375 L 18.015625 -18.609375 L 13.453125 -18.609375 C 12.679688 -18.609375 12.296875 -19.003906 12.296875 -19.796875 C 12.296875 -20.566406 12.679688 -20.953125 13.453125 -20.953125 L 18.015625 -20.953125 L 18.015625 -22.921875 C 18.015625 -23.796875 18.453125 -24.234375 19.328125 -24.234375 C 20.210938 -24.234375 20.65625 -23.796875 20.65625 -22.921875 L 20.65625 -20.953125 L 25.390625 -20.953125 C 26.160156 -20.953125 26.546875 -20.566406 26.546875 -19.796875 C 26.546875 -19.003906 26.160156 -18.609375 25.390625 -18.609375 L 20.65625 -18.609375 L 20.65625 -15.4375 L 26.40625 -15.4375 C 27.195312 -15.4375 27.59375 -15.039062 27.59375 -14.25 C 27.59375 -13.46875 27.195312 -13.078125 26.40625 -13.078125 L 24.296875 -13.078125 L 24.296875 -10.1875 L 26.140625 -10.1875 C 26.929688 -10.1875 27.328125 -9.789062 27.328125 -9 C 27.328125 -8.21875 26.929688 -7.828125 26.140625 -7.828125 L 24.296875 -7.828125 L 24.296875 -0.71875 C 24.296875 -0.0078125 24.195312 0.535156 24 0.921875 C 23.8125 1.304688 23.488281 1.597656 23.03125 1.796875 C 22.351562 2.046875 21.3125 2.1875 19.90625 2.21875 Z M 17.453125 -1.671875 C 16.628906 -1.148438 16.015625 -1.304688 15.609375 -2.140625 C 15.535156 -2.253906 15.421875 -2.425781 15.265625 -2.65625 C 15.078125 -2.957031 14.925781 -3.1875 14.8125 -3.34375 C 14.425781 -3.882812 14.046875 -4.367188 13.671875 -4.796875 C 13.054688 -5.523438 13.164062 -6.117188 14 -6.578125 C 14.613281 -6.921875 15.148438 -6.832031 15.609375 -6.3125 C 16.691406 -5.101562 17.492188 -4.078125 18.015625 -3.234375 C 18.179688 -2.890625 18.21875 -2.59375 18.125 -2.34375 C 18.050781 -2.125 17.828125 -1.898438 17.453125 -1.671875 Z M 4.1875 -3.3125 C 3.625 -3.3125 3.171875 -3.484375 2.828125 -3.828125 C 2.484375 -4.179688 2.3125 -4.632812 2.3125 -5.1875 L 2.3125 -20.515625 C 2.3125 -21.078125 2.484375 -21.53125 2.828125 -21.875 C 3.171875 -22.21875 3.625 -22.390625 4.1875 -22.390625 L 8.828125 -22.390625 C 9.390625 -22.390625 9.84375 -22.21875 10.1875 -21.875 C 10.53125 -21.53125 10.703125 -21.078125 10.703125 -20.515625 L 10.703125 -5.1875 C 10.703125 -4.632812 10.53125 -4.179688 10.1875 -3.828125 C 9.84375 -3.484375 9.390625 -3.3125 8.828125 -3.3125 Z M 5.453125 -5.71875 L 7.5 -5.71875 C 7.96875 -5.71875 8.203125 -5.945312 8.203125 -6.40625 L 8.203125 -11.796875 L 4.765625 -11.796875 L 4.765625 -6.40625 C 4.765625 -5.945312 4.992188 -5.71875 5.453125 -5.71875 Z M 4.765625 -14.171875 L 8.203125 -14.171875 L 8.203125 -19.28125 C 8.203125 -19.738281 7.96875 -19.96875 7.5 -19.96875 L 5.453125 -19.96875 C 4.992188 -19.96875 4.765625 -19.738281 4.765625 -19.28125 Z M 4.765625 -14.171875 "/></g></g></g><g fill="#697054" fill-opacity="1"><g transform="translate(130.377199, 26.013578)"><g><path d="M 4.46875 1.609375 C 3.3125 2.054688 2.515625 1.960938 2.078125 1.328125 C 1.753906 0.847656 1.765625 0.382812 2.109375 -0.0625 C 2.398438 -0.40625 2.890625 -0.710938 3.578125 -0.984375 C 5.578125 -1.984375 6.992188 -3.367188 7.828125 -5.140625 C 8.441406 -6.441406 8.863281 -8.375 9.09375 -10.9375 L 3.03125 -10.9375 C 2.1875 -10.9375 1.765625 -11.367188 1.765625 -12.234375 C 1.765625 -13.078125 2.1875 -13.5 3.03125 -13.5 L 13.015625 -13.5 L 13.015625 -22.890625 C 13.015625 -23.773438 13.46875 -24.21875 14.375 -24.21875 C 15.257812 -24.21875 15.703125 -23.773438 15.703125 -22.890625 L 15.703125 -13.5 L 25.890625 -13.5 C 26.734375 -13.5 27.15625 -13.078125 27.15625 -12.234375 C 27.15625 -11.367188 26.734375 -10.9375 25.890625 -10.9375 L 19.3125 -10.9375 L 19.3125 -1.46875 C 19.3125 -0.988281 19.378906 -0.675781 19.515625 -0.53125 C 19.660156 -0.382812 19.992188 -0.3125 20.515625 -0.3125 L 23.75 -0.3125 C 24.070312 -0.3125 24.3125 -0.398438 24.46875 -0.578125 C 24.644531 -0.765625 24.769531 -1.128906 24.84375 -1.671875 C 24.90625 -2.484375 25.070312 -3.148438 25.34375 -3.671875 C 25.664062 -4.335938 26.085938 -4.546875 26.609375 -4.296875 C 26.929688 -4.140625 27.148438 -3.765625 27.265625 -3.171875 C 27.367188 -2.734375 27.398438 -2.253906 27.359375 -1.734375 C 27.160156 -0.210938 26.816406 0.816406 26.328125 1.359375 C 25.835938 1.910156 25.054688 2.1875 23.984375 2.1875 L 20.171875 2.1875 C 18.785156 2.1875 17.847656 1.929688 17.359375 1.421875 C 16.867188 0.910156 16.625 -0.0507812 16.625 -1.46875 L 16.625 -10.9375 L 11.921875 -10.9375 C 11.628906 -7.707031 11.050781 -5.222656 10.1875 -3.484375 C 9.050781 -1.253906 7.144531 0.441406 4.46875 1.609375 Z M 8.578125 -15.4375 C 7.648438 -15.050781 7.050781 -15.289062 6.78125 -16.15625 C 6.53125 -16.875 6.242188 -17.585938 5.921875 -18.296875 C 5.453125 -19.335938 5.046875 -20.164062 4.703125 -20.78125 C 4.242188 -21.582031 4.46875 -22.148438 5.375 -22.484375 C 6.082031 -22.753906 6.617188 -22.582031 6.984375 -21.96875 C 8.117188 -19.976562 8.9375 -18.300781 9.4375 -16.9375 C 9.550781 -16.550781 9.539062 -16.242188 9.40625 -16.015625 C 9.25 -15.804688 8.972656 -15.613281 8.578125 -15.4375 Z M 21.84375 -15.78125 C 21.476562 -15.257812 20.96875 -15.125 20.3125 -15.375 C 19.445312 -15.726562 19.226562 -16.269531 19.65625 -17 C 20.570312 -18.65625 21.34375 -20.257812 21.96875 -21.8125 C 22.3125 -22.71875 22.925781 -23.007812 23.8125 -22.6875 C 24.769531 -22.332031 25.019531 -21.695312 24.5625 -20.78125 C 24 -19.664062 23.578125 -18.847656 23.296875 -18.328125 C 22.796875 -17.378906 22.3125 -16.53125 21.84375 -15.78125 Z M 21.84375 -15.78125 "/></g></g></g></g></g></svg>